<?xml version="1.0" encoding="UTF-8" standalone="no"?>
<!-- Generator: Adobe Illustrator 25.2.0, SVG Export Plug-In . SVG Version: 6.00 Build 0)  -->

<svg
   version="1.1"
   id="Capa_1"
   x="0px"
   y="0px"
   viewBox="0 0 2012.6 1445.67"
   style="enable-background:new 0 0 2012.6 1445.67;"
   xml:space="preserve"
   sodipodi:docname="01.svg"
   inkscape:export-filename="/home/kan/RiderProjects/gestalt/Assets/Logo/01.png"
   inkscape:export-xdpi="96"
   inkscape:export-ydpi="96"
   inkscape:version="1.1.1 (3bf5ae0d25, 2021-09-20)"
   xmlns:inkscape="http://www.inkscape.org/namespaces/inkscape"
   xmlns:sodipodi="http://sodipodi.sourceforge.net/DTD/sodipodi-0.dtd"
   xmlns="http://www.w3.org/2000/svg"
   xmlns:svg="http://www.w3.org/2000/svg"><defs
   id="defs127" /><sodipodi:namedview
   id="namedview125"
   pagecolor="#ffffff"
   bordercolor="#666666"
   borderopacity="1.0"
   inkscape:pageshadow="2"
   inkscape:pageopacity="0.0"
   inkscape:pagecheckerboard="0"
   showgrid="false"
   inkscape:zoom="0.062860125"
   inkscape:cx="-5265.6592"
   inkscape:cy="3030.538"
   inkscape:window-width="1920"
   inkscape:window-height="1080"
   inkscape:window-x="0"
   inkscape:window-y="0"
   inkscape:window-maximized="1"
   inkscape:current-layer="Capa_1" />
<style
   type="text/css"
   id="style2">
	.st0{fill:none;}
	.st1{fill:#FFFFFF;}
	.st2{fill:url(#SVGID_1_);}
	.st3{fill:url(#SVGID_2_);}
	.st4{fill:url(#SVGID_3_);}
	.st5{fill:url(#SVGID_4_);}
</style>
<g
   id="g122">
	<g
   id="g92">
		<path
   class="st0"
   d="M1274.17,836.97c10.06,9.75,22.65,15.26,37.75,16.52h14.16c11.01,0,20.21-0.63,27.6-1.89    c7.39-1.25,13.6-3.69,18.64-7.31c5.03-3.61,9.2-8.57,12.5-14.86c1.41-2.69,2.8-5.77,4.19-9.2L1259.1,797.5    c-0.01,0.58-0.03,1.15-0.03,1.72C1259.07,814.64,1264.1,827.22,1274.17,836.97z"
   id="path4" />
		<path
   class="st0"
   d="M570.04,485.81c-4.14-2.33-9.28-3.49-15.44-3.49c-3.01,0-6.13,0.38-9.36,1.13c-3.23,0.75-6.35,1.88-9.36,3.38    c-3.01,1.5-5.71,3.42-8.12,5.75c-2.41,2.33-4.21,5-5.41,8v0.68v0.45c0.6-0.15,1.92-0.37,3.95-0.68c2.03-0.3,3.34-0.45,3.95-0.45    h25.92c1.05,0,2.85-0.04,5.41-0.11c2.55-0.07,5.26-0.15,8.12-0.22c2.85-0.07,5.56-0.15,8.12-0.23c2.55-0.07,4.36-0.19,5.41-0.34    v-0.9c0-1.2-0.38-2.1-1.13-2.71C578.19,491.56,574.17,488.14,570.04,485.81z"
   id="path6" />
		<path
   class="st0"
   d="M1489.2,837.74c-0.22,6.26-0.47,12.59-0.8,19.04c-0.19,3.72-0.45,7.43-0.75,11.14l82.61-12.65    c0.02-1.11,0.03-2.23,0.05-3.34L1489.2,837.74z"
   id="path8" />
		<path
   class="st0"
   d="M1200.56,887.69c-5.03-5.82-9.44-12.27-13.21-19.35c-3.77-7.08-7.39-15.49-10.85-25.24    c-4.09-11.01-6.45-23.04-7.08-36.1c-0.43-8.77-0.69-17.2-0.83-25.34l-83.79-14.66c-1.67,13.73-3.64,27.61-5.97,41.65    c0,0.63-0.4,2.91-1.18,6.84c-0.79,3.94-1.65,8.49-2.59,13.68c-0.08,0.42-0.16,0.85-0.24,1.27l69.08-2.46l0.6,16.82l-73.07,2.61    c-0.84,3.96-1.52,7.27-2.03,9.85c-2.83,11.32-6.69,21.63-11.56,30.91c-4.88,9.28-11.09,18.48-18.64,27.6    c-7.55,8.49-15.65,14.47-24.3,17.93c-8.66,3.46-18.01,6.92-28.08,10.38c-1.58,0.31-3.3,0.71-5.19,1.18    c-0.54,0.14-1,0.25-1.41,0.34l244.36-37.41c-2.4-1.58-4.67-3.15-6.78-4.69C1211.34,898.78,1205.59,893.52,1200.56,887.69z"
   id="path10" />
		<path
   class="st0"
   d="M1394.73,796.15c0.15-4.25,0.24-7.15,0.24-8.73c0-7.55-0.63-15.34-1.89-23.36    c-1.26-8.02-3.47-15.57-6.61-22.65c-3.15-7.08-7.55-13.29-13.21-18.64c-5.66-5.34-12.74-8.96-21.23-10.85c-0.32,0-1.18,0-2.6,0    c-1.42,0-2.91-0.07-4.48-0.24c-1.58-0.15-3.15-0.24-4.72-0.24c-1.58,0-2.68,0-3.3,0c-5.35,0-10.31,0.24-14.86,0.71    c-4.56,0.47-9.2,1.65-13.92,3.54c-7.55,3.15-14.39,7.79-20.53,13.92c-6.13,6.13-11.33,13.06-15.57,20.76    c-4.25,7.71-7.48,15.81-9.67,24.3c-0.53,2.04-0.99,4.06-1.39,6.06l133.51,23.35C1394.51,802.73,1394.58,800.09,1394.73,796.15z"
   id="path12" />
		<path
   class="st0"
   d="M1024.62,535.18c0.9-3.08,1.5-6.27,1.8-9.58c0.3-3.3,0.45-6.46,0.45-9.47v-9.69    c-0.3-0.45-0.72-1.24-1.24-2.37c-0.53-1.13-1.09-2.29-1.69-3.49c-0.6-1.2-1.2-2.33-1.8-3.38c-0.6-1.05-0.98-1.8-1.13-2.25    c-0.15-0.3-0.45-0.82-0.9-1.58c-0.45-0.75-0.83-1.2-1.13-1.35c-3.46-3.91-7.4-7.14-11.84-9.69c-4.43-2.55-9.28-3.83-14.54-3.83    c-2.86,0-5.64,0.19-8.34,0.56c-2.71,0.38-5.26,1.46-7.66,3.27c-0.3,0.3-1.28,1.32-2.93,3.04c-1.66,1.73-2.86,2.97-3.61,3.72    c-4.06,4.36-6.73,9.02-8,13.98c-1.28,4.96-1.92,10.3-1.92,16c0,2.11,0.15,4.21,0.45,6.31c0.3,2.11,0.82,4.13,1.58,6.09    c0.3,0.75,0.71,1.66,1.24,2.71c0.53,1.05,1.05,2.07,1.58,3.04c0.52,0.98,1.01,1.88,1.47,2.7c0.45,0.83,0.68,1.32,0.68,1.47    c0.13,0.13,0.57,0.54,1.27,1.19l51.37,3.14c0.4-0.56,0.78-1.13,1.12-1.74C1022.48,541.19,1023.72,538.26,1024.62,535.18z"
   id="path14" />
		<path
   class="st1"
   d="M362.3,523.8c0.3,2.11,1.2,3.68,2.71,4.73h10.59c3.91,0,7.89-0.15,11.95-0.45c4.06-0.3,8.12-0.45,12.17-0.45    c0,3.01-0.26,6.09-0.79,9.24c-0.53,3.16-1.77,5.86-3.72,8.12l-6.76,6.76c-0.3,0.15-1.17,0.56-2.59,1.24    c-1.43,0.68-2.44,1.17-3.04,1.46c-3.61,1.5-6.8,2.56-9.58,3.16c-2.78,0.6-6.05,0.9-9.81,0.9c-6.76,0-12.62-0.71-17.58-2.14    c-4.96-1.43-9.36-3.57-13.19-6.42c-3.83-2.85-7.21-6.46-10.14-10.82c-2.93-4.36-5.75-9.47-8.45-15.33    c-0.71-1.6-1.32-3.08-1.87-4.49l-47.86-2.93c0.9,5.69,2.67,11.32,5.32,16.89c0.45,1.05,1.16,2.56,2.14,4.51    c0.98,1.96,1.99,3.95,3.04,5.97c1.05,2.03,1.99,3.91,2.82,5.64c0.82,1.73,1.39,2.82,1.69,3.27c0.3,0.3,0.79,0.94,1.47,1.92    c0.68,0.98,1.16,1.62,1.47,1.92c0.75,0.9,2.03,2.29,3.83,4.17c1.8,1.88,3.68,3.76,5.64,5.64c1.95,1.88,3.79,3.65,5.52,5.3    c1.73,1.66,2.82,2.71,3.27,3.16c1.5,1.5,3.46,3.12,5.86,4.85c2.4,1.73,4.66,2.97,6.76,3.72c0.6,0.3,1.61,0.75,3.04,1.35    c1.43,0.6,2.85,1.24,4.28,1.92c1.43,0.68,2.74,1.24,3.95,1.69c1.2,0.45,1.95,0.75,2.25,0.9c3.46,1.66,10.37,3.08,20.74,4.28    c10.37,1.2,24.04,1.13,41.03-0.23c3.61,0,7.25-0.79,10.93-2.37c3.68-1.58,7.18-3.57,10.48-5.97c3.3-2.4,6.27-5.07,8.9-8    c2.63-2.93,4.77-5.82,6.42-8.68c4.36-8.12,7.7-16.12,10.03-24.01c1.61-5.46,2.65-11.19,3.15-17.18l-76.07-4.65V523.8z"
   id="path16" />
		<path
   class="st1"
   d="M438.27,509.03c-0.3-1.73-0.53-2.97-0.68-3.72c-0.15-1.05-0.42-2.55-0.79-4.51c-0.38-1.95-0.9-3.87-1.58-5.75    c-0.68-1.88-1.54-3.49-2.59-4.85c-1.05-1.35-2.33-2.1-3.83-2.25h-4.06h-4.51c-2.71,0.15-5.86,0.34-9.47,0.56    c-3.61,0.23-7.4,0.45-11.38,0.68c-3.98,0.23-7.93,0.42-11.83,0.56c-3.91,0.15-7.44,0.34-10.6,0.56    c-3.16,0.22-6.69,0.42-10.59,0.56l-2.03,1.13c-0.15,0-0.3,0.64-0.45,1.92c-0.15,1.28-0.34,2.86-0.56,4.73    c-0.22,1.88-0.45,3.8-0.68,5.75c-0.04,0.39-0.08,0.75-0.12,1.11l75.94,4.64C438.41,509.83,438.34,509.45,438.27,509.03z"
   id="path18" />
		<path
   class="st1"
   d="M308.2,495.17c0-4.96,0.86-9.73,2.59-14.32c1.73-4.58,3.79-8.98,6.2-13.19c3.16-5.86,6.35-10.67,9.58-14.43    c3.23-3.76,6.84-6.72,10.82-8.91c3.98-2.18,8.41-3.68,13.3-4.51c4.88-0.82,10.56-1.24,17.02-1.24c0.6,0,1.47,0,2.59,0    s2.22,0.04,3.27,0.11c1.05,0.08,1.99,0.11,2.82,0.11c0.82,0,1.31,0,1.47,0c0.3,0,1.13,0.15,2.48,0.45c1.35,0.3,2.78,0.6,4.28,0.9    c1.5,0.3,2.93,0.64,4.28,1.01c1.35,0.38,2.18,0.56,2.48,0.56h3.16h3.38c0.75-0.45,1.39-1.31,1.92-2.59    c0.53-1.27,0.86-2.06,1.01-2.37c0.3-0.75,0.79-2.14,1.46-4.17c0.68-2.03,1.35-4.17,2.03-6.42c0.68-2.25,1.35-4.4,2.03-6.42    c0.68-2.03,1.16-3.42,1.46-4.17v-3.83c0-0.75,0-1.73,0-2.93c0-1.2-0.38-2.18-1.13-2.93c-0.45-0.15-1.13-0.49-2.03-1.01    c-0.9-0.52-1.84-1.01-2.82-1.47c-0.98-0.45-1.92-0.9-2.82-1.35c-0.9-0.45-1.5-0.75-1.8-0.9c-0.3,0-0.83-0.15-1.58-0.45    c-0.75-0.3-1.2-0.45-1.35-0.45c-9.92-1.95-18.49-3.19-25.7-3.72c-7.21-0.52-13.56-0.64-19.05-0.34    c-5.49,0.3-10.37,0.94-14.65,1.92c-4.28,0.98-8.38,1.99-12.29,3.04c-4.06,1.05-7.86,2.67-11.38,4.85    c-3.53,2.18-6.91,4.62-10.15,7.33c-3.23,2.71-6.35,5.64-9.36,8.79c-3.01,3.16-5.86,6.16-8.57,9.02c-2.11,2.25-3.76,4.47-4.96,6.65    c-1.2,2.18-2.41,4.77-3.61,7.78c-2.56,5.71-4.89,11.42-6.99,17.13c-2.11,5.71-3.68,11.5-4.73,17.36v14.2    c0,1.73,0.03,3.45,0.08,5.17l45.4,2.78C308.25,500.15,308.2,497.81,308.2,495.17z"
   id="path20" />
		<path
   class="st1"
   d="M476.03,542.85c1.27,5.79,3.3,11.05,6.09,15.78c2.78,4.73,6.31,9.24,10.6,13.53    c4.28,4.28,9.36,8.83,15.22,13.64c1.65,1.2,3.34,2.41,5.07,3.61c1.73,1.2,3.57,2.18,5.52,2.93c1.95,0.75,4.21,1.46,6.76,2.14    c2.55,0.68,4.88,1.24,6.99,1.69c0.6,0.15,1.61,0.37,3.04,0.68c1.43,0.3,2.29,0.45,2.59,0.45h33.81c1.35-0.3,2.71-0.68,4.06-1.13    c1.2-0.3,2.37-0.6,3.49-0.9c1.13-0.3,2.06-0.6,2.82-0.9c2.55-0.75,5.03-1.8,7.44-3.16c2.4-1.35,4.43-2.85,6.09-4.51    c0.6-0.6,1.73-1.69,3.38-3.27c1.65-1.58,3.34-3.23,5.07-4.96c1.73-1.73,3.34-3.38,4.85-4.96c1.5-1.58,2.55-2.67,3.16-3.27    c1.05-0.75,1.69-1.58,1.92-2.48c0.22-0.9,0.34-1.95,0.34-3.16c0-2.1-1.05-3.95-3.16-5.52c-2.11-1.58-3.98-2.97-5.64-4.17    c-0.45-0.45-1.24-1.05-2.37-1.8c-1.13-0.75-2.25-1.54-3.38-2.37c-1.13-0.82-2.18-1.58-3.16-2.25c-0.98-0.68-1.62-1.16-1.92-1.47    c-0.75-0.6-1.28-0.94-1.58-1.01c-0.3-0.07-0.9-0.11-1.8-0.11c-0.75,0-1.28,0.04-1.58,0.11c-0.3,0.08-0.83,0.42-1.58,1.01    c-0.3,0.3-1.09,0.87-2.37,1.69c-1.28,0.83-2.63,1.73-4.06,2.71c-1.43,0.98-2.74,1.92-3.95,2.82c-1.2,0.9-1.95,1.43-2.25,1.58    c-4.51,2.71-9.13,4.51-13.86,5.41c-4.73,0.9-9.73,1.35-14.99,1.35c-0.45,0-1.13,0-2.03,0c-0.9,0-1.88-0.04-2.93-0.11    c-1.05-0.07-2.07-0.11-3.04-0.11c-0.98,0-1.62,0-1.92,0c-6.76-1.5-12.06-4.51-15.89-9.02c-3.83-4.51-6.5-10.15-8-16.91v-0.68    v-0.23c0-0.45,0.3-0.82,0.9-1.13c1.95,0,5,0.04,9.13,0.11c4.13,0.08,8.79,0.11,13.98,0.11s10.63,0,16.34,0c3.23,0,6.36,0,9.42,0    l-88.36-5.4C474.57,534.28,475.14,538.83,476.03,542.85z"
   id="path22" />
		<path
   class="st1"
   d="M621.77,520.98c0.15-2.18,0.22-4.54,0.22-7.1c0-11.72-3.01-22.84-9.02-33.36c-2.41-4.36-5.45-8.49-9.13-12.4    c-3.68-3.91-7.74-7.36-12.17-10.37c-4.43-3.01-9.1-5.56-13.98-7.66c-4.89-2.1-9.73-3.53-14.54-4.28c-0.45,0-1.32,0-2.59,0    c-1.28,0-2.59-0.04-3.95-0.11c-1.35-0.07-2.63-0.11-3.83-0.11c-1.2,0-2.03,0-2.48,0c-3.91,0-7.63,0.04-11.16,0.11    c-3.53,0.08-7.18,0.71-10.93,1.92c-6.46,2.11-12.4,4.62-17.81,7.55c-5.41,2.93-10.45,6.8-15.1,11.61    c-1.8,2.11-3.91,4.55-6.31,7.33c-2.41,2.78-4.14,5.52-5.18,8.23c-0.15,0.45-0.42,1.28-0.79,2.48c-0.38,1.2-0.79,2.41-1.24,3.61    c-0.45,1.2-0.83,2.33-1.13,3.38c-0.3,1.05-0.53,1.8-0.68,2.25c-1.66,5.26-3.04,9.96-4.17,14.09c-0.37,1.35-0.66,2.79-0.9,4.26    l146.83,8.98C621.74,521.24,621.76,521.11,621.77,520.98z M583.22,499.68c-1.05,0.15-2.86,0.26-5.41,0.34    c-2.56,0.08-5.26,0.15-8.12,0.23c-2.86,0.08-5.56,0.15-8.12,0.22c-2.56,0.08-4.36,0.11-5.41,0.11h-25.92    c-0.6,0-1.92,0.15-3.95,0.45c-2.03,0.3-3.35,0.53-3.95,0.68v-0.45v-0.68c1.2-3,3.01-5.67,5.41-8c2.4-2.33,5.11-4.24,8.12-5.75    c3.01-1.5,6.12-2.63,9.36-3.38c3.23-0.75,6.35-1.13,9.36-1.13c6.16,0,11.31,1.17,15.44,3.49c4.13,2.33,8.15,5.75,12.06,10.26    c0.75,0.6,1.13,1.5,1.13,2.71V499.68z"
   id="path24" />
		<path
   class="st1"
   d="M755,528.53c-3.61-4.06-7.21-7.85-10.82-11.38c-3.61-3.53-7.82-6.57-12.62-9.13    c-2.71-1.35-5.97-2.74-9.81-4.17c-3.83-1.43-6.88-3.19-9.13-5.3c-0.45-0.3-1.05-0.82-1.8-1.58c-0.75-0.75-1.54-1.5-2.37-2.25    c-0.83-0.75-1.62-1.5-2.37-2.25c-0.75-0.75-1.2-1.27-1.35-1.58c-0.75-0.75-1.13-1.46-1.13-2.14s0-1.54,0-2.59    c0-1.2,0.41-2.33,1.24-3.38c0.83-1.05,2.06-1.58,3.72-1.58c1.95,0,3.79,0.42,5.52,1.24c1.73,0.83,3.42,1.69,5.07,2.59    c0.6,0.3,1.61,0.9,3.04,1.8c1.43,0.9,2.97,1.88,4.62,2.93c1.65,1.05,3.19,2.07,4.62,3.04c1.43,0.98,2.44,1.69,3.04,2.14h1.35    c1.05,0,2.33-0.52,3.83-1.58c1.5-1.05,3.04-2.29,4.62-3.72c1.58-1.43,3.08-2.85,4.51-4.28c1.43-1.43,2.51-2.51,3.27-3.27    c0.3-0.3,0.79-0.86,1.47-1.69c0.68-0.82,1.43-1.69,2.25-2.59c0.82-0.9,1.58-1.77,2.25-2.59c0.68-0.82,1.16-1.39,1.47-1.69    c0.3-0.15,0.45-0.49,0.45-1.01c0-0.52,0-0.86,0-1.01c0-0.15,0-0.49,0-1.01c0-0.52-0.15-0.79-0.45-0.79c0-0.3-0.49-1.01-1.47-2.14    c-0.98-1.13-1.69-2.06-2.14-2.82c-7.21-7.81-14.65-13.45-22.32-16.91c-7.66-3.46-16.76-5.18-27.28-5.18    c-6.31,0-12.21,0.68-17.7,2.03c-5.49,1.35-10.26,3.49-14.32,6.42c-4.06,2.93-7.25,6.8-9.58,11.61    c-2.33,4.81-3.49,10.59-3.49,17.36c0,3.61,0.3,6.99,0.9,10.15c0.6,3.16,1.95,6.24,4.06,9.24c0.6,0.9,1.5,2.14,2.71,3.72    c1.2,1.58,2.4,3.19,3.61,4.85c1.2,1.66,2.29,3.16,3.27,4.51c0.98,1.35,1.61,2.18,1.92,2.48c0.15,0.3,0.6,0.83,1.35,1.58    c0.75,0.75,1.27,1.2,1.58,1.35c0.6,0.45,1.88,1.43,3.83,2.93c1.95,1.5,3.23,2.48,3.83,2.93c0.39,0.26,1.38,0.88,2.9,1.82    l64.68,3.96C755.57,529.23,755.31,528.87,755,528.53z"
   id="path26" />
		<path
   class="st1"
   d="M718.26,546.79c0.9,1.2,1.61,2.82,2.14,4.85c0.53,2.03,0.79,3.65,0.79,4.85c0,0.9-0.34,1.73-1.01,2.48    c-0.68,0.75-1.47,1.46-2.37,2.14c-0.9,0.68-1.84,1.2-2.82,1.58c-0.98,0.38-1.77,0.56-2.37,0.56c-6.31,0-12.48-1.69-18.49-5.07    c-6.01-3.38-11.2-7.18-15.56-11.38h-0.9h-0.9c-0.45,0.15-1.17,0.49-2.14,1.01c-0.98,0.53-1.62,0.87-1.92,1.01l-6.54,6.54    c-0.45,0.45-1.05,1.13-1.8,2.03c-0.75,0.9-1.54,1.8-2.37,2.71c-0.83,0.9-1.62,1.77-2.37,2.59c-0.75,0.83-1.2,1.32-1.35,1.47    c-0.6,0.75-0.9,1.43-0.9,2.03c0,0.6,0,1.35,0,2.25c0,0.9,0,1.66,0,2.25c0,0.6,0.3,1.28,0.9,2.03    c7.81,8.87,17.51,15.03,29.08,18.49c4.36,1.35,8.83,2.67,13.41,3.95c4.58,1.27,9.2,1.92,13.86,1.92c5.11,0,10.22-0.6,15.33-1.8    c5.11-1.2,9.62-3.53,13.53-6.99c3.16-2.85,5.93-5.71,8.34-8.57c2.4-2.85,4.43-5.82,6.09-8.9c1.65-3.08,2.89-6.39,3.72-9.92    c0.82-3.53,1.24-7.47,1.24-11.83c0-0.74-0.05-1.47-0.09-2.19l-47.37-2.9L718.26,546.79z"
   id="path28" />
		<path
   class="st1"
   d="M820.38,592.1c0,0.45,0.37,0.83,1.13,1.13c0.45,0.15,1.39,0.34,2.82,0.56c1.43,0.23,2.37,0.34,2.82,0.34    h33.81l1.8-0.9c0.3-3,0.49-5.52,0.56-7.55c0.07-2.03,0.19-4.13,0.34-6.31c0.15-2.18,0.23-4.02,0.23-5.52v-20.81l-43.35-2.65    C820.65,564.29,820.63,578.2,820.38,592.1z"
   id="path30" />
		<path
   class="st1"
   d="M863.89,492.91c2.55-0.3,5.56-0.56,9.02-0.79c3.46-0.22,6.54-0.94,9.24-2.14c0-0.15,0.07-0.23,0.23-0.23    c0.15,0,0.3-0.07,0.45-0.22l0.45-0.45v-36.97h-22.32c0-1.35-0.11-3.79-0.34-7.33c-0.23-3.53-0.45-7.33-0.68-11.38    c-0.23-4.06-0.45-7.85-0.68-11.38c-0.22-3.53-0.34-5.97-0.34-7.33c0-1.2-0.15-2.78-0.45-4.73c-0.3-1.95-0.45-3.01-0.45-3.16    l-2.03-0.9h-9.24c-4.66,0-9.06,0-13.19,0c-4.14,0-8.53,0.3-13.19,0.9c-0.75,1.66-1.17,3.53-1.24,5.64    c-0.08,2.11-0.11,3.98-0.11,5.64c0,4.81,0.23,9.58,0.68,14.32c0.45,4.73,0.68,9.36,0.68,13.86v4.96    c-3.31,0.45-6.73,0.83-10.26,1.13c-3.53,0.3-6.88,0.6-10.03,0.9c-1.35,1.05-2.18,2.07-2.48,3.04c-0.3,0.98-0.45,2.29-0.45,3.95    c0,4.81,0.11,9.62,0.34,14.43c0.23,4.81,0.79,9.62,1.69,14.43c0.3,0.75,1.09,1.24,2.37,1.46c1.28,0.23,2.06,0.34,2.37,0.34    c0.6,0,1.58,0.04,2.93,0.11c1.35,0.08,2.82,0.19,4.4,0.34c1.58,0.15,3.04,0.26,4.4,0.34c1.35,0.08,2.25,0.19,2.7,0.34    c1,13.83,1.64,27.67,1.96,41.5l43.57,2.66V492.91z"
   id="path32" />
		<path
   class="st1"
   d="M924.41,561.33c2.03,3.53,4.62,7.18,7.78,10.93c1.2,1.2,2.55,2.56,4.06,4.06c1.5,1.5,3.16,2.71,4.96,3.61    c0.75,0.45,2.14,1.17,4.17,2.14c2.03,0.98,4.13,2.03,6.31,3.16c2.18,1.13,4.28,2.18,6.31,3.16c2.03,0.98,3.42,1.62,4.17,1.92    c4.96,0.6,9.77,1.28,14.43,2.03c4.66,0.75,9.39,1.13,14.2,1.13c6.31,0,12.1-1.09,17.36-3.27c5.26-2.18,10.52-4.99,15.78-8.45h0.9    v1.13c0,0.15-0.15,0.75-0.45,1.8c-0.3,1.05-0.45,1.73-0.45,2.03v0.45v0.22c0.15,0.75,0.34,1.88,0.56,3.38    c0.23,1.5,0.34,2.33,0.34,2.48l1.13,1.13c0.75,0,2.06,0.07,3.95,0.22c1.88,0.15,3.91,0.26,6.09,0.34c2.18,0.07,4.24,0.15,6.2,0.23    c1.95,0.07,3.3,0.11,4.06,0.11c1.05,0,2.52-0.08,4.4-0.23c1.88-0.15,3.72-0.34,5.52-0.56c1.8-0.22,3.42-0.45,4.85-0.68    c1.43-0.22,2.29-0.42,2.59-0.56l2.7-1.35v-26.46l-144.32-8.82C922.73,558.19,923.52,559.78,924.41,561.33z"
   id="path34" />
		<path
   class="st1"
   d="M967.13,541.38c0-0.15-0.22-0.64-0.68-1.47c-0.45-0.82-0.94-1.73-1.47-2.7c-0.53-0.98-1.05-1.99-1.58-3.04    c-0.53-1.05-0.94-1.95-1.24-2.71c-0.75-1.95-1.28-3.98-1.58-6.09c-0.3-2.1-0.45-4.21-0.45-6.31c0-5.71,0.64-11.05,1.92-16    c1.27-4.96,3.95-9.62,8-13.98c0.75-0.75,1.95-1.99,3.61-3.72c1.65-1.73,2.63-2.74,2.93-3.04c2.4-1.8,4.96-2.89,7.66-3.27    c2.71-0.37,5.48-0.56,8.34-0.56c5.26,0,10.11,1.28,14.54,3.83c4.43,2.56,8.38,5.79,11.84,9.69c0.3,0.15,0.68,0.6,1.13,1.35    c0.45,0.75,0.75,1.28,0.9,1.58c0.15,0.45,0.52,1.2,1.13,2.25c0.6,1.05,1.2,2.18,1.8,3.38c0.6,1.2,1.16,2.37,1.69,3.49    c0.52,1.13,0.94,1.92,1.24,2.37v9.69c0,3.01-0.15,6.16-0.45,9.47c-0.3,3.31-0.9,6.5-1.8,9.58c-0.9,3.08-2.14,6.01-3.72,8.79    c-0.34,0.61-0.73,1.18-1.12,1.74l46.55,2.85v-67.36c0.6-3.91,0.94-7.36,1.01-10.37c0.07-3,0.11-6.54,0.11-10.59v-9.92    c-0.3-0.3-0.72-0.64-1.24-1.01c-0.53-0.37-1.01-0.56-1.47-0.56c-6.16-1.2-12.44-1.84-18.82-1.92c-6.39-0.07-12.44-0.11-18.15-0.11    c-1.35,0-2.29,0.34-2.82,1.01c-0.53,0.68-0.87,1.54-1.01,2.59c0,0.75-0.15,2.11-0.45,4.06c-0.3,1.96-0.45,3.23-0.45,3.83    c-3.01-2.1-5.94-4.02-8.79-5.75c-2.86-1.73-6.09-2.97-9.69-3.72c-1.05-0.3-2.56-0.71-4.51-1.24c-1.95-0.52-3.01-0.79-3.16-0.79    h-25.92c-0.3,0-1.09,0.08-2.37,0.23c-1.28,0.15-2.14,0.38-2.59,0.68c-3.16,1.05-6.5,2.56-10.03,4.51    c-3.53,1.96-6.99,4.17-10.37,6.65c-3.38,2.48-6.54,5.15-9.47,8c-2.93,2.86-5.22,5.79-6.88,8.79c-4.21,8.12-7.33,16.08-9.36,23.9    c-2.03,7.82-3.04,16.31-3.04,25.47c0,4.96,0.19,9.51,0.56,13.64c0.03,0.3,0.07,0.59,0.1,0.89l50.88,3.11    C967.7,541.92,967.26,541.51,967.13,541.38z"
   id="path36" />
		<path
   class="st1"
   d="M1109.94,572.15c-0.08,3.83-0.11,6.65-0.11,8.45l1.13,10.59l1.8,2.03h6.54h9.92c0.3,0,1.01-0.04,2.14-0.11    c1.13-0.07,2.33-0.19,3.61-0.34c1.27-0.15,2.48-0.3,3.61-0.45c1.13-0.15,1.84-0.23,2.14-0.23c1.05,0,2.14-0.04,3.27-0.11    c1.13-0.07,2.18-0.23,3.16-0.45c0.98-0.23,1.84-0.64,2.59-1.24c0.75-0.6,1.28-1.58,1.58-2.93c0-2.1,0.07-5.75,0.22-10.93    c0.05-1.88,0.1-3.83,0.15-5.8l-41.68-2.55C1109.99,569.49,1109.97,570.86,1109.94,572.15z"
   id="path38" />
		<path
   class="st1"
   d="M1152.1,543.3c0.07-5.18,0.11-8.83,0.11-10.93v-2.03c0-7.36-0.11-14.77-0.34-22.2    c-0.22-7.44-0.72-14.77-1.47-21.98c0-0.15-0.08-0.6-0.22-1.35c-0.15-0.75-0.3-1.5-0.45-2.25c-0.15-0.75-0.26-1.46-0.34-2.14    c-0.08-0.68-0.11-1.09-0.11-1.24c0-1.5-0.11-4.17-0.34-8c-0.22-3.83-0.45-7.96-0.68-12.4c-0.22-4.43-0.41-8.64-0.56-12.62    c-0.15-3.98-0.23-6.8-0.23-8.45c0-0.3,0-1.2,0-2.71c0-1.5,0-3.12,0-4.85c0-1.73,0-3.34,0-4.85c0-1.5,0-2.48,0-2.93    c0-0.6-0.04-1.61-0.11-3.04c-0.08-1.43-0.19-3-0.34-4.73c-0.15-1.73-0.26-3.3-0.34-4.73c-0.08-1.43-0.19-2.44-0.34-3.04    c0-0.3-0.3-1.01-0.9-2.14c-0.6-1.13-1.21-1.69-1.8-1.69h-30.89l-5.86,0.9c-0.15,0.3-0.3,0.68-0.45,1.13    c-0.3,0.9-0.45,1.5-0.45,1.8v2.25v2.7c0,1.66,0.11,4.92,0.34,9.81c0.22,4.89,0.49,10.63,0.79,17.25c0.3,6.61,0.6,13.64,0.9,21.08    c0.3,7.44,0.6,14.47,0.9,21.08c0.3,6.61,0.53,12.4,0.68,17.36c0.15,4.96,0.23,8.19,0.23,9.69c0,1.8,0.04,4.62,0.11,8.45    c0.07,3.83,0.11,8.12,0.11,12.85s0,9.73,0,14.99c0,2.37,0,4.66,0,6.92l41.9,2.56C1152,550.16,1152.05,546.65,1152.1,543.3z"
   id="path40" />
		<path
   class="st1"
   d="M1253.88,492.91c2.56-0.3,5.56-0.56,9.02-0.79c3.45-0.22,6.54-0.94,9.24-2.14c0-0.15,0.07-0.23,0.22-0.23    c0.15,0,0.3-0.07,0.45-0.22l0.45-0.45v-36.97h-22.32c0-1.35-0.11-3.79-0.34-7.33c-0.22-3.53-0.45-7.33-0.68-11.38    c-0.22-4.06-0.45-7.85-0.67-11.38c-0.23-3.53-0.34-5.97-0.34-7.33c0-1.2-0.15-2.78-0.45-4.73c-0.3-1.95-0.45-3.01-0.45-3.16    l-2.03-0.9h-9.24c-4.66,0-9.06,0-13.19,0c-4.14,0-8.53,0.3-13.19,0.9c-0.75,1.66-1.17,3.53-1.24,5.64    c-0.08,2.11-0.11,3.98-0.11,5.64c0,4.81,0.23,9.58,0.68,14.32c0.45,4.73,0.68,9.36,0.68,13.86v4.96    c-3.31,0.45-6.73,0.83-10.26,1.13c-3.53,0.3-6.87,0.6-10.03,0.9c-1.35,1.05-2.18,2.07-2.48,3.04c-0.3,0.98-0.45,2.29-0.45,3.95    c0,4.81,0.11,9.62,0.34,14.43c0.22,4.81,0.79,9.62,1.69,14.43c0.3,0.75,1.09,1.24,2.37,1.46c1.27,0.23,2.06,0.34,2.37,0.34    c0.6,0,1.58,0.04,2.93,0.11c1.35,0.08,2.82,0.19,4.4,0.34c1.58,0.15,3.04,0.26,4.4,0.34c1.35,0.08,2.25,0.19,2.71,0.34    c1.2,16.68,1.92,33.36,2.14,50.05c0.07,5.11,0.07,10.21,0.09,15.32l43.31,2.65V492.91z"
   id="path42" />
		<path
   class="st1"
   d="M1210.37,592.1c0,0.45,0.37,0.83,1.13,1.13c0.45,0.15,1.39,0.34,2.82,0.56c1.43,0.23,2.37,0.34,2.82,0.34    h33.81l1.8-0.9c0.3-3,0.49-5.52,0.56-7.55c0.07-2.03,0.19-4.13,0.34-6.31c0.06-0.89,0.11-1.71,0.14-2.49l-43.24-2.64    C1210.51,580.19,1210.48,586.15,1210.37,592.1z"
   id="path44" />
		<path
   class="st1"
   d="M1308.89,458.09c1.35,0.22,2.25,0.34,2.71,0.34c1.8,0,3.61-0.15,5.41-0.45c1.8-0.3,3.53-0.82,5.19-1.58    c0,0.3,0.04,0.79,0.11,1.47c0.07,0.68,0.11,1.17,0.11,1.47c0,5.26-0.75,10.67-2.25,16.23c-1.5,5.56-3.31,10.75-5.41,15.55    c-0.15,0.3-0.53,0.98-1.13,2.03c-0.6,1.05-0.9,1.73-0.9,2.03v1.35c0,1.5,0.75,2.25,2.25,2.25h1.58c0.3,0,0.86-0.19,1.69-0.56    c0.82-0.37,1.69-0.75,2.59-1.13c0.9-0.37,1.76-0.75,2.59-1.13c0.82-0.37,1.39-0.64,1.69-0.79c3.76-1.95,7.1-4.43,10.03-7.44    c2.93-3,5.56-6.27,7.89-9.81c2.33-3.53,4.4-7.21,6.2-11.05c1.8-3.83,3.46-7.63,4.96-11.38c1.2-3.16,1.84-6.54,1.92-10.14    c0.07-3.61,0.11-7.14,0.11-10.6c0-0.75-0.04-1.95-0.11-3.61c-0.08-1.65-0.11-2.55-0.11-2.7c0-1.05-0.34-2.22-1.01-3.49    c-0.68-1.27-1.62-1.99-2.82-2.14h-5.18h-5.41c-2.41,0.15-5.45,0.22-9.13,0.22c-3.69,0-7.25,0.08-10.71,0.23    c-4.06,0.15-8.34,0.22-12.85,0.22l-2.03,2.03v30.88C1306.86,457.3,1307.53,457.86,1308.89,458.09z"
   id="path46" />
		<path
   class="st1"
   d="M1490.59,570.8c1.65-3.08,2.89-6.39,3.72-9.92c0.82-3.53,1.24-7.47,1.24-11.83c0-7.81-2.63-14.65-7.89-20.51    c-3.61-4.06-7.21-7.85-10.82-11.38c-3.61-3.53-7.82-6.57-12.62-9.13c-2.7-1.35-5.97-2.74-9.81-4.17c-3.83-1.43-6.88-3.19-9.13-5.3    c-0.45-0.3-1.05-0.82-1.8-1.58c-0.75-0.75-1.54-1.5-2.37-2.25c-0.83-0.75-1.62-1.5-2.37-2.25c-0.75-0.75-1.2-1.27-1.35-1.58    c-0.75-0.75-1.13-1.46-1.13-2.14s0-1.54,0-2.59c0-1.2,0.41-2.33,1.24-3.38c0.82-1.05,2.06-1.58,3.72-1.58    c1.95,0,3.79,0.42,5.52,1.24c1.73,0.83,3.42,1.69,5.07,2.59c0.6,0.3,1.61,0.9,3.04,1.8c1.43,0.9,2.97,1.88,4.62,2.93    c1.65,1.05,3.19,2.07,4.62,3.04c1.43,0.98,2.44,1.69,3.04,2.14h1.35c1.05,0,2.33-0.52,3.83-1.58c1.5-1.05,3.04-2.29,4.62-3.72    c1.58-1.43,3.08-2.85,4.51-4.28c1.43-1.43,2.52-2.51,3.27-3.27c0.3-0.3,0.79-0.86,1.46-1.69c0.68-0.82,1.43-1.69,2.25-2.59    c0.82-0.9,1.58-1.77,2.25-2.59c0.68-0.82,1.16-1.39,1.47-1.69c0.3-0.15,0.45-0.49,0.45-1.01c0-0.52,0-0.86,0-1.01    c0-0.15,0-0.49,0-1.01c0-0.52-0.15-0.79-0.45-0.79c0-0.3-0.49-1.01-1.47-2.14c-0.98-1.13-1.69-2.06-2.14-2.82    c-7.21-7.81-14.65-13.45-22.32-16.91c-7.67-3.46-16.76-5.18-27.28-5.18c-6.31,0-12.21,0.68-17.7,2.03    c-5.49,1.35-10.26,3.49-14.32,6.42c-4.06,2.93-7.25,6.8-9.58,11.61c-2.33,4.81-3.5,10.59-3.5,17.36c0,3.61,0.3,6.99,0.9,10.15    c0.6,3.16,1.95,6.24,4.06,9.24c0.6,0.9,1.5,2.14,2.7,3.72c1.2,1.58,2.4,3.19,3.61,4.85c1.2,1.66,2.29,3.16,3.27,4.51    c0.98,1.35,1.61,2.18,1.92,2.48c0.15,0.3,0.6,0.83,1.35,1.58c0.75,0.75,1.27,1.2,1.58,1.35c0.6,0.45,1.88,1.43,3.83,2.93    c1.95,1.5,3.23,2.48,3.83,2.93c0.45,0.3,1.65,1.05,3.61,2.25c1.95,1.2,3.98,2.48,6.09,3.83c2.1,1.35,4.13,2.67,6.09,3.95    c1.95,1.28,3.16,2.07,3.61,2.37l10.59,10.59c0.9,1.2,1.61,2.82,2.14,4.85c0.53,2.03,0.79,3.65,0.79,4.85    c0,0.9-0.34,1.73-1.01,2.48c-0.68,0.75-1.47,1.46-2.37,2.14s-1.84,1.2-2.82,1.58c-0.98,0.38-1.77,0.56-2.37,0.56    c-6.31,0-12.48-1.69-18.49-5.07c-6.01-3.38-11.2-7.18-15.55-11.38h-0.9h-0.9c-0.45,0.15-1.17,0.49-2.14,1.01    c-0.98,0.53-1.62,0.87-1.92,1.01l-6.54,6.54c-0.45,0.45-1.05,1.13-1.8,2.03c-0.75,0.9-1.54,1.8-2.37,2.71    c-0.83,0.9-1.62,1.77-2.37,2.59c-0.75,0.83-1.2,1.32-1.35,1.47c-0.6,0.75-0.9,1.43-0.9,2.03c0,0.58,0,1.31,0,2.17l98.41,6.02    C1489.21,573.19,1489.94,572.01,1490.59,570.8z"
   id="path48" />
		<path
   class="st1"
   d="M1420.03,591.2c4.36,1.35,8.83,2.67,13.41,3.95c4.58,1.27,9.2,1.92,13.86,1.92c5.11,0,10.22-0.6,15.33-1.8    c4.02-0.95,7.66-2.6,10.94-4.94l-65.5-4C1411.81,588.3,1415.79,589.94,1420.03,591.2z"
   id="path50" />
		<path
   class="st1"
   d="M146.44,900.67v37.28c0.63,2.2,2.04,4.25,4.25,6.13c3.14,0,8.65,0.07,16.51,0.24    c7.86,0.15,16.12,0.39,24.77,0.71c8.65,0.31,16.91,0.55,24.77,0.71c7.86,0.15,13.37,0.24,16.52,0.24h58.04h38.69l8.49-1.89    c0.31-5.66,0.63-11.16,0.94-16.51c0.31-4.4,0.47-8.97,0.47-13.68s0.15-8.8,0.47-12.27v-4.25v-4.25c-0.32-2.2-0.47-4.95-0.47-8.26    c0-3.3-0.16-6.68-0.47-10.15c-0.03-0.39-0.07-0.8-0.1-1.19l-192.85,6.88C146.47,887.16,146.44,893.9,146.44,900.67z"
   id="path52" />
		<path
   class="st1"
   d="M239.4,570.37c0-0.63-0.32-1.73-0.94-3.3c-0.63-1.57-1.34-3.14-2.12-4.72c-0.79-1.57-1.65-2.99-2.59-4.25    c-0.94-1.25-1.89-1.89-2.83-1.89h-66.06c-0.63,0-1.89,0.24-3.77,0.71c-1.89,0.47-3.3,0.87-4.25,1.18c-0.32,0-1.42,0.47-3.3,1.42    c-1.89,0.94-2.83,1.89-2.83,2.83l-2.36,19.82c0.02,1.32,0.02,2.64,0.03,3.96l94.48,16.53    C242.21,591.82,241.07,581.06,239.4,570.37z"
   id="path54" />
		<path
   class="st1"
   d="M305.93,857.26c-2.52-0.31-6.92-0.55-13.21-0.71c-6.3-0.15-12.98-0.31-20.05-0.47    c-7.08-0.15-13.76-0.31-20.05-0.47c-6.3-0.15-10.7-0.24-13.21-0.24v-81.16c0.63-1.25,1.1-3.93,1.42-8.02    c0.31-4.08,0.47-6.76,0.47-8.02v-44.83c0-0.63,0.07-2.2,0.24-4.72c0.15-2.51,0.39-5.26,0.71-8.26c0.31-2.99,0.55-5.74,0.71-8.26    c0.15-2.51,0.24-4.08,0.24-4.72c0-0.31,0.07-2.9,0.24-7.79c0.15-4.87,0.24-8.73,0.24-11.56c0-16.06-0.08-32.14-0.23-48.21    l-94.92-16.6c0.37,46.61,0.18,92.77-0.64,138.42c-0.72,40.36-1.17,81-1.33,121.91l164.81-5.88    C309.3,857.62,307.49,857.48,305.93,857.26z"
   id="path56" />
		<path
   class="st1"
   d="M725.88,665.69v-20.76c-0.63-0.63-1.5-1.33-2.6-2.12c-1.11-0.78-2.12-1.18-3.07-1.18    c-12.9-2.51-26.03-3.85-39.4-4.01c-13.37-0.15-26.03-0.24-37.98-0.24c-2.83,0-4.8,0.71-5.9,2.12c-1.11,1.42-1.81,3.23-2.12,5.43    c0,1.58-0.32,4.41-0.94,8.49c-0.63,4.09-0.94,6.77-0.94,8.02c-6.3-4.4-12.43-8.41-18.4-12.03c-5.98-3.61-12.74-6.21-20.29-7.79    c-2.2-0.63-5.35-1.49-9.44-2.6c-4.09-1.1-6.3-1.65-6.61-1.65h-54.26c-0.63,0-2.29,0.16-4.95,0.47c-2.68,0.32-4.48,0.79-5.43,1.42    c-5.59,1.87-11.48,4.45-17.63,7.66l229.74,40.19C725.8,680.98,725.88,673.85,725.88,665.69z"
   id="path58" />
		<path
   class="st1"
   d="M594.23,865.99c-7.55,2.68-14.94,4.01-22.18,4.01c-5.66,0-11.64-1.02-17.93-3.07    c-0.89-0.29-1.72-0.65-2.57-0.98l-128.63,4.59c1.11,2.28,2.28,4.54,3.56,6.77c4.25,7.39,9.67,15.03,16.28,22.88    c2.51,2.52,5.35,5.35,8.49,8.49c3.14,3.15,6.61,5.66,10.38,7.55c1.57,0.94,4.48,2.44,8.73,4.48c4.25,2.05,8.65,4.25,13.21,6.61    c4.56,2.36,8.97,4.56,13.21,6.61c4.25,2.05,7.15,3.38,8.73,4.01c10.38,1.26,20.44,2.68,30.2,4.25c9.75,1.58,19.66,2.36,29.73,2.36    c13.21,0,25.32-2.28,36.33-6.84c11.01-4.56,22.01-10.45,33.03-17.69h1.89v2.36c0,0.32-0.32,1.58-0.94,3.78    c-0.63,2.2-0.94,3.62-0.94,4.25v0.94v0.47c0.31,1.58,0.71,3.94,1.18,7.08c0.47,3.15,0.71,4.88,0.71,5.19l2.36,2.36    c1.57,0,4.32,0.15,8.26,0.47c3.93,0.31,8.18,0.55,12.74,0.71c4.56,0.15,8.88,0.31,12.98,0.47c4.08,0.15,6.92,0.24,8.49,0.24    c2.2,0,5.26-0.16,9.2-0.47c3.93-0.32,7.78-0.71,11.56-1.18c3.77-0.47,7.15-0.94,10.15-1.42c2.99-0.47,4.79-0.87,5.43-1.18    l5.66-2.83v-81.43l-124.91,4.46C597.17,864.87,595.72,865.46,594.23,865.99z"
   id="path60" />
		<path
   class="st1"
   d="M724.31,703.95l-250.08-43.74c-1.13,0.8-2.27,1.58-3.39,2.41c-7.08,5.19-13.68,10.78-19.82,16.75    c-6.13,5.98-10.93,12.11-14.39,18.4c-8.81,16.99-15.34,33.66-19.58,50.02c-4.25,16.36-6.37,34.14-6.37,53.32    c0,10.38,0.39,19.9,1.18,28.55c0.77,8.48,2.31,16.57,4.59,24.28l114.11-4.07c-1.66-1.74-3.32-3.45-4.98-5.11    c-2.36-2.36-4.48-4.4-6.37-6.13c-1.89-1.73-2.99-2.75-3.3-3.07c0-0.31-0.47-1.33-1.42-3.07c-0.94-1.72-1.97-3.61-3.07-5.66    c-1.11-2.04-2.2-4.16-3.3-6.37c-1.11-2.2-1.97-4.08-2.6-5.66c-1.58-4.08-2.68-8.33-3.3-12.74c-0.63-4.4-0.94-8.8-0.94-13.21    c0-11.95,1.33-23.12,4.01-33.5c2.67-10.38,8.26-20.13,16.75-29.26c1.57-1.57,4.08-4.17,7.55-7.79c3.46-3.61,5.5-5.74,6.13-6.37    c5.03-3.77,10.38-6.05,16.04-6.84c5.66-0.78,11.48-1.18,17.46-1.18c11.01,0,21.15,2.68,30.43,8.02    c9.28,5.35,17.53,12.11,24.77,20.29c0.63,0.32,1.42,1.26,2.36,2.83c0.94,1.58,1.57,2.68,1.89,3.3c0.31,0.94,1.1,2.52,2.36,4.72    c1.25,2.2,2.51,4.56,3.78,7.08c1.25,2.52,2.43,4.95,3.54,7.31c1.1,2.36,1.96,4.01,2.6,4.95v20.29c0,6.3-0.32,12.9-0.94,19.82    c-0.63,6.92-1.89,13.61-3.77,20.05c-1.89,6.45-4.48,12.59-7.79,18.4c-1.11,1.96-2.37,3.8-3.75,5.53l98.83-3.53V709.57    C723.82,707.64,724.08,705.78,724.31,703.95z"
   id="path62" />
		<path
   class="st1"
   d="M895.28,715.7v-68.89l-1.89-1.89c-8.49-1.25-15.73-2.2-21.71-2.83c-5.98-0.63-12.03-1.18-18.17-1.65    c-6.13-0.47-11.09-0.86-14.86-1.18c-0.32,0-1.65-0.15-4.01-0.47c-2.36-0.31-4.17-0.47-5.43-0.47c-6.92,0-12.43,0.71-16.51,2.12    c-4.09,1.42-6.13,6.37-6.13,14.86v45.95l88.71,15.52C895.28,716.4,895.28,716.04,895.28,715.7z"
   id="path64" />
		<path
   class="st1"
   d="M900.47,802.29c-0.32-3.61-0.71-7.23-1.18-10.85c-0.47-3.61-0.94-6.84-1.42-9.67    c-0.47-2.83-0.71-4.72-0.71-5.66c0-1.57-0.08-5.11-0.24-10.62c-0.16-5.5-0.4-11.48-0.71-17.93c-0.23-4.68-0.4-9.19-0.55-13.63    l-89.1-15.59v47.38c0.31,1.58,0.71,4.41,1.18,8.49c0.47,4.09,0.71,6.77,0.71,8.02c0,0.63,0.15,2.12,0.47,4.48    c0.31,2.36,0.55,4.88,0.71,7.55c0.15,2.68,0.39,5.19,0.71,7.55c0.31,2.36,0.47,3.86,0.47,4.48c0,0.94,0.63,3.94,1.89,8.97    c1.25,5.03,2.59,10.78,4.01,17.22c0.52,2.37,1.06,4.74,1.6,7.12l91.11-3.25c-3.85-7.14-6.54-15.73-8.02-25.81    C901.09,808.66,900.78,805.91,900.47,802.29z"
   id="path66" />
		<path
   class="st1"
   d="M992.48,810.54c-1.35,8.64-3.64,16.33-6.85,23.09l89.19-3.18c0.08-0.42,0.16-0.85,0.24-1.27    c0.94-5.19,1.81-9.75,2.59-13.68c0.78-3.93,1.18-6.21,1.18-6.84c2.34-14.04,4.3-27.91,5.97-41.65l-92.38-16.16    c0.04,6.49,0.06,13.33,0.06,20.53V810.54z"
   id="path68" />
		<path
   class="st1"
   d="M981.62,945.26c1.89-0.47,3.61-0.87,5.19-1.18c10.06-3.46,19.42-6.92,28.08-10.38    c8.65-3.46,16.75-9.44,24.3-17.93c7.55-9.12,13.76-18.32,18.64-27.6c4.87-9.28,8.73-19.58,11.56-30.91    c0.51-2.58,1.2-5.89,2.03-9.85l-98.61,3.52c-6.98,5.47-16.3,8.22-27.99,8.22h-0.94c-0.94-0.63-2.99-1.33-6.13-2.12    c-3.15-0.78-5.19-1.33-6.13-1.65c-1.97-0.86-3.8-1.8-5.55-2.78l-103.78,3.7c1.07,4.39,1.97,8.01,2.68,10.87    c0.63,3.77,1.81,8.02,3.54,12.74c1.72,4.72,3.85,8.66,6.37,11.8c9.75,11.01,20.29,20.53,31.61,28.55    c11.32,8.02,23.59,15.18,36.8,21.47c1.89,0.94,4.72,1.89,8.49,2.83c3.78,0.94,6.44,1.42,8.02,1.42h58.01l2.39-0.37    C980.63,945.51,981.08,945.39,981.62,945.26z"
   id="path70" />
		<path
   class="st1"
   d="M1088.03,736.46c2.04-23.59,3.07-47.66,3.07-72.19c0-1.89,0-4.16,0-6.84c0-2.67-0.08-5.35-0.24-8.02    c-0.16-2.67-0.71-5.19-1.65-7.55c-0.94-2.36-2.36-4.16-4.25-5.43c-1.89,0-5.35-0.07-10.38-0.24c-5.04-0.15-10.46-0.31-16.28-0.47    c-5.82-0.15-11.32-0.31-16.52-0.47c-5.19-0.15-8.89-0.24-11.09-0.24h-13.68c-5.35,0-9.83-0.07-13.45-0.24    c-3.62-0.15-8.1,0.4-13.45,1.65c0,0.63-0.32,1.42-0.94,2.36c-0.63,0.94-0.94,1.58-0.94,1.89c-0.32,1.89-0.63,5.19-0.94,9.91    c-0.32,4.72-0.47,7.55-0.47,8.49c0,0.94,0.16,2.99,0.47,6.13c0.31,3.15,0.71,6.53,1.18,10.14c0.47,3.62,0.86,7,1.18,10.15    c0.31,3.15,0.47,5.19,0.47,6.13c1.25,14.79,1.96,28.08,2.12,39.87c0.01,0.73,0.02,1.49,0.03,2.23l94.42,16.52    C1087.16,745.65,1087.63,741.04,1088.03,736.46z"
   id="path72" />
		<path
   class="st1"
   d="M1272.99,931.34c10.54,3.15,21.78,4.72,33.74,4.72c15.1,0,29.65-1.49,43.65-4.48    c13.99-2.99,28.08-6.84,42.23-11.56c0.31,0.32,0.63,0.47,0.94,0.47h0.94c0,17.93-3.7,31.53-11.09,40.82    c-7.39,9.28-19.74,16.43-37.04,21.47c-3.47,0.94-7.16,1.81-11.09,2.6c-3.94,0.78-7.79,1.18-11.56,1.18    c-5.03,0-11.41-0.47-19.11-1.42c-7.71-0.94-13.92-3.15-18.64-6.61c-2.83-2.2-5.35-5.19-7.55-8.97c-2.21-3.77-4.41-7.55-6.61-11.33    c-2.21-3.77-4.56-7.08-7.08-9.91c-2.52-2.83-5.51-4.25-8.97-4.25h-75.02c-1.26,0-1.97,0.71-2.12,2.12    c-0.16,1.42-0.24,2.28-0.24,2.59c0,2.83,0.39,6.21,1.18,10.15c0.78,3.93,1.89,7.94,3.3,12.03c1.42,4.08,2.99,7.86,4.72,11.32    c1.73,3.46,3.54,6.29,5.43,8.49c8.18,11.33,17.93,20.76,29.25,28.31c11.33,7.55,23.43,13.52,36.33,17.93    c12.9,4.4,26.19,7.55,39.87,9.44c13.68,1.89,27.13,2.83,40.34,2.83h5.66c7.55-0.32,16.43-1.02,26.66-2.12    c10.22-1.11,18.79-3.86,25.72-8.26c1.89-1.26,4.4-2.91,7.55-4.95c3.14-2.05,6.37-4.17,9.67-6.37c3.3-2.2,6.13-4.09,8.49-5.66    c2.36-1.58,3.85-2.52,4.48-2.83l12.27-12.27c11.33-13.21,20.36-28,27.13-44.35c6.76-16.36,11.87-33.5,15.33-51.43    c1.65-8.58,3.01-17.19,4.09-25.83l-237.8,36.4C1256.43,925.63,1264.73,928.88,1272.99,931.34z"
   id="path74" />
		<path
   class="st1"
   d="M1262.38,774.68c2.2-8.49,5.42-16.59,9.67-24.3c4.25-7.7,9.44-14.63,15.57-20.76    c6.13-6.13,12.98-10.77,20.53-13.92c4.72-1.89,9.36-3.07,13.92-3.54c4.56-0.47,9.51-0.71,14.86-0.71c0.63,0,1.72,0,3.3,0    c1.57,0,3.14,0.08,4.72,0.24c1.57,0.16,3.07,0.24,4.48,0.24c1.41,0,2.28,0,2.6,0c8.49,1.89,15.57,5.51,21.23,10.85    c5.66,5.35,10.06,11.56,13.21,18.64c3.14,7.08,5.34,14.63,6.61,22.65c1.25,8.02,1.89,15.81,1.89,23.36c0,1.58-0.08,4.48-0.24,8.73    c-0.15,3.94-0.23,6.58-0.24,7.94l95.15,16.64c0.1-5.51,0.16-10.98,0.16-16.33v-25.95c0-1.25-0.24-4.32-0.71-9.2    c-0.47-4.87-0.94-10.15-1.42-15.81c-0.47-5.66-0.94-11.01-1.41-16.04c-0.47-5.03-0.71-8.18-0.71-9.44c0-3.14-0.16-8.49-0.47-16.04    c-0.32-7.55-0.55-15.57-0.71-24.06c-0.16-8.49-0.32-16.59-0.47-24.3c-0.16-7.7-0.24-12.98-0.24-15.81    c-9.44-3.77-19.27-5.9-29.49-6.37c-10.23-0.47-20.21-0.71-29.96-0.71c-2.52,0-5.9,0.16-10.15,0.47c-4.25,0.32-6.53,0.47-6.84,0.47    l-2.83,1.89v25.95c-6.92-5.66-14.32-10.22-22.18-13.68c-7.87-3.46-16.04-6.05-24.54-7.78c-8.49-1.73-17.15-2.9-25.95-3.54    c-8.81-0.63-17.46-0.94-25.95-0.94c-8.81,0-17.93,0.08-27.37,0.24c-9.44,0.16-18.4,1.97-26.9,5.43    c-18.56,7.24-33.43,17.07-44.59,29.49c-11.17,12.43-19.9,27.6-26.19,45.53c-2.52,7.24-5.19,14.71-8.02,22.41    c-2.19,5.95-3.52,11.95-4.02,17.99l92.28,16.14C1261.39,778.74,1261.85,776.72,1262.38,774.68z"
   id="path76" />
		<path
   class="st1"
   d="M1489.2,837.74l-100.19-17.52c-1.38,3.43-2.78,6.52-4.19,9.2c-3.3,6.3-7.48,11.25-12.5,14.86    c-5.04,3.62-11.25,6.06-18.64,7.31c-7.39,1.26-16.6,1.89-27.6,1.89h-14.16c-15.1-1.25-27.68-6.76-37.75-16.52    c-10.07-9.75-15.1-22.33-15.1-37.75c0-0.57,0.02-1.15,0.03-1.72l-90.51-15.83c0.14,8.14,0.4,16.57,0.83,25.34    c0.63,13.06,2.99,25.09,7.08,36.1c3.46,9.75,7.08,18.17,10.85,25.24c3.77,7.08,8.18,13.53,13.21,19.35    c5.03,5.82,10.77,11.09,17.22,15.81c2.11,1.55,4.38,3.11,6.78,4.69l263.08-40.27c0.3-3.71,0.56-7.42,0.75-11.14    C1488.73,850.33,1488.98,844.01,1489.2,837.74z"
   id="path78" />
		<path
   class="st1"
   d="M1748.86,945.5v0.47c0,1.25,0.47,1.89,1.42,1.89c9.44,1.57,19.58,2.36,30.43,2.36c10.85,0,20.84,0,29.96,0    h24.54l8.49-8.49c0-4.08,0.15-8.02,0.47-11.8c0.31-3.46,0.55-6.76,0.71-9.91c0.15-3.14,0.24-5.97,0.24-8.49V900l-93.93-16.43    C1749.66,903.96,1748.86,924.6,1748.86,945.5z"
   id="path80" />
		<path
   class="st1"
   d="M1569.73,872.38c-0.06,1.57-0.11,3.13-0.18,4.7c-0.63,14.47-0.94,28.95-0.94,43.41v25.48l4.25,4.25h72.67    c1.57,0,2.83-0.71,3.77-2.12c0.94-1.42,1.73-2.76,2.36-4.01c0-3.14,0.07-8.57,0.24-16.28c0.15-7.7,0.31-15.81,0.47-24.3    c0.15-8.49,0.31-16.59,0.47-24.3c0.11-5.39,0.18-9.64,0.21-12.8l-20.66-3.61L1569.73,872.38z"
   id="path82" />
		<path
   class="st1"
   d="M1663.45,580.28c0-0.63-0.16-2.99-0.47-7.08c-0.32-4.08-0.79-7.08-1.41-8.97c-0.32-1.57-0.71-3.85-1.18-6.84    c-0.47-2.99-0.87-4.79-1.18-5.43c-0.32-1.57-1.26-3.22-2.83-4.95c-1.58-1.73-3.15-2.6-4.72-2.6h-58.98    c-0.32,0-1.73,0.16-4.25,0.47c-2.52,0.32-4.41,0.63-5.66,0.94c-0.94,0.63-2.36,1.11-4.25,1.42c-1.89,0.32-3.15,1.26-3.77,2.83    c-0.32,5.98-0.63,15.34-0.94,28.08c-0.01,0.47-0.02,0.95-0.04,1.43l89.8,5.49C1663.49,583.12,1663.45,581.51,1663.45,580.28z"
   id="path84" />
		<path
   class="st1"
   d="M1655.89,842.17c0.18-1.65,0.34-3.31,0.49-4.96c0.31-3.61,0.63-6.37,0.94-8.26c0-0.63,0.31-2.2,0.94-4.72    c0.63-2.51,0.94-4.4,0.94-5.66c0-0.63,0.31-2.12,0.94-4.48c0.63-2.36,1.33-4.87,2.12-7.55c0.78-2.67,1.49-5.19,2.12-7.55    c0.63-2.36,0.94-3.85,0.94-4.48c1.25-5.97,2.59-11.87,4.01-17.69c1.41-5.82,3.22-11.32,5.43-16.51c2.2-5.19,4.95-10.15,8.26-14.86    c3.3-4.72,7.62-9.12,12.98-13.21c0.63-0.63,2.04-1.49,4.25-2.59c2.2-1.1,3.46-1.65,3.77-1.65h24.06c0.31,0,1.25,0.55,2.83,1.65    c1.57,1.11,2.67,1.97,3.3,2.59c1.25,1.26,3.14,3.07,5.66,5.43c2.51,2.36,4.08,3.7,4.72,4.01c0,0.63,0.39,1.97,1.18,4.01    c0.78,2.05,1.57,4.33,2.36,6.84c0.78,2.52,1.57,5.04,2.36,7.55c0.78,2.52,1.33,4.41,1.65,5.66c0.63,0.94,1.1,2.99,1.41,6.13    c0.31,3.15,0.63,5.19,0.94,6.13v30.67c0,6.15-0.08,12.3-0.22,18.45l89.45-13.69c-0.03-1.32-0.05-2.28-0.05-2.86    c-0.32-1.57-0.47-5.43-0.47-11.56c0-6.13,0-12.74,0-19.82c0-7.08,0.07-13.68,0.24-19.82c0.15-6.13,0.24-9.98,0.24-11.56    c-0.32-1.25-0.55-3.22-0.71-5.9c-0.16-2.67-0.4-5.5-0.71-8.49c-0.32-2.99-0.55-5.82-0.71-8.49c-0.16-2.67-0.4-4.48-0.71-5.43    c0-0.31-0.47-2.04-1.42-5.19c-0.94-3.14-1.58-5.5-1.89-7.08c-0.63-1.25-1.5-3.07-2.59-5.43c-1.11-2.36-2.21-4.72-3.3-7.08    c-1.11-2.36-2.6-5.43-4.48-9.2c-0.32-0.31-1.34-1.33-3.07-3.07c-1.73-1.72-3.62-3.69-5.66-5.9c-2.05-2.2-4.09-4.32-6.13-6.37    c-2.05-2.04-3.7-3.69-4.95-4.95c-0.63-0.63-1.65-1.33-3.07-2.12c-1.42-0.78-2.44-1.33-3.07-1.65    c-10.07-5.34-19.27-9.12-27.6-11.32c-8.34-2.2-18.01-3.3-29.02-3.3c-8.18,0-15.89,0.24-23.12,0.71    c-7.24,0.47-14.47,2.29-21.7,5.43c-5.35,2.52-10.38,5.27-15.1,8.26c-4.72,2.99-9.75,5.74-15.1,8.26l-1.89-6.13    c0-3.14-0.24-8.65-0.71-16.51c-0.47-7.86-0.94-16.2-1.41-25.01c-0.37-6.89-0.74-13.49-1.11-19.82l-91.14-5.57    c-0.21,7.81-0.45,16.11-0.7,24.92c-0.47,16.04-0.94,32.96-1.41,50.72c-0.47,17.78-0.87,34.68-1.18,50.72    c-0.32,16.04-0.63,30.43-0.94,43.17c-0.32,12.74-0.47,22.26-0.47,28.55v3.3v2.36c0,0.63,0.31,2.36,0.94,5.19    c0.63,2.83,0.94,4.56,0.94,5.19c0,0.32-0.32,1.03-0.94,2.12c-0.63,1.11-0.94,1.81-0.94,2.12v1.89c0,1.26,0.07,2.29,0.24,3.07    c0.15,0.79,0.71,1.81,1.65,3.07v10.85c0,0.4-0.01,0.81-0.01,1.21l62.08,10.86L1655.89,842.17z"
   id="path86" />
		<path
   class="st1"
   d="M1570.26,855.28l10.22-1.57l-10.17-1.78C1570.3,853.05,1570.29,854.16,1570.26,855.28z"
   id="path88" />
		<path
   class="st1"
   d="M1752.41,866.7l92.71,16.22v-23.77c0-1.25-0.08-4.32-0.24-9.2c-0.16-4.87-0.32-9.98-0.47-15.34    c-0.04-1.44-0.09-2.86-0.13-4.26l-90.55,13.86C1753.4,851.71,1752.94,859.2,1752.41,866.7z"
   id="path90" />
	</g>
	
		<linearGradient
   id="SVGID_1_"
   gradientUnits="userSpaceOnUse"
   x1="-8.4526"
   y1="865.1448"
   x2="71.2295"
   y2="865.1448"
   gradientTransform="matrix(0.9987 -0.05 0.05 0.9987 -1.6011 12.8328)">
		<stop
   offset="0"
   style="stop-color:#FFFFFF"
   id="stop94" />
		<stop
   offset="0.905"
   style="stop-color:#FFFFFF;stop-opacity:0"
   id="stop96" />
	</linearGradient>
	<path
   class="st2"
   d="M33.47,882.39l-0.51-10.15c-0.17-3.49,2.54-6.49,6.03-6.66l66.89-3.35c3.49-0.17,6.49,2.54,6.66,6.03   l0.51,10.15c0.17,3.49-2.54,6.49-6.03,6.66l-66.89,3.35C36.65,888.59,33.65,885.88,33.47,882.39z"
   id="path99" />
	
		<linearGradient
   id="SVGID_2_"
   gradientUnits="userSpaceOnUse"
   x1="461.281"
   y1="-704.6125"
   x2="540.963"
   y2="-704.6125"
   gradientTransform="matrix(-0.9859 -0.1672 0.1672 -0.9859 2511.8035 291.2038)">
		<stop
   offset="0"
   style="stop-color:#FFFFFF"
   id="stop101" />
		<stop
   offset="0.905"
   style="stop-color:#FFFFFF;stop-opacity:0"
   id="stop103" />
	</linearGradient>
	<path
   class="st3"
   d="M1940.03,903.74l-1.7,10.02c-0.58,3.44-3.88,5.79-7.33,5.2l-66.03-11.2c-3.44-0.58-5.79-3.88-5.2-7.33   l1.7-10.02c0.58-3.44,3.88-5.79,7.33-5.2l66.03,11.2C1938.28,897,1940.62,900.3,1940.03,903.74z"
   id="path106" />
	
		<linearGradient
   id="SVGID_3_"
   gradientUnits="userSpaceOnUse"
   x1="680.6589"
   y1="-808.0191"
   x2="760.341"
   y2="-808.0191"
   gradientTransform="matrix(-0.9897 0.1434 -0.1434 -0.9897 2536.8379 -98.2657)">
		<stop
   offset="0"
   style="stop-color:#FFFFFF"
   id="stop108" />
		<stop
   offset="0.905"
   style="stop-color:#FFFFFF;stop-opacity:0"
   id="stop110" />
	</linearGradient>
	<path
   class="st4"
   d="M1978.31,793.96l1.46,10.05c0.5,3.46-1.92,6.7-5.38,7.2l-66.28,9.6c-3.46,0.5-6.7-1.92-7.2-5.38l-1.46-10.05   c-0.5-3.46,1.92-6.7,5.38-7.2l66.28-9.6C1974.57,788.08,1977.81,790.5,1978.31,793.96z"
   id="path113" />
	
		<linearGradient
   id="SVGID_4_"
   gradientUnits="userSpaceOnUse"
   x1="2088.2446"
   y1="423.8058"
   x2="2167.9268"
   y2="423.8058"
   gradientTransform="matrix(0.9978 0.0662 -0.0662 0.9978 -1906.2916 -64.6608)">
		<stop
   offset="0"
   style="stop-color:#FFFFFF"
   id="stop115" />
		<stop
   offset="0.905"
   style="stop-color:#FFFFFF;stop-opacity:0"
   id="stop117" />
	</linearGradient>
	<path
   class="st5"
   d="M148.99,501.49l0.67-10.14c0.23-3.49,3.27-6.15,6.76-5.92l66.83,4.43c3.49,0.23,6.15,3.27,5.92,6.76   l-0.67,10.14c-0.23,3.49-3.27,6.15-6.76,5.92l-66.83-4.43C151.42,508.02,148.76,504.98,148.99,501.49z"
   id="path120" />
</g>
</svg>
