<?xml version="1.0" encoding="UTF-8" standalone="no"?>
<!-- Generator: Adobe Illustrator 25.2.0, SVG Export Plug-In . SVG Version: 6.00 Build 0)  -->

<svg
   version="1.1"
   id="Capa_1"
   x="0px"
   y="0px"
   viewBox="0 0 2012.6 1445.67"
   style="enable-background:new 0 0 2012.6 1445.67;"
   xml:space="preserve"
   sodipodi:docname="02.svg"
   inkscape:export-filename="/home/kan/RiderProjects/gestalt/Assets/Logo/02.png"
   inkscape:export-xdpi="96"
   inkscape:export-ydpi="96"
   inkscape:version="1.1.1 (3bf5ae0d25, 2021-09-20)"
   xmlns:inkscape="http://www.inkscape.org/namespaces/inkscape"
   xmlns:sodipodi="http://sodipodi.sourceforge.net/DTD/sodipodi-0.dtd"
   xmlns="http://www.w3.org/2000/svg"
   xmlns:svg="http://www.w3.org/2000/svg"><defs
   id="defs39" /><sodipodi:namedview
   id="namedview37"
   pagecolor="#ffffff"
   bordercolor="#666666"
   borderopacity="1.0"
   inkscape:pageshadow="2"
   inkscape:pageopacity="0.0"
   inkscape:pagecheckerboard="0"
   showgrid="false"
   inkscape:zoom="0.502881"
   inkscape:cx="1006.2023"
   inkscape:cy="722.83502"
   inkscape:window-width="939"
   inkscape:window-height="998"
   inkscape:window-x="967"
   inkscape:window-y="40"
   inkscape:window-maximized="1"
   inkscape:current-layer="Capa_1" />
<style
   type="text/css"
   id="style2">
	.st0{fill:#FFFFFF;}
</style>
<g
   id="g22">
	<path
   class="st0"
   d="M352.01,464.37c-11.56,0-23.47-5.44-28.91-16.67c-6.46-13.26-5.78-22.79-14.28-22.45   c-26.19,1.02-29.59,114.96,0.68,120.06c13.94,2.38,19.05-13.26,19.39-32.31c-4.76,0-8.84,0-12.24,0   c-22.45-0.68-22.45-34.01-1.36-37.41c5.78-1.02,14.63-1.7,23.81-1.7c7.48,0,14.96,0.34,21.09,1.7   c24.49,4.76,29.59,21.77,27.21,42.52c-6.46,46.6-53.74,59.52-84.01,58.16c-39.45-1.7-78.23-29.93-75.51-93.53   c2.04-53.4,31.29-85.03,77.55-88.77c42.52-2.72,70.74,19.39,73.81,45.58C381.26,455.52,366.98,464.37,352.01,464.37z    M242.84,475.93c2.04-28.23,20.07-58.5,48.3-69.04C256.78,413.01,239.43,441.58,242.84,475.93z"
   id="path4" />
	<path
   class="st0"
   d="M496.9,539.53c9.18,0,20.75-3.06,34.35-10.54c2.72-1.36,5.44-2.04,8.16-2.04c13.6,0,22.11,17.35,4.42,30.61   c-17.01,12.92-39.79,20.07-61.9,20.07c-36.39,0-70.4-19.39-73.81-64.28c-2.72-41.16,20.07-87.41,71.08-88.77   c34.69-1.36,61.22,14.96,62.92,44.22c1.7,35.03-36.05,52.72-75.51,50C471.74,530.69,481.26,539.53,496.9,539.53z M420.38,494.98   c1.7-18.71,25.17-55.1,46.26-59.86C437.04,439.2,417.66,466.41,420.38,494.98z M476.16,484.43c20.75,0,20.75-22.11,8.16-23.13   c-9.86-0.68-17.35,8.84-20.07,21.09C468.67,483.75,472.76,484.43,476.16,484.43z"
   id="path6" />
	<path
   class="st0"
   d="M689.75,473.55c-6.12,0-12.58-2.04-18.03-7.48c-6.12-5.44-15.65-9.52-22.79-9.52c-4.76,0-8.16,1.7-9.18,5.78   c-3.74,13.6,67.68,13.94,74.49,59.86c6.12,39.11-35.03,58.16-74.49,58.16c-31.97,0-62.92-12.93-65.3-37.41   c-1.7-17.01,6.46-28.57,18.71-28.57c6.12,0,13.6,3.06,21.43,10.2c11.9,10.88,27.89,18.03,37.41,18.03c4.42,0,7.48-1.36,8.16-4.42   c5.78-18.03-89.11-25.17-82.99-77.89c3.4-27.21,37.75-38.77,71.09-38.77c30.95,0,60.54,10.2,62.92,27.89   C713.22,464.03,701.99,473.55,689.75,473.55z M584.99,547.01c0.34-8.16,2.72-21.77,10.2-23.81   C579.21,519.81,580.57,539.87,584.99,547.01z M589.07,478.65c2.38-24.49,12.92-39.45,36.05-44.22   C599.96,431.38,578.53,454.16,589.07,478.65z"
   id="path8" />
	<path
   class="st0"
   d="M800.97,388.52c12.24,0,24.83,7.14,28.57,19.73c1.36,4.42,2.72,12.58,4.42,23.47   c11.22-0.34,20.41-0.68,26.87-0.34c18.03,1.02,23.13,28.23,2.72,32.31c-8.16,1.02-16.67,2.72-25.85,4.08   c2.72,32.31,3.06,69.04-2.38,93.19c-3.06,13.61-14.28,19.73-25.85,19.73c-12.24,0-24.83-6.8-27.89-19.73   c-5.1-20.75-7.48-55.44-8.5-87.41c-8.84,0.34-18.03,0.68-26.19,0.68c-17.35,0-19.73-27.89-0.68-31.97   c7.48-1.7,17.01-3.4,27.21-4.76c0.68-12.58,1.36-22.79,2.72-29.25C778.86,394.64,789.75,388.52,800.97,388.52z M743.15,465.39   c0-6.12,1.7-15.99,10.54-16.67C736.69,445.66,737.71,463.01,743.15,465.39z M783.28,435.8c0.68-8.16-0.34-31.97,14.29-38.77   C774.78,397.02,781.24,430.01,783.28,435.8z"
   id="path10" />
	<path
   class="st0"
   d="M957.43,570.14c-39.11,1.02-71.09-24.15-70.06-68.36c0.68-45.92,47.28-68.36,86.73-63.6   c2.04-10.88,13.26-15.65,24.49-15.65c13.27,0,27.21,6.12,27.89,17.35c0.34,5.78,1.02,12.58,1.02,20.41   c2.04,47.28,0.34,74.83,1.7,98.29c1.02,16.32-13.61,25.17-27.89,25.17c-10.88,0-21.43-5.1-24.49-15.99   C970.69,569.46,964.91,570.14,957.43,570.14z M900.63,508.24c2.38-25.51,16.67-48.98,39.79-57.14   C911.17,455.86,895.87,476.95,900.63,508.24z M955.05,471.85c-17.35,1.02-14.29,67,2.04,65.3   C979.2,534.77,979.88,469.13,955.05,471.85z M987.36,447.36c0-6.12,1.7-15.99,10.88-16.67   C980.9,427.63,981.92,444.98,987.36,447.36z"
   id="path12" />
	<path
   class="st0"
   d="M1094.5,391.58c11.9,0,23.81,5.78,26.19,17.01c6.46,29.59,11.9,119.72,5.44,150.67   c-2.72,13.61-15.31,21.43-27.21,21.43c-11.56,0-22.79-6.8-26.19-21.43c-11.9-52.72-9.86-121.08-5.44-148.97   C1069.33,398.04,1081.91,391.58,1094.5,391.58z M1076.47,453.82c0.68-10.88-0.34-46.26,14.28-51.7   C1067.97,398.72,1074.09,441.58,1076.47,453.82z"
   id="path14" />
	<path
   class="st0"
   d="M1218.98,388.52c12.24,0,24.83,7.14,28.57,19.73c1.36,4.42,2.72,12.58,4.42,23.47   c11.22-0.34,20.41-0.68,26.87-0.34c18.03,1.02,23.13,28.23,2.72,32.31c-8.16,1.02-16.67,2.72-25.85,4.08   c2.72,32.31,3.06,69.04-2.38,93.19c-3.06,13.61-14.29,19.73-25.85,19.73c-12.24,0-24.83-6.8-27.89-19.73   c-5.1-20.75-7.48-55.44-8.5-87.41c-8.84,0.34-18.03,0.68-26.19,0.68c-17.35,0-19.73-27.89-0.68-31.97   c7.48-1.7,17.01-3.4,27.21-4.76c0.68-12.58,1.36-22.79,2.72-29.25C1196.87,394.64,1207.75,388.52,1218.98,388.52z M1161.16,465.39   c0-6.12,1.7-15.99,10.54-16.67C1154.69,445.66,1155.71,463.01,1161.16,465.39z M1201.29,435.8c0.68-8.16-0.34-31.97,14.28-38.77   C1192.79,397.02,1199.25,430.01,1201.29,435.8z"
   id="path16" />
	<path
   class="st0"
   d="M1343.46,390.56c13.27,0,26.87,6.46,27.21,19.39c0.34,19.05,0.34,37.75-1.7,56.12   c-1.02,9.86-12.24,15.65-23.13,15.65c-10.2,0-20.07-4.76-21.77-15.65c-2.72-14.62-7.48-37.07-6.8-56.12   C1317.61,396.68,1330.54,390.56,1343.46,390.56z M1326.8,416.07c0.68-4.08,10.88-14.63,16.32-16.67   C1331.22,395.32,1323.39,408.25,1326.8,416.07z"
   id="path18" />
	<path
   class="st0"
   d="M1518.96,473.55c-6.12,0-12.58-2.04-18.03-7.48c-6.12-5.44-15.65-9.52-22.79-9.52c-4.76,0-8.16,1.7-9.18,5.78   c-3.74,13.6,67.68,13.94,74.49,59.86c6.12,39.11-35.03,58.16-74.49,58.16c-31.97,0-62.92-12.93-65.3-37.41   c-1.7-17.01,6.46-28.57,18.71-28.57c6.12,0,13.61,3.06,21.43,10.2c11.9,10.88,27.89,18.03,37.41,18.03c4.42,0,7.48-1.36,8.16-4.42   c5.78-18.03-89.11-25.17-82.99-77.89c3.4-27.21,37.75-38.77,71.08-38.77c30.95,0,60.54,10.2,62.92,27.89   C1542.43,464.03,1531.2,473.55,1518.96,473.55z M1414.2,547.01c0.34-8.16,2.72-21.77,10.2-23.81   C1408.42,519.81,1409.78,539.87,1414.2,547.01z M1418.28,478.65c2.38-24.49,12.93-39.45,36.05-44.22   C1429.17,431.38,1407.74,454.16,1418.28,478.65z"
   id="path20" />
</g>
<g
   id="g34">
	<path
   class="st0"
   d="M278.71,882.08c58.19-10.72,70.45,58.2,6.12,71.21c-29.1,6.12-86.53,15.32-114.09,16.85   c-36.75,1.53-66.62-14.55-75.81-41.35c-35.99-103.37-29.86-275.66-15.32-326.2c9.19-33.69,38.29-50.54,65.85-50.54   c29.1,0,57.43,17.61,64.32,50.54c8.42,38.28,18.38,172.29,16.85,258.05c0,19.91,11.48,29.86,31.4,26.03   C266.46,885.15,274.12,882.85,278.71,882.08z M94.94,686.06c0.76-49.77,18.38-100.31,46.71-115.62   C85.75,566.6,91.11,653.13,94.94,686.06z"
   id="path24" />
	<path
   class="st0"
   d="M516.09,960.95c-88.06,2.3-160.04-54.37-157.74-153.91c1.53-103.37,106.44-153.91,195.26-143.19   c4.6-24.5,29.86-35.23,55.13-35.23c29.86,0,61.26,13.78,62.79,39.05c0.77,13.02,2.3,28.33,2.3,45.94   c4.6,106.44,0.77,168.46,3.83,221.29c2.3,36.76-30.63,56.67-62.79,56.67c-24.5,0-48.24-11.49-55.13-35.99   C545.95,959.42,532.94,960.95,516.09,960.95z M388.21,821.59c5.36-57.43,37.52-110.27,89.59-128.64   C411.95,703.67,377.49,751.14,388.21,821.59z M510.73,739.66c-39.05,2.3-32.16,150.85,4.6,147.02   C565.1,881.32,566.63,733.53,510.73,739.66z M583.47,684.52c0-13.78,3.83-35.99,24.5-37.52   C568.93,640.11,571.22,679.16,583.47,684.52z"
   id="path26" />
	<path
   class="st0"
   d="M868.33,629.39c24.5,0,45.94,11.48,47.48,38.29c2.3,37.52-55.9,232.78-20.68,239.67   c44.41,8.42,71.21-171.52,77.34-238.14c2.3-24.5,32.16-39.82,64.32-39.82c30.63,0,62.02,13.02,73.51,45.18   c15.32,44.41,18.38,229.72,7.66,274.9c-4.59,21.44-32.16,35.22-58.96,35.22c-26.8,0-53.6-13.02-59.73-44.41   c-34.46,28.33-77.34,44.41-126.34,36.76c-130.17-20.67-167.7-192.97-77.34-313.18C812.43,642.41,842.29,629.39,868.33,629.39z    M774.91,763.39c14.55-42.11,46.71-107.2,86.53-114.86C809.37,640.88,777.21,713.62,774.91,763.39z M990.08,721.28   c0.77-13.02,4.6-58.2,35.22-72.74C972.47,651.6,990.08,707.5,990.08,721.28z"
   id="path28" />
	<path
   class="st0"
   d="M1178.45,789.43c-10.72-42.11,5.36-88.82,46.71-118.69c30.63-21.44,68.15-29.86,104.9-29.86   c6.12-17.61,26.8-26.8,49.01-26.8c21.44,0,45.18,9.19,58.19,29.1c70.45,107.97,132.47,391.29-51.3,409.66   c-69.68,6.89-134-11.49-150.08-66.62c-16.85-55.9,26.03-88.06,60.49-88.06c19.91,0,37.52,10.72,39.82,32.16   c4.59,43.65,27.57,51.3,36.76,48.24c22.97-8.42,22.21-55.13,12.25-110.26c-20.67,7.66-44.41,13.02-73.51,12.25   C1235.88,878.25,1191.47,837.67,1178.45,789.43z M1202.95,784.84c5.36-57.43,29.86-100.31,81.93-118.69   C1222.1,673.04,1191.47,727.41,1202.95,784.84z M1256.55,978.56c0-13.78,11.48-56.66,32.16-58.96   C1250.43,912.71,1244.3,973.97,1256.55,978.56z M1328.53,797.09c35.99-3.83,23.74-85.76-9.19-81.17   C1291.78,719.75,1285.65,801.68,1328.53,797.09z M1356.86,666.15c0-13.78,3.83-35.99,24.5-37.52   C1342.32,621.73,1344.61,660.79,1356.86,666.15z"
   id="path30" />
	<path
   class="st0"
   d="M1647.84,548.99c27.57,0,55.13,13.78,58.96,39.82c1.53,18.38,3.83,37.52,4.6,58.96   c14.55-3.83,31.4-6.89,48.24-7.66c157.74-9.19,207.52,179.18,150.85,298.63c-14.55,30.63-46.71,45.18-74.28,45.18   c-32.92,0-62.03-19.14-55.9-54.37c12.25-75.81,26.8-218.23-18.38-219c-53.6-1.53-45.94,197.56-45.94,233.55   c0.77,26.04-24.5,39.82-52.83,39.82c-28.34,0-58.2-13.78-67.39-39.82c-41.35-125.58-28.33-284.85-9.96-355.3   C1592.7,562.01,1620.27,548.99,1647.84,548.99z M1598.83,684.52c0.76-50.54,16.08-100.31,45.18-115.62   C1588.11,564.31,1595,651.6,1598.83,684.52z"
   id="path32" />
</g>
</svg>
