<?xml version="1.0" encoding="utf-8"?>
<!-- Generator: Adobe Illustrator 25.2.0, SVG Export Plug-In . SVG Version: 6.00 Build 0)  -->
<svg version="1.1" id="Capa_1" xmlns="http://www.w3.org/2000/svg" xmlns:xlink="http://www.w3.org/1999/xlink" x="0px" y="0px"
	 viewBox="0 0 2012.6 1445.67" style="enable-background:new 0 0 2012.6 1445.67;" xml:space="preserve">
<style type="text/css">
	.st0{fill:#FFFFFF;}
	.st1{fill:#E50053;}
	.st2{fill:#00A0DD;}
	.st3{fill:#F08581;}
	.st4{fill:#EC6261;}
	.st5{fill:#1D71B8;}
</style>
<g>
	<path class="st0" d="M1951.16,900.65c-26.94-100.62-71.29-198.47-107.02-277.3c-4.82-10.55-12.43-18.99-21.68-24.86
		c2.56-21.77,2.63-49.76-9.7-78.6l1.63-9.85c2.83-17.08,4.42-30.88,5.47-40.01c0.41-3.59,0.8-6.97,1.03-8.49
		c3.49-22.55-7.86-44.63-28.9-56.26l-2.97-1.64l-3.16-1.23c-42.58-16.59-95.48-37.2-152.71-36.99l-2.73,0.01l-2.71,0.3
		c-0.81,0.09-1.6,0.24-2.4,0.35c-3.42-3.92-6.99-6.95-10.31-9.26l-2.89-2.01l-3.14-1.59c-21.84-11.06-56.91-20.59-89.88-14.18
		l-4.78,0.93l-4.52,1.82c-4.01,1.62-7.77,3.61-11.26,5.92c-52.99-14.42-114.88-26.4-179.92-15.38c-7.59,1.15-15.22,3.99-22.08,8.58
		c-5.37-5.82-12.02-10.52-19.66-13.63l-3.74-1.52l-3.93-0.91c-24.44-5.67-48.6-7.29-71.81-4.82l-2.55,0.34
		c-7.34,1.16-14.1,3.59-20.14,7.01c-7.12-7.16-16.04-12.53-26.32-15.56l-1.9-0.52c-48.21-12.2-94.56-6.29-129.55,0.23l-5.65,1.05
		l-5.28,2.29c-3.27,1.42-6.35,3.09-9.25,4.97c-1.7-0.59-3.44-1.13-5.22-1.57l-1.68-0.41l-1.71-0.3
		c-70.6-12.33-129.84-10-192.07,7.55h0c-3.68,1.04-7.42,2.53-11.07,4.5c-40.56-9.69-96.92-17.8-153.92,1.56l-2.72,0.92l-2.59,1.22
		c-4.09,1.92-8.45,4.34-12.88,7.36c-10-5.71-21.5-8.06-33.12-6.71c-64.54,5.88-117.5,15.02-166.55,28.76
		c-7.37,2.02-14.01,5.44-19.72,9.99c-58.93-8.47-106.84,7.13-146.64,24.26l-2.9,1.25l-2.72,1.6
		c-29.29,17.17-47.52,47.53-51.35,85.48c-0.26,2.53-0.52,5.11-0.79,7.74c-3.22,31.09-7.03,67.99-0.25,104.15
		c-12.2,5.92-21.13,15.79-26,26.66c-35.37,78.65-67.95,165.94-102.54,274.71l-1.09,3.42l-0.6,3.54
		c-4.22,25.03,6.78,48.8,28.71,62.04l3.05,1.84l3.28,1.4c81.42,34.74,170.58,62.06,280.59,85.99l3.92,0.85l4,0.23
		c1.19,0.07,2.37,0.1,3.55,0.1c7.51,0,14.77-1.37,21.51-3.93c26.54,19.5,58.24,36.3,94.28,49.95l0.75,0.28
		c48.54,17.52,71.67-13.78,75.81-20.23l0.78-1.25c6.9-11.46,13.64-22.95,20.34-34.66c13.43,2.41,27.76,4.68,42.59,6.51
		c2.34,11.62,4.75,23.37,7.23,35.19l0.7,2.91c1.96,7.2,13.95,42.15,61.83,42.15c1.46,0,2.96-0.03,4.49-0.1l2.21-0.1l2.19-0.29
		c34.46-4.52,68.24-9.32,102.62-18.24c7.75-1.97,14.7-5.25,20.73-9.51c19.89,13.72,45.87,22.94,76.77,26.77l7.38,0.92
		c34.01,4.24,73.94,9.23,114.63,9.22c45.38,0,91.7-6.2,131.7-26.55l2.5-1.36c12.77-7.42,24.3-18.38,33.59-31.24
		c23.95,21.08,57.18,31.16,82.07,31.73c3.1,0.07,6.17,0.11,9.24,0.11c41.5,0,80.2-6.56,118.97-20.29
		c7.57,3.17,16.05,4.75,25.02,4.42l1.69-0.06l1.68-0.17c34.41-3.57,67.22-9.51,100.29-18.17l2.93-0.86
		c12.55-4.1,21.94-10.17,28.75-17.22c6.13,2.02,12.71,3.12,19.61,3.12c2.77,0,5.58-0.17,8.43-0.52l1.17-0.16
		c33.29-4.86,67.39-13.52,110.58-28.1c22.91-7.74,36.04-20.8,42.43-34.75c13.43,8.51,31.52,12.29,53.26,6.97l1.21-0.31
		c36.47-9.88,72.02-20.38,106.08-40.23l0.79-0.47C1948.69,954.75,1959.33,926.86,1951.16,900.65z M1313.71,544.23
		c0.87,0.28,1.74,0.56,2.63,0.8c-0.87,0.06-1.75,0.1-2.62,0.16C1313.71,544.88,1313.71,544.55,1313.71,544.23z"/>
	<g>
		<g>
			<path class="st1" d="M349.73,644.2c-30.16,4.84-49.34,3.78-75.94-6.57c-11.91-4.63-21.44-13.84-27.08-23.79
				c-14.99-36.6-8.73-83.44-5-120.48c2.21-21.98,11.54-37.93,26.44-46.66c47.65-20.51,88.79-29.53,139.96-16.5
				c3.1,1.3,4.44,3.3,4.01,5.94c-2.06,20.29-6.21,41.55-12.41,61c-1.38,3.43-4.18,4.55-8.4,3.41c-26.3-6.99-54.34-5.63-79.57,4.69
				c-4.55,1.7-7.8,4.91-8.75,9.03c-1.66,7.21-1.59,18.33-1.03,31.66c0.46,10.76,2.66,20.15,6.69,28.31
				c2.14,3.14,4.86,5.29,7.85,5.97c8.58,1.93,19.49-0.64,31.44-7.62c-0.26-19.29-0.51-35.86,0.13-48.83
				c0.11-2.31,2.42-3.76,6.71-4.23c19.63-2.18,35.67-2.7,47.91-0.97c2.41,0.4,3.66,1.7,3.75,3.91c2.02,46.88,1.38,93.82,0.39,140.71
				c-0.09,2.09-1.85,3.13-5.3,3.13c-16.2-0.91-32.56-4.23-49.06-9.53c-1.63-0.62-2.43-1.76-2.45-3.35
				C349.95,650.34,349.82,647.23,349.73,644.2z"/>
			<path class="st1" d="M511.49,593.39c29.71,0,59.4-0.07,89.05-1.99c2.34,0.37,3.69,4.05,4.04,11.03
				c1.33,25.59,1.81,51.4-0.52,76.95c-0.35,3.95-1.61,5.88-3.78,5.79c-38.3,1.74-77.14-3.56-114.49-7.81
				c-13.5-1.54-25.41-3.69-34.99-6.87c-2.51-0.87-3.89-2.68-4.14-5.42c-1.74-57.54-2.89-115.07-2.33-172.64
				c-3.88,0.59-7.86,1.23-11.78,1.76c-1.87,0.25-3.11-0.73-3.62-2.86c-2.74-22.82-6.44-46.87-5.3-68.55c0.23-4.48,1.94-7.4,4.27-8
				c51.98-14.58,104.92-22.38,158.6-27.23c2.6-0.44,4.21,1.27,4.82,5.14c3.16,24.5,3.04,49.42,1.82,74.04
				c-0.34,6.93-2.07,10.88-4.69,11.22c-24.01,3.13-51.64,3.69-77.47,6.2c0.08,6.3,0.17,12.61,0.26,18.91
				c22.5-1.73,41.46-3.21,55.61-3.13c2.02,0.01,3.29,2.73,3.64,7.99c1.37,19.28,1.67,39.74-0.52,59.01
				c-0.35,2.9-1.49,4.41-3.38,4.48c-16.05,0.57-34.54,1.07-54.96,1.86C511.62,579.98,511.57,586.69,511.49,593.39z"/>
			<path class="st1" d="M695.44,496.11c17.94-3.34,42.37,0.51,59.41,8.04c10.82,4.78,18.6,12.81,23.13,23.57
				c16.32,47.9,14.3,97.64,7.84,147.05c-4.27,17.65-12.72,28.49-25.35,32.44c-47.36,7.84-92.37-6.37-135.83-23.64
				c-2.43-1.82-3.32-3.84-3.13-5.7c2.56-24.6,3.67-53.18,6.38-79.63c1.13-2.84,3.34-3.64,6.64-2.36
				c27.4,4.54,59.75,13.42,83.74,8.42c3.31-0.69,6.53-4.07,8.62-8.45c3.22-6.94,0.81-12.7-4.57-13.39
				c-19.17-2.47-47.68-1.27-69.41-9.94c-9.8-3.91-17.12-10.84-21.64-20.87c-16.13-44.13-14.03-89.65-7.95-135.37
				c4.25-16.64,12.68-27.99,25.28-33.93c44.87-15.24,91.12-9.39,135.9,2.3c2.53,1.42,3.47,3.45,3.27,5.7
				c-2.45,27.38-3.88,58.15-6.54,87.15c-1.05,3-3.27,3.9-6.67,2.73c-27.37-2.99-58.5-8.79-83.84-3.38
				c-3.96,0.85-6.48,4.19-6.92,8.99C682.52,494.71,686.64,497.75,695.44,496.11z"/>
			<path class="st1" d="M861.29,493.76c-15.18,0.8-30.81,1.5-46.18,2.71c-1.98,0.16-3.27-1.46-3.79-4.93
				c-2.78-34.39-6.04-70.29-4.84-103.1c0.25-6.8,2.14-10.92,4.58-11.36c57.75-16.29,110.5-16.7,169.48-6.4
				c3.23,0.79,5.11,3.71,5.63,8.76c2.25,31.48,0.56,63.33-1.57,94.75c-0.87,9.61-2.61,14.38-5.11,14.42
				c-16.52,0.28-33.87,1.08-51.32,1.68c-0.01,72.86-1.31,145.66-3.93,218.47c-0.18,3.88-2.81,5.86-7.33,6.39
				c-15.7,1.83-31.85,0.7-46.86-5.31c-2.44-0.73-3.79-2.87-4.06-6.41C863.32,633.57,861.41,563.69,861.29,493.76z"/>
			<path class="st1" d="M1050.85,648.92c-4.2,27.25-8.67,54.46-13.49,81.62c-0.7,3.75-3.4,4.83-8.12,3.24
				c-16.89-6.13-35.57-17.32-48.19-30.3c-2.36-1.64-3.45-4.33-3.27-8.08c12.5-108.46,26.13-216.84,44.26-324.52
				c0.61-2.93,2.4-5.03,5.37-6.32c35.76-6.66,71.99-9.97,107.74-0.93c4.36,1.28,6.98,4.51,7.85,9.68
				c17.77,104.87,30.93,210.46,42.78,316.14c0.17,3.65-0.87,6.31-3.14,8c-15.54,11.84-32.92,22.4-50.11,31.58
				c-4.71,1.78-7.42,0.83-8.11-2.85c-4.19-26.25-8.34-52.51-12.43-78.78C1092.45,650.82,1070.52,651.16,1050.85,648.92z
				 M1072.06,498.5c-2.69,21.78-5.57,43.54-8.64,65.27c13.88-0.35,26.53-0.63,37.97-0.84c-3.01-21.5-5.84-43.03-8.51-64.57
				C1086.16,498.49,1079.22,498.53,1072.06,498.5z"/>
			<path class="st1" d="M1202.79,707.88c-2.35-0.82-3.75-3.6-4.19-8.32c-2.63-106.74-3.85-213.56-0.39-320.29
				c0.09-3.16,2-5.04,5.75-5.63c17.78-1.9,36.08-0.58,54.9,3.78c1.83,0.74,2.74,2.36,2.74,4.82c1.83,73.78,2.64,147.55,2.35,221.36
				c29.48-2.13,61.17-6.41,88.49-5.68c2.02,0.05,3.48,3.98,3.78,11.13c1.07,25.69,1.78,51.73-0.39,77.56
				c-0.44,5.05-1.82,8.12-4.17,9.23C1302.38,703.68,1252.81,709.87,1202.79,707.88z"/>
			<path class="st1" d="M1377.61,498.08c-15.12,0.17-30.68,0.24-46.03,0.83c-1.98,0.08-3.26-1.5-3.78-4.8
				c-2.77-32.78-6.04-67.1-4.83-98.28c0.25-6.38,2.13-10.1,4.57-10.2c57.37-9.9,113.41,1.29,168.58,16.9
				c3.2,1.08,5.06,3.7,5.58,7.84c1.96,25.42,0.67,51.08-1.56,76.44c-0.87,7.73-2.58,11.52-5.06,11.45
				c-16.42-0.46-33.6-0.49-50.94-0.68c-0.04,62.41-1.34,124.71-3.9,187.06c-0.17,3.35-2.78,5.41-7.28,6.49
				c-15.75,3.79-31.67,5.12-46.61,1.74c-2.43-0.33-3.78-2.07-4.04-5.24C1379.64,624.49,1377.71,561.3,1377.61,498.08z"/>
			<path class="st1" d="M1592.16,436.19c0.34,15.57-0.43,28.6-2.33,37.6c-4.32,20.53-26.82,28.9-45.84,28.97
				c-2.42-1.1-3.07-3.79-1.94-8.02c2.85-12.09,4.71-21.29,5.57-27.74c-7.09-0.7-14.26-1.05-19.06-2.48
				c-2.62-0.78-4.71-4.68-5.58-10.29c-2.25-21.31-2.12-39.25,0.39-53.42c0.52-4.3,2.72-7.25,6.61-8.82
				c17.93-3.49,41.14,1.52,57.13,9.62c2.07,1.44,3.7,5.43,4.27,11.46C1592.12,420.86,1592,428.98,1592.16,436.19z"/>
			<path class="st1" d="M1680.86,509.61c18.48-1.11,40.59,2.91,58.54,8.76c10.66,3.47,18.27,8.45,22.72,14.68
				c15.83,26.74,13.16,53.33,7.7,82.47c-4.19,10.72-12.48,18.89-24.9,24.34c-43.95,15.54-88,19.12-134.14,15.64
				c-2.41-0.9-3.3-2.32-3.1-3.89c2.44-19.87,3.63-43.47,6.33-65.05c1.12-2.38,3.32-3.19,6.59-2.48c27.5,1.01,58.11,4.23,82.79-1.65
				c3.38-0.81,6.43-3.28,8.49-6.29c3.17-4.76,1.12-8.12-4.5-8.37c-20.59-0.91-46.36,2.69-68.57-3.06
				c-9.68-2.51-16.96-7.57-21.44-15.45c-16.58-34.18-13.66-72.78-7.88-109.02c4.22-12.56,12.58-19.57,25.06-20.97
				c46.42-0.21,91.45,16.94,133.98,33.51c2.48,1.37,3.38,2.78,3.21,3.91c-1.16,7.52-2.48,24.25-6.41,47.95
				c-1.03,1.6-3.21,1.94-6.54,0.97c-27.11-4.26-56.45-11.23-82.56-9.82c-3.93,0.21-6.4,2.35-6.83,5.72
				C1668.1,507.73,1672.16,510.14,1680.86,509.61z"/>
		</g>
	</g>
	<g>
		<g>
			<path class="st2" d="M114.79,926.92c-3.93-2.37-5.53-5.7-4.81-9.98c29.04-91.33,61.13-181.83,100.47-269.3
				c1.14-2.61,4.79-3.12,10.98-1.58c29.87,8.3,58.66,19.11,87.32,30.84c2.75,1.49,3.79,3.32,3.09,5.48
				C294,747.83,274.71,812.76,253.49,877.2c52.03,15.08,106.9,27.62,156.96,41.85c3.69,1.05,5.17,5.31,4.13,12.21
				c-3.71,24.53-8.75,49.49-18.61,72.38c-1.96,4.49-5.21,6.61-9.75,6.35C293.64,989.85,202.08,964.16,114.79,926.92z"/>
			<path class="st2" d="M573.89,994c-12.08,22.14-24.51,43.87-37.52,65.48c-1.9,2.97-7.14,2.94-15.69-0.15
				c-29.53-11.18-58.58-25.71-83.91-44.65c-4.02-2.38-5.49-5.13-4.43-8.23c44.27-87.29,88.73-174.53,136.24-260.11
				c1.49-2.31,4.78-3.54,9.85-3.71c59.84,4.64,118.61,12.03,177.39,24.27c7.08,1.79,11.11,5,12.07,9.67
				c19.83,94.96,35.25,190.82,50.07,286.67c0.08,3.28-2.05,5.48-6.4,6.56c-31.7,8.24-64.21,12.83-96.63,17.08
				c-9.04,0.4-14.04-1.14-14.96-4.54c-5.03-23.96-9.85-47.92-14.45-71.96C647.86,1008.31,610.76,1001.78,573.89,994z"/>
			<path class="st2" d="M1152.35,772.33c3.56-0.8,6.25,0.44,8.07,3.73c20.03,82.16,34.34,166.94,22.55,251.55
				c-2.55,17.44-15.22,38-30.67,46.98c-64.32,32.72-157.9,19.49-224.36,11.26c-27.66-3.43-67.77-15.09-75.09-47.35
				c-7.93-87.24,1.17-171,22.01-255.91c1.27-4.33,4.08-6.35,8.39-6.14c26.61,1.34,53.49,6.32,78.13,16.98
				c4.17,2.36,5.34,6.99,3.45,13.91c-6.96,53.61-14.15,109.58-3.7,163.26c2.05,7.56,6.78,13.04,13.21,14.69
				c11.29,2.89,29.4,3.26,50.4,1.85c23.06-1.55,41.15-6.51,53.36-13.54c4.6-3.68,7.28-8.1,8.05-13.24
				c4.71-54.72-6.99-110.75-16.31-164.37c-1.56-3.79-1.05-6.29,1.53-7.5C1097.59,779.8,1125.17,776.36,1152.35,772.33z"/>
			<path class="st2" d="M1437.07,1037.6c-46.67,21.89-91.81,31.76-142.34,30.6c-18-0.41-42.16-9.6-54.44-23.92
				c-35.94-49.54-28.15-137.3-26.72-192.76c0.69-26.75,11.2-59.64,38.78-71.45c78.03-27.01,154.32-36.54,236.46-28.56
				c5.62,0.96,8.41,3.03,8.36,6.24c0.35,26.5-1.27,49.62-5.74,75.72c-1.53,4.53-6.14,6.73-13.78,6.55
				c-47.18,0.48-94.9,4.42-138.55,23.98c-7.68,3.11-12.82,8.21-13.7,14.16c-1.52,10.32,0.69,26.39,4.25,45.19
				c2.88,15.17,8.65,27.91,17.57,37.99c4.5,3.67,9.81,5.68,15.42,5.54c18.17-0.45,40.5-10.92,55.17-21.88
				c-3.87-21.23-8.51-43.04-10.64-63.84c-0.31-3.02,3.42-5.56,10.89-7.29c27.72-6.41,55.57-12.78,83.99-15.66
				c4.33-0.34,6.85,0.78,7.57,3.39c15.4,55.02,26.67,110.98,36.83,167.17c0.38,2.53-2.59,4.85-8.91,6.91
				c-30.78,8.06-61.01,13.5-92.65,16.78c-3.16,0.12-4.89-0.93-5.28-2.98C1438.84,1045.51,1437.9,1041.49,1437.07,1037.6z"/>
			<path class="st2" d="M1737.58,812.52c-13.98-40.61-28.49-81.51-41.82-121.86c-1.1-3.33-0.28-5.94,2.4-7.7
				c29.04-14.52,60.04-30.97,88.56-39.34c5.75-1.69,10.5-0.04,12.27,3.84c39.85,87.92,79.65,177.18,104.53,270.73
				c1.65,4.39,0.22,7.96-4.28,10.69c-28.99,16.9-61.59,26.37-93.74,35.07c-8.93,2.18-14.85,0.77-16.69-3.75
				c-8.06-19.8-14.77-42.66-22.13-64c-21.73,8.49-43.5,16.62-65.47,24.48c5.89,20.76,13.12,42.56,17.11,62.43
				c0.64,3.17-3.82,6.85-12.7,9.85c-32.88,11.1-66.82,20.88-101.64,25.96c-4.96,0.61-8.06-0.63-9.29-3.69
				c-27.6-94.37-52.17-189.78-68.56-286.8c-0.55-2.93,2.3-5.49,8.5-7.72c30.88-9.61,61.79-17.53,93.43-24.22
				c3.25-0.34,5.21,0.64,5.88,2.96c14.12,43.93,27.93,87.95,41.36,132.1C1696.06,825.21,1716.82,818.86,1737.58,812.52z"/>
		</g>
	</g>
	<g>
		<path class="st3" d="M708.9,850.31c0.16-5.85-1.59-11.44-6.17-15.34c-3.48-2.96-8.22-4.31-12.66-4.99
			c-8.69-1.32-17.43-2.34-26.15-3.51l-26.53-3.55c-4.59-0.61-9.27-1.49-13.78-0.2c-0.28-2.8-2.28-5.27-5.02-6.09
			c-3.19-0.97-7.26,0.47-8.54,3.8c-0.7,1.82-1.38,3.65-2.04,5.49c-0.29,0.82-0.55,1.65-0.86,2.46c-0.29,0.76-0.58,1.46-0.82,2.24
			c-0.19,0.55-0.35,1.12-0.47,1.69c0.08-0.29,0.17-0.57,0.25-0.86c-0.37,2.35-1.57,4.95-2.25,7.22c-0.25,0.82-0.64,1.71-0.76,2.56
			c0.39-2.82-0.21,0.41-0.47,1.6c-0.14,0.65-0.26,1.3-0.39,1.95c-1.56,7.75-2.83,15.61-3.19,23.51c-0.8,17.29,0.63,34.23,5.03,51
			c3.95,15.09,11.16,31.2,26.12,38.15c8.35,3.88,17.58,3.85,26.33,1.59c8.38-2.16,15.53-7.12,21.59-13.15
			c5.67-5.64,10.02-12.69,13.56-19.82c3.96-7.98,6.85-16.42,9.3-24.97c2.36-8.22,4.05-16.62,5.34-25.07
			C707.61,867.51,708.67,858.9,708.9,850.31z M652.64,846.77c-0.3-0.72-0.63-1.43-0.97-2.14c0.52,0.06,1.03,0.12,1.55,0.19
			C653.01,845.47,652.81,846.12,652.64,846.77z"/>
		<path class="st4" d="M707.39,861.35c0.96-8.39,2.57-17.9-4.71-24.1c-3.43-2.92-7.8-3.88-12.03-5c-3.31-0.88-6.62-1.74-9.94-2.57
			c-13.87-3.49-27.83-6.69-41.89-9.34c-7.89-1.49-16.29-3.79-23.54,1.06c-6.64,4.45-8.09,12.98-9.78,20.18
			c-1.81,7.69-2.94,15.72-3.81,23.57c-0.48,4.35-1.15,8.68-0.46,13.03c0.59,3.7,1.49,7.35,2.23,11.03
			c-0.36,0.45-0.68,0.94-0.96,1.45c-0.88,1.63-1.45,3.33-1.83,5.14c-0.46,2.22,1.85,3.62,3.76,3.05c1.19-0.36,2.22-0.6,3.16-0.75
			c1.86-0.31,3.5-1.06,5.31-1.6c1.29-0.38,2.58-0.78,3.88-1.15c0.06-0.02,0.09-0.03,0.14-0.04c0.33-0.07,0.67-0.15,1-0.21
			c0.85-0.17,1.71-0.31,2.58-0.43c2.99-0.41,6.01-0.78,9.03-0.94c1.48-0.08,2.96-0.12,4.44-0.11c0.07,0,0.24,0,0.41,0
			c0.22,0.01,0.48,0.01,0.58,0.02c0.89,0.04,1.77,0.09,2.66,0.16c3.05,0.24,6.08,0.67,9.08,1.27c1.45,0.29,2.9,0.62,4.33,0.99
			c0.77,0.2,1.53,0.41,2.29,0.63c0.28,0.08,0.57,0.17,0.85,0.24c0.03,0.01,0.04,0.01,0.06,0.02c5.93,1.91,11.63,4.42,16.98,7.62
			c0.24,0.14,0.55,0.28,0.76,0.46c-1.28-1.12,0.02,0.02,0.35,0.24c0.66,0.43,1.31,0.88,1.96,1.33c1.45,1.02,2.87,2.09,4.25,3.21
			c3.1,2.51,5.81,5.31,9.21,7.43c2.31,1.44,5.82,0.38,7.6-1.29c1.7-1.6,2.87-4.67,1.96-7.03c1.36-1.42,2.31-3.25,2.79-5.33
			C703.31,889.65,705.76,875.55,707.39,861.35z M626.13,838.91c0.1-0.27,0.2-0.53,0.3-0.79c0.37,0.06,0.73,0.1,1.1,0.17
			c0.18,0.03,0.37,0.07,0.55,0.11C627.43,838.54,626.78,838.71,626.13,838.91z"/>
		<path class="st0" d="M699.94,832.02c-5.13-4.79-27.48-6.19-34.01-6.49c-13.56-0.62-12.16,1.53-24.36-4.48
			c-3.04-1.5-11.93-2.85-15.45-2.63c-2.08,0.13-4.09,2.44-3.65,4.55c0.8,3.87,3.54,6.41,6.68,8.6c2.75,1.92,5.61,3.66,8.67,5.04
			c6.06,2.73,12.54,4.69,19.05,5.99c7.11,1.42,14.29,1.91,21.53,1.89c3.33-0.01,6.65-0.14,9.97-0.36c4.11-0.27,9.73-0.02,12.38-3.73
			C702.71,837.66,702.43,834.34,699.94,832.02z"/>
		<path class="st5" d="M626.32,814.61c-4.22-0.54-8.44-1.1-12.65-1.68c-4.37-0.6-5.36,5.81-1.09,6.73l0,0
			c17.25,3.73,34.56,7.27,51.92,10.46c8.8,1.62,17.6,3.24,26.39,4.93c4.11,0.79,8.22,1.51,12.35,2.22c0.48,0.08,0.97,0.16,1.45,0.25
			c0.29,0.05,1.29,0.56,0.8,0.13c-0.8-0.7-0.77-0.2-1.52-1.67c-0.37-0.72-0.02-0.45,0.01,0.04c0.15,2.52,0.01,4.4-0.08,6.71
			c-0.8,20.15-4.06,40.2-9.79,59.54c-0.19,0.62-0.34,1.11-0.71,2.28c-0.34,1.06-0.68,2.11-1.04,3.16c-0.71,2.1-1.46,4.19-2.26,6.26
			c-1.67,4.33-3.54,8.59-5.67,12.72c-3.89,7.53-8.51,14.24-14.82,20.54c-0.11,0.11-0.83,0.78-0.15,0.15
			c-0.43,0.4-0.87,0.78-1.31,1.17c-0.66,0.57-1.34,1.13-2.03,1.68c-1.6,1.26-3.27,2.44-5.01,3.51c-0.49,0.3-0.99,0.6-1.49,0.89
			c-0.14,0.08-1.01,0.53-0.16,0.09c-0.85,0.44-1.71,0.86-2.58,1.24c-1.9,0.84-3.86,1.54-5.87,2.06c1.09-0.28-1.17,0.22-1.49,0.27
			c-0.92,0.15-1.84,0.27-2.77,0.34c-0.84,0.07-1.68,0.09-2.52,0.09c1.38,0-0.47-0.04-0.62-0.05c-0.56-0.05-1.13-0.11-1.69-0.19
			c-1.35-0.19-2.69-0.47-4.01-0.8c-0.53-0.13-1.26-0.21-1.73-0.47c1.1,0.61,1.05,0.34,0.54,0.16c-0.38-0.14-0.78-0.25-1.16-0.39
			c-2.18-0.77-4.3-1.72-6.31-2.85c-0.52-0.29-1.77-1.4-0.36-0.18c-0.39-0.34-0.93-0.6-1.36-0.9c-0.93-0.65-1.83-1.33-2.7-2.06
			c-0.78-0.65-1.54-1.34-2.27-2.05c-0.31-0.3-0.96-0.74-1.13-1.15c0.43,1.02,0.73,0.81,0.19,0.18c-0.21-0.25-0.43-0.49-0.64-0.73
			c-1.45-1.71-2.77-3.52-3.96-5.42c-0.27-0.42-0.52-0.85-0.78-1.28c-0.17-0.29-0.33-0.58-0.5-0.87c-0.5-0.85,0.22,0.43,0.26,0.48
			c-0.7-0.97-1.17-2.26-1.67-3.35c-0.97-2.12-1.82-4.3-2.57-6.51c-0.38-1.14-0.74-2.28-1.07-3.44c-0.17-0.58-0.33-1.17-0.49-1.76
			c-0.08-0.3-0.15-0.59-0.23-0.89c-0.39-1.48,0.24,1.12-0.02-0.08c-0.53-2.46-1.05-4.92-1.45-7.41c-0.84-5.32-1.32-10.69-1.53-16.06
			c-0.11-2.84-0.15-5.67-0.12-8.51c0.01-0.68,0.02-1.36,0.03-2.04c0-0.16,0.08-0.72,0.02-0.82c0.35,0.61-0.04,1.21,0,0.22
			c0.05-1.43,0.1-2.87,0.18-4.3c1.03-20.22,4.76-40.16,10.06-59.67c0.57-2.1,0.87-4.34,0.91-6.51c-0.16,0.97-0.31,1.93-0.47,2.9
			c0.03-0.08,0.05-0.16,0.08-0.24c0.91-2.83,0.21-5.98-2.72-7.32c-2.46-1.12-6.4-0.13-7.32,2.72c0.18-0.26,0.36-0.52,0.55-0.77
			c-0.35,0.46-0.64,0.94-0.88,1.46c-0.1,0.19-0.19,0.39-0.28,0.58c-0.21,0.44-0.42,0.88-0.63,1.32c-0.19,0.41-0.41,0.82-0.58,1.24
			c-1.23,3.04-0.43,1.27-0.17,0.54c-0.13,0.36-0.22,0.73-0.33,1.09c-0.75,2.47-1.47,4.95-2.11,7.45c-1.23,4.77-2.32,9.59-3.29,14.42
			c-2.19,10.93-3.78,21.99-4.61,33.11c-0.89,11.94-1.04,24.03,0.41,35.93c1.29,10.57,3.77,21.33,8.78,30.8
			c5.02,9.49,12.29,17.49,22.1,22.14c5.74,2.72,12.09,4.25,18.43,4.35c8.81,0.15,17.43-3.34,24.66-8.18
			c15.7-10.5,25.66-28.15,32.04-45.49c7.13-19.39,11.44-40.04,13.37-60.58c0.5-5.29,0.82-10.59,0.98-15.9
			c0.08-2.78,0.46-5.83-0.51-8.51c-1.24-3.42-3.9-5.37-7.3-6.28c-3.98-1.07-8.24-1.59-12.32-2.18c-4.53-0.65-9.07-1.28-13.6-1.91"/>
	</g>
</g>
</svg>
