<?xml version="1.0" encoding="UTF-8" standalone="no"?>
<!-- Created with Inkscape (http://www.inkscape.org/) -->

<svg
   width="1920px"
   height="1080px"
   viewBox="0 0 1920 1080"
   version="1.1"
   id="SVGRoot"
   sodipodi:docname="LaughtMan_letters.svg"
   inkscape:version="1.1.1 (3bf5ae0d25, 2021-09-20)"
   inkscape:export-filename="/home/kan/RiderProjects/gestalt/logo.png"
   inkscape:export-xdpi="96"
   inkscape:export-ydpi="96"
   xmlns:inkscape="http://www.inkscape.org/namespaces/inkscape"
   xmlns:sodipodi="http://sodipodi.sourceforge.net/DTD/sodipodi-0.dtd"
   xmlns="http://www.w3.org/2000/svg"
   xmlns:svg="http://www.w3.org/2000/svg">
  <sodipodi:namedview
     id="namedview920"
     pagecolor="#505050"
     bordercolor="#eeeeee"
     borderopacity="1"
     inkscape:pageshadow="0"
     inkscape:pageopacity="0"
     inkscape:pagecheckerboard="true"
     inkscape:document-units="px"
     showgrid="false"
     inkscape:zoom="0.91045176"
     inkscape:cx="1196.6587"
     inkscape:cy="-142.23708"
     inkscape:window-width="1920"
     inkscape:window-height="1080"
     inkscape:window-x="0"
     inkscape:window-y="0"
     inkscape:window-maximized="1"
     inkscape:current-layer="text897"
     showguides="true"
     inkscape:guide-bbox="true"
     inkscape:lockguides="true">
    <sodipodi:guide
       position="1156.4746,503.40116"
       orientation="1,0"
       id="guide849"
       inkscape:locked="true" />
    <sodipodi:guide
       position="767.05304,503.40116"
       orientation="1,0"
       id="guide851"
       inkscape:locked="true" />
    <sodipodi:guide
       position="826.50141,587.58462"
       orientation="1,0"
       id="guide875"
       inkscape:locked="true" />
    <sodipodi:guide
       position="1074.8903,840.7903"
       orientation="0,-1"
       id="guide877"
       inkscape:locked="true" />
    <sodipodi:guide
       position="1097.0262,587.58462"
       orientation="1,0"
       id="guide879"
       inkscape:locked="true" />
    <sodipodi:guide
       position="826.50145,565.69773"
       orientation="0,-1"
       id="guide906"
       inkscape:locked="true" />
  </sodipodi:namedview>
  <defs
     id="defs915">
    <rect
       x="359.72718"
       y="373.86276"
       width="128.028"
       height="129.71904"
       id="rect314" />
    <marker
       style="overflow:visible"
       id="Arrow1Sstart"
       refX="0.0"
       refY="0.0"
       orient="auto"
       inkscape:stockid="Arrow1Sstart"
       inkscape:isstock="true">
      <path
         transform="scale(0.2) translate(6,0)"
         style="fill-rule:evenodd;fill:context-stroke;stroke:context-stroke;stroke-width:1.0pt"
         d="M 0.0,0.0 L 5.0,-5.0 L -12.5,0.0 L 5.0,5.0 L 0.0,0.0 z "
         id="path1431" />
    </marker>
    <marker
       style="overflow:visible"
       id="Arrow1Lstart"
       refX="0.0"
       refY="0.0"
       orient="auto"
       inkscape:stockid="Arrow1Lstart"
       inkscape:isstock="true">
      <path
         transform="scale(0.8) translate(12.5,0)"
         style="fill-rule:evenodd;fill:context-stroke;stroke:context-stroke;stroke-width:1.0pt"
         d="M 0.0,0.0 L 5.0,-5.0 L -12.5,0.0 L 5.0,5.0 L 0.0,0.0 z "
         id="path1419" />
    </marker>
    <rect
       x="359.72717"
       y="373.86276"
       width="128.028"
       height="129.71904"
       id="rect314-3" />
  </defs>
  <g
     inkscape:label="Capa 1"
     inkscape:groupmode="layer"
     id="layer1">
    <g
       id="g1032"
       transform="translate(1107.4523,-1056.9138)"
       inkscape:export-filename="/home/kan/RiderProjects/Gestalt/logo.png"
       inkscape:export-xdpi="96"
       inkscape:export-ydpi="96">
      <path
         inkscape:connector-curvature="0"
         style="font-size:12px;fill:none;fill-opacity:0.9961;fill-rule:evenodd;stroke:none;stroke-width:2.87088"
         d="m 210.1734,1604.8275 c 0,201.829 -163.7812,365.3583 -365.9883,365.3583 -202.08085,0 -365.86216,-163.5293 -365.86216,-365.3583 0,-201.703 163.78131,-365.2323 365.86216,-365.2323 202.2071,0 365.9883,163.5293 365.9883,365.2323 z m -24.1893,-0.5039 c 0,187.9705 -152.9006,345.1969 -341.6272,345.1969 -188.85238,0 -341.97071,-157.2264 -341.97071,-345.1969 0,-188.0966 152.94655,-340.5392 341.79891,-340.5392 188.7266,0 341.799,152.4426 341.799,340.5392 z"
         id="path663-9"
         sodipodi:nodetypes="ssssssssss" />
      <g
         aria-label="The world is indeed comic, but the joke is on mankind"
         transform="matrix(-0.52965605,0.92199675,-0.91739119,-0.53231507,1240.5992,2591.8912)"
         id="text897"
         style="font-size:90.3982px;line-height:0;letter-spacing:-8.70083px;white-space:pre;fill:#ffffff;stroke:#000000;stroke-width:0">
        <path
           d="m 258.22794,1653.3146 q -0.54118,-0.036 -4.39562,-0.6556 -3.76424,-0.6135 -5.83879,-0.7518 -0.37277,-1.2027 -0.75156,-2.3151 -0.37879,-1.1125 -1.2567,-1.5335 -0.018,-1.0883 3.36149,-2.8561 3.74619,0.8841 10.63732,0.8002 0.91406,-1.4793 4.40179,-3.5116 0,0 -1.31085,-0.7216 -0.7817,-0.5052 -0.7095,-1.5875 0.0662,-0.9922 0.71562,-1.2207 0.73362,-0.1322 0.92003,-0.2104 0.0301,-0.451 -0.66743,-0.8599 -1.21464,-0.8058 -1.21464,-0.8058 -1.16655,-0.1684 -4.7504,-0.7699 -3.21703,-0.6676 -4.11901,-0.7278 -4.1491,-0.2767 -32.08644,0.2153 -1.34098,1.0883 -4.38981,4.6901 -3.05485,3.692 -5.06933,5.3696 -2.12865,-0.6856 -2.71787,-2.7181 -0.37277,-1.2026 -0.18625,-3.9987 0.0602,-0.902 0.22884,-8.8635 0.16867,-7.9615 0.22883,-8.8634 0.19254,-2.8864 2.70013,-5.1653 l 4.87068,0.3249 q 1.03413,3.5118 2.06827,7.0235 1.7677,4.7385 4.02264,4.8889 0.45099,0.03 3.55983,-0.3967 2.74203,-0.3607 4.44376,-0.066 0.28263,-0.1623 1.41313,-0.8117 3.2772,-0.2344 5.97707,1.3953 0.61333,0.3127 2.43534,0.1624 2.0926,-0.1322 3.16294,0.1204 0.75768,-0.4931 2.18284,-1.4852 1.61153,0.2887 3.12684,0.6616 1.51531,0.3729 2.78405,1.7259 l 5.50206,0.367 q 3.19909,-1.7798 3.39152,-1.9481 1.62361,-1.2507 1.75598,-3.2351 0.23464,-3.5177 -4.45564,-3.8306 l -0.27059,-0.018 q -1.53336,-0.1023 -1.9663,-0.403 -1.4191,-0.457 -2.79007,-1.6357 -0.26457,-0.1082 -1.02827,0.475 -0.67952,0.6795 -1.76189,0.6073 l -3.06672,-0.2046 q -0.51111,-0.487 -1.11241,-0.9802 -0.5111,-0.487 -0.43289,-1.6596 0.12034,-1.804 3.46984,-5.8387 5.4058,1.8102 8.76718,1.672 8.26215,-0.2643 12.09241,3.434 0.96204,1.8762 0.56495,7.8292 -0.66183,9.9218 -2.34006,24.2151 -0.62557,5.3036 -10.09634,4.6718 z"
           style="font-family:'Love Letter Typewriter';-inkscape-font-specification:'Love Letter Typewriter, Normal'"
           id="path867" />
        <path
           d="m 199.48408,1704.3311 q -1.15048,-2.0753 -0.86554,-3.4933 0.17809,-0.8863 0.96334,-6.6296 0.78525,-5.7434 0.96334,-6.6297 0.64112,-3.1905 3.33762,-5.1382 l 3.19056,0.6411 q 2.88864,1.2259 1.57079,7.7843 0.90366,0.5504 2.41032,0.8531 1.06352,0.2137 2.76523,0.4635 1.79034,0.2675 2.23348,0.3565 1.15214,0.2316 2.73003,0.1798 1.66651,-0.034 2.10965,0.055 1.24077,0.2493 2.1614,1.633 1.43792,-2.1084 2.76774,-2.3022 0.86888,-0.1943 2.60579,0.3392 1.71911,0.622 2.87167,0.3926 0.10644,-0.071 4.34688,-3.7368 1.79201,-1.5762 2.20161,-3.6146 0.26713,-1.3294 0.14331,-1.6309 -0.15903,-0.5852 -1.59403,-1.7034 -0.0352,-0.2837 0.97572,-0.726 1.50749,-0.6191 2.25254,-1.1149 -0.61955,-1.0465 -2.99425,-2.0769 0.0182,-0.5496 -0.98978,-3.3339 -2.58798,-0.4278 -6.91246,-1.85 -0.74421,-0.4261 -2.79918,-2.1299 -1.55883,-1.4197 -2.53372,-1.6156 -1.15215,-0.2316 -1.75556,0.477 -0.28411,0.4962 -0.56821,0.9923 -2.63933,-2.4666 -7.24875,-2.4708 -1.54352,1.2573 -3.95884,5.9355 l 1.09747,1.8802 q -0.97572,0.726 -6.54223,0.4373 -0.63361,-5.1064 -0.31305,-6.7017 0.0178,-0.089 1.04988,-4.3071 1.01427,-4.1298 1.63758,-7.2317 0.92605,-4.6086 1.23005,-7.4981 l 3.19056,0.6411 q 0.86721,1.6496 3.39968,4.648 0.21203,0.7802 0.42407,1.5605 0.30025,1.259 0.0335,2.1274 0.54915,0.4792 2.63974,2.0057 1.45281,1.0296 2.08975,2.4485 l 22.33392,4.4878 q 1.36669,-1.7539 2.78471,-1.469 1.06352,0.2137 1.8069,1.5618 2.35939,-1.6466 9.64542,-1.1968 1.54435,-2.1793 5.76782,-6.6785 l 4.92706,1.6355 q -0.62039,-0.1247 -0.76286,0.5844 -0.0712,0.3545 0.0166,1.2942 0.07,1.0283 -10e-4,1.3828 -0.2311,0.6912 -0.37482,2.783 -0.0551,2.1097 -0.21537,2.9073 -0.1959,0.9749 -1.54478,2.6402 -1.11819,1.435 -2.23639,2.87 -1.71911,-0.6221 -4.68149,1.2722 -1.46853,-3.2457 -4.30459,-3.8155 -3.54506,-0.7124 -4.50382,0.8468 -0.87012,1.5771 -4.62806,1.0064 -0.54998,0.4427 -0.87054,2.038 -0.53427,2.6588 0.77691,3.4755 2.05539,1.2428 2.42687,2.1473 -2.03842,-0.4096 -2.43021,1.5402 -0.16028,0.7977 0.35242,2.376 0.40668,1.1881 0.90199,2.3941 -4.16795,1.9287 -5.78521,6.3062 -1.91584,1.2747 -2.76566,0 -7.82154,3.5918 -11.31401,3.5354 -5.08734,-0.8378 -10.19248,-1.587 -0.28327,-0.4258 -1.15173,-0.6925 -0.88627,-0.1781 -1.16954,-0.6038 -0.49656,0.1768 -0.93969,0.088 -0.53176,-0.1069 -1.31118,-0.8167 -1.00967,-0.9406 -1.32856,-1.189 -1.59737,1.9841 -4.58215,9.0374 l -0.97573,0.726 z"
           style="font-family:'Love Letter Typewriter';-inkscape-font-specification:'Love Letter Typewriter, Normal'"
           id="path869" />
        <path
           d="m 209.2839,1752.2715 q -1.79391,-0.621 -3.14756,-2.2375 -1.5212,-1.9615 -0.9002,-3.7555 -0.29572,0.8543 1.50154,-3.7849 1.12042,-2.9603 1.45557,-4.7575 -0.0263,-0.2005 1.07111,-1.1598 1.15324,-0.8444 1.47853,-1.7841 0.26614,-0.7688 0.0855,-2.4576 -0.21026,-1.6034 0.0855,-2.4576 0.29571,-0.8543 2.16195,-4.0347 1.86624,-3.1804 2.16195,-4.0347 0.38443,-1.1105 -1.91217,-2.7664 -1.78735,-1.1927 -2.72702,-1.518 -3.58784,-1.242 -8.9631,3.7849 -4.53742,4.2646 -5.57241,7.2545 -0.26614,0.7688 -0.81158,3.4498 -0.54543,2.6811 -0.81486,3.7357 0.82139,0.667 3.16069,3.5814 1.66248,2.106 3.63054,2.5003 -1.28472,4.8167 -3.19037,6.4529 -0.77208,-2.4675 -4.15621,-4.0216 -1.04481,-1.127 -0.64065,-3.9526 -0.24312,-1.2321 -2.57258,-2.5168 -1.00863,-4.2712 -2.10268,-8.5721 -0.0756,-0.8871 1.25514,-4.7312 0.17743,-0.5125 0.391,-1.6822 0.23986,-0.9692 0.50271,-1.4522 0.35157,-0.7393 0.78527,-1.1631 2.45763,-2.4017 7.62261,-6.5448 0.22999,-0.1117 2.69747,-0.8838 2.06663,-0.7195 2.84861,-1.5968 15.53749,1.2652 19.46703,2.6254 0.85424,0.2957 2.49702,1.6297 1.69863,1.449 2.26703,1.7414 0.28253,2.7763 1.37661,4.59 3.61083,1.7282 5.35871,6.351 -0.97921,10.5664 -2.10292,13.8126 -0.38442,1.1105 -2.35579,3.4892 -1.88595,2.4084 -3.58789,3.7324 -1.64609,1.4391 -4.65569,2.1192 -1.74793,0.3515 -6.23932,0.6143 -1.02181,-0.6407 -1.87935,-0.6506 -1.90565,1.6362 -3.0786,1.7085 -0.48627,0.023 -2.45104,-0.6571 z m 12.97483,-7.0836 q 1.71181,-2.1816 3.30865,-6.7945 0.0887,-0.2563 2.13901,-9.4953 -1.97461,-2.3098 -5.02359,-5.6611 -0.80497,0.3909 -2.1915,1.6329 -0.13144,1.485 -0.54543,2.681 -0.76885,2.221 -2.70079,3.6568 -1.93193,1.4358 -1.90236,1.3504 -0.32528,0.9396 0.0492,3.1738 0.37453,2.2342 0.10839,3.0031 -0.26614,0.7688 -1.3931,1.8136 -1.15654,1.1302 -1.21568,1.3011 1.56064,1.0185 4.60965,1.8826 5.4409,1.6922 4.7575,1.4556 z"
           style="font-family:'Love Letter Typewriter';-inkscape-font-specification:'Love Letter Typewriter, Normal'"
           id="path871" />
        <path
           d="m 177.85587,1840.6995 q -2.99324,-1.517 -4.91215,-5.1323 0.47249,-0.7707 0.61193,-2.3817 -0.99684,-1.1414 -4.49469,-3.3919 -3.49785,-2.2505 -4.75571,-3.6579 -2.40378,-3.1702 -7.45494,-9.9782 -2.58774,-3.3891 -7.74852,-8.4617 0.40781,-0.4923 2.95924,-4.6539 4.11439,2.6285 9.7903,4.0936 5.24332,1.306 9.75587,1.2096 0.31374,-3.6249 -3.89745,-7.4791 -0.49223,-0.4078 -7.82098,-5.7492 -0.75829,-0.1468 -2.5111,-0.055 l -2.08082,-1.2757 q -0.37526,-1.2904 0.85321,-3.2941 1.37022,-2.235 4.15746,-3.4952 2.15789,1.323 4.55202,2.2606 1.13628,-0.4697 3.12534,-0.9468 8.81089,2.7509 10.85685,4.4294 3.93591,-1.4042 12.13257,2.3486 1.05417,0.01 2.46155,-1.2478 1.82484,0.4826 5.27818,0.9032 0.90508,-0.6115 3.67489,-1.6702 l 4.62405,2.8349 q -0.39081,3.5776 -1.09954,4.7337 -0.42524,0.6936 -1.41977,0.9321 -1.04178,0.3156 -1.51427,1.0863 -0.47248,0.7707 -0.61193,2.3817 -0.13944,1.6111 -0.61192,2.3818 -0.61424,1.0019 -2.44181,2.4262 -1.51427,1.0863 -3.15285,2.2024 l -2.9483,-2.9739 1.95924,-0.6014 q -0.16148,-0.9473 -1.46659,-2.2776 -2.2423,-2.223 -2.39643,-2.3175 0.14174,-0.2312 0.9225,-0.8129 0.85782,-0.5344 1.28306,-1.228 -0.2312,-0.1418 -0.96701,-1.017 -0.706,-0.751 -1.47667,-1.2234 -3.73727,3.3286 -10.82747,-1.0183 -2.08082,-1.2757 -4.3878,-3.2203 -0.17891,-0.7459 -1.02939,0.6413 -0.66149,1.079 2.99007,6.7108 3.72863,5.6791 5.96358,7.0493 9.17103,5.6226 8.24622,5.0556 -0.37799,0.6165 0.12893,2.7299 -1.54178,2.3419 -5.95479,1.757 -3.85611,-0.4555 -7.47828,-2.6762 -1.31015,-0.8032 -2.17028,-1.6486 -4.62951,0.9789 -11.45409,-0.3422 2.78178,2.5538 2.79374,6.1663 4.04236,2.0542 18.04112,11.909 l -0.16926,1.4867 q -1.64362,1.6432 -3.36431,3.2392 -2.56613,2.4561 -4.5428,3.2589 z m 9.41849,-23.4913 q -0.20873,-0.8703 -1.17575,-1.8873 -0.75598,1.2331 0.2459,1.8474 0.38534,0.2362 0.92985,0.04 z"
           style="font-family:'Love Letter Typewriter';-inkscape-font-specification:'Love Letter Typewriter, Normal'"
           id="path873" />
        <path
           d="m 136.00162,1865.3879 q -3.17584,-2.542 -8.25655,-8.9246 -1.93352,-2.3582 -1.3807,-10.7158 0.49633,-8.2871 1.96507,-10.122 0.50841,-0.6352 1.29943,-2.202 0.73452,-1.4963 1.29942,-2.2021 0.84735,-1.0586 4.53268,-3.2035 3.68532,-2.1449 6.35382,-3.0195 3.21917,-1.1286 5.70365,-0.1821 8.83693,3.1366 12.15391,5.7916 6.49282,5.1971 8.72241,9.066 3.42904,5.9868 3.07509,9.7562 -0.1557,1.4964 -1.62475,4.489 -1.9917,4.0796 -2.18949,4.616 -0.19779,0.5364 -0.32532,2.287 -0.0427,1.3553 -0.72059,2.2022 -2.09013,2.6112 -7.04595,4.3182 -0.31061,0.099 -2.88053,1.8627 -2.32987,1.6088 -3.28989,1.6509 -3.34592,-0.015 -8.18798,-1.3433 -5.95732,-1.5263 -9.20373,-4.1249 z m 2.71276,-8.0182 q 0.84689,0.6779 1.49629,0.7345 0.64941,0.057 1.15766,3e-4 1.34076,1.6522 5.59006,2.2745 3.74104,0.6787 5.36471,0.2414 4.06621,-1.0295 5.93038,-3.3584 1.35576,-1.6938 3.78591,-8.7803 -0.5081,-0.5225 -1.02998,-2.3297 -0.70528,-2.3014 -0.95925,-2.8521 -0.25398,-0.5506 -3.42981,-3.0927 -3.88158,-3.107 -5.57551,-3.8839 -2.63972,-1.1866 -8.66792,-1.6117 -0.35302,0.2964 -2.41453,1.4252 -1.75088,1.0302 -2.37227,1.8065 -0.5649,0.7057 -0.62155,1.3551 -0.0566,0.6494 -0.62154,1.3552 -0.67788,0.8469 -1.18614,0.9032 -0.43768,0.1128 -1.01651,0.1127 0.16993,-1.9482 -1.31213,-3.1345 -0.63516,-0.5084 -1.4398,-0.8051 l -2.42907,3.0347 q -0.86206,3.2468 1.46689,5.111 1.41148,1.1298 4.33365,1.9635 2.32725,8.2313 3.95046,9.5306 z"
           style="font-family:'Love Letter Typewriter';-inkscape-font-specification:'Love Letter Typewriter, Normal'"
           id="path875" />
        <path
           d="m 109.58091,1905.9863 q -2.22203,-2.2523 -1.50116,-4.8683 0.91047,-2.295 1.82094,-4.5901 2.42808,0.1443 4.27006,1.8827 1.58717,1.6088 3.17433,3.2177 0.76704,0.01 1.98974,-1.2011 1.86623,-1.8411 0.86431,-4.9162 0.63486,0.6436 2.42461,0.6557 -0.56011,-2.2411 -0.40802,-5.8197 0.14776,-2.9395 0.35988,-5.9424 -0.57311,-0.3235 -1.14449,-0.9027 -1.07927,-1.094 -2.59776,-3.4055 -1.45499,-2.2471 -1.8994,-2.6976 -0.76183,-0.7722 -1.46452,-0.8409 -0.89314,-0.2618 -0.95663,-0.3261 -0.56791,-1.0906 -1.5837,-2.1202 -3.99965,-4.0542 -7.2173,-0.8799 -0.57917,0.5714 -0.4522,0.7001 0.0635,0.064 0.19133,0.065 0.0635,0.064 0.12697,0.1287 0.0626,0.1922 -0.38785,0.6366 -1.2227,1.2063 -4.22823,1.3777 -1.725397,-0.076 -3.515149,-0.088 l -3.872682,-3.9255 q 1.604489,-0.948 4.051629,-3.6161 3.607222,-4.0666 3.028052,-3.4953 1.99493,-1.9681 6.02058,-1.749 0.77223,-0.7618 0.0834,-2.876 0.5887,-1.9776 5.2221,-6.5486 3.34635,-3.3013 5.71874,-4.3719 l 2.79341,2.8315 q 0.24615,1.408 -0.0295,4.3465 -0.19306,0.1905 -3.2612,0.1697 l -2.3167,2.2855 q 0.37485,1.281 2.5334,3.469 -1.67751,2.2899 -1.43222,3.8257 0.0574,0.9592 1.2628,2.3097 1.26886,1.4149 1.51848,2.3115 0.76703,0.01 2.37586,-1.5819 0.8054,3.7769 4.23367,7.2519 1.20625,1.2227 3.6326,1.6227 2.42635,0.4 2.93424,0.9148 0.5079,0.5148 0.56445,1.6019 6.72153,-1.4247 8.78516,-4.0954 l 4.41002,0.094 3.8014,5.0117 -5.7274,5.6503 q -0.64353,0.6349 -3.84038,0.741 -3.2612,0.1697 -3.90473,0.8046 -0.57918,0.5714 -1.03658,2.0385 -0.4574,1.4671 -1.03657,2.0385 -0.64353,0.6348 -2.43848,1.3898 -1.79495,0.7549 -2.43848,1.3897 -0.77223,0.7619 -0.45913,1.7228 0.31223,1.0888 0.68882,2.1141 -0.51135,0 -1.5306,-0.5217 -1.08361,-0.4548 -1.59497,-0.4583 -0.78176,2.1681 -1.42529,2.803 -0.45047,0.4444 -1.0914,0.6957 -0.003,0.3835 0.31484,0.7053 0.19046,0.1931 0.89141,0.5174 0.70095,0.3244 0.89141,0.5174 -0.073,1.3419 -1.61748,2.8656 -1.02965,1.0158 -1.99148,1.4567 -2.23242,-0.7182 -2.42375,-0.7835 -1.65931,-0.3947 -3.06728,-0.1486 -0.7705,0.5062 -2.43501,0.8784 -2.87336,-0.4669 -4.65098,-2.2688 z"
           style="font-family:'Love Letter Typewriter';-inkscape-font-specification:'Love Letter Typewriter, Normal'"
           id="path877" />
        <path
           d="m 52.035118,1908.1316 q 1.579,-1.2091 4.314141,-4.3283 2.735142,-3.1191 3.237551,-3.5038 15.072276,-11.5414 23.318365,-16.831 l 1.212359,0.096 2.912835,3.804 q 0.0517,1.5544 -2.692477,3.7696 -2.52886,2.0503 -1.648253,5.1332 -1.820169,0.5968 -7.706794,3.1689 -0.05044,0.3802 0.169396,0.6672 -0.109919,-0.1435 1.855056,1.0844 0.614847,3.6281 1.768989,5.1353 0.879346,1.1483 2.180292,1.063 1.300947,-0.085 1.410865,0.058 1.044224,1.3637 0.525001,1.8752 -0.464264,0.5832 0.03037,1.2291 0.824387,1.0766 4.196967,3.8454 -0.261241,0.997 -0.728763,3.0629 3.08297,-0.8806 6.380518,3.4258 0.934306,1.2201 2.10978,3.0526 1.361684,2.373 1.471602,2.5165 1.082369,1.5622 3.592417,3.0559 1.470345,0.5819 1.601595,1.0507 -0.33754,0.6 -0.51797,2.4461 0.46101,0.8994 3.50257,1.3029 0.93305,-0.7145 0.0537,-1.8628 0.92527,0.3162 1.85054,0.6324 1.36042,0.4384 2.2217,-0.2211 0.71772,-0.5496 0.49789,-0.8367 -0.21984,-0.2871 0.49789,-0.8367 2.3685,-1.8136 7.66413,-3.8193 0.8826,-0.3342 3.45539,0.2005 3.2614,0.6906 3.96683,0.7198 -0.24642,4.2875 -2.32783,5.8813 -0.14355,0.1099 -7.7482,4.453 -7.62147,4.4697 -11.06656,7.1078 -1.31902,-1.7226 -5.068536,-6.0244 -3.749517,-4.3019 -5.50821,-6.5986 -2.308284,-3.0144 -3.433317,-5.2271 -0.0931,-0.2703 -1.29317,-0.9453 -1.145105,-0.6033 -1.694697,-1.3211 -5.605833,-7.3208 -7.993666,-9.2496 -1.567965,-1.3042 -2.337394,-2.309 -0.879346,-1.1484 -0.618105,-2.1454 0.3162,-0.9253 -0.06851,-1.4277 l -3.022754,-3.9475 q -0.561886,-0.139 -1.186509,0.6808 -0.784982,1.0565 -0.856755,1.1115 -1.34361,-0.5651 -3.768329,-0.7579 -3.185111,-0.2936 -4.333475,0.5858 -0.502409,0.3847 -2.799137,2.1434 -2.368501,1.8136 -3.66041,2.8029 -0.363382,-0.1772 -0.803055,-0.7514 -0.274796,-0.3588 -0.900679,-1.4736 -0.697655,-1.0597 -1.137328,-1.6339 -0.549592,-0.7177 -1.077851,-1.1102 z m -0.97193,5.8678 q -0.723506,-1.837 -1.32028,-3.6572 -0.668546,-1.7652 -0.445451,-2.9607 3.496054,4.2682 3.695818,6.1646 -1.427678,0.069 -1.930087,0.4533 z"
           style="font-family:'Love Letter Typewriter';-inkscape-font-specification:'Love Letter Typewriter, Normal'"
           id="path879" />
        <path
           d="m 3.9397237,1936.6281 q 1.2444092,-0.1918 3.4294752,-1.6515 3.3503431,-2.3354 3.0365621,-2.1557 6.118734,-3.5041 8.968318,-1.8024 0.08848,-1.3008 3.292643,-4.0733 2.935311,-2.5144 2.316404,-4.8684 0.493477,0.1341 1.200172,0.4586 0.673173,0.4478 1.16665,0.5819 0.480701,-1.5253 0.03146,-2.3098 0.459269,-0.4713 1.715081,-0.4613 1.255812,0.01 2.097279,0.5699 0,0 -0.124743,-1.4912 -0.09053,-0.8857 0.850808,-1.4248 0.784454,-0.4492 1.143846,0.1783 0.359392,0.6276 1.143845,0.1784 0.627563,-0.3594 0.537714,-0.5163 -0.04492,-0.079 -0.08985,-0.1569 0,0 -0.123369,-0.034 -0.05633,-0.2803 0.571236,-0.6397 0.862898,-0.4942 2.90385,-0.2046 2.567951,0.3004 3.453655,0.2098 l 0.627562,-0.3594 q 1.447598,1.2545 12.013123,4.7877 0.157578,0.6389 0.561894,1.345 0.763708,1.3335 2.716873,3.6527 1.953164,2.3191 2.222709,2.7898 0.404316,0.706 1.314886,3.2055 1.101669,3.0152 1.663562,4.3601 0.236023,0.5941 -0.199754,2.1979 -0.514222,1.6487 -0.547056,2.5009 0.864959,1.6923 1.900272,5.6829 -2.083128,2.5473 -3.861818,6.8994 -1.991219,4.8905 -1.383715,7.0428 -0.638965,0.1575 -2.00743,-0.413 -1.828422,-0.828 -2.523714,-0.9507 -4.370819,2.1906 -5.043305,2.4715 -3.609172,1.3377 -6.995784,0.8812 -0.222559,1.7942 -2.057575,5.8661 2.681291,1.5896 2.929403,3.1143 2.545832,0.6255 5.17011,1.2061 2.669201,0.659 3.610545,0.1199 0.706008,-0.4043 1.702991,-1.392 0.996984,-0.9876 1.702992,-1.3919 3.765375,-2.1564 8.03769,-1.7904 l 2.650518,4.6283 q -6.656449,4.0203 -9.794262,5.8173 -0.784453,0.4492 -0.581951,1.1667 0.124056,0.7623 -0.660397,1.2115 -1.333571,0.7637 -5.481143,1.8889 -4.753017,1.1594 -7.343086,1.1842 -0.482761,-0.661 -2.435926,-2.9802 -1.695023,-2.0503 -2.234111,-2.9916 -0.359393,-0.6276 -0.9783,-2.9816 -0.697353,-2.3092 -1.157995,-3.2954 -1.145906,-2.3648 -2.370258,-4.6846 -1.393331,-3.1607 -1.294141,-4.9884 -0.651742,-1.5018 -3.857971,-0.9158 0.794482,-1.705 0.614099,-2.7476 -0.07913,-0.6839 -0.989015,-2.4546 -0.584012,-1.0198 -0.439211,-2.0403 L 19.609,1942.3424 q -0.897107,-0.1113 -4.531831,-2.0925 -3.006475,-1.6118 -4.575381,-0.7133 -0.7844534,0.4493 -1.4113291,1.5375 -1.5267298,-1.9384 -3.8479416,-2.1716 z m 19.7491223,4.1076 q 3.206229,-0.5861 3.857971,0.9157 -0.234649,0.8636 -2.117337,1.9418 0.404316,0.706 1.918269,0.9849 1.85054,0.5028 2.355421,0.8387 -1.713021,2.6478 -1.173933,3.5891 3.172708,-0.4627 3.285361,0.098 -0.134085,0.4935 -0.805884,1.5033 -0.6718,1.0097 -0.805885,1.5032 2.521653,-1.2357 4.54186,0.8367 1.133816,1.4341 2.189187,2.9132 3.172708,-0.4627 5.809761,1.7773 0.716724,-0.9313 2.924596,-1.9874 5.267238,-2.8081 8.09127,-4.4253 -0.864273,-0.9635 -0.272292,-3.386 0.502819,-1.8505 0.960715,-3.7795 -1.450345,-4.1697 -0.512436,-8.3528 -1.886809,-3.2947 -4.919524,-8.9542 -3.656156,-0.9272 -3.824449,-1.0392 -1.817019,-0.6262 -3.017878,-1.8136 -0.15689,0.09 -0.335899,0.5049 -0.212531,0.5384 -1.075429,1.0326 -0.941344,0.5391 -3.744631,0.3735 -2.242766,-0.2782 -4.485533,-0.5564 0.695979,0.8515 0.96621,2.051 0.23671,1.3229 -0.626189,1.817 -0.784453,0.4493 -2.45461,0.9891 -1.670157,0.5397 -2.297719,0.8991 -0.784453,0.4493 -0.738843,1.2565 0.04561,0.8073 -0.738842,1.2565 -1.490461,0.8536 -1.858508,2.9395 -0.70326,3.3195 -1.0948,4.273 z"
           style="font-family:'Love Letter Typewriter';-inkscape-font-specification:'Love Letter Typewriter, Normal'"
           id="path881" />
        <path
           d="m -36.155604,2010.4716 q -0.846852,-2.6713 0.265145,-6.3429 1.139316,-3.5855 2.862751,-4.1318 0.861718,-0.2732 3.730493,0.9985 3.663203,1.6836 4.289505,1.8644 3.032279,9.5651 -0.0699,10.5485 l -7.066083,2.2401 q -3.602139,-3.8842 -4.011907,-5.1768 z m -26.95628,-46.7414 q 1.269678,-4.6699 1.473558,-4.9242 0.439295,-0.7083 3.62765,-1.7191 3.44687,-1.0927 5.60739,-0.2603 l 1.28635,-1.9251 2.637578,1.4398 q 0.832392,-2.1605 1.036271,-2.4148 0.20388,-0.2543 1.841143,-0.7733 0.08617,-0.027 3.419552,-1.1789 3.219891,-1.2104 5.660018,-1.8892 3.44687,-1.0927 5.710435,-1.4309 0.159689,0.8028 3.017818,4.7332 -3.381789,2.4945 -7.09762,2.4397 -0.470831,0.9079 -0.578094,2.3644 -0.166117,1.57 -0.288043,2.0828 -3.390226,3.0662 -2.022124,5.2878 -0.838618,0.6452 -2.12075,2.2845 l 2.977644,9.3927 q 1.675026,0.7966 3.053774,0.3595 0.08195,0.2585 0.09662,1.2022 0.04198,1.0299 0.342477,1.9778 0.273179,0.8617 1.004534,1.673 0.672501,0.9248 0.922579,1.4145 0.821745,0.4981 2.105885,0.66 2.114321,0.088 2.227811,0.1473 1.210421,3.2198 2.675341,2.7554 1.98195,-0.6283 2.770151,-1.7316 0.498149,-0.8218 0.882808,-1.7024 0.8344,-0.3593 5.74177,2.2576 0.245861,0.7755 -0.554995,2.7364 -1.275905,3.1546 -1.397831,3.6674 -1.902005,-0.9144 -6.004503,-1.8898 -1.359867,1.095 -1.664783,4.3211 -0.453958,-0.2354 -1.103359,-0.7882 -0.649402,-0.5528 -1.10336,-0.7882 -0.657838,0.019 -0.849264,3.3038 l -2.154294,0.683 q -0.861718,0.2732 -2.051249,-0.4877 -1.275704,-0.7336 -2.137421,-0.4604 -1.551092,0.4917 -2.492754,2.3075 -3.377168,-5.5676 -5.808455,-13.2369 -0.628311,-1.9819 -1.68527,-5.9143 -1.115812,-3.8189 -1.716805,-5.7146 -1.420527,-4.481 -3.057589,-7.8501 -2.492552,-1.5806 -6.225255,-0.4921 -4.880254,1.3574 -6.277884,1.1367 1.292577,-0.4098 1.822262,-1.4312 -0.378231,-1.4922 -3.549713,-1.6248 z"
           style="font-family:'Love Letter Typewriter';-inkscape-font-specification:'Love Letter Typewriter, Normal'"
           id="path883" />
        <path
           d="m -99.280236,1979.7376 q -1.336104,-6.7391 1.116175,-10.1744 2.167916,-3.0102 7.842939,-4.1354 0.620705,-0.123 2.180874,-0.1559 1.56017,-0.033 2.446892,-0.2086 0.79805,-0.1582 1.489847,-0.3876 0,0 1.029677,-0.8492 0.958584,-0.743 1.933979,-0.9364 0.886722,-0.1758 3.935198,0.3257 3.048476,0.5015 3.935199,0.3257 1.241411,-0.2461 5.482409,-2.5615 2.018799,1.3508 3.091203,6.7598 1.82836,9.2219 -1.71853,9.9251 -1.064066,0.211 -4.164513,-1.0175 -2.79927,-1.1039 -4.393059,-2.1702 -0.106253,-0.071 -3.504796,-3.2679 -2.602033,-2.4332 -3.6661,-2.2222 -2.660167,0.5274 -7.293325,4.1185 1.009014,0.9059 1.625868,3.0875 0.704756,2.625 1.128997,3.3703 6.272756,1.8897 16.268975,3.502 5.902027,0.9495 7.689201,2.9913 2.141092,2.4324 3.86397,11.1222 0.580152,2.9262 -3.981914,6.4111 -3.674574,2.8482 -5.536691,3.2174 -0.177344,0.035 -8.777781,1.2795 -8.582856,1.333 -12.839123,2.1769 -2.826727,-5.8906 -3.266236,-8.1074 -0.158224,-0.7981 0.04286,-4.4321 0.112416,-3.6164 -0.186451,-5.1239 0.81409,0.8524 3.543038,1.6015 3.24263,1.016 4.942672,2.1534 0.937923,1.0121 1.875846,2.0242 1.734432,1.7758 3.400084,2.275 1.576979,0.5167 4.112543,0.2905 3.546119,-0.2423 4.379329,-0.2232 0.765971,-2.1793 0.238559,-4.8395 -0.210964,-1.064 -0.723877,-1.7918 -0.601584,-0.7101 -0.619165,-0.7988 -0.761348,-0.5863 -2.462931,-0.8019 -2.091432,-0.3226 -2.587534,-0.5007 -0.496103,-0.1781 -0.955504,-1.1008 -0.530492,-0.8164 -0.937922,-1.0121 -7.51879,1.1221 -12.745059,-1.0672 -5.952458,-2.5984 -7.235826,-9.0714 z"
           style="font-family:'Love Letter Typewriter';-inkscape-font-specification:'Love Letter Typewriter, Normal'"
           id="path885" />
        <path
           d="m -164.27848,2027.5099 q -0.004,-2.8023 2.16166,-5.9691 2.16548,-3.0765 3.97345,-3.0788 0.90398,0 3.25708,2.0748 2.98673,2.708 3.5296,3.0689 0.0133,10.0342 -3.24105,10.0385 l -7.41264,0.01 q -2.2663,-4.7881 -2.2681,-6.1441 z m -11.64074,-52.6868 q 2.61616,-4.0714 2.88712,-4.2525 0.63206,-0.5433 3.97679,-0.5477 3.61593,0 5.42581,1.4392 l 1.80604,-1.4488 2.08203,2.1668 q 1.44398,-1.8098 1.71493,-1.991 0.27096,-0.1811 1.98852,-0.1834 0.0904,-10e-5 3.61581,-0.095 3.43489,-0.1853 5.96616,-0.098 3.61592,0 5.87635,0.3538 -0.0893,0.8137 1.45355,5.422 -3.97572,1.3612 -7.5028,0.1907 -0.72223,0.7242 -1.26282,2.0808 -0.63087,1.4473 -0.90147,1.8996 -4.1558,1.9039 -3.51966,4.4342 -0.9939,0.3629 -2.70991,1.5403 l 0.0131,9.8534 q 1.35764,1.2638 2.80401,1.2619 3.6e-4,0.2712 -0.26963,1.1755 -0.26988,0.9948 -0.26856,1.9892 0.001,0.9039 0.4545,1.8977 0.36303,1.0843 0.45414,1.6266 0.63375,0.7223 1.80964,1.2632 1.98972,0.7205 2.08024,0.8108 0.18534,3.4349 1.72211,3.4328 2.07916,0 3.16286,-0.8177 0.72234,-0.6338 1.35417,-1.3578 0.90386,-0.092 4.79625,3.8808 0.001,0.8136 -1.35274,2.4425 -2.16608,2.6244 -2.43668,3.0768 -1.53868,-1.4443 -5.15748,-3.6091 -1.62633,0.6349 -2.88795,3.6197 -0.36207,-0.3611 -0.81502,-1.0837 -0.45295,-0.7225 -0.81502,-1.0837 -0.63303,-0.1799 -1.80413,2.8952 h -2.25996 q -0.90398,0 -1.8094,-1.0824 -0.99581,-1.0835 -1.89979,-1.0823 -1.62717,0 -3.07162,1.4505 -1.54515,-6.3259 -1.5558,-14.3713 -0.003,-2.0792 0.17265,-6.1473 0.0851,-3.9777 0.0825,-5.9664 -0.006,-4.7007 -0.55352,-8.4063 -1.90135,-2.2575 -5.78859,-2.3427 -5.06253,-0.1741 -6.32895,-0.8052 1.35598,0 2.16848,-0.8165 0.0884,-1.5369 -2.89621,-2.6177 z"
           style="font-family:'Love Letter Typewriter';-inkscape-font-specification:'Love Letter Typewriter, Normal'"
           id="path887" />
        <path
           d="m -229.96846,1970.1274 q 0.20368,-0.8853 2.91453,-5.0059 0.90816,0.024 3.92449,-0.048 2.65762,-0.1178 3.64406,0.01 0.71741,0.091 4.25887,0.9059 3.53006,0.9044 5.14423,1.1096 0.23178,1.7609 0.93169,4.857 -6.18238,2.039 -7.89234,4.7376 -0.81014,1.355 -1.49416,6.7356 -0.0684,0.5381 -0.035,6.0099 0.0661,5.9315 -0.19766,8.7229 1.83607,1.3269 4.87897,4.6298 0.51526,0.2477 2.30879,0.4757 2.06256,0.2622 2.31031,-0.253 0.73187,-1.4561 1.24865,-1.9372 2.21229,-1.6324 4.42458,-3.2648 2.91982,-2.1803 3.93211,-3.6919 0.91122,-1.4333 1.37558,-3.6524 0.38456,-1.5914 0.56849,-3.755 0.32073,-3.2397 0.26373,-2.7914 0.41041,-3.2283 -1.18779,-5.7096 -0.3131,-0.4043 -5.2901,-6.4135 0.3929,-0.2234 2.43724,-1.9683 1.65143,-1.5214 2.72755,-1.3846 -0.0897,-0.011 4.32727,0.3678 4.31587,0.4576 7.6339,0.8794 4.65177,0.6825 7.66657,1.3391 -0.0342,0.269 0.34578,0.8641 0.27891,0.6733 0.1535,1.6598 -0.1254,0.9864 -3.23598,3.2336 -3.21165,2.3255 -5.42242,3.2291 0.054,1.0092 -0.17558,3.5316 -2.08841,1.3748 -2.8674,3.9184 -0.25916,0.6049 0.0296,1.9174 0.27738,1.4021 0.20898,1.9402 -0.0456,0.3587 -0.16948,0.6163 l -0.89676,-0.114 q -0.0798,0.6278 -0.0502,2.5452 -0.003,1.4576 -0.28501,2.2419 2.06633,3.8166 8.31702,11.9924 -0.72198,2.0952 -4.42457,3.2648 -3.71399,1.2592 -7.30105,0.8032 -1.79353,-0.228 -6.7181,-4.4991 -7.00392,3.4837 -12.74322,2.7541 -4.30447,-0.5473 -10.28083,-5.8633 0.14138,-3.2626 -0.24238,-7.412 -0.5692,-1.257 -1.24784,-3.8037 -0.17325,-2.938 0.5237,-9.1371 0.73114,-6.4681 0.68177,-9.6638 -0.0197,-1.2782 -1.67648,-2.5824 -1.7578,-1.2258 -3.34765,-2.3392 z"
           style="font-family:'Love Letter Typewriter';-inkscape-font-specification:'Love Letter Typewriter, Normal'"
           id="path889" />
        <path
           d="m -281.48627,1950.9211 q 1.00836,0.754 3.58056,1.2916 4.01335,0.7561 3.66533,0.658 6.78634,1.9139 7.56722,5.1397 0.99048,-0.8477 5.21352,-0.5021 3.85048,0.3346 5.09748,-1.7558 0.24987,0.4462 0.51313,1.1779 0.15172,0.7942 0.40158,1.2404 1.42551,-0.7251 1.67088,-1.5951 0.65811,0 1.5304,0.9012 0.87229,0.9035 1.06194,1.8962 0,0 0.97709,-1.1333 0.56885,-0.6849 1.6129,-0.3905 0.87005,0.2454 0.67375,0.9415 -0.1963,0.696 0.67374,0.9414 0.69604,0.1963 0.74511,0.022 0.0245,-0.087 0.0491,-0.1741 0,0 -0.0625,-0.1115 0.16061,-0.2365 0.85665,-0.04 0.95705,0.2699 2.1796,1.9297 1.58397,2.0434 2.26885,2.6123 l 0.69604,0.1963 q 0.11828,1.9118 4.9952,11.9283 -0.34577,0.5599 -0.56661,1.343 -0.41713,1.479 -0.70484,4.4974 -0.28771,3.0184 -0.43493,3.5404 -0.22084,0.783 -1.36745,3.1835 -1.38083,2.8979 -1.94744,4.2409 -0.25876,0.5845 -1.70881,1.3966 -1.53704,0.7875 -2.16836,1.3608 -0.60229,1.8026 -2.72599,5.3363 -3.27713,0.2968 -7.6295,2.0749 -4.88555,2.0035 -5.99647,3.9443 -0.55996,-0.3457 -1.11101,-1.7222 -0.68939,-1.885 -1.08873,-2.4673 -4.62462,-1.586 -5.29611,-1.8693 -3.48242,-1.6396 -5.52819,-4.3768 -1.43665,1.0976 -5.62841,2.6392 0.74295,3.0273 -0.17167,4.2721 1.33634,2.2554 2.75969,4.5353 1.39881,2.3669 2.44286,2.6614 0.78304,0.2208 2.18625,0.2409 1.40322,0.02 2.18626,0.2408 4.1762,1.1778 6.90686,4.4839 l -1.4477,5.1333 q -7.53145,-1.9362 -11.01162,-2.9177 -0.87005,-0.2454 -1.24035,0.4015 -0.45731,0.6225 -1.32736,0.3771 -1.47907,-0.4171 -5.18682,-2.5899 -4.15617,-2.581 -5.98775,-4.4125 0.13383,-0.8076 0.42154,-3.826 0.27656,-2.6458 0.57101,-3.6898 0.1963,-0.6961 1.4433,-2.7864 1.16,-2.1149 1.54145,-3.1344 0.88559,-2.4741 1.68418,-4.9727 1.28044,-3.208 2.65462,-4.4171 0.61568,-1.517 -2.04801,-3.3954 1.77352,-0.6269 2.39145,-1.4858 0.43277,-0.5354 1.0596,-2.4249 0.31898,-1.1311 1.14885,-1.7424 l 3.85237,-13.6597 q -0.54881,-0.7183 -1.67996,-4.7003 -0.95489,-3.2749 -2.69497,-3.7657 -0.87005,-0.2454 -2.08586,0.069 0.31449,-2.4472 -1.14454,-4.2676 z m 10.89818,16.9744 q 2.6637,1.8783 2.04802,3.3953 -0.78079,0.4373 -2.86889,-0.1516 -0.22084,0.783 0.6403,2.059 0.93701,1.6732 1.0508,2.2688 -3.08973,0.6314 -3.38418,1.6755 2.55215,1.9408 2.23092,2.4137 -0.44617,0.2499 -1.63744,0.4775 -1.19128,0.2275 -1.63745,0.4774 2.64806,0.9347 2.58344,3.8281 -0.22973,1.8137 -0.54647,3.6029 2.55215,1.9407 2.79986,5.3919 1.16674,-0.1406 3.46678,0.6959 5.69321,1.7935 8.82537,2.6769 0.0825,-1.2917 2.22634,-2.5656 1.67313,-0.937 3.37079,-1.961 1.96083,-3.9554 5.60378,-6.2153 1.03057,-3.6542 2.94673,-9.7824 -1.89855,-3.2593 -1.93647,-3.4578 -0.82547,-1.7356 -0.81882,-3.4244 -0.174,-0.049 -0.59563,0.1138 -0.53318,0.2253 -1.49022,-0.045 -1.04405,-0.2944 -2.88903,-2.4115 -1.37203,-1.7958 -2.74405,-3.5916 -0.12044,1.0931 -0.78745,2.126 -0.77854,1.0954 -1.73559,0.8255 -0.87004,-0.2454 -2.42497,-1.0596 -1.55494,-0.8142 -2.25097,-1.0105 -0.87004,-0.2454 -1.41436,0.3525 -0.54432,0.5979 -1.41436,0.3525 -1.65308,-0.4662 -3.39982,0.7318 -2.86215,1.8227 -3.81696,2.2109 z"
           style="font-family:'Love Letter Typewriter';-inkscape-font-specification:'Love Letter Typewriter, Normal'"
           id="path891" />
        <path
           d="m -329.81692,1957.5221 q 0.75031,-1.7438 2.46134,-2.9758 2.06733,-1.374 3.81113,-0.6237 -0.83038,-0.3572 3.66524,1.7739 2.87059,1.3336 4.63854,1.799 0.2018,-0.012 1.0785,1.153 0.75793,1.2118 1.67135,1.6048 0.74734,0.3216 2.44481,0.2646 1.61444,-0.093 2.44482,0.2647 0.83037,0.3573 3.86606,2.4507 3.03568,2.0935 3.86606,2.4508 1.07949,0.4645 2.89869,-1.7051 1.32,-1.6955 1.71301,-2.6089 1.50062,-3.4876 -3.1204,-9.2155 -3.92199,-4.8367 -6.82831,-6.0872 -0.74734,-0.3216 -3.38139,-1.0613 -2.63405,-0.7397 -3.66623,-1.0854 -0.72517,0.7705 -3.80252,2.8908 -2.22182,1.5043 -2.75875,3.4383 -4.70999,-1.633 -6.2027,-3.653 2.51727,-0.5899 4.3143,-3.8515 1.20024,-0.9597 3.98879,-0.3504 1.24655,-0.1525 2.69788,-2.3819 4.3335,-0.6941 8.70273,-1.4713 0.89026,-0.011 4.62696,1.5972 0.49823,0.2144 1.64918,0.5128 0.94914,0.31 1.41164,0.6074 0.71161,0.4046 1.10265,0.8681 2.2159,2.6264 5.97081,8.0801 0.0946,0.2375 0.6845,2.7548 0.56672,2.1136 1.38453,2.9576 -2.39611,15.4036 -4.03964,19.2234 -0.35729,0.8303 -1.80763,2.3713 -1.5691,1.5884 -1.90224,2.1339 -2.78954,0.079 -4.67823,1.0378 -1.98726,3.475 -6.72536,4.8808 -10.46672,-1.7481 -13.62216,-3.1058 -1.07949,-0.4645 -3.30795,-2.6042 -2.26419,-2.0568 -3.46047,-3.8509 -1.31505,-1.7467 -1.77359,-4.7979 -0.22299,-1.769 -0.15718,-6.2676 0.71359,-0.9723 0.78604,-1.8268 -1.4927,-2.02 -1.47914,-3.1951 0.0126,-0.4867 0.83433,-2.3965 z m 6.11739,13.4573 q 2.05081,1.8666 6.53485,3.7959 0.24912,0.1072 9.3138,2.8266 2.44778,-1.8007 6.01276,-4.5969 -0.33116,-0.8314 -1.46856,-2.3049 -1.47152,-0.2395 -2.63405,-0.7397 -2.15898,-0.929 -3.44988,-2.9606 -1.29089,-2.0316 -1.20786,-1.9958 -0.91341,-0.393 -3.16899,-0.1826 -2.25558,0.2104 -3.00292,-0.1112 -0.74734,-0.3215 -1.70708,-1.5218 -1.04277,-1.2359 -1.20885,-1.3074 -1.12976,1.4821 -2.2142,4.4599 -2.08485,5.3028 -1.79902,4.6385 z"
           style="font-family:'Love Letter Typewriter';-inkscape-font-specification:'Love Letter Typewriter, Normal'"
           id="path893" />
        <path
           d="m -369.29092,1935.1435 q 0.94658,-1.6455 2.78838,-2.6718 2.2121,-1.1261 3.85764,-0.1795 -0.78359,-0.4508 3.43599,2.1851 2.69748,1.6559 4.39987,2.3224 0.2018,0.012 0.93822,1.2697 0.61299,1.2912 1.47493,1.787 0.70523,0.4057 2.39793,0.5451 1.61433,0.094 2.39792,0.5451 0.78359,0.4507 3.55733,2.8806 2.77375,2.4299 3.55734,2.8806 1.01866,0.586 3.07614,-1.3591 1.50687,-1.5318 2.0027,-2.3937 1.89315,-3.2911 -2.03583,-9.5141 -3.33748,-5.2571 -6.08003,-6.8347 -0.70523,-0.4057 -3.23629,-1.4445 -2.53106,-1.0388 -3.51644,-1.5014 -0.80926,0.6817 -4.11077,2.4326 -2.38061,1.2378 -3.13719,3.0969 -4.49002,-2.1657 -5.73958,-4.3445 2.56852,-0.2954 4.73003,-3.3278 1.30299,-0.8148 4.00256,0.1124 1.25583,-0.01 2.9548,-2.0547 4.38465,-0.1892 8.81438,-0.4568 0.88553,0.092 4.41167,2.1206 0.47015,0.2704 1.57897,0.6997 0.90702,0.4175 1.33209,0.7663 0.66016,0.484 0.99508,0.9895 1.89792,2.8647 4.99824,8.7153 0.0666,0.2469 0.36194,2.8154 0.31895,2.1649 1.03388,3.0976 -4.1581,15.0242 -6.23155,18.6287 -0.45075,0.7835 -2.06926,2.1468 -1.74196,1.3966 -2.13584,1.9 -2.78002,-0.2434 -4.76675,0.4909 -2.37509,3.2224 -7.24378,4.0719 -10.19499,-2.9446 -13.17262,-4.6574 -1.01866,-0.586 -2.98524,-2.9687 -2.01165,-2.3043 -2.99285,-4.2245 -1.10463,-1.8869 -1.20791,-4.9706 -0.0173,-1.7829 0.56732,-6.2438 0.82105,-0.8834 0.99165,-1.7239 -1.24956,-2.1788 -1.10045,-3.3445 0.0687,-0.4819 1.10538,-2.2842 z m 4.52315,14.0736 q 1.82165,2.0907 6.05302,4.5248 0.23508,0.1352 8.92528,3.8827 2.63927,-1.5061 6.50318,-3.8721 -0.23299,-0.8641 -1.19269,-2.459 -1.43404,-0.4078 -2.53106,-1.0388 -2.03733,-1.172 -3.08509,-3.339 -1.04777,-2.167 -0.96941,-2.1219 -0.86195,-0.4959 -3.12674,-0.5472 -2.26479,-0.051 -2.97002,-0.457 -0.70522,-0.4057 -1.52,-1.7087 -0.89314,-1.3481 -1.04986,-1.4382 -1.29329,1.3418 -2.7142,4.1745 -2.68301,5.0267 -2.32241,4.3999 z"
           style="font-family:'Love Letter Typewriter';-inkscape-font-specification:'Love Letter Typewriter, Normal'"
           id="path895" />
        <path
           d="m -400.09541,1880.4203 q 0.65937,1.0727 2.8522,2.5207 3.45189,2.1825 3.16457,1.9629 5.60273,4.281 5.13936,7.5675 1.23326,-0.4229 5.03139,1.4553 3.45593,1.7305 5.38574,0.2471 0.0678,0.5069 0.0427,1.2841 -0.15176,0.7942 -0.084,1.3011 1.5924,-0.1485 2.14125,-0.8668 0.61258,0.2405 1.09034,1.402 0.47777,1.1614 0.28808,2.1541 0,0 1.32607,-0.6933 0.78128,-0.4269 1.64324,0.2317 0.7183,0.5489 0.27922,1.1235 -0.43907,0.5746 0.27923,1.1235 0.57464,0.4391 0.6844,0.2954 0.0549,-0.072 0.10977,-0.1437 0,0 -0.0169,-0.1267 0.23648,-0.1606 0.81112,0.2785 0.79013,0.6037 1.31468,2.5973 0.71906,2.4834 1.14599,3.2647 l 0.57464,0.4391 q -0.59488,1.8208 0.2458,12.9296 -0.52785,0.3931 -1.02181,1.0396 -0.93304,1.2211 -2.31324,3.9208 -1.38021,2.6996 -1.70952,3.1306 -0.49396,0.6465 -2.44476,2.4551 -2.35193,2.1848 -3.37374,3.2243 -0.45602,0.4479 -2.10331,0.6682 -1.71912,0.1654 -2.51734,0.4656 -1.2244,1.4536 -4.50128,3.9555 -3.15571,-0.9323 -7.85704,-0.884 -5.28001,0.061 -7.02822,1.4558 -0.39304,-0.5279 -0.39784,-2.0105 0.0541,-2.0064 -0.10243,-2.6949 -3.71416,-3.1792 -4.23391,-3.6901 -2.63267,-2.808 -3.52522,-6.1066 -1.74011,0.4906 -6.20495,0.3783 -0.42543,3.088 -1.73456,3.9079 0.41074,2.5892 0.89331,5.2333 0.42768,2.7158 1.28964,3.3745 0.64647,0.4939 1.94346,1.0299 1.29698,0.5359 1.94345,1.0299 3.44783,2.6344 4.76732,6.7143 l -3.23818,4.238 q -6.28714,-4.5764 -9.16034,-6.7718 -0.7183,-0.5488 -1.30103,-0.084 -0.65457,0.41 -1.37286,-0.1388 -1.22111,-0.9331 -3.86667,-4.3197 -2.91189,-3.9314 -3.93926,-6.3092 0.42213,-0.7013 1.80234,-3.401 1.2325,-2.3575 1.89111,-3.2195 0.43908,-0.5746 2.36888,-2.058 1.85798,-1.5383 2.58842,-2.3453 1.73531,-1.9733 3.39879,-4.0015 2.37293,-2.51 4.09609,-3.1274 1.13158,-1.1832 -0.65202,-3.9112 1.87972,0.071 2.77077,-0.4995 0.59968,-0.3382 1.87897,-1.8635 0.71349,-0.9338 1.71026,-1.1961 l 8.61686,-11.2773 q -0.24533,-0.87 0.17124,-4.9886 0.31971,-3.3963 -1.11689,-4.494 -0.7183,-0.5488 -1.96445,-0.7046 1.19456,-2.159 0.5094,-4.389 z m 3.87269,19.7966 q 1.78361,2.728 0.65203,3.9112 -0.887,0.1186 -2.61092,-1.1986 -0.49396,0.6464 -0.1639,2.1501 0.25418,1.9007 0.14036,2.4963 -3.10487,-0.5521 -3.76349,0.3098 1.65689,2.745 1.18393,3.0662 -0.50686,0.068 -1.69813,-0.1598 -1.19126,-0.2277 -1.69812,-0.1599 2.11696,1.8451 0.99018,4.5109 -0.8822,1.6012 -1.83623,3.1476 1.65689,2.745 0.61484,6.0444 1.13638,0.2994 2.96602,1.925 4.631,3.766 7.21688,5.7418 0.55289,-1.1702 3.01535,-1.564 1.90071,-0.2542 3.85631,-0.5802 3.28092,-2.9539 7.50043,-3.7116 2.30515,-3.0169 6.34561,-8.0071 -0.56325,-3.7296 -0.52531,-3.9281 -0.12747,-1.9177 0.5013,-3.485 -0.14366,-0.1098 -0.59563,-0.1138 -0.57869,0.013 -1.36882,-0.5909 -0.86196,-0.6586 -1.7965,-3.3067 -0.61333,-2.1751 -1.22666,-4.3503 -0.51495,0.9718 -1.51577,1.686 -1.12753,0.7312 -1.91766,0.1275 -0.7183,-0.5489 -1.86353,-1.879 -1.14523,-1.3301 -1.71987,-1.7692 -0.7183,-0.5488 -1.44469,-0.1937 -0.7264,0.3551 -1.4447,-0.1938 -1.36477,-1.0428 -3.43013,-0.5731 -3.33252,0.6391 -4.36318,0.648 z"
           style="font-family:'Love Letter Typewriter';-inkscape-font-specification:'Love Letter Typewriter, Normal'"
           id="path897" />
        <path
           d="m -473.41426,1847.3777 q 0.75623,-0.6457 9.55005,0.048 -1.08468,3.1845 0.0374,6.0302 -2.84403,0.2886 -5.09423,2.8042 0.10735,0.265 -0.2983,2.1566 -0.238,1.3918 0.40768,2.1481 0.58699,0.6874 0.92068,0.5214 0.27499,-0.2348 0.80328,0.3839 0.64568,0.7563 0.25168,1.687 -0.57169,1.5579 -0.51459,2.4601 6.04709,1.3745 8.42677,2.9087 1.27607,-0.7329 4.07145,-1.2178 4.23429,0.7827 6.98423,-1.5652 0.48124,-0.4109 1.38502,-1.3014 0.83503,-0.8318 1.38502,-1.3014 0.54999,-0.4696 2.84884,-2.789 2.59394,-2.8091 3.56647,-3.7583 -1.12255,-7.7187 -3.35308,-10.3312 -0.46959,-0.55 -1.72395,-0.9054 -1.31307,-0.4241 -1.95875,-1.1803 -0.93917,-1.1 -0.77837,-3.1392 -1.8128,-0.5918 -5.48866,-1.1381 -1.06982,0.5568 -3.10052,1.102 l -2.96186,-4.7219 q 0.275,-0.2348 1.34322,0.042 1.45056,0.3067 2.34269,0.3771 1.05132,-1.1354 3.44587,-2.229 2.33584,-1.1623 3.95405,-1.3553 0.41089,0.4813 2.37124,0.8282 2.33263,0.5046 3.00847,0.8785 2.21364,1.2004 5.67683,5.2566 6.8677,8.0436 5.04571,17.3255 -1.61413,8.2723 -9.10771,14.6705 -0.75624,0.6456 -3.70077,2.2088 -3.87685,2.0026 -4.47549,2.276 -0.33369,0.166 -1.9117,-0.1508 -1.57801,-0.3168 -2.23534,-0.1121 -2.68804,0.7498 -7.13338,2.6434 -0.98942,-0.4627 -3.6642,-1.5072 -1.22582,0.096 -3.26497,-0.065 -4.56638,-1.4501 -7.97087,-5.4376 -0.58699,-0.6874 -1.24475,-5.3559 -0.65777,-4.6685 -1.24475,-5.356 -0.64569,-0.7562 -1.27287,-0.9339 -0.62718,-0.1777 -0.80328,-0.384 0.65049,-1.744 2.98794,-3.7398 -0.27499,0.2348 0.21266,-3.5098 0.4189,-3.6859 2.27511,-5.2707 z"
           style="font-family:'Love Letter Typewriter';-inkscape-font-specification:'Love Letter Typewriter, Normal'"
           id="path899" />
        <path
           d="m -491.0049,1806.6653 q 3.35761,-2.2966 10.94431,-5.2955 2.8195,-1.1619 10.65274,1.8038 7.78221,2.8911 9.10914,4.8311 0.45933,0.6715 1.72746,1.885 1.2171,1.1389 1.72746,1.8851 0.76554,1.1192 1.74269,5.2698 0.97716,4.1506 1.03566,6.9581 0.14088,3.4084 -1.48897,5.5089 -5.5769,7.5384 -9.08373,9.9371 -6.86444,4.6953 -11.21531,5.6999 -6.72656,1.5344 -10.22893,0.097 -1.38602,-0.5852 -3.82022,-2.863 -3.32151,-3.0947 -3.77695,-3.4403 -0.45545,-0.3456 -2.09277,-0.978 -1.28395,-0.4361 -1.89638,-1.3314 -1.88833,-2.7607 -2.07607,-7.9989 -0.004,-0.3259 -0.94194,-3.2985 -0.85955,-2.6978 -0.6199,-3.6283 0.98997,-3.1962 3.67246,-7.4405 3.19703,-5.2534 6.62925,-7.6011 z m 6.87879,4.9329 q -0.89536,0.6124 -1.13889,1.2171 -0.24354,0.6046 -0.33785,1.1072 -1.97129,0.8008 -3.80558,4.684 -1.73998,3.3806 -1.79519,5.0612 -0.20085,4.1897 1.48334,6.6519 1.22486,1.7907 7.29484,6.1816 0.64794,-0.3337 2.5288,-0.3059 2.40704,0 3.00783,-0.086 0.60079,-0.082 3.95839,-2.379 4.10374,-2.807 5.34083,-4.2008 1.90473,-2.179 4.06911,-7.8213 -0.18057,-0.4241 -0.6593,-2.7251 -0.47484,-1.9752 -1.03624,-2.796 -0.51036,-0.7461 -1.11503,-0.9896 -0.60467,-0.2436 -1.11503,-0.9897 -0.61243,-0.8954 -0.51812,-1.398 0.0197,-0.4515 0.18862,-1.0052 1.81401,0.7306 3.38089,-0.3411 0.67153,-0.4593 1.18994,-1.1425 l -2.19455,-3.2084 q -2.85442,-1.7713 -5.31666,-0.087 -1.49227,1.0207 -3.14182,3.5728 -8.55222,-0.174 -10.26833,0.9999 z"
           style="font-family:'Love Letter Typewriter';-inkscape-font-specification:'Love Letter Typewriter, Normal'"
           id="path901" />
        <path
           d="m -495.36751,1746.3313 q 2.6953,3.0895 4.99871,7.5974 0.69925,1.3684 -0.12744,3.9227 -0.82315,2.9585 -3.0395,3.7864 -0.85671,-0.8819 -3.57548,-2.0306 -3.88688,-0.6533 -5.33585,0.087 -1.77096,0.9049 -2.87851,3.7041 -4.64366,0.647 -10.07288,3.9288 0.26623,2.7064 -2.30442,4.629 -2.29331,1.2734 -4.465,2.5861 0.2468,0.483 0.66342,1.8943 0.33612,1.4525 0.78858,2.338 0.32906,0.644 3.70418,2.8785 14.06902,-4.651 16.64496,-5.9672 0.4025,-0.2057 1.40961,-0.6188 0.92661,-0.3719 1.4096,-0.6187 4.82989,-2.4679 5.35503,-11.7712 l 3.62242,-1.8509 q 0.16453,0.322 -0.74089,3.1195 4.65956,1.1721 6.01693,3.8286 l 10.36534,20.2855 q 0.45246,0.8855 0.63465,3.2288 0.39669,3.7564 0.35732,3.878 l -4.91039,2.5091 q -3.06196,-3.4097 -10.30681,0.2922 -1.12697,0.5759 -2.7763,1.5201 -1.72983,0.9855 -2.13232,1.1911 -5.87637,3.0027 -8.81191,4.8072 -0.76032,0.8961 -1.25794,4.0943 -1.00358,0.8173 -1.5653,1.3074 -0.92132,0.9783 -1.23624,1.9514 l -0.64399,0.3291 q -0.88548,0.4524 -2.17699,0.7063 -1.372,0.295 -1.93549,0.5829 -1.97435,-3.8639 -6.56704,-11.2627 -4.67318,-7.3576 -4.79658,-7.5991 -0.41132,-0.805 -1.17997,-5.4881 -0.76864,-4.683 -1.17996,-5.488 -0.20566,-0.4025 -2.32335,-2.1628 -2.11768,-1.7604 -2.8992,-3.2898 -1.39849,-2.737 -1.53072,-3.9891 -0.22333,-2.4238 1.60693,-5.7954 0.96422,-0.6957 2.97314,-2.1283 0.2362,-0.7298 0.43126,-1.54 0.35429,-1.0947 1.32027,-1.5883 l 24.63246,-12.5865 q 0.88548,-0.4524 0.59933,-0.8138 -0.28616,-0.3614 -0.0876,-0.7674 0.68159,-0.6528 2.62768,-0.023 0.11809,-0.3648 0.34899,-1.701 0.18976,-1.4167 0.34723,-1.9032 z m -9.64693,34.1658 q 0.49359,0.966 -0.65685,3.4826 -2.65291,1.7617 -5.38632,3.5644 -3.77635,2.7418 -2.25446,5.7202 0.65812,1.288 3.71125,3.687 3.012,2.3186 4.75419,2.7481 2.97667,-1.7241 9.09983,-4.2437 6.60616,-2.7665 6.52566,-2.7254 2.73694,-1.3985 4.73173,-4.4481 2.39199,-3.8616 0.66443,-7.2425 -0.45245,-0.8855 -3.61308,-1.7069 -3.24113,-0.7803 -4.01381,-1.2991 -4.03551,0.8439 -10.15515,3.7678 -1.17693,-0.5153 -3.40742,-1.3044 z"
           style="font-family:'Love Letter Typewriter';-inkscape-font-specification:'Love Letter Typewriter, Normal'"
           id="path903" />
        <path
           d="m -557.56039,1738.2728 q 2.63936,-0.9418 6.34839,0.038 3.62388,1.0105 4.23147,2.7133 0.30379,0.8514 -0.86458,3.7638 -1.55171,3.721 -1.70999,4.3534 -9.45062,3.3721 -10.54427,0.307 l -2.4911,-6.9815 q 3.75297,-3.7386 5.03008,-4.1943 z m 45.74846,-28.6092 q 4.71233,1.102 4.97374,1.2967 0.7235,0.4137 1.84754,3.5639 1.21517,3.4056 0.46051,5.5945 l 1.96983,1.2168 -1.34465,2.6873 q 2.18888,0.7547 2.4503,0.9493 0.26142,0.1947 0.83863,1.8124 0.0304,0.085 1.30031,3.3752 1.32469,3.1746 2.09017,5.5889 1.21518,3.4056 1.6341,5.6557 -0.79665,0.1883 -4.62238,3.185 -2.61379,-3.2905 -2.69176,-7.0059 -0.92416,-0.4381 -2.38354,-0.4933 -1.57491,-0.1099 -2.09175,-0.2134 -3.1854,-3.2785 -5.35669,-1.8319 -0.67473,-0.815 -2.35877,-2.0378 l -9.28033,3.3114 q -0.73628,1.7024 -0.25021,3.0646 -0.25542,0.091 -1.19797,0.1395 -1.02768,0.079 -1.96423,0.413 -0.85141,0.3038 -1.63606,1.0636 -0.90017,0.7051 -1.38063,0.9726 -0.46847,0.839 -0.58439,2.1281 -0.0128,2.1161 -0.0675,2.2316 -3.17458,1.3247 -2.65814,2.7721 0.69873,1.9583 1.82955,2.7065 0.83901,0.4685 1.73279,0.8214 0.38894,0.8211 -2.05094,5.8188 -0.76627,0.2734 -2.75449,-0.4569 -3.19818,-1.1623 -3.71502,-1.2659 0.8458,-1.9334 1.674,-6.0681 -1.14281,-1.3199 -4.37776,-1.5094 0.21905,-0.4621 0.74827,-1.1308 0.52923,-0.6687 0.74828,-1.1308 -0.0424,-0.6568 -3.33209,-0.7307 l -0.75948,-2.1285 q -0.30379,-0.8514 0.4141,-2.0674 0.68752,-1.3011 0.38372,-2.1525 -0.54682,-1.5325 -2.39514,-2.4087 5.4434,-3.5739 13.02091,-6.2777 1.95824,-0.6987 5.85033,-1.8955 3.77657,-1.2515 5.64966,-1.9199 4.42732,-1.5797 7.73581,-3.3361 1.49055,-2.5474 0.26938,-6.2389 -1.53096,-4.8286 -1.36028,-6.2332 0.45568,1.2771 1.49536,1.7699 1.47777,-0.4313 1.49695,-3.6055 z"
           style="font-family:'Love Letter Typewriter';-inkscape-font-specification:'Love Letter Typewriter, Normal'"
           id="path905" />
        <path
           d="m -549.14436,1676.6425 q 0.96747,-0.2298 8.4773,4.3978 -2.41765,2.3395 -2.71678,5.3837 -2.66271,-1.0401 -5.81252,0.1724 -0.0253,0.2848 -1.24897,1.7832 -0.84657,1.1301 -0.61683,2.0976 0.20886,0.8795 0.58155,0.884 0.35181,-0.084 0.53978,0.708 0.22974,0.9675 -0.54535,1.6161 -1.21927,1.1257 -1.5799,1.9547 4.75476,3.981 6.1729,6.4316 1.4699,-0.07 4.17879,0.773 3.41134,2.6277 6.92943,1.7923 0.61567,-0.1462 1.82612,-0.5266 1.12249,-0.3594 1.82611,-0.5265 0.70362,-0.1671 3.80725,-1.1829 3.58957,-1.3169 4.88797,-1.7181 2.52116,-7.3813 1.7275,-10.7235 -0.16708,-0.7036 -1.12133,-1.592 -0.97513,-0.9763 -1.20488,-1.9437 -0.33417,-1.4073 0.7389,-3.1487 -1.34342,-1.3534 -4.36559,-3.516 -1.20604,0.01 -3.26189,-0.4333 l -0.48246,-5.553 q 0.35181,-0.084 1.17634,0.6497 1.15103,0.9346 1.9129,1.404 1.45342,-0.5309 4.08317,-0.4121 2.60887,0.031 4.13701,0.5971 0.1462,0.6157 1.73259,1.8185 1.84584,1.5128 2.27678,2.1538 1.42255,2.0779 2.65481,7.2671 2.44362,10.2904 -3.41091,17.7199 -5.20915,6.6259 -14.79596,8.9024 -0.96748,0.2298 -4.30085,0.2781 -4.36351,0.014 -5.02094,-0.016 -0.3727,0 -1.63257,-1.006 -1.25988,-1.0016 -1.9382,-1.1193 -2.73418,-0.5585 -7.55393,-0.9006 -0.6695,-0.8631 -2.57359,-3.0124 -1.13456,-0.4739 -2.87597,-1.547 -3.40252,-3.373 -4.61389,-8.4743 -0.20886,-0.8795 1.33484,-5.3342 1.5437,-4.4547 1.33484,-5.3342 -0.22974,-0.9675 -0.70686,-1.4117 -0.47713,-0.4442 -0.53978,-0.708 1.37428,-1.2555 4.36466,-1.9656 -0.35181,0.084 1.78992,-3.0266 2.05377,-3.0892 4.42849,-3.6531 z"
           style="font-family:'Love Letter Typewriter';-inkscape-font-specification:'Love Letter Typewriter, Normal'"
           id="path907" />
        <path
           d="m -528.70727,1644.6463 q 4.92599,-0.674 13.31762,0.6411 1.86481,0.2923 6.42313,5.5991 3.47883,4.086 3.71924,4.5093 0.36674,0.6798 0.79571,3.8145 0.4167,3.0452 -0.25832,4.7799 -0.84284,-0.1584 -7.75432,-5.3258 -2.55775,-2.0222 -5.42378,-1.63 -0.89563,0.1225 -2.3607,1.4179 -1.04177,1.055 -2.09579,2.0204 -0.17064,0.7533 0.0255,2.1863 -1.07476,0.147 -3.60234,1.6791 -2.6294,1.4547 -3.52503,1.5772 -0.89564,0.1226 -3.56274,-0.6986 -3.72585,-1.2237 -3.90497,-1.1992 -1.33592,-1.0945 -1.99775,-5.931 -1.6178,-11.8224 10.20458,-13.4402 z"
           style="font-family:'Love Letter Typewriter';-inkscape-font-specification:'Love Letter Typewriter, Normal'"
           id="path909" />
        <path
           d="m -543.56522,1561.8789 q 3.43045,0.1793 4.89907,1.5234 1.63502,1.6243 2.3525,1.7523 2.08576,-0.072 6.02956,0.6772 3.81105,1.557 7.1437,7.0719 3.33264,5.515 3.14865,9.0357 -0.0472,0.9027 -0.77882,1.0455 -0.73163,0.1428 -0.77881,1.0456 -0.0142,0.2708 0.1252,4.5326 0.0538,4.1668 -0.0783,6.6945 -0.0943,1.8055 -0.24596,2.9744 -0.63537,3.4971 -2.57297,5.9305 -3.76796,-0.6496 -23.1535,-2.1153 -2.93126,0.6615 -3.01682,0.5665 -3.7255,-1.462 -5.98237,-1.5799 l -0.86438,0.9505 q -2.70825,-0.1415 -8.28171,-0.8854 -2.86993,-0.5121 -7.77245,1.4948 -0.66495,0.5989 -1.38651,2.2811 -1.03485,2.4805 -1.23427,2.8322 -2.48461,0.7753 -3.71416,3.5172 -1.12041,2.3856 -2.74536,2.3006 -1.8055,-0.094 -4.97048,-1.8891 0.0849,-1.625 -0.0875,-5.2548 -0.17239,-3.6299 -0.12993,-4.4424 0.0377,-0.7222 0.74516,-2.1336 0.60298,-1.1452 0.46017,-1.8769 0.51743,-1.2402 0.5882,-2.5943 0.82191,-0.1381 1.99548,-0.077 1.53468,0.08 4.13378,0.5781 2.59911,0.4979 3.23103,0.531 2.5277,0.1321 6.45135,-2.1975 3.8381,-2.4245 5.49072,-4.6012 -1.05028,-0.6885 -2.28174,-3.1064 -1.80677,-3.5343 -2.39151,-4.4701 2.45974,-3.7638 3.58423,-7.9596 1.09745,-0.2142 3.27757,-2.0917 0.23717,-1.0739 1.43841,-3.2742 0.55109,-0.1522 1.19245,-0.2997 1.11161,-0.4851 1.48151,-2.3667 1.66269,-0.6373 5.57691,-2.7863 2.23737,-1.2409 4.04287,-1.1465 1.35412,0.071 3.21687,0.8018 0.095,-0.086 0.47968,-0.5181 0.29914,-0.5275 1.38244,-0.4709 z m 2.99577,6.7647 -6.13871,-0.3209 q -1.25786,3.2836 -7.54816,4.1316 0.15696,0.4609 0.12393,1.0928 -0.0991,1.8958 -2.52108,4.9374 -2.41728,2.9514 -2.43143,3.2223 -0.0519,0.993 1.29878,4.5939 1.6929,3.9809 1.89296,5.3492 1.89578,0.099 2.35659,-0.058 1.38306,1.2491 2.67586,2.4934 1.31638,0.793 8.4481,1.1657 7.13173,0.3727 10.24291,-1.9993 3.7714,-2.8806 4.21488,-11.3665 0.0849,-1.6249 -4.45904,-6.479 -2.57143,-2.7595 -5.22842,-5.614 -1.07858,-0.1469 -2.92717,-1.1487 z"
           style="font-family:'Love Letter Typewriter';-inkscape-font-specification:'Love Letter Typewriter, Normal'"
           id="path911" />
        <path
           d="m -514.63831,1509.5425 q 2.77042,1.9 1.55233,8.3857 -0.16687,0.8885 -1.93383,4.4197 -1.76696,3.5312 -1.93382,4.4197 -0.16687,0.8884 0.50873,7.0859 0.67561,6.1975 0.50874,7.086 -1.80212,9.5952 -7.60047,12.5533 -4.38766,2.3032 -12.8225,1.1789 -7.58519,-1.2407 -15.08152,-2.4646 -0.84967,0.1163 -3.00449,0.8154 -0.59981,0.2552 -1.69977,1.7043 -1.17211,1.3435 -1.91083,1.8486 l -6.21914,-1.1681 q -1.46482,-3.9542 -0.73063,-7.8634 0.20024,-1.0661 1.55049,-3.8478 2.18367,-4.2808 2.32258,-4.5307 1.15498,0.2169 4.19239,0.6954 2.96525,0.373 4.6533,0.69 6.04145,1.1347 9.68364,3.2904 l 0.62192,0.1168 q 2.15482,-0.699 3.3098,-0.4821 0.7996,0.1502 1.21587,0.8722 0.41626,0.722 0.50511,0.7387 l 0.7554,-0.5939 q 2.06553,0.7558 3.5759,1.0395 4.08686,0.7676 5.58684,-1.3422 2.23328,-3.0757 3.36795,-9.1172 0.68414,-3.6426 -2.71406,-4.6488 -0.30532,-0.3332 -1.5708,-2.4105 -1.0657,-1.6718 -1.84861,-1.9108 -6.47982,-2.2288 -8.96747,-2.696 -0.71076,-0.1335 -4.04266,-0.023 -3.77613,0.027 -6.13616,-0.1407 -1.37776,1.9487 -5.21611,5.7348 l 1.62627,2.6049 q -0.7775,0.2219 -2.87685,1.1153 -2.1882,0.8767 -3.03786,0.9931 -2.77584,-2.361 -1.04047,-11.6008 1.56851,-8.3514 4.19552,-9.6056 1.2772,0.056 3.73148,0.7008 3.32605,0.9006 4.21449,1.0675 1.15499,0.2169 4.18157,-0.2264 2.95443,-0.5489 4.73132,-0.2152 1.59921,0.3004 5.08626,1.3232 3.3982,1.0061 4.99741,1.3065 4.97531,0.9344 6.79188,-1.3918 0.93354,-2.0321 3.6336,-6.124 z"
           style="font-family:'Love Letter Typewriter';-inkscape-font-specification:'Love Letter Typewriter, Normal'"
           id="path913" />
        <path
           d="m -508.03039,1470.5346 q 0.77374,0.2515 0.71784,0.4234 -0.0279,0.086 -0.28372,0.288 -0.22783,0.1161 -0.28372,0.288 -0.0559,0.172 0.0881,0.3138 0.6276,-0.1762 1.48731,0.1033 2.40716,0.7825 4.69166,4.2816 2.2845,3.4992 1.72559,5.2186 -0.27946,0.8597 -1.02311,0.8081 -0.74365,-0.052 -1.02311,0.8081 -0.27946,0.8597 0.35241,1.2552 0.63187,0.3955 0.35242,1.2552 -0.33535,1.0316 -1.6744,1.642 -1.33904,0.6103 -1.42288,0.8682 -0.3955,0.6319 2.13624,2.7856 -0.90279,1.6076 -3.08661,3.9395 -2.36429,1.1325 -6.35987,2.02 -3.96765,0.8014 -5.2572,0.3822 l -23.89971,-7.7689 q -2.56417,1.1626 -4.10972,4.7476 -1.15004,2.953 -2.32803,5.9921 -1.03164,-0.3354 -1.98797,-2.072 -0.42986,-0.1398 -3.24981,1.2249 -1.92995,-1.9582 -1.12379,-5.023 1.08135,-4.4963 1.07495,-5.3538 l 2.70603,-1.3066 q -1.99438,-2.9296 -5.77706,-4.1593 -0.77374,-0.2515 -2.00526,-0.5567 -1.3175,-0.3333 -1.74735,-0.473 -3.61075,-1.1737 -2.10168,-5.8161 0.3074,-0.9457 1.0726,-1.8376 0.70717,-1.0058 0.76306,-1.1777 7.3527,0.7741 7.3527,0.7741 5.97503,0.041 7.00902,-3.1397 0.27946,-0.8597 0.12053,-3.0026 -0.19753,-3.4861 -0.22761,-3.686 2.71883,0.4085 8.63584,0.3358 0.84029,1.5088 0.0578,3.916 -0.25151,0.7737 -0.86845,2.3792 -0.70291,1.5775 -0.95442,2.3513 -1.34139,4.1265 1.56218,6.3061 3.56552,2.7749 11.33292,5.4899 -2.89504,-1.0361 8.36705,2.6248 0.8597,0.2794 4.21916,-1.5752 3.35945,-1.8547 4.8619,-3.5525 -0.0279,0.086 0.0301,0.1999 -0.0279,0.086 0.0279,-0.086 0.16981,-0.23 0.42132,-1.0037 0.61481,-1.8913 -0.87441,-6.0825 -2.20942,-1.0985 -3.30122,-1.8336 -2.44151,-1.5541 -2.824,-3.0091 l 0.78248,-2.4072 z"
           style="font-family:'Love Letter Typewriter';-inkscape-font-specification:'Love Letter Typewriter, Normal'"
           id="path915" />
        <path
           d="m -474.58134,1403.9215 q 0.70851,0.4 0.61963,0.5574 -0.0444,0.079 -0.33519,0.226 -0.24631,0.069 -0.33519,0.226 -0.0889,0.1575 0.0241,0.3251 0.65008,-0.048 1.43731,0.3961 2.20423,1.2442 3.7496,5.1268 1.54536,3.8827 0.65664,5.4572 -0.44436,0.7872 -1.16302,0.5891 -0.71865,-0.198 -1.16301,0.5892 -0.44437,0.7873 0.0965,1.3002 0.54091,0.5129 0.0966,1.3002 -0.53324,0.9446 -1.96671,1.2773 -1.43347,0.3328 -1.56678,0.5689 -0.51293,0.5409 1.54153,3.1539 -1.20361,1.3967 -3.80641,3.2493 -2.5419,0.6413 -6.63412,0.7189 -4.04778,0 -5.22862,-0.6677 l -21.8849,-12.3533 q -2.74378,0.6312 -4.96943,3.8385 -1.71271,2.6664 -3.46986,5.4116 -0.94467,-0.5333 -1.53769,-2.4251 -0.39361,-0.2222 -3.42815,0.5563 -1.5034,-2.3019 -0.10558,-5.1461 1.95135,-4.1926 2.11511,-5.0344 l 2.91138,-0.7441 q -1.37393,-3.2669 -4.83773,-5.2221 -0.7085,-0.3999 -1.85506,-0.9433 -1.22527,-0.5878 -1.61889,-0.81 -3.30635,-1.8663 -0.90679,-6.1174 0.4888,-0.8659 1.41564,-1.5884 0.89257,-0.8457 0.98144,-1.0031 7.05323,2.2166 7.05323,2.2166 5.84825,1.225 7.49239,-1.6877 0.44436,-0.7872 0.71345,-2.919 0.49759,-3.4562 0.50774,-3.6581 2.58386,0.9395 8.39783,2.0414 0.52444,1.6455 -0.71977,3.8497 -0.39993,0.7085 -1.32294,2.1598 -1.00173,1.4069 -1.40166,2.1154 -2.13294,3.7787 0.28085,6.4906 2.94455,3.4268 10.01944,7.628 -2.63213,-1.5896 7.68054,4.2316 0.78722,0.4443 4.4477,-0.7074 3.66048,-1.1518 5.46974,-2.518 -0.0444,0.079 -0.0102,0.2018 -0.0444,0.079 0.0444,-0.079 0.21203,-0.1917 0.61196,-0.9002 0.97759,-1.7319 0.34893,-6.1352 -1.94777,-1.5146 -2.87214,-2.4516 -2.08492,-2.0073 -2.17131,-3.5094 l 1.24421,-2.2042 z"
           style="font-family:'Love Letter Typewriter';-inkscape-font-specification:'Love Letter Typewriter, Normal'"
           id="path917" />
        <path
           d="m -433.22768,1362.2517 q 0.13765,2.3689 -0.73358,3.5234 -0.54452,0.7216 -3.74081,5.5575 -3.19629,4.8359 -3.74081,5.5575 -1.96027,2.5977 -5.23443,3.1847 l -2.5977,-1.9603 q -2.07222,-2.3564 1.95723,-7.6962 -0.57594,-0.8876 -1.80263,-1.8132 -0.8659,-0.6535 -2.29136,-1.6159 -1.49762,-1.0169 -1.85841,-1.2891 -0.93805,-0.7079 -2.38255,-1.345 -1.51666,-0.6915 -1.87745,-0.9637 -1.01022,-0.7624 -1.2404,-2.4083 -2.20949,1.2772 -3.49197,0.8756 -0.86723,-0.2014 -2.20149,-1.4348 -1.27981,-1.3055 -2.41797,-1.5981 -0.12661,0.018 -5.53677,1.4843 -2.29803,0.6441 -3.55042,2.3037 -0.81678,1.0824 -0.83582,1.4078 -0.11024,0.5963 0.69854,2.2258 -0.0912,0.271 -1.19394,0.2315 -1.62689,-0.095 -2.51317,0.029 0.10491,1.2116 1.79863,3.1692 -0.25455,0.4874 -0.55252,3.4336 2.14705,1.5069 5.42825,4.6625 0.48607,0.7065 1.59986,3.1325 0.78974,1.9549 1.58348,2.5539 0.93806,0.7079 1.78892,0.3307 0.47102,-0.3241 0.94205,-0.6481 1.30989,3.3667 5.46233,5.3677 1.9359,-0.4644 6.13974,-3.634 l -0.1744,-2.1701 q 1.19395,-0.2315 6.08567,2.4407 -1.64156,4.8766 -2.62169,6.1755 -0.0544,0.072 -2.81246,3.4268 -2.70356,3.2826 -4.60938,5.8081 -2.8315,3.7522 -4.35749,6.2247 l -2.5977,-1.9603 q -0.0668,-1.8624 -1.05,-5.6621 0.14698,-0.795 0.29396,-1.5901 0.27493,-1.2648 0.8916,-1.9319 -0.2873,-0.6698 -1.50999,-2.9514 -0.86323,-1.5574 -0.82249,-3.1122 l -18.18389,-13.7219 q -1.99168,0.9885 -3.14621,0.1173 -0.8659,-0.6534 -0.95177,-2.1904 -2.83988,0.4616 -9.21151,-3.1008 -2.33611,1.2949 -8.09202,3.5198 l -3.73186,-3.6089 q 0.50511,0.3812 0.94073,-0.1961 0.21781,-0.2886 0.54585,-1.1735 0.3825,-0.9571 0.6003,-1.2458 0.50778,-0.5228 1.5437,-2.3458 0.96376,-1.8774 1.45383,-2.5269 0.59897,-0.7937 2.5362,-1.7101 1.62956,-0.8087 3.25912,-1.6175 1.27981,1.3055 4.77045,0.8819 -0.0828,3.5614 2.22624,5.3039 2.88633,2.1781 4.42603,1.1882 1.46753,-1.0443 4.60709,1.0984 0.6875,-0.1607 1.66763,-1.4595 1.63356,-2.1648 0.80574,-3.469 -1.31389,-2.0107 -1.25677,-2.9868 1.65964,1.2524 2.85758,-0.3351 0.49007,-0.6494 0.71188,-2.294 0.14831,-1.2471 0.22447,-2.5486 4.59205,0.068 7.94636,-3.1767 2.27899,-0.3187 2.49147,1.2006 8.60549,0.1519 11.72867,1.716 4.22193,2.9595 8.49831,5.8467 0.0708,0.5065 0.73795,1.1232 0.72159,0.5445 0.79241,1.0509 0.52415,0.056 0.88494,0.3281 0.43295,0.3267 0.82782,1.3042 0.50244,1.2851 0.68217,1.6472 2.29936,-1.0961 8.04556,-6.1595 l 1.19395,-0.2315 z"
           style="font-family:'Love Letter Typewriter';-inkscape-font-specification:'Love Letter Typewriter, Normal'"
           id="path919" />
        <path
           d="m -421.37201,1314.7833 q 1.35001,1.3346 1.87308,3.3771 0.52526,2.4261 -0.80937,3.7761 0.63554,-0.6429 -2.98852,2.7658 -2.28868,2.1864 -3.36691,3.6628 -0.0628,0.1921 -1.46687,0.5837 -1.40478,0.2637 -2.10387,0.9709 -0.57199,0.5785 -1.13812,2.1798 -0.50258,1.5371 -1.13812,2.1799 -0.63555,0.6429 -3.692,2.7059 -3.05646,2.063 -3.692,2.7058 -0.82621,0.8358 0.53038,3.321 1.09726,1.8474 1.80441,2.5465 2.70001,2.6693 9.71878,0.4558 5.93396,-1.8877 8.15836,-4.1378 0.57199,-0.5785 2.22147,-2.7613 1.64948,-2.1828 2.34785,-3.0178 -0.45293,-0.9563 -1.30475,-4.5949 -0.59028,-2.6175 -2.19524,-3.8228 3.23834,-3.79 5.66365,-4.4431 -0.36889,2.559 2.01262,5.4219 0.45586,1.4676 -1.12861,3.8418 -0.31264,1.2163 1.23388,3.3808 -0.93429,4.2881 -1.80429,8.6398 -0.31484,0.8328 -3.17478,3.7257 -0.38132,0.3857 -1.07896,1.3485 -0.63481,0.7707 -1.08042,1.0929 -0.63627,0.515 -1.21046,0.7101 -3.2537,1.1053 -9.70122,2.6124 -0.25568,0 -2.81468,-0.3674 -2.17475,-0.2433 -3.25883,0.2104 -13.4686,-7.8492 -16.42576,-10.7727 -0.64286,-0.6356 -1.54872,-2.5481 -0.90659,-2.0403 -1.29304,-2.5495 0.9438,-2.6262 0.73997,-4.7344 -2.51082,-3.1178 -2.09155,-8.0423 5.44517,-9.1081 7.86023,-11.551 0.8262,-0.8357 3.63137,-2.1302 2.74088,-1.358 4.84769,-1.8176 2.10607,-0.5873 5.11434,0.099 1.7284,0.4376 5.89309,2.1396 0.64506,1.0191 1.41429,1.3982 2.42531,-0.6531 3.51451,-0.2119 0.44854,0.1892 1.92712,1.651 z m -14.76152,0.7876 q -2.48594,1.2288 -5.91787,4.7002 -0.19066,0.1929 -6.02886,7.6413 0.78387,2.9359 2.08715,7.2752 0.89489,-0.01 2.68172,-0.5267 0.75973,-1.2828 1.64948,-2.1828 1.65241,-1.6715 4.0149,-2.1325 2.36248,-0.4609 2.29893,-0.3967 0.69909,-0.7071 1.32585,-2.884 0.62676,-2.177 1.19875,-2.7556 0.57199,-0.5785 2.03959,-1.0344 1.53116,-0.5201 1.65827,-0.6487 -0.96795,-1.5925 -3.34507,-3.6884 -4.17713,-3.8753 -3.66284,-3.3669 z"
           style="font-family:'Love Letter Typewriter';-inkscape-font-specification:'Love Letter Typewriter, Normal'"
           id="path921" />
        <path
           d="m -375.37971,1237.8127 q 0.55342,0.8262 1.31313,4.2343 0.88658,4.0848 1.3153,5.2121 -0.22531,0.1509 -3.10986,-0.4194 -0.39742,1.6807 0.0554,2.3567 -1.32636,1.1061 -4.13797,-0.4923 -0.0992,0.5017 0.12903,1.6545 0.30331,1.1025 0.20413,1.6041 -0.87935,-0.8254 -4.47041,-3.4249 -2.96326,-2.1496 -3.51668,-2.9758 -1.66025,-2.4784 -0.23904,-6.0418 1.29723,-2.9363 3.02464,-4.0935 0.97636,-0.654 2.93196,-0.6583 1.9804,-0.1298 3.10986,0.4193 0.32738,0.6511 1.63257,1.3001 1.25487,0.5739 1.75797,1.3249 z m 18.91676,28.2393 q 0.40248,0.6009 0.43089,2.1051 0.10351,1.454 0.60589,1.8791 1.28184,1.4263 3.69385,3.7275 0.10135,0.4762 0.0291,1.8302 0.88296,2.4551 3.9454,4.1031 1.03317,2.3545 4.43094,8.2389 3.17101,5.3834 4.33176,8.7405 0.3529,0.8517 -0.0941,2.7832 -0.52068,2.6337 -0.57027,2.8845 -3.37103,6.1752 -5.14658,8.2351 -1.45033,1.7331 -5.13045,4.1984 -4.50627,3.0186 -7.56293,3.9781 -0.82687,0.2275 -2.45799,-0.4208 -2.05767,-0.7977 -2.75985,-0.8714 -0.72625,0.3777 -2.12917,0.8823 -1.55601,-0.6986 -3.16233,-1.4723 -2.03288,-0.9231 -3.23528,-0.4441 -0.20124,-0.3004 -1.43204,-1.3256 -1.18049,-0.9502 -1.73391,-1.7763 -0.55341,-0.8262 -1.05796,-2.2291 -0.50455,-1.4029 -0.85673,-1.9286 1.49776,-2.9618 3.9011,-4.5718 2.25314,-1.5093 4.36401,0.6673 1.43277,1.6516 2.84074,3.4286 3.00996,0.595 6.64555,0.6622 4.93933,0.064 6.81694,-1.1935 0.67594,-0.4528 2.47339,-3.9418 2.34725,-4.2925 3.54676,-6.0753 -1.0339,-2.6804 -4.68249,-8.6144 -2.99456,-4.9576 -5.98912,-9.9152 -0.6278,-0.4499 -2.0336,-1.2491 -6.71537,-9.5376 -5.84686,-13.6012 -2.88382,-0.2443 -5.99802,-2.6192 -0.75104,0.5031 -0.27273,1.3795 0.30186,0.4507 0.65403,0.9764 l 0.4528,0.6759 q -1.47946,-0.097 -3.81348,-1.1448 -0.52718,-0.2997 -3.75667,1.8636 -0.75105,0.5031 -2.70088,3.115 -1.94982,2.6118 -2.70087,3.1149 -2.40334,1.6099 -7.87129,0.5941 -0.35868,-3.4592 -2.14434,-5.9624 l 9.68848,-6.4901 q 0.12325,-0.953 -1.05941,-2.8809 0.82759,0.099 4.73447,-1.8658 3.05522,-1.6114 4.23787,0.3165 0.22532,-0.1509 -0.1531,-1.2031 -0.35361,-1.1776 0.54764,-1.7813 0.82615,-0.5534 1.52905,-0.1538 0.7029,0.3995 0.92822,0.2486 0.37191,-1.8812 -0.48337,-3.158 0.87718,-0.1524 2.65923,0.7212 2.50975,1.1478 3.48827,1.4715 0.27635,0.2501 0.40465,1.5787 0.1531,1.2031 0.42945,1.4532 0.85383,0.6249 4.32743,6.7849 1.51003,2.5791 2.5148,3.4293 0.67811,0.525 1.32998,0.5236 0.60156,-0.077 0.85311,0.2989 z"
           style="font-family:'Love Letter Typewriter';-inkscape-font-specification:'Love Letter Typewriter, Normal'"
           id="path923" />
        <path
           d="m -316.38044,1248.4228 q 1.87378,3.6106 3.93331,11.5043 0.81245,2.9393 -3.07867,10.3564 -3.81089,7.3756 -5.89705,8.4582 -0.72214,0.3748 -2.08008,1.4868 -1.27771,1.0705 -2.08008,1.4869 -1.20356,0.6246 -5.44186,1.0927 -4.2383,0.4681 -7.03234,0.1867 -3.40038,-0.2723 -5.28842,-2.1442 -6.80873,-6.4474 -8.76578,-10.2186 -3.83084,-7.3818 -4.30199,-11.8222 -0.70977,-6.8627 1.14082,-10.1656 0.74857,-1.3051 3.30399,-3.446 3.47358,-2.9229 3.87172,-3.3332 0.39814,-0.4104 1.2239,-1.9592 0.58809,-1.2218 1.55094,-1.7215 2.96877,-1.5406 8.19121,-1.0936 0.32399,0.035 3.38821,-0.5362 2.78186,-0.527 3.67664,-0.1766 3.053,1.3691 6.94183,4.5452 4.82828,3.8087 6.7437,7.4997 z m -5.7284,6.2318 q -0.49967,-0.9628 -1.07046,-1.2777 -0.57078,-0.3149 -1.05829,-0.4692 -0.55652,-2.0537 -4.18943,-4.3441 -3.1454,-2.1359 -4.80699,-2.394 -4.13468,-0.7059 -6.7825,0.6682 -1.92569,0.9993 -7.01828,6.4938 0.25288,0.6836 -0.002,2.5473 -0.28749,2.3898 -0.27836,2.9961 0.009,0.6064 1.8829,4.217 2.29017,4.4131 3.52415,5.8096 1.93272,2.1542 7.2719,4.985 0.44283,-0.128 2.78491,-0.325 2.01809,-0.2325 2.9007,-0.6905 0.80237,-0.4164 1.11724,-0.9872 0.31486,-0.5708 1.11723,-0.9872 0.96285,-0.4997 1.45035,-0.3453 0.44587,0.074 0.97502,0.3088 -0.9446,1.7124 -0.0702,3.3973 0.37476,0.7222 0.99022,1.3194 l 3.4502,-1.7905 q 2.10347,-2.6193 0.72936,-5.2671 -0.83279,-1.6048 -3.16669,-3.5508 1.20679,-8.4684 0.24908,-10.3139 z"
           style="font-family:'Love Letter Typewriter';-inkscape-font-specification:'Love Letter Typewriter, Normal'"
           id="path925" />
        <path
           d="m -261.6919,1246.0789 q 0.96433,2.342 -0.52653,4.8226 -1.40609,2.4492 -2.84359,4.8137 -0.81624,0.3988 -2.49608,-0.2319 -1.59507,-0.6622 -2.98921,-1.3024 -4.21629,1.3697 -12.7526,3.5692 -0.1446,-0.9105 1.02914,-3.4664 1.22708,-2.6721 0.85013,-3.6893 -0.28272,-0.7629 -2.04434,-2.1346 -1.76161,-1.3716 -2.19192,-2.2726 -0.26377,-0.1915 -1.9122,-0.7375 -1.09895,-0.364 -1.41308,-1.2116 -0.31413,-0.8477 -0.24533,-2.2229 -0.58089,-0.2667 -2.53047,0.4558 -2.11912,0.7853 -3.51873,4.2926 -1.30536,3.7616 -2.49455,7.5765 0.719,0.1191 3.52622,1.971 2.07874,1.447 3.77403,0.8187 0.84765,-0.3141 1.65441,-0.9987 0.0942,0.2543 0.73795,0.6906 0.6123,0.3515 0.95785,1.2839 0.40837,1.1019 0.0224,2.4018 -0.33257,1.1837 -1.26498,1.5293 -0.84765,0.3141 -0.9733,-0.025 -0.12565,-0.3391 -0.9733,-0.025 -0.84765,0.3142 -0.59634,0.9923 0.2513,0.6781 -0.59634,0.9922 -0.84765,0.3142 -1.09896,-0.364 -0.2513,-0.6781 -1.09895,-0.3639 -0.84764,0.3141 -0.80975,1.4569 0.0379,1.1428 -0.80974,1.457 -2.71247,1.0052 -6.43016,-0.7021 -0.80028,1.7427 -0.26625,3.1837 -1.7332,-0.5146 -3.58257,-1.0825 -2.6312,-0.8566 -3.45093,-2.2881 1.03912,-0.5779 2.71197,-3.608 1.67284,-3.0301 3.04154,-4.0194 0.0878,-0.8037 -0.41186,-2.9323 -0.33308,-1.4191 1.0386,-3.1807 -3.23403,-0.9224 -7.48726,-11.879 -3.02812,-7.6508 -6.02483,-15.2168 -1.87531,-4.8002 -1.9541,-6.3135 -1.65141,0.2264 -5.10832,-0.517 -4.74733,-0.8436 -5.38157,-0.9942 l -1.88479,-5.0859 q 1.12687,-1.3817 4.00887,-2.4497 6.27259,-2.3246 10.22562,-1.283 4.78822,1.2141 7.1442,7.5715 1.09946,2.9667 -0.49511,4.9074 0.4333,0.1286 1.42555,0.7249 1.44449,1.2964 0.75741,3.8648 1.40062,1.6983 1.46344,1.8678 -0.4677,0.559 -1.13933,1.8683 l 0.21989,0.5934 q 1.69879,1.2022 1.74915,1.8583 -0.32958,0.4114 -0.54299,0.8761 -0.24482,0.38 0.13214,1.3971 0.18848,0.5086 0.6846,0.8068 0.58089,0.2667 0.76937,0.7753 0.28272,0.7629 0.2548,2.5086 l 0.21989,0.5933 q 1.62649,0.7469 4.9423,2.4103 1.61002,-3.1996 3.22004,-6.3992 1.84537,-3.8653 1.437,-4.9673 -0.25131,-0.6781 -1.1902,-1.3906 -0.97031,-0.7973 -0.99874,-1.6544 -0.65319,-0.722 -2.69403,-1.0261 -1.95607,-0.3356 -3.60749,-0.1092 0.92294,-0.6313 1.60704,-2.4273 0.76886,-1.8274 0.3919,-2.8446 0.25429,-0.094 1.13984,0.7345 0.85413,0.7439 1.78654,0.3983 0.93241,-0.3455 2.4143,-0.509 1.48189,-0.1636 2.32954,-0.4777 0.84764,-0.3142 0.76587,-1.0551 -0.0818,-0.7409 0.76587,-1.0551 0.84765,-0.3141 5.67624,-1.3323 4.8286,-1.0182 5.67625,-1.3323 0.93241,-0.3456 1.39064,-1.1902 0.51157,-0.9609 0.76587,-1.0551 0.28272,0.7629 2.25774,1.6699 0.40837,1.1019 -0.76238,2.8855 -3.72964,1.3821 -5.28333,3.6932 l -2.1979,-0.7279 q -4.21827,7.3476 -7.86462,17.279 0.92643,1.1992 3.68927,0.8502 0.26376,0.1914 1.70228,3.0325 1.95608,0.3356 5.71465,2.4133 4.16994,2.4073 6.01931,2.9752 0.86659,0.2573 5.50372,-0.4971 4.01237,-0.6193 5.81487,1.1229 z"
           style="font-family:'Love Letter Typewriter';-inkscape-font-specification:'Love Letter Typewriter, Normal'"
           id="path927" />
        <path
           d="m -224.60705,1217.8495 q 0.4251,1.8501 -0.22729,3.8551 -0.85596,2.33 -2.70611,2.7551 0.88102,-0.2025 -4.00511,0.7347 -3.10383,0.6204 -4.80516,1.2895 -0.15596,0.1286 -1.55134,-0.2928 -1.32751,-0.5298 -2.29664,-0.3071 -0.79293,0.1822 -2.12873,1.2311 -1.2477,1.0287 -2.12873,1.2311 -0.88103,0.2025 -4.56707,0.3073 -3.68605,0.1049 -4.56708,0.3073 -1.14533,0.2632 -1.33098,3.0885 -0.063,2.1478 0.15963,3.1169 0.85019,3.7003 7.96279,5.5907 6.02202,1.5845 9.10561,0.8761 0.79293,-0.1822 3.35504,-1.1419 2.56211,-0.9597 3.5991,-1.2907 0.12974,-1.0501 1.35951,-4.579 0.90358,-2.5265 0.19394,-4.404 4.76467,-1.4658 7.16253,-0.7181 -1.68224,1.9633 -1.20471,5.6565 -0.40118,1.4834 -3.01091,2.6396 -0.91553,0.8596 -0.76901,3.5158 -3.0859,3.1206 -6.15157,6.3293 -0.71195,0.5346 -4.67657,1.4455 -0.52861,0.1215 -1.63346,0.5608 -0.94889,0.3108 -1.49775,0.3442 -0.81317,0.094 -1.40251,-0.049 -3.33961,-0.8095 -9.59143,-2.9905 -0.21669,-0.1357 -2.18002,-1.8179 -1.70614,-1.3704 -2.86459,-1.568 -7.16891,-13.8427 -8.10006,-17.8954 -0.20243,-0.881 0.0571,-2.9812 0.32735,-2.2086 0.27375,-2.8455 2.20372,-1.7122 3.1609,-3.6016 -0.45016,-3.9778 2.54166,-7.9115 9.47692,-4.7746 12.82482,-5.5438 1.14533,-0.2631 4.20752,0.1463 3.04196,0.3214 5.06716,1.0619 2.09307,0.6321 4.26595,2.8227 1.22515,1.2954 3.83025,4.9635 -0.001,1.206 0.44534,1.9382 2.39786,0.7477 3.08128,1.7037 0.27742,0.4 0.74299,2.4264 z m -12.88709,-7.242 q -2.7574,-0.294 -7.51495,0.7991 -0.2643,0.061 -9.18407,3.2232 -0.91071,2.8991 -2.1345,7.2614 0.75841,0.4751 2.54668,0.9917 1.32868,-0.6763 2.56211,-0.9597 2.29067,-0.5263 4.53257,0.3499 2.24189,0.8762 2.15379,0.8965 0.96913,-0.2227 2.66448,-1.7253 1.69535,-1.5025 2.48827,-1.6847 0.79292,-0.1822 2.2764,0.219 1.57159,0.3809 1.74779,0.3404 0.0357,-1.8632 -0.84903,-4.9063 -1.45148,-5.51 -1.28954,-4.8052 z"
           style="font-family:'Love Letter Typewriter';-inkscape-font-specification:'Love Letter Typewriter, Normal'"
           id="path929" />
        <path
           d="m -159.52143,1182.2027 q 0.0832,2.8011 -1.99147,6.0281 -2.07735,3.1366 -3.88452,3.1902 -0.90358,0.027 -3.31463,-1.9816 -3.06234,-2.6222 -3.61522,-2.9675 -0.29791,-10.0298 2.95499,-10.1264 l 7.40939,-0.2201 q 2.4012,4.7219 2.44146,6.0773 z m 13.13054,52.3354 q -2.49962,4.1439 -2.76533,4.3327 -0.6164,0.5609 -3.95966,0.6602 -3.61434,0.1074 -5.46444,-1.2847 l -1.76423,1.4995 -2.14265,-2.1069 q -1.39206,1.8501 -1.65777,2.0389 -0.26571,0.1887 -1.98252,0.2397 -0.0904,0 -3.61165,0.1977 -3.42825,0.2827 -5.96096,0.2675 -3.61434,0.1074 -5.88403,-0.187 0.0662,-0.8159 -1.60676,-5.3785 3.93551,-1.4735 7.49437,-0.4035 0.7014,-0.7443 1.20329,-2.1158 0.58957,-1.4645 0.84722,-1.9244 4.10013,-2.021 3.39247,-4.5322 0.98321,-0.391 2.66513,-1.6166 l -0.29254,-9.8491 q -1.39295,-1.2247 -2.83868,-1.1818 -0.008,-0.2711 0.23618,-1.1827 0.24155,-1.002 0.21203,-1.9959 -0.0268,-0.9036 -0.50815,-1.8841 -0.39364,-1.0736 -0.5001,-1.6131 -0.65398,-0.7041 -1.84474,-1.2113 -2.00936,-0.6638 -2.1024,-0.7515 -0.2827,-3.4283 -1.81879,-3.3826 -2.07824,0.062 -3.13839,0.9071 -0.70408,0.654 -1.31512,1.3957 -0.9009,0.1172 -4.9044,-3.7432 -0.0241,-0.8132 1.28292,-2.4799 2.09077,-2.6848 2.34842,-3.1447 1.57903,1.4001 5.25778,3.4614 1.60766,-0.6809 2.78411,-3.7003 0.37217,0.3507 0.84544,1.0602 0.47326,0.7094 0.84543,1.0601 0.63787,0.162 1.72128,-2.9451 l 2.25896,-0.067 q 0.90358,-0.027 1.83937,1.0306 1.02615,1.0548 1.92973,1.028 1.62645,-0.048 3.02925,-1.537 1.72396,6.2794 1.96282,14.3213 0.0617,2.0783 0.002,6.1498 0.0277,3.9784 0.0868,5.9663 0.13956,4.6986 0.79174,8.3872 1.96462,2.2026 5.85272,2.1776 5.06543,0.03 6.34924,0.6253 -1.35538,0.04 -2.14445,0.8777 -0.0447,1.5387 2.9693,2.5345 z"
           style="font-family:'Love Letter Typewriter';-inkscape-font-specification:'Love Letter Typewriter, Normal'"
           id="path931" />
        <path
           d="m -107.24521,1228.9497 q -0.54463,6.8486 -3.83781,9.4886 -2.90406,2.3082 -8.67134,1.8496 -0.6308,-0.05 -2.14123,-0.4423 -1.51043,-0.3922 -2.41157,-0.4639 -0.81102,-0.064 -1.5391,-0.032 0,0 -1.22164,0.5377 -1.12436,0.4547 -2.11561,0.3758 -0.90114,-0.072 -3.69879,-1.3823 -2.79764,-1.3107 -3.69878,-1.3824 -1.26159,-0.1003 -5.97205,0.9761 -1.576,-1.8484 -1.13887,-7.3453 0.74528,-9.3718 4.34983,-9.0852 1.08137,0.086 3.73157,2.1104 2.39419,1.8227 3.6384,3.2819 0.0829,0.097 2.48538,4.0971 1.8433,3.0484 2.92467,3.1344 2.70341,0.215 8.13782,-1.9826 -0.72503,-1.1459 -0.7261,-3.4131 0.0348,-2.7177 -0.17109,-3.5502 -5.52363,-3.5225 -14.70609,-7.7894 -5.42223,-2.5169 -6.58761,-4.9674 -1.3999,-2.9225 -0.69762,-11.7536 0.23649,-2.9738 5.57362,-5.0885 4.31005,-1.743 6.20244,-1.5925 0.18023,0.014 8.79531,1.1529 8.62226,1.0484 12.94771,1.3923 1.12042,6.437 0.94127,8.6898 -0.0645,0.8111 -1.24512,4.2538 -1.0905,3.45 -1.21232,4.9819 -0.55197,-1.0414 -2.97483,-2.5037 -2.84476,-1.8585 -4.17192,-3.415 -0.62775,-1.2288 -1.2555,-2.4576 -1.18689,-2.1801 -2.65432,-3.1129 -1.37733,-0.9257 -3.87901,-1.3967 -3.47861,-0.7301 -4.2753,-0.9748 -1.32913,1.8894 -1.54412,4.5928 -0.086,1.0813 0.20997,1.921 0.38607,0.8469 0.37891,0.937 0.57346,0.7711 2.15251,1.4407 1.92518,0.8786 2.35425,1.1848 0.42907,0.3061 0.62058,1.3189 0.28879,0.9298 0.62775,1.2288 7.54089,0.9624 11.97598,4.489 5.0229,4.1175 4.49977,10.6958 z"
           style="font-family:'Love Letter Typewriter';-inkscape-font-specification:'Love Letter Typewriter, Normal'"
           id="path933" />
        <path
           d="m -28.65334,1235.194 q -1.099749,3.9165 -4.99101,11.0865 -1.415707,2.701 -9.325402,5.4563 -7.822664,2.7798 -10.085497,2.1444 -0.783288,-0.2199 -2.534652,-0.3362 -1.664333,-0.092 -2.534653,-0.3361 -1.305481,-0.3666 -4.71943,-2.9214 -3.413949,-2.5549 -5.261321,-4.6699 -2.296248,-2.5226 -2.395248,-5.1795 -0.56408,-9.3601 0.584547,-13.4506 2.248376,-8.0069 4.93914,-11.5705 4.172057,-5.495 7.780273,-6.6413 1.438398,-0.4412 4.767063,-0.2576 4.533397,0.2401 5.104467,0.2127 0.57107,-0.028 2.23241,-0.5938 1.264335,-0.49 2.308719,-0.1967 3.220186,0.9042 6.727151,4.7997 0.212218,0.2474 2.839887,1.9242 2.391012,1.5164 2.804725,2.3838 1.29301,3.086 1.961332,8.0623 0.921687,6.0802 -0.202501,10.0837 z m -8.440863,0.6344 q 0.293266,-1.0444 0.09177,-1.6643 -0.201495,-0.62 -0.451867,-1.0658 0.997254,-1.8796 -0.08952,-6.0344 -0.836403,-3.709 -1.873056,-5.0329 -2.535897,-3.3412 -5.407955,-4.1476 -2.088769,-0.5866 -9.561556,-0.056 -0.282543,0.6718 -1.742389,1.8581 -1.843135,1.5481 -2.250865,1.997 -0.407729,0.4489 -1.507478,4.3653 -1.344138,4.7868 -1.397755,6.6496 -0.06135,2.8935 1.901731,8.6089 0.410721,0.2093 2.255102,1.6661 1.632161,1.2095 2.589514,1.4783 0.87032,0.2444 1.490268,0.043 0.619948,-0.2015 1.490268,0.043 1.044385,0.2933 1.294757,0.7392 0.274812,0.3588 0.500746,0.8917 -1.859843,0.6045 -2.37306,2.4322 -0.219949,0.7833 -0.178803,1.6399 l 3.742378,1.0508 q 3.325672,-0.4745 4.132155,-3.3466 0.488777,-1.7406 0.114966,-4.7563 6.668555,-5.3573 7.230649,-7.3591 z"
           style="font-family:'Love Letter Typewriter';-inkscape-font-specification:'Love Letter Typewriter, Normal'"
           id="path935" />
        <path
           d="m 14.871203,1273.4113 q -0.43698,0.7965 -4.167063,4.0236 -0.8672532,-0.2706 -3.7893332,-1.0222 -2.5893304,-0.61 -3.5043916,-0.9992 -0.665499,-0.283 -3.85147685,-2.031 -3.15059855,-1.8311 -4.64797135,-2.4679 0.2562699,-1.7575 0.4255383,-4.9272 6.5039379,-0.2791 8.8838862,-2.4104 1.1483805,-1.0834 3.2711387,-6.0746 0.2122758,-0.4992 1.6695349,-5.7734 1.5509679,-5.7256 2.5645389,-8.3398 -1.40557,-1.7766 -3.4345529,-5.783 -0.4283657,-0.3787 -2.0921132,-1.0863 -1.9133097,-0.8137 -2.2919602,-0.3853 -1.1005724,1.2019 -1.7287851,1.5241 -2.57308769,0.9686 -5.1461753,1.9372 -3.4030544,1.3033 -4.7885683,2.4822 -1.2669471,1.1312 -2.317804,3.1401 -0.803203,1.4266 -1.569119,3.4585 -1.190467,3.0301 -1.013571,2.6142 -1.273654,2.9947 -0.411202,5.8174 0.191232,0.4742 3.3446581,7.6112 -0.4388871,0.108 -2.8809801,1.2306 -2.003204,1.0145 -3.001453,0.5899 0.08319,0.035 -4.063753,-1.5318 -4.028373,-1.6151 -7.106306,-2.9241 -4.290364,-1.9229 -7.012597,-3.3754 0.106138,-0.2495 -0.09752,-0.9255 -0.0851,-0.7239 0.304078,-1.6389 0.389172,-0.9151 3.99398,-2.2308 3.723376,-1.3634 6.096616,-1.6312 0.222798,-0.9858 1.130231,-3.3504 2.383762,-0.7544 3.825699,-2.99 0.41403,-0.5115 0.493403,-1.853 0.114753,-1.4247 0.327029,-1.9239 0.141517,-0.3327 0.330842,-0.5469 l 0.831874,0.3538 q 0.247655,-0.5823 0.741058,-2.4354 0.399694,-1.4017 0.884483,-2.0797 -0.949454,-4.2349 -4.738721,-13.8034 1.265041,-1.8196 5.146176,-1.9372 3.916514,-0.2008 7.2440092,1.2144 1.6637476,0.7076 5.2398181,6.1579 7.6876976,-1.4457 13.0116897,0.8185 3.992994,1.6982 8.296708,8.4403 -1.024093,3.1009 -1.784288,7.1981 0.205568,1.3645 0.165388,3.9997 -0.633013,2.8743 -2.990998,8.6496 -2.464122,6.0249 -3.286461,9.1133 -0.328936,1.2354 0.91026,2.9412 1.357763,1.6581 2.58453,3.1621 z"
           style="font-family:'Love Letter Typewriter';-inkscape-font-specification:'Love Letter Typewriter, Normal'"
           id="path937" />
        <path
           d="m 84.925013,1327.11 q -3.788729,-1.5669 -7.857884,-4.5783 -1.23528,-0.9142 -1.631918,-3.5695 -0.579741,-3.0156 1.036424,-4.7435 1.159729,0.4084 4.105611,0.2269 3.771409,-1.1451 4.739376,-2.453 1.183071,-1.5986 0.928872,-4.5983 3.870301,-2.6463 7.271299,-8.0016 -1.443042,-2.3051 0.0031,-5.1709 1.486838,-2.161 2.847238,-4.3032 -0.435981,-0.3226 -1.437269,-1.401 -0.947512,-1.1511 -1.746811,-1.7426 -0.581308,-0.4302 -4.598255,-0.9289 -10.528289,10.4271 -12.249119,12.7523 -0.26888,0.3633 -0.986855,1.1815 -0.664199,0.7455 -0.986854,1.1815 -3.226557,4.3598 0.444145,12.9244 l -2.419917,3.2698 q -0.290654,-0.2151 -0.725068,-3.1232 -4.69426,1.0244 -7.092155,-0.7502 l -18.3112,-13.5515 q -0.799298,-0.5916 -2.005462,-2.6088 -2.027237,-3.1872 -2.046125,-3.3137 l 3.280332,-4.4325 q 4.259599,1.6904 9.099433,-4.8493 0.752863,-1.0173 1.809495,-2.597 1.110407,-1.6523 1.379287,-2.0157 3.925643,-5.3044 5.751139,-8.2269 0.281993,-1.1409 -0.695953,-4.2263 0.534873,-1.1786 0.819753,-1.8675 0.389546,-1.2862 0.238445,-2.2977 l 0.430208,-0.5813 q 0.591535,-0.7993 1.635052,-1.6015 1.097293,-0.8748 1.473725,-1.3835 3.487848,2.5813 10.89375,7.1625 7.459679,4.5085 7.677669,4.6698 0.726635,0.5378 3.499395,4.3892 2.772759,3.8514 3.499394,4.3892 0.363318,0.2688 3.043207,0.9026 2.679889,0.6338 4.060493,1.6555 2.47056,1.8284 3.1463,2.8908 1.27883,2.071 1.1406,5.9049 -0.55376,1.0522 -1.71505,3.2292 0.11332,0.7586 0.29931,1.571 0.16999,1.138 -0.47532,2.0099 l -16.455443,22.2351 q -0.591536,0.7993 -0.174442,0.9955 0.417093,0.1962 0.41998,0.6482 -0.319769,0.8879 -2.3428,1.1901 0.05666,0.3794 0.444641,1.6786 0.460642,1.3531 0.536192,1.8589 z m -6.568909,-34.8887 q -0.871962,-0.6453 -0.961946,-3.4109 1.591504,-2.7584 3.236784,-5.5894 2.161265,-4.136 -0.527284,-6.1257 -1.162616,-0.8604 -4.964459,-1.6497 -3.72918,-0.7356 -5.480444,-0.3447 -1.898159,2.8687 -6.259784,7.8505 -4.68428,5.4178 -4.630504,5.3451 -1.828382,2.4706 -2.25727,6.0893 -0.423115,4.5227 2.628752,6.7813 0.799298,0.5915 3.995173,-0.08 3.24965,-0.744 4.172501,-0.6233 3.238103,-2.5519 7.416626,-7.8941 1.283282,-0.062 3.631855,-0.3487 z"
           style="font-family:'Love Letter Typewriter';-inkscape-font-specification:'Love Letter Typewriter, Normal'"
           id="path939" />
        <path
           d="m 122.96162,1354.5886 q -2.34105,2.3889 -7.08002,1.5418 -3.9061,-0.6636 -5.7139,-2.4353 -0.51651,-0.5061 -1.50566,-3.5006 -0.98914,-2.9944 -1.89304,-3.8802 -0.64564,-0.6327 -5.13412,-1.9937 -4.488468,-1.3609 -5.13411,-1.9937 -6.1336,-6.0108 -7.093081,-12.3935 -0.831645,-6.384 4.293356,-11.6137 1.645062,-1.6787 7.960655,-2.9571 5.93338,-1.1467 7.50742,-3.5279 -0.4029,-1.9136 -0.87036,-3.8906 -0.14076,-1.277 1.37776,-2.8266 0.63271,-0.6456 3.81827,-1.7006 3.88542,-1.3817 5.22188,-1.9705 1.79616,0.621 2.5012,0.8057 1.79487,0.4932 3.58328,0.3473 6.11938,4.6046 6.37764,4.8577 5.036,4.9352 5.21296,9.7916 0.24152,4.9198 -4.08545,13.2098 -0.51134,0.01 -1.28094,-0.2428 -0.7696,-0.2479 -1.28094,-0.2427 -0.95037,0.8406 0.0375,3.7072 -0.18981,0.1937 -2.02598,1.9383 -2.15382,1.9395 -3.67234,3.489 -7.52932,7.6832 -5.01132,10.1507 1.16216,1.1389 5.74873,-0.4416 0.39515,1.1466 -0.22594,2.9428 -0.62108,1.7961 -1.63343,2.8292 z m 4.7709,-33.9282 q -0.005,-0.5114 -0.34738,-2.7453 -0.33316,-1.339 0.23757,-1.7922 -1.01234,1.033 -2.49732,-0.4223 -0.7102,-0.696 -1.16732,-1.6502 -0.39256,-0.891 -0.90907,-1.3971 -0.77477,-0.7593 -3.27468,-1.4372 -2.94927,-0.8651 -3.72017,-1.2409 l -2.78395,2.8409 q -0.23757,1.7922 -0.47515,3.5845 -0.2337,2.1758 0.60564,2.9984 0.58108,0.5694 3.4051,1.6915 2.88858,1.1853 3.5975,1.7535 1.97693,-0.4675 4.0817,-0.9362 2.16803,-0.5333 3.24753,-1.2474 z m -7.53055,13.8838 q -0.53332,-2.168 -0.63278,-5.6829 -0.38997,-0.6353 -2.04925,-0.3628 l -1.75358,-2.731 q -0.77477,-0.7593 -1.47722,-0.6883 -0.63918,0.01 -0.76701,0.01 -2.29588,0.5346 -2.74266,0.6031 -1.91366,0.4028 -3.00349,0.094 -1.98986,-0.8109 -3.97972,-1.6217 -1.92529,-0.7477 -4.392883,1.7703 -1.20216,1.2267 -0.263361,5.5641 1.002074,4.2728 2.680744,5.9179 2.13061,2.088 4.87844,1.9962 4.28185,-0.1072 6.01216,0.3228 0.25309,-0.2583 2.03245,-1.299 1.33516,-0.7167 1.77419,-1.5522 0.42868,-1.8581 0.55522,-1.9872 1.78712,-0.2738 3.12875,-0.3513 z"
           style="font-family:'Love Letter Typewriter';-inkscape-font-specification:'Love Letter Typewriter, Normal'"
           id="path941" />
        <path
           d="m 155.8833,1399.7481 q -0.77111,0.4803 -5.6038,1.4666 -0.62353,-0.6607 -2.80288,-2.7473 -1.95859,-1.8002 -2.56572,-2.5877 -0.44155,-0.5728 -2.36293,-3.6573 -1.84979,-3.1396 -2.84328,-4.4283 1.08429,-1.4066 2.78452,-4.0871 5.80696,2.9425 8.92583,2.2501 1.53183,-0.3819 5.82738,-3.6935 0.42955,-0.3312 4.28355,-4.2156 4.15677,-4.2319 6.32094,-6.0145 -0.35515,-2.2373 -0.16156,-6.7241 -0.18798,-0.5399 -1.29185,-1.9718 -1.26946,-1.6466 -1.8094,-1.4586 -1.54824,0.5087 -2.25376,0.4819 -2.7177,-0.4159 -5.43541,-0.8319 -3.60521,-0.5307 -5.39062,-0.1816 -1.65862,0.3656 -3.55882,1.6022 -1.39905,0.8503 -3.06207,2.2466 -2.52214,2.0585 -2.16418,1.7826 -2.57733,1.9869 -3.20807,4.8702 -0.0656,0.5072 -0.81234,8.2739 -0.43555,-0.1208 -3.11446,-0.3383 -2.24336,-0.097 -2.90569,-0.9559 0.0552,0.072 -2.79248,-3.3261 -2.7209,-3.3812 -4.76307,-6.0302 -2.79848,-3.778 -4.46029,-6.3777 0.21478,-0.1656 0.36836,-0.8547 0.28037,-0.6727 1.06789,-1.2799 0.78752,-0.6071 4.57471,0.012 3.91397,0.6351 6.11413,1.5642 0.67713,-0.7503 2.62653,-2.3673 2.44773,0.5099 4.79988,-0.7327 0.61154,-0.2432 1.33786,-1.3739 0.79792,-1.1858 1.22747,-1.517 0.28637,-0.2208 0.55634,-0.3148 l 0.55194,0.716 q 0.50115,-0.3864 1.83901,-1.7602 1.03509,-1.0263 1.78981,-1.3799 1.24668,-4.1571 2.63017,-14.3552 1.99419,-0.9667 5.43541,0.8319 3.51281,1.7434 5.72056,4.6071 1.10388,1.4319 1.55181,7.9352 7.41039,2.5053 10.94279,7.0872 2.6493,3.4365 3.09883,11.4224 -2.41175,2.2018 -5.08147,5.4014 -0.48916,1.2903 -1.81502,3.568 -1.9598,2.1958 -6.84448,6.0757 -5.09947,4.0456 -7.32924,6.3353 -0.8919,0.9159 -0.64714,3.0101 0.37156,2.1106 0.70431,4.0228 z"
           style="font-family:'Love Letter Typewriter';-inkscape-font-specification:'Love Letter Typewriter, Normal'"
           id="path943" />
        <path
           d="m 183.17212,1445.3857 q -2.16366,1.3166 -4.84585,0.2294 -2.63798,-1.0084 -5.19711,-2.0609 -0.52091,-0.7443 -0.15891,-2.5018 0.40621,-1.6786 0.82197,-3.1553 -2.00836,-3.9522 -5.50777,-12.0429 0.87694,-0.2844 3.58421,0.4779 2.83034,0.7968 3.77657,0.2664 0.70967,-0.3979 1.7909,-2.3513 1.08123,-1.9534 1.9044,-2.5185 0.14815,-0.2903 0.43129,-2.0035 0.18877,-1.1422 0.97729,-1.5843 0.78853,-0.442 2.1577,-0.5878 0.17323,-0.6153 -0.8435,-2.4289 -1.10513,-1.9713 -4.78731,-2.8088 -3.91874,-0.7049 -7.87212,-1.2867 -0.006,0.7288 -1.39903,3.7897 -1.10632,2.2784 -0.22221,3.8554 0.44206,0.7885 1.24373,1.4791 -0.23656,0.1326 -0.5675,0.8363 -0.25209,0.6595 -1.11946,1.1458 -1.02509,0.5746 -2.36917,0.3954 -1.22102,-0.1445 -1.70728,-1.0119 -0.44205,-0.7885 -0.12664,-0.9653 0.31541,-0.1769 -0.12665,-0.9654 -0.44205,-0.7885 -1.07287,-0.4349 -0.63082,0.3537 -1.07288,-0.4349 -0.44205,-0.7885 0.18877,-1.1421 0.63082,-0.3537 0.18876,-1.1422 -0.44205,-0.7885 -1.5651,-0.5735 -1.12305,0.2151 -1.56511,-0.5734 -1.41457,-2.5233 -0.30587,-6.4612 -1.84587,-0.5197 -3.18636,0.2318 0.23894,-1.7921 0.51253,-3.7072 0.43727,-2.7324 1.72399,-3.7647 0.73238,0.9367 3.98565,2.1183 3.25327,1.1816 4.44323,2.3799 0.80764,-0.038 2.83272,-0.8626 1.35005,-0.5496 3.30345,0.5316 0.40859,-3.3381 10.57099,-9.2425 7.08717,-4.1804 14.09548,-8.3166 4.45038,-2.5985 5.93305,-2.9116 -0.48029,-1.5961 -0.28317,-5.1266 0.0956,-4.8207 0.14574,-5.4707 l 4.73115,-2.6523 q 1.54002,0.8984 3.04301,3.5794 3.2712,5.8351 2.85664,9.902 -0.45518,4.9187 -6.36912,8.2341 -2.75983,1.5472 -4.9247,0.2736 -0.0597,0.4481 -0.49461,1.5209 -1.05615,1.6285 -3.7001,1.3489 -1.45996,1.6475 -1.61767,1.736 -0.62484,-0.3752 -2.02269,-0.8352 l -0.55196,0.3095 q -0.92353,1.865 -1.56391,2.0167 -0.45758,-0.2616 -0.94981,-0.4002 -0.41338,-0.1828 -1.35961,0.3476 -0.47312,0.2653 -0.69056,0.8017 -0.17323,0.6153 -0.64635,0.8805 -0.70967,0.3979 -2.43845,0.6416 l -0.55197,0.3095 q -0.48506,1.7228 -1.61288,5.2568 3.41098,1.0932 6.82195,2.1863 4.10512,1.2222 5.1302,0.6476 0.63082,-0.3537 1.18876,-1.3919 0.63679,-1.0824 1.47908,-1.2437 0.6117,-0.7575 0.59497,-2.8208 0.0275,-1.9845 -0.45282,-3.5806 0.76703,0.8136 2.64754,1.2102 1.92473,0.4755 2.87095,-0.055 0.13262,0.2365 -0.54838,1.2401 -0.60214,0.9594 -0.11588,1.8268 0.48626,0.8673 0.87814,2.3058 0.39188,1.4385 0.83393,2.227 0.44206,0.7885 1.16129,0.5926 0.71923,-0.196 1.16128,0.5926 0.44206,0.7885 2.19833,5.4002 1.75628,4.6116 2.19833,5.4002 0.48626,0.8673 1.39187,1.1887 1.02867,0.3561 1.16129,0.5926 -0.70967,0.3979 -1.29867,2.4898 -1.02508,0.5747 -2.96892,-0.3046 -1.94504,-3.4695 -4.46952,-4.6451 l 0.37753,-2.2844 q -7.91395,-3.025 -18.29143,-5.0835 -1.04061,1.1015 -0.26642,3.7765 -0.14814,0.2904 -2.73116,2.153 -0.0275,1.9844 -1.49579,6.0203 -1.72996,4.4934 -2.00355,6.4085 -0.11947,0.8961 1.34648,5.3596 1.23537,3.8674 -0.20548,5.9187 z"
           style="font-family:'Love Letter Typewriter';-inkscape-font-specification:'Love Letter Typewriter, Normal'"
           id="path945" />
        <path
           d="m 240.06193,1454.6392 q -2.59679,1.0534 -6.34424,0.2324 -3.66369,-0.855 -4.34335,-2.5303 -0.33983,-0.8377 0.70326,-3.7973 1.39158,-3.7838 1.52275,-4.4223 9.29819,-3.7721 10.52158,-0.7565 l 2.78661,6.8689 q -3.5901,3.8953 -4.84661,4.4051 z m -44.48659,30.5343 q -4.75504,-0.9 -5.02453,-1.0833 -0.74048,-0.3825 -1.99786,-3.4819 -1.35932,-3.3507 -0.6987,-5.5698 l -2.01994,-1.1316 1.22881,-2.7422 q -2.21908,-0.6607 -2.48857,-0.844 -0.26948,-0.1833 -0.91516,-1.7749 -0.034,-0.084 -1.44309,-3.3167 -1.45889,-3.1152 -2.32665,-5.4947 -1.35932,-3.3507 -1.87383,-5.5808 0.78789,-0.2221 4.48232,-3.3793 2.75177,3.176 2.98813,6.8848 0.942,0.3982 2.40241,0.3911 1.57816,0.043 2.09895,0.124 3.32234,3.1397 5.42995,1.6018 0.70888,0.7855 2.44353,1.9353 l 9.13066,-3.7042 q 0.663,-1.7322 0.11927,-3.0725 0.2513,-0.102 1.19092,-0.1905 1.02339,-0.1225 1.94484,-0.4963 0.83767,-0.3399 1.5892,-1.1325 0.86927,-0.7429 1.33789,-1.0305 0.43226,-0.8583 0.49309,-2.1511 -0.0775,-2.1148 -0.0277,-2.2325 3.1152,-1.4589 2.53749,-2.883 -0.78161,-1.9266 -1.94332,-2.626 -0.85823,-0.4323 -1.76625,-0.7468 -0.4236,-0.8037 1.80089,-5.9009 0.75391,-0.3059 2.77147,0.339 3.24485,1.0249 3.76564,1.1063 -0.76257,1.9677 -1.41367,6.134 1.19807,1.27 4.43816,1.3213 -0.19914,0.471 -0.69936,1.1617 -0.50023,0.6907 -0.69936,1.1617 0.0703,0.6543 3.36022,0.5879 l 0.84957,2.0941 q 0.33983,0.8377 -0.32554,2.0832 -0.6314,1.3292 -0.29157,2.1669 0.6117,1.5078 2.4957,2.3044 -5.286,3.8028 -12.74131,6.8273 -1.92665,0.7816 -5.76415,2.1433 -3.71975,1.4115 -5.56264,2.1592 -4.3559,1.7671 -7.58647,3.663 -1.38054,2.6087 -0.003,6.2447 1.73552,4.7589 1.62491,6.1695 -0.50974,-1.2565 -1.5695,-1.7045 -1.45803,0.4939 -1.3418,3.666 z"
           style="font-family:'Love Letter Typewriter';-inkscape-font-specification:'Love Letter Typewriter, Normal'"
           id="path947" />
        <path
           d="m 211.33262,1537.1027 q -0.89757,0.1404 -5.73101,-0.8421 -0.31542,-0.852 -1.505,-3.6248 -1.09841,-2.4229 -1.34915,-3.3851 -0.18235,-0.6998 -0.74419,-4.2901 -0.47438,-3.6131 -0.88467,-5.1876 1.5481,-0.8705 4.16133,-2.6724 4.1934,4.9794 7.33458,5.5621 1.55919,0.2477 6.80783,-1.12 0.52486,-0.1367 5.59114,-2.2042 5.48088,-2.2689 8.16988,-3.063 0.54826,-2.198 2.48137,-6.2516 0.0382,-0.5704 -0.41769,-2.3199 -0.52426,-2.012 -1.09471,-2.0502 -1.62388,-0.1374 -2.26271,-0.438 -2.33849,-1.4458 -4.67698,-2.8917 -3.11039,-1.8986 -4.89012,-2.2756 -1.66947,-0.3123 -3.90199,0.083 -1.62018,0.2353 -3.69684,0.8699 -3.12638,0.908 -2.689,0.7941 -3.14918,0.8205 -4.85744,3.2274 -0.25873,0.4411 -3.98387,7.297 -0.35361,-0.2815 -2.73399,-1.5296 -2.02677,-0.9666 -2.3003,-2.0163 0.0228,0.088 -1.26906,-4.1533 -1.18159,-4.1761 -2.02496,-7.4128 -1.09781,-4.5716 -1.61037,-7.6142 0.26243,-0.068 0.67333,-0.6425 0.52116,-0.5095 1.48341,-0.7602 0.96225,-0.2508 4.2057,1.8 3.35373,2.1155 5.01519,3.8311 0.91666,-0.4257 3.34323,-1.1514 2.05327,1.4268 4.70408,1.2031 0.65793,0.015 1.76864,-0.7411 1.19819,-0.7793 1.72305,-0.916 0.34991,-0.091 0.63514,-0.072 l 0.22793,0.8747 q 0.61235,-0.1595 2.38099,-0.9006 1.35404,-0.5397 2.18693,-0.5699 2.77338,-3.3383 8.03553,-12.1828 2.21342,-0.1096 4.67697,2.8917 2.55103,2.9785 3.46279,6.4776 0.45588,1.7495 -1.67558,7.9099 5.84008,5.2043 7.29889,10.8028 1.09411,4.1989 -1.6158,11.7245 -3.0808,1.083 -6.78934,2.9835 -0.95485,0.9961 -3.066,2.5738 -2.66251,1.2543 -8.67565,2.9145 -6.27557,1.7287 -9.2233,2.9639 -1.1791,0.494 -1.77295,2.5171 -0.48357,2.0878 -0.92526,3.9778 z"
           style="font-family:'Love Letter Typewriter';-inkscape-font-specification:'Love Letter Typewriter, Normal'"
           id="path949" />
        <path
           d="m 212.63106,1592.0759 q 0.32517,-1.2164 -0.13186,-3.8041 -0.78979,-4.0069 -0.75155,-3.6473 -0.74571,-7.0115 1.95872,-8.9355 -1.15517,-0.6044 -2.40397,-4.6534 -1.12067,-3.6989 -3.52477,-4.0796 0.32133,-0.3978 0.90276,-0.9142 0.68089,-0.436 1.00222,-0.8338 -1.20298,-1.0539 -2.1019,-0.9583 -0.2467,-0.6101 0.26781,-1.7557 0.51452,-1.1456 1.36563,-1.6907 0,0 -1.4153,-0.4858 -0.84726,-0.2735 -0.96198,-1.3522 -0.0956,-0.899 0.62352,-0.9754 0.71913,-0.077 0.62353,-0.9754 -0.0765,-0.7192 -0.25627,-0.7 -0.0899,0.01 -0.17978,0.019 0,0 -0.0803,0.099 -0.27924,-0.061 -0.35572,-0.7803 -0.10516,-0.9888 0.98123,-2.7407 1.30826,-2.23 1.58178,-3.0773 l -0.0765,-0.7191 q 1.7309,-0.8205 9.21694,-9.0711 0.64836,0.1129 1.45738,0.027 1.52815,-0.1625 4.4372,-1.0174 2.90905,-0.8548 3.44839,-0.9122 0.80902,-0.086 3.46367,0.086 3.20356,0.2047 4.66094,0.2315 0.6388,0.023 1.93167,1.0673 1.30243,1.1342 2.06936,1.5072 1.89728,-0.1109 5.96722,0.5471 1.49364,2.9321 4.76213,6.3117 3.67587,3.7908 5.89062,4.1007 -0.11286,0.6483 -1.18584,1.6715 -1.49376,1.3407 -1.88585,1.9279 0.24658,4.8828 0.23318,5.6115 -0.2277,3.8423 -2.00839,6.7589 1.55298,0.9258 4.54225,4.2442 2.53421,-1.815 4.02983,-1.4286 1.59705,-2.0789 3.18455,-4.2478 1.67739,-2.1783 1.56266,-3.257 -0.086,-0.809 -0.58901,-2.1192 -0.50297,-1.3101 -0.58902,-2.1191 -0.4589,-4.3148 1.59531,-8.0787 l 5.30358,-0.5641 q 1.00198,7.7116 1.3844,11.3072 0.0956,0.8989 0.83385,1.0022 0.74781,0.1932 0.84342,1.0921 0.16252,1.5282 -0.47639,5.7779 -0.85123,4.8178 -1.8707,7.1989 -0.79946,0.1759 -3.70851,1.0308 -2.55904,0.7267 -3.63773,0.8414 -0.71913,0.077 -3.12323,-0.3042 -2.39453,-0.2908 -3.48279,-0.2659 -2.62597,0.097 -5.24237,0.2848 -3.45411,0 -5.08743,-0.8225 -1.63716,-0.01 -2.3908,3.1633 -1.24122,-1.4134 -2.26827,-1.6678 -0.65792,-0.2028 -2.64508,-0.082 -1.16859,0.1243 -2.04453,-0.4189 l -14.11293,1.501 q -0.46286,0.7765 -3.73917,3.3068 -2.68531,2.1037 -2.4941,3.9015 0.0956,0.899 0.83957,1.9107 -2.38883,0.6177 -3.53643,2.6488 z m 11.70731,-16.4268 q 0.75364,-3.171 2.39081,-3.1633 0.69616,0.5623 0.92561,2.7197 0.80902,-0.086 1.67354,-1.3598 1.20496,-1.4918 1.71563,-1.8188 1.73463,2.6336 2.81332,2.5189 0.8531,-3.0907 1.41156,-2.9683 0.39781,0.3214 1.05188,1.3427 0.65407,1.0213 1.05188,1.3427 -0.11659,-2.8058 2.59356,-3.8213 1.76914,-0.4609 3.54784,-0.8319 0.8531,-3.0907 3.96489,-4.6034 -0.56418,-1.0309 -0.64253,-3.4771 -0.4512,-5.9519 -0.79537,-9.188 -1.2298,0.4035 -3.20927,-1.1132 -1.49178,-1.205 -3.07344,-2.4004 -4.40083,-0.3501 -7.85295,-2.892 -3.77543,0.4015 -10.17683,0.9005 -2.32004,2.974 -2.49026,3.083 -1.30441,1.4115 -2.87465,2.033 0.0191,0.1798 0.32703,0.5107 0.40737,0.4112 0.51254,1.4 0.11472,1.0787 -1.16486,3.5784 -1.15716,1.9412 -2.31432,3.8824 1.05957,-0.2945 2.2664,-0.059 1.30628,0.3156 1.41145,1.3044 0.0956,0.8989 -0.0823,2.6451 -0.17791,1.7462 -0.10143,2.4653 0.0956,0.8989 0.85297,1.182 0.75738,0.2831 0.85298,1.182 0.18165,1.7079 1.9431,2.8842 2.75596,1.9796 3.47124,2.7217 z"
           style="font-family:'Love Letter Typewriter';-inkscape-font-specification:'Love Letter Typewriter, Normal'"
           id="path951" />
      </g>
    </g>
  </g>
</svg>
