<?xml version="1.0" encoding="UTF-8" standalone="no"?>
<!-- Created with Inkscape (http://www.inkscape.org/) -->

<svg
   width="1920"
   height="1080"
   viewBox="0 0 508 285.75"
   version="1.1"
   id="svg5"
   inkscape:version="1.1 (c4e8f9ed74, 2021-05-24)"
   sodipodi:docname="LaughtMan_letters.svg"
   xmlns:inkscape="http://www.inkscape.org/namespaces/inkscape"
   xmlns:sodipodi="http://sodipodi.sourceforge.net/DTD/sodipodi-0.dtd"
   xmlns="http://www.w3.org/2000/svg"
   xmlns:svg="http://www.w3.org/2000/svg">
  <sodipodi:namedview
     id="namedview7"
     pagecolor="#000000"
     bordercolor="#eeeeee"
     borderopacity="1"
     inkscape:pageshadow="0"
     inkscape:pageopacity="0"
     inkscape:pagecheckerboard="true"
     inkscape:document-units="px"
     showgrid="false"
     inkscape:zoom="0.47314814"
     inkscape:cx="711.19375"
     inkscape:cy="624.54013"
     inkscape:window-width="1366"
     inkscape:window-height="744"
     inkscape:window-x="0"
     inkscape:window-y="0"
     inkscape:window-maximized="1"
     inkscape:current-layer="layer1"
     inkscape:lockguides="true" />
  <defs
     id="defs2" />
  <g
     inkscape:label="Capa 1"
     inkscape:groupmode="layer"
     id="layer1">
    <g
       aria-label="The world is indeed comic, but the joke is on mankind"
       transform="matrix(-0.6324991,0.09850995,-0.09850995,-0.6324991,676.10458,663.05433)"
       id="text985"
       style="font-style:normal;font-weight:normal;font-size:45.3333px;line-height:1.25;font-family:sans-serif;fill:#ffffff;fill-opacity:1;stroke:#000000;stroke-opacity:1;stroke-width:0.41333108;stroke-miterlimit:4;stroke-dasharray:none">
      <path
         d="m 720.49731,924.48341 -7.15678,-0.46491 0.35873,-5.52221 -28.60506,-1.85821 0.6041,-9.29941 28.60506,1.85822 0.35729,-5.50013 7.15678,0.46492 z"
         style="font-style:normal;font-variant:normal;font-weight:normal;font-stretch:normal;font-size:45.3333px;font-family:Impact;-inkscape-font-specification:Impact;stroke:#000000;stroke-opacity:1;stroke-width:0.41333108;stroke-miterlimit:4;stroke-dasharray:none"
         id="path844" />
      <path
         d="m 717.75638,940.09406 -7.88823,-1.64187 q 0.80565,1.3434 1.05512,2.75191 0.24495,1.43018 -0.0663,2.92548 -0.47813,2.29712 -1.98215,3.65719 -1.50853,1.38175 -3.11934,1.40823 -1.59365,0.0527 -5.64612,-0.79083 l -19.82891,-4.12724 1.8223,-8.75507 20.24066,4.21295 q 2.51383,0.52323 3.2831,0.41203 0.76476,-0.0895 0.94519,-0.95636 0.16689,-0.80183 -0.51128,-1.23691 -0.67818,-0.43509 -2.86694,-0.89066 l -20.52239,-4.27159 1.8223,-8.75506 35.08527,7.30274 z"
         style="font-style:normal;font-variant:normal;font-weight:normal;font-stretch:normal;font-size:45.3333px;font-family:Impact;-inkscape-font-specification:Impact;stroke:#000000;stroke-opacity:1;stroke-width:0.41333108;stroke-miterlimit:4;stroke-dasharray:none"
         id="path846" />
      <path
         d="m 685.66393,971.16797 4.012,-10.8594 -5.95917,-2.20161 q -1.86873,-0.6904 -2.50831,-0.61992 -0.63958,0.0705 -0.92341,0.83873 -0.35287,0.95513 0.23803,1.5274 0.60399,0.60071 2.65959,1.36015 l 3.63364,1.34245 -2.93804,7.95248 -2.03484,-0.75177 q -2.55393,-0.94355 -3.80159,-1.78206 -1.25534,-0.81775 -2.37536,-2.57661 -1.12002,-1.75887 -1.23398,-3.87757 -0.10087,-2.09027 0.91172,-4.83108 0.98191,-2.65775 2.50193,-4.40875 1.52003,-1.75101 3.27082,-2.40206 1.76387,-0.62261 3.52377,-0.46797 1.78066,0.16231 4.85368,1.29763 l 8.03554,2.96873 q 3.61288,1.33478 5.3287,3.07778 1.73659,1.75068 2.01625,4.37896 0.30043,2.63595 -0.76586,5.5221 -1.30409,3.52983 -3.49755,5.31521 -2.18037,1.81381 -4.73961,1.9066 -2.54615,0.12123 -6.55354,-1.3593 z m 7.59176,-6.75232 2.01408,0.7441 q 2.13866,0.79013 2.84595,0.79186 0.70729,0.002 0.96811,-0.70423 0.32219,-0.87208 -0.14096,-1.27916 -0.44238,-0.39942 -2.76791,-1.25858 l -2.01407,-0.7441 z"
         style="font-style:normal;font-variant:normal;font-weight:normal;font-stretch:normal;font-size:45.3333px;font-family:Impact;-inkscape-font-specification:Impact;stroke:#000000;stroke-opacity:1;stroke-width:0.41333108;stroke-miterlimit:4;stroke-dasharray:none"
         id="path848" />
      <path
         d="m 676.79109,1016.4448 -22.74476,-18.92585 5.27059,-8.16392 q 4.95119,2.24796 12.89833,6.14026 -3.04372,-2.38657 -6.00575,-5.06293 l -4.81556,-4.29455 5.27059,-8.16391 26.73073,12.75181 -4.17806,6.47163 q -1.01505,-0.54992 -15.17135,-7.47598 1.26692,0.976 13.0343,10.78614 l -4.02198,6.2299 -15.09932,-7.58756 q 5.94597,4.33926 13.0103,10.82336 z"
         style="font-style:normal;font-variant:normal;font-weight:normal;font-stretch:normal;font-size:45.3333px;font-family:Impact;-inkscape-font-specification:Impact;stroke:#000000;stroke-opacity:1;stroke-width:0.41333108;stroke-miterlimit:4;stroke-dasharray:none"
         id="path850" />
      <path
         d="m 651.23737,1029.2335 -5.30803,-4.8558 q -2.92351,-2.6744 -4.0265,-4.2234 -1.08665,-1.5341 -1.39741,-3.5883 -0.29443,-2.0394 0.52343,-4.0812 0.81925,-2.0106 2.61215,-3.9705 2.00207,-2.1886 3.86521,-3.2742 1.87947,-1.0707 3.62,-1.0385 1.74193,0.063 3.44255,0.9593 1.71695,0.9106 4.47713,3.4356 l 5.55303,5.0799 q 3.0215,2.764 4.12244,4.9712 1.10093,2.2071 0.57603,4.847 -0.5249,2.6398 -2.94531,5.2857 -2.03195,2.2212 -4.15084,3.1928 -2.1175,1.003 -3.97097,0.8975 -1.85347,-0.1056 -3.26428,-0.8262 -1.42575,-0.7042 -3.72863,-2.8109 z m 7.66934,-5.1042 q 1.6659,1.5239 2.25489,1.7327 0.60533,0.2238 1.1432,-0.3642 0.53787,-0.5879 0.27618,-1.1873 -0.24535,-0.5845 -1.91126,-2.1084 l -9.78312,-8.9496 q -1.53525,-1.4044 -2.18818,-1.6417 -0.6366,-0.2224 -1.15952,0.3493 -0.53787,0.5879 -0.27758,1.156 0.24535,0.5845 1.64994,1.8694 z"
         style="font-style:normal;font-variant:normal;font-weight:normal;font-stretch:normal;font-size:45.3333px;font-family:Impact;-inkscape-font-specification:Impact;stroke:#000000;stroke-opacity:1;stroke-width:0.41333108;stroke-miterlimit:4;stroke-dasharray:none"
         id="path852" />
      <path
         d="m 647.16052,1046.4087 -2.23191,-3.1589 q 1.20684,4.4127 -1.44609,6.9985 l -6.71308,-7.8609 q 1.86842,-1.5956 2.31247,-2.8481 0.44405,-1.2524 -0.1302,-2.3339 -0.55988,-1.0646 -3.33424,-4.3133 l -7.53246,-8.8203 6.80039,-5.8075 19.07551,22.3369 z"
         style="font-style:normal;font-variant:normal;font-weight:normal;font-stretch:normal;font-size:45.3333px;font-family:Impact;-inkscape-font-specification:Impact;stroke:#000000;stroke-opacity:1;stroke-width:0.41333108;stroke-miterlimit:4;stroke-dasharray:none"
         id="path854" />
      <path
         d="m 635.63303,1063.1815 -20.74253,-29.2242 7.50912,-5.3298 20.74253,29.2242 z"
         style="font-style:normal;font-variant:normal;font-weight:normal;font-stretch:normal;font-size:45.3333px;font-family:Impact;-inkscape-font-specification:Impact;stroke:#000000;stroke-opacity:1;stroke-width:0.41333108;stroke-miterlimit:4;stroke-dasharray:none"
         id="path856" />
      <path
         d="m 611.83993,1077.145 -17.31995,-31.3739 7.82896,-4.322 1.027,1.8604 q 0.48209,-1.7832 1.40138,-3.0493 0.91929,-1.266 2.27579,-2.0148 1.82159,-1.0056 3.68291,-0.7942 1.87202,0.2307 2.95496,1.2764 1.06356,1.0563 2.63616,3.905 l 6.64341,12.0341 q 1.63678,2.9649 1.95326,4.4084 0.29709,1.4542 -0.54591,3.1332 -0.83231,1.6984 -2.71203,2.7361 -1.4534,0.8024 -2.94371,0.9424 -1.5097,0.1508 -3.0757,-0.3501 l 4.02242,7.2864 z m 1.13205,-16.4529 q 0.78095,1.4146 1.30032,1.76 0.49999,0.3561 1.217,-0.04 0.69763,-0.3852 0.7035,-0.9699 -0.003,-0.5547 -0.83725,-2.0663 l -6.95365,-12.5961 q -0.86653,-1.5696 -1.37722,-1.9451 -0.49999,-0.3561 -1.15887,0.01 -0.75576,0.4173 -0.70814,1.0989 0.0583,0.7011 1.24579,2.8521 z"
         style="font-style:normal;font-variant:normal;font-weight:normal;font-stretch:normal;font-size:45.3333px;font-family:Impact;-inkscape-font-specification:Impact;stroke:#000000;stroke-opacity:1;stroke-width:0.41333108;stroke-miterlimit:4;stroke-dasharray:none"
         id="path858" />
      <path
         d="m 587.39712,1086.8156 -1.56069,-4.4021 8.67901,-3.077 1.5607,4.4021 z m -2.15982,-6.092 -9.81536,-27.6852 8.67901,-3.077 9.81536,27.6852 z"
         style="font-style:normal;font-variant:normal;font-weight:normal;font-stretch:normal;font-size:45.3333px;font-family:Impact;-inkscape-font-specification:Impact;stroke:#000000;stroke-opacity:1;stroke-width:0.41333108;stroke-miterlimit:4;stroke-dasharray:none"
         id="path860" />
      <path
         d="m 559.27513,1077.86 7.7082,-1.8387 0.3698,1.5502 q 0.47252,1.9809 0.83263,2.4412 0.34372,0.4869 1.24803,0.2712 0.73206,-0.1746 0.97997,-0.7572 0.25303,-0.561 0.0219,-1.5299 -0.3133,-1.3134 -0.6345,-1.8967 -0.33759,-0.5567 -1.41653,-1.073 -1.10047,-0.5112 -4.27645,-1.2328 -4.23121,-0.9477 -5.80578,-2.3016 -1.57456,-1.3539 -2.31929,-4.476 -0.83205,-3.488 -0.35403,-5.4908 0.48315,-1.9813 2.38363,-3.4587 1.88407,-1.4507 4.87692,-2.1646 3.31582,-0.791 5.9308,-0.3225 2.59344,0.4737 3.89738,2.0287 1.30395,1.555 2.15654,5.1292 l 0.32871,1.378 -7.70821,1.8387 -0.43143,-1.8086 q -0.54956,-2.3039 -0.99382,-2.9261 -0.46579,-0.6171 -1.32705,-0.4117 -0.92584,0.2209 -1.18402,0.7604 -0.25303,0.561 0.10136,2.0466 0.48793,2.0455 1.08488,2.4492 0.61849,0.3987 5.78918,1.8505 4.34618,1.2389 5.60192,2.7826 1.26088,1.5653 1.83612,3.9768 0.81664,3.4235 0.29754,5.254 -0.51397,1.8521 -2.45652,3.2485 -1.96408,1.4016 -4.82775,2.0847 -2.84213,0.6779 -4.99763,0.4184 -2.1719,-0.2329 -3.50942,-1.1654 -1.35905,-0.9275 -1.81576,-1.8881 -0.47824,-0.9554 -0.99185,-3.1086 z"
         style="font-style:normal;font-variant:normal;font-weight:normal;font-stretch:normal;font-size:45.3333px;font-family:Impact;-inkscape-font-specification:Impact;stroke:#000000;stroke-opacity:1;stroke-width:0.41333108;stroke-miterlimit:4;stroke-dasharray:none"
         id="path862" />
      <path
         d="m 537.25158,1096.2315 -0.36494,-4.6563 9.18017,-0.7195 0.36494,4.6563 z m -0.50504,-6.4438 -2.29513,-29.2839 9.18017,-0.7195 2.29514,29.2839 z"
         style="font-style:normal;font-variant:normal;font-weight:normal;font-stretch:normal;font-size:45.3333px;font-family:Impact;-inkscape-font-specification:Impact;stroke:#000000;stroke-opacity:1;stroke-width:0.41333108;stroke-miterlimit:4;stroke-dasharray:none"
         id="path864" />
      <path
         d="m 521.163,1089.945 0.24496,-2.6939 q -1.02733,1.5825 -2.44766,2.3324 -1.4432,0.7713 -3.27942,0.7101 -2.3008,-0.077 -3.72474,-1.2096 -1.42394,-1.1328 -1.78889,-2.806 -0.3657,-1.6512 -0.23721,-5.5006 l 0.68676,-20.5745 8.93772,0.2984 -0.67863,20.3311 q -0.10117,3.0308 0.0758,3.7012 0.17695,0.6703 1.084,0.7006 0.95129,0.032 1.22049,-0.7344 0.26846,-0.7441 0.37923,-4.0626 l 0.66238,-19.8444 8.93773,0.2984 -0.97992,29.3573 z"
         style="font-style:normal;font-variant:normal;font-weight:normal;font-stretch:normal;font-size:45.3333px;font-family:Impact;-inkscape-font-specification:Impact;stroke:#000000;stroke-opacity:1;stroke-width:0.41333108;stroke-miterlimit:4;stroke-dasharray:none"
         id="path866" />
      <path
         d="m 481.0685,1091.4593 6.44477,-35.2529 8.79691,1.6082 -0.38215,2.0903 q 1.50177,-1.0756 3.01476,-1.474 1.51299,-0.3985 3.03721,-0.1199 2.0468,0.3742 3.35419,1.7158 1.30341,1.3634 1.48015,2.8584 0.15497,1.491 -0.43019,4.6918 l -2.47202,13.522 q -0.60905,3.3315 -1.27753,4.6495 -0.69026,1.3139 -2.40555,2.0804 -1.71927,0.7883 -3.8314,0.4022 -1.63309,-0.2985 -2.87563,-1.1333 -1.26432,-0.8387 -2.15986,-2.2175 l -1.49675,8.1872 z m 11.28884,-12.0226 q -0.29059,1.5895 -0.10704,2.1856 0.16177,0.5922 0.96743,0.7394 0.78388,0.1433 1.15851,-0.3057 0.34887,-0.4313 0.65936,-2.1297 l 2.58746,-14.1534 q 0.32244,-1.7638 0.16465,-2.3777 -0.16178,-0.5921 -0.90211,-0.7275 -0.84921,-0.1552 -1.24374,0.4027 -0.39851,0.5797 -0.84037,2.9967 z"
         style="font-style:normal;font-variant:normal;font-weight:normal;font-stretch:normal;font-size:45.3333px;font-family:Impact;-inkscape-font-specification:Impact;stroke:#000000;stroke-opacity:1;stroke-width:0.41333108;stroke-miterlimit:4;stroke-dasharray:none"
         id="path868" />
      <path
         d="m 460.63751,1062.2604 10.9587,3.7322 2.04808,-6.0136 q 0.64226,-1.8858 0.5554,-2.5234 -0.0869,-0.6376 -0.86214,-0.9016 -0.96386,-0.3283 -1.52079,0.2771 -0.58503,0.6192 -1.29151,2.6936 l -1.24883,3.6669 -8.0252,-2.7332 0.69934,-2.0534 q 0.87775,-2.5773 1.68399,-3.8461 0.78529,-1.2759 2.51486,-2.4406 1.72956,-1.1648 3.84465,-1.333 2.087,-0.1545 4.85286,0.7875 2.68206,0.9134 4.47147,2.3881 1.78941,1.4746 2.48514,3.2081 0.66764,1.7474 0.55818,3.5106 -0.1166,1.7843 -1.17275,4.8854 l -2.7617,8.109 q -1.24169,3.6459 -2.94012,5.4059 -1.70557,1.7809 -4.32582,2.1279 -2.62738,0.3679 -5.53993,-0.624 -3.5621,-1.2132 -5.40314,-3.3601 -1.86913,-2.1332 -2.02751,-4.6892 -0.18648,-2.5422 1.1908,-6.5862 z m 6.94477,7.4161 -0.69221,2.0325 q -0.73502,2.1583 -0.71862,2.8654 0.0164,0.7071 0.72883,0.9497 0.88005,0.2997 1.27512,-0.1737 0.38794,-0.4525 1.18719,-2.7993 l 0.69221,-2.0325 z"
         style="font-style:normal;font-variant:normal;font-weight:normal;font-stretch:normal;font-size:45.3333px;font-family:Impact;-inkscape-font-specification:Impact;stroke:#000000;stroke-opacity:1;stroke-width:0.41333108;stroke-miterlimit:4;stroke-dasharray:none"
         id="path870" />
      <path
         d="m 438.00358,1051.0248 10.29801,5.289 2.90239,-5.6511 q 0.91016,-1.7721 0.91712,-2.4155 0.007,-0.6434 -0.72158,-1.0176 -0.90575,-0.4652 -1.54494,0.053 -0.669,0.5273 -1.67017,2.4767 l -1.76975,3.4457 -7.54137,-3.8732 0.99106,-1.9296 q 1.24388,-2.4219 2.22638,-3.5597 0.9628,-1.1478 2.84361,-2.0482 1.88081,-0.9003 3.99784,-0.7586 2.08723,0.1513 4.68634,1.4862 2.52035,1.2944 4.07582,3.014 1.55547,1.7196 1.99121,3.536 0.40594,1.826 0.0407,3.5545 -0.37531,1.7482 -1.87201,4.6623 l -3.91368,7.6202 q -1.75964,3.4261 -3.69637,4.9198 -1.94684,1.5134 -4.58968,1.4749 -2.65295,-0.019 -5.38989,-1.4245 -3.34735,-1.7192 -4.85594,-4.1114 -1.53839,-2.3828 -1.32269,-4.9346 0.18591,-2.5422 2.13769,-6.3424 z m 5.79018,8.3488 -0.98095,1.9099 q -1.04163,2.0281 -1.12842,2.7301 -0.0868,0.7019 0.58268,1.0458 0.82699,0.4247 1.28682,0.014 0.44973,-0.3911 1.58237,-2.5964 l 0.98095,-1.91 z"
         style="font-style:normal;font-variant:normal;font-weight:normal;font-stretch:normal;font-size:45.3333px;font-family:Impact;-inkscape-font-specification:Impact;stroke:#000000;stroke-opacity:1;stroke-width:0.41333108;stroke-miterlimit:4;stroke-dasharray:none"
         id="path872" />
      <path
         d="m 404.55817,1054.1819 20.85558,-29.1437 7.27241,5.2043 -1.23665,1.7281 q 1.81696,-0.3329 3.35548,-0.049 1.53852,0.2844 2.79859,1.1861 1.69209,1.2109 2.30295,2.9818 0.59798,1.7889 0.12069,3.2166 -0.4953,1.4148 -2.38892,4.0609 l -7.99957,11.1786 q -1.97091,2.7542 -3.13737,3.6615 -1.18445,0.8944 -3.06284,0.8568 -1.89128,-0.02 -3.63738,-1.2692 -1.35007,-0.9662 -2.11833,-2.2509 -0.78625,-1.2976 -1.00869,-2.9266 l -4.84354,6.7684 z m 15.33639,-6.0644 q -0.94037,1.314 -1.0284,1.9315 -0.10603,0.6046 0.56001,1.0813 0.64803,0.4637 1.17833,0.2171 0.49941,-0.2414 1.50419,-1.6455 l 8.37315,-11.7006 q 1.04342,-1.4581 1.16233,-2.0807 0.10604,-0.6046 -0.506,-1.0426 -0.70204,-0.5024 -1.29674,-0.1658 -0.60758,0.3545 -2.03746,2.3527 z"
         style="font-style:normal;font-variant:normal;font-weight:normal;font-stretch:normal;font-size:45.3333px;font-family:Impact;-inkscape-font-specification:Impact;stroke:#000000;stroke-opacity:1;stroke-width:0.41333108;stroke-miterlimit:4;stroke-dasharray:none"
         id="path874" />
      <path
         d="m 390.11632,1015.7631 5.78595,6.1358 -2.46398,2.3235 q -1.28836,1.2149 -1.54186,1.8495 -0.26961,0.6497 0.26191,1.2134 0.53152,0.5636 1.11637,0.3772 0.58484,-0.1864 1.98593,-1.5076 l 10.0814,-9.5066 q 1.14342,-1.0782 1.44982,-1.9148 0.29031,-0.8214 -0.24121,-1.385 -0.62264,-0.6603 -1.43111,-0.3239 -0.82366,0.3203 -2.48242,1.8845 l -2.54451,2.3995 -5.46704,-5.7977 q 2.57579,-2.3985 4.0312,-3.4362 1.42411,-1.0387 3.64251,-1.3964 2.1871,-0.3586 4.26154,0.4539 2.05833,0.8277 4.09329,2.9857 2.59685,2.7539 3.18141,5.2451 0.56846,2.5065 -0.48468,4.7774 -1.08444,2.27 -4.20871,5.2162 l -6.07138,5.7252 q -2.72166,2.5664 -4.62297,3.3249 -1.90132,0.7585 -4.66599,-0.012 -2.78078,-0.755 -5.19539,-3.3156 -2.39943,-2.5445 -3.02129,-5.3657 -0.62186,-2.8211 0.4589,-4.966 1.08077,-2.1449 4.09231,-4.9847 z"
         style="font-style:normal;font-variant:normal;font-weight:normal;font-stretch:normal;font-size:45.3333px;font-family:Impact;-inkscape-font-specification:Impact;stroke:#000000;stroke-opacity:1;stroke-width:0.41333108;stroke-miterlimit:4;stroke-dasharray:none"
         id="path876" />
      <path
         d="m 374.49521,995.55868 5.88252,-4.14122 q 3.23991,-2.28086 4.98967,-3.02541 1.73166,-0.7318 3.80476,-0.59408 2.05499,0.15046 3.87352,1.38778 1.78769,1.23197 3.31676,3.40398 1.70745,2.4254 2.36758,4.47823 0.64203,2.06557 0.23672,3.75854 -0.43615,1.6877 -1.67622,3.1562 -1.25818,1.4813 -4.31709,3.6347 l -6.15401,4.3324 q -3.34851,2.3573 -5.7406,2.9585 -2.3921,0.6012 -4.85759,-0.4785 -2.4655,-1.0796 -4.52974,-4.0118 -1.73294,-2.4616 -2.22684,-4.7397 -0.52473,-2.2835 -0.0236,-4.0711 0.50117,-1.78754 1.50797,-3.01065 0.99406,-1.24122 3.54616,-3.03787 z m 3.33786,8.58662 q -1.84621,1.2997 -2.17664,1.8301 -0.34854,0.5432 0.11018,1.1948 0.45872,0.6516 1.10033,0.5247 0.62351,-0.1141 2.46971,-1.4138 l 10.84193,-7.63257 q 1.7014,-1.19777 2.0734,-1.78449 0.35389,-0.57399 -0.0921,-1.20749 -0.45872,-0.6516 -1.06948,-0.5194 -0.62351,0.1141 -2.18011,1.20993 z"
         style="font-style:normal;font-variant:normal;font-weight:normal;font-stretch:normal;font-size:45.3333px;font-family:Impact;-inkscape-font-specification:Impact;stroke:#000000;stroke-opacity:1;stroke-width:0.41333108;stroke-miterlimit:4;stroke-dasharray:none"
         id="path878" />
      <path
         d="m 357.74545,986.46311 2.59941,-1.02272 q -1.94281,-0.25293 -3.28739,-1.21887 -1.36469,-0.95671 -2.13115,-2.62643 -1.49597,-3.25899 0.6628,-6.51505 -1.97974,-0.33339 -3.31508,-1.27922 -1.35546,-0.93659 -2.07575,-2.50573 -0.95114,-2.07207 -0.56399,-3.88165 0.37791,-1.82969 1.67102,-2.88603 1.27298,-1.0471 4.55208,-2.55232 l 18.97051,-8.70807 3.61989,7.88594 -17.40136,7.98778 q -3.41992,1.56986 -4.1138,2.18064 -0.72322,0.5999 -0.33538,1.44483 0.39709,0.86503 1.32182,0.75718 0.9155,-0.12797 4.35554,-1.70706 l 17.40136,-7.98779 3.6199,7.88594 -16.95878,7.78463 q -3.92285,1.80071 -4.61508,2.36203 -0.70146,0.5412 -0.30438,1.40624 0.24933,0.54316 0.84725,0.73146 0.57779,0.19754 1.19978,-0.0393 0.60187,-0.22756 2.53312,-1.11407 l 18.50781,-8.49568 3.6199,7.88594 -26.69551,12.2541 z"
         style="font-style:normal;font-variant:normal;font-weight:normal;font-stretch:normal;font-size:45.3333px;font-family:Impact;-inkscape-font-specification:Impact;stroke:#000000;stroke-opacity:1;stroke-width:0.41333108;stroke-miterlimit:4;stroke-dasharray:none"
         id="path880" />
      <path
         d="m 337.55662,951.1198 4.48824,-1.29228 2.54781,8.84884 -4.48824,1.29228 z m 6.21121,-1.78837 28.22694,-8.12727 2.54781,8.84884 -28.22694,8.12727 z"
         style="font-style:normal;font-variant:normal;font-weight:normal;font-stretch:normal;font-size:45.3333px;font-family:Impact;-inkscape-font-specification:Impact;stroke:#000000;stroke-opacity:1;stroke-width:0.41333108;stroke-miterlimit:4;stroke-dasharray:none"
         id="path882" />
      <path
         d="m 349.64032,921.73825 1.42771,8.31186 -3.33784,0.57333 q -1.74527,0.29978 -2.3074,0.68831 -0.58395,0.39228 -0.4528,1.15584 0.13116,0.76355 0.72152,0.93166 0.59037,0.16811 2.48835,-0.1579 l 13.65676,-2.34578 q 1.54893,-0.26605 2.26686,-0.79364 0.6961,-0.52384 0.56495,-1.2874 -0.15364,-0.89445 -1.01329,-1.06123 -0.8634,-0.18859 -3.11044,0.19738 l -3.44691,0.59207 -1.34901,-7.85373 q 3.47248,-0.574 5.25897,-0.6338 1.76093,-0.0779 3.80706,0.85086 2.02057,0.91067 3.29965,2.73478 1.25727,1.82787 1.7594,4.7512 0.64078,3.73052 -0.24982,6.12945 -0.91241,2.40268 -3.0457,3.71241 -2.15885,1.29166 -6.39113,2.01863 l -8.2246,1.41272 q -3.68689,0.63328 -5.69047,0.21381 -2.00357,-0.41948 -3.88118,-2.58998 -1.89943,-2.16676 -2.49524,-5.63549 -0.59207,-3.44691 0.4499,-6.14136 1.04198,-2.69445 3.12855,-3.88386 2.08658,-1.1894 6.16615,-1.89014 z"
         style="font-style:normal;font-variant:normal;font-weight:normal;font-stretch:normal;font-size:45.3333px;font-family:Impact;-inkscape-font-specification:Impact;stroke:#000000;stroke-opacity:1;stroke-width:0.41333108;stroke-miterlimit:4;stroke-dasharray:none"
         id="path884" />
      <path
         d="m 360.31695,911.29617 3.20044,-0.2427 q 2.51621,-0.19081 4.17266,0.28294 1.65645,0.47376 2.89427,1.86722 1.23614,1.37139 1.75197,3.19699 l -2.56036,0.19416 q -0.85087,-1.26741 -2.12237,-1.34858 l 0.11382,1.50089 -6.99683,0.5306 z"
         style="font-style:normal;font-variant:normal;font-weight:normal;font-stretch:normal;font-size:45.3333px;font-family:Impact;-inkscape-font-specification:Impact;stroke:#000000;stroke-opacity:1;stroke-width:0.41333108;stroke-miterlimit:4;stroke-dasharray:none"
         id="path886" />
      <path
         d="m 331.64504,888.8945 8.45664,0.59945 q -1.20238,-1.19478 -1.72515,-2.58548 -0.54328,-1.41435 -0.43059,-3.00411 0.1299,-1.83264 0.79946,-3.13883 0.66955,-1.30618 1.75739,-1.93918 1.08785,-0.633 2.09084,-0.69505 1.00456,-0.0841 4.25032,0.14595 l 13.20383,0.93595 q 3.22368,0.22851 4.78214,0.7828 1.53794,0.53064 2.59549,2.20336 1.03547,1.67114 0.88053,3.85706 -0.11113,1.56768 -0.89265,2.88812 -0.77995,1.29836 -2.22873,2.3274 l 2.1673,0.7306 -0.59162,8.34624 -35.74752,-2.53396 z m 14.96403,-1.66876 q -2.27424,-0.16121 -2.97907,0.0773 -0.7269,0.23696 -0.78638,1.076 -0.0579,0.81696 0.54312,1.10366 0.57894,0.28514 3.02982,0.45887 l 12.62976,0.89526 q 2.36256,0.16747 3.04374,-0.0505 0.68275,-0.24009 0.74066,-1.05705 0.0595,-0.83904 -0.60779,-1.13043 -0.6657,-0.31348 -3.27114,-0.49817 z"
         style="font-style:normal;font-variant:normal;font-weight:normal;font-stretch:normal;font-size:45.3333px;font-family:Impact;-inkscape-font-specification:Impact;stroke:#000000;stroke-opacity:1;stroke-width:0.41333108;stroke-miterlimit:4;stroke-dasharray:none"
         id="path888" />
      <path
         d="m 344.44425,850.46563 28.66896,6.3956 -1.98085,8.87938 -2.34274,-0.68138 q 1.24507,1.23029 1.6808,2.73363 0.41895,1.47691 0.0334,3.20526 -0.43858,1.96599 -1.4191,3.10803 -0.98051,1.14203 -2.26531,1.51312 -1.27998,0.34948 -2.54517,0.22599 -1.28678,-0.1283 -4.98113,-0.95245 l -19.33588,-4.31354 1.94712,-8.72816 19.50872,4.3521 q 3.34867,0.74704 4.01857,0.69237 0.67472,-0.0763 0.87714,-0.98366 0.21689,-0.9722 -0.39269,-1.28962 -0.60475,-0.33903 -4.12626,-1.12462 l -19.29267,-4.3039 z"
         style="font-style:normal;font-variant:normal;font-weight:normal;font-stretch:normal;font-size:45.3333px;font-family:Impact;-inkscape-font-specification:Impact;stroke:#000000;stroke-opacity:1;stroke-width:0.41333108;stroke-miterlimit:4;stroke-dasharray:none"
         id="path890" />
      <path
         d="m 346.00836,833.89336 4.36394,1.5358 0.80097,-2.27593 4.38482,1.54314 -0.80097,2.27593 14.82487,5.2173 q 2.73529,0.96263 3.14402,0.80141 0.41608,-0.18209 1.14356,-2.24922 l 4.46834,1.57254 -1.19778,3.40345 q -1.01406,2.88146 -1.67729,4.03255 -0.68412,1.14375 -1.87087,1.78207 -1.20764,0.63097 -2.39512,0.47119 -1.20835,-0.16712 -5.34261,-1.62209 l -14.07319,-4.95276 -0.6393,1.81657 -4.38482,-1.54315 0.6393,-1.81656 -4.36394,-1.5358 z"
         style="font-style:normal;font-variant:normal;font-weight:normal;font-stretch:normal;font-size:45.3333px;font-family:Impact;-inkscape-font-specification:Impact;stroke:#000000;stroke-opacity:1;stroke-width:0.41333108;stroke-miterlimit:4;stroke-dasharray:none"
         id="path892" />
      <path
         d="m 356.98239,809.90047 4.11115,2.12158 1.10647,-2.14409 4.13082,2.13174 -1.10647,2.14409 13.96609,7.20729 q 2.57685,1.32979 3.00387,1.22634 0.43717,-0.12312 1.44213,-2.0705 l 4.2095,2.17234 -1.65463,3.2063 q -1.40085,2.71453 -2.21614,3.76343 -0.83497,1.03875 -2.09826,1.50773 -1.28296,0.45883 -2.43716,0.1372 -1.17388,-0.33179 -5.06865,-2.34171 l -13.25795,-6.84185 -0.88315,1.71134 -4.13082,-2.13173 0.88315,-1.71134 -4.11115,-2.12159 z"
         style="font-style:normal;font-variant:normal;font-weight:normal;font-stretch:normal;font-size:45.3333px;font-family:Impact;-inkscape-font-specification:Impact;stroke:#000000;stroke-opacity:1;stroke-width:0.41333108;stroke-miterlimit:4;stroke-dasharray:none"
         id="path894" />
      <path
         d="m 363.82196,793.71804 6.67441,4.51355 q -0.23535,-1.54868 0.0686,-2.94645 0.31632,-1.41611 1.17191,-2.68132 1.31438,-1.94365 3.22213,-2.63094 1.92015,-0.70563 3.42043,-0.11862 1.49433,0.55627 4.92322,2.87505 l 16.77771,11.34587 -5.00955,7.40786 -17.12609,-11.58147 q -2.12701,-1.43838 -2.88091,-1.62754 -0.74149,-0.2075 -1.23749,0.52595 -0.45879,0.67845 0.003,1.33841 0.46224,0.65997 2.3142,1.91236 l 17.36447,11.74266 -5.00954,7.40786 -29.68645,-20.07537 z"
         style="font-style:normal;font-variant:normal;font-weight:normal;font-stretch:normal;font-size:45.3333px;font-family:Impact;-inkscape-font-specification:Impact;stroke:#000000;stroke-opacity:1;stroke-width:0.41333108;stroke-miterlimit:4;stroke-dasharray:none"
         id="path896" />
      <path
         d="m 405.26403,777.14813 -7.81896,8.53736 4.68494,4.29071 q 1.46914,1.34552 2.08791,1.52202 0.61877,0.17649 1.17193,-0.42749 0.68771,-0.75089 0.35696,-1.50406 -0.33213,-0.78444 -1.94819,-2.26451 l -2.85667,-2.61628 5.72593,-6.25203 1.59974,1.46512 q 2.00783,1.83888 2.84599,3.08678 0.85312,1.23157 1.22525,3.28329 0.37212,2.05173 -0.32319,4.05633 -0.69669,1.97333 -2.67012,4.12807 -1.91363,2.08945 -3.98273,3.13603 -2.0691,1.04657 -3.93609,0.98757 -1.86836,-0.0903 -3.43925,-0.89864 -1.58721,-0.82332 -4.00313,-3.03595 l -6.31732,-5.78574 q -2.84034,-2.60133 -3.77007,-4.86357 -0.94604,-2.2772 -0.21153,-4.81621 0.71819,-2.55396 2.79627,-4.82297 2.54153,-2.77505 5.24711,-3.5989 2.70419,-0.85513 5.10865,0.0263 2.40309,0.85015 5.55358,3.73555 z m -9.58078,3.3819 -1.58341,-1.45017 q -1.68135,-1.53987 -2.33552,-1.80881 -0.65417,-0.26895 -1.16247,0.28606 -0.62791,0.6856 -0.35299,1.23755 0.25859,0.53699 2.08686,2.21141 l 1.58341,1.45017 z"
         style="font-style:normal;font-variant:normal;font-weight:normal;font-stretch:normal;font-size:45.3333px;font-family:Impact;-inkscape-font-specification:Impact;stroke:#000000;stroke-opacity:1;stroke-width:0.41333108;stroke-miterlimit:4;stroke-dasharray:none"
         id="path898" />
      <path
         d="m 409.28734,745.59148 2.89076,3.66847 -7.23263,5.69933 -2.89077,-3.66848 z m 4.00049,5.07675 14.38531,18.25544 q 2.53456,3.21644 3.29969,4.47353 0.76881,1.226 0.76207,2.61223 0.0243,1.38992 -0.77695,2.6977 -0.78391,1.29409 -3.02672,3.06143 l -2.71224,2.13725 -2.90446,-3.68587 q 1.2518,-0.98642 1.18907,-1.3879 -0.0627,-0.40148 -2.58358,-3.60053 l -14.86483,-18.86396 z"
         style="font-style:normal;font-variant:normal;font-weight:normal;font-stretch:normal;font-size:45.3333px;font-family:Impact;-inkscape-font-specification:Impact;stroke:#000000;stroke-opacity:1;stroke-width:0.41333108;stroke-miterlimit:4;stroke-dasharray:none"
         id="path900" />
      <path
         d="m 441.08752,744.7873 3.79137,6.11386 q 2.08818,3.36732 2.72949,5.1575 0.62964,1.77137 0.37134,3.83291 -0.26996,2.04274 -1.61116,3.78607 -1.33406,1.71285 -3.59148,3.11274 -2.52079,1.56321 -4.6086,2.10259 -2.09948,0.52056 -3.76597,0.0173 -1.65935,-0.53376 -3.05314,-1.85731 -1.40545,-1.34236 -3.37696,-4.52156 l -3.96636,-6.39604 q -2.15817,-3.48019 -2.61893,-5.90325 -0.46077,-2.42307 0.76072,-4.82145 1.22149,-2.39839 4.26901,-4.28824 2.55842,-1.58655 4.86146,-1.94684 2.31019,-0.39077 4.0655,0.21372 1.7553,0.60448 2.91766,1.68085 1.18118,1.0647 2.82605,3.71717 z m -8.76657,2.83179 q -1.1899,-1.91881 -1.70014,-2.2796 -0.52191,-0.37959 -1.19914,0.0404 -0.67722,0.41997 -0.58799,1.06788 0.0776,0.6291 1.26747,2.54791 l 6.9878,11.2683 q 1.09658,1.76831 1.66063,2.17387 0.55238,0.38674 1.2108,-0.0216 0.67722,-0.41997 0.58084,-1.0374 -0.0776,-0.6291 -1.08082,-2.24692 z"
         style="font-style:normal;font-variant:normal;font-weight:normal;font-stretch:normal;font-size:45.3333px;font-family:Impact;-inkscape-font-specification:Impact;stroke:#000000;stroke-opacity:1;stroke-width:0.41333108;stroke-miterlimit:4;stroke-dasharray:none"
         id="path902" />
      <path
         d="m 459.60868,725.02009 1.38726,12.18069 11.42268,14.27483 -7.88315,3.46405 -7.7005,-10.59123 5.14709,11.71326 -8.18712,3.59763 -14.41722,-32.8093 8.18713,-3.59763 6.05541,13.78031 -0.90174,-8.98491 z"
         style="font-style:normal;font-variant:normal;font-weight:normal;font-stretch:normal;font-size:45.3333px;font-family:Impact;-inkscape-font-specification:Impact;stroke:#000000;stroke-opacity:1;stroke-width:0.41333108;stroke-miterlimit:4;stroke-dasharray:none"
         id="path904" />
      <path
         d="m 489.42274,731.9965 -11.14988,3.11496 1.70936,6.11857 q 0.53604,1.91872 0.96804,2.39559 0.432,0.47687 1.22081,0.2565 0.98068,-0.27398 1.09796,-1.08817 0.13265,-0.84146 -0.45699,-2.95205 l -1.0423,-3.73083 8.16521,-2.28113 0.58368,2.08927 q 0.73258,2.62224 0.78457,4.12459 0.0733,1.4964 -0.69518,3.43482 -0.76849,1.93842 -2.41824,3.27267 -1.63439,1.30697 -4.44851,2.09316 -2.72884,0.76236 -5.03848,0.55724 -2.30964,-0.20512 -3.86337,-1.24197 -1.53836,-1.06411 -2.44467,-2.58061 -0.91227,-1.53781 -1.79375,-4.69303 l -2.30495,-8.25048 q -1.03634,-3.70952 -0.62994,-6.12135 0.40045,-2.43316 2.36592,-4.20036 1.95952,-1.78851 4.92287,-2.61639 3.62424,-1.01251 6.35648,-0.28193 2.74759,0.70331 4.32292,2.72239 1.59069,1.9918 2.74019,6.10638 z m -9.92071,-2.19276 -0.57773,-2.06795 q -0.61346,-2.19586 -1.02665,-2.76992 -0.41319,-0.57406 -1.13804,-0.37155 -0.8954,0.25015 -0.95374,0.864 -0.0643,0.59254 0.60278,2.98027 l 0.57773,2.06795 z"
         style="font-style:normal;font-variant:normal;font-weight:normal;font-stretch:normal;font-size:45.3333px;font-family:Impact;-inkscape-font-specification:Impact;stroke:#000000;stroke-opacity:1;stroke-width:0.41333108;stroke-miterlimit:4;stroke-dasharray:none"
         id="path906" />
      <path
         d="m 509.26928,707.38308 0.51343,4.64226 -9.15252,1.01225 -0.51343,-4.64226 z m 0.71052,6.42437 3.22898,29.19566 -9.15252,1.01224 -3.22898,-29.19566 z"
         style="font-style:normal;font-variant:normal;font-weight:normal;font-stretch:normal;font-size:45.3333px;font-family:Impact;-inkscape-font-specification:Impact;stroke:#000000;stroke-opacity:1;stroke-width:0.41333108;stroke-miterlimit:4;stroke-dasharray:none"
         id="path908" />
      <path
         d="m 534.5617,722.49739 -7.92436,0.0438 -0.009,-1.59372 q -0.0113,-2.03643 -0.25768,-2.56633 -0.22441,-0.55215 -1.15408,-0.54701 -0.75259,0.004 -1.12608,0.51535 -0.3736,0.48905 -0.3681,1.48512 0.007,1.35024 0.18809,1.99118 0.20265,0.61868 1.13648,1.36614 0.95597,0.74733 3.88575,2.16996 3.90629,1.88208 5.13301,3.55762 1.22673,1.67553 1.24447,4.88512 0.0198,3.58588 -0.8997,5.42823 -0.91964,1.82021 -3.10551,2.8284 -2.16385,0.98593 -5.24063,1.00294 -3.40879,0.0188 -5.84952,-1.03019 -2.4186,-1.04915 -3.33617,-2.85921 -0.91757,-1.81006 -0.93787,-5.48448 l -0.008,-1.41664 7.92435,-0.0438 0.0103,1.85935 q 0.0131,2.36845 0.30477,3.07518 0.3138,0.70661 1.1992,0.70172 0.95181,-0.005 1.32554,-0.47218 0.3736,-0.48905 0.36516,-2.01637 -0.0116,-2.10283 -0.50153,-2.63138 -0.51204,-0.52843 -5.21911,-3.11443 -3.95227,-2.19173 -4.82545,-3.9799 -0.8733,-1.8103 -0.887,-4.28943 -0.0195,-3.51948 0.90104,-5.18474 0.92038,-1.68741 3.12887,-2.60718 2.23062,-0.91989 5.17459,-0.93616 2.92183,-0.0162 4.96241,0.72519 2.0626,0.71908 3.15395,1.93051 1.11348,1.21131 1.34058,2.25044 0.24923,1.039 0.26147,3.2525 z"
         style="font-style:normal;font-variant:normal;font-weight:normal;font-stretch:normal;font-size:45.3333px;font-family:Impact;-inkscape-font-specification:Impact;stroke:#000000;stroke-opacity:1;stroke-width:0.41333108;stroke-miterlimit:4;stroke-dasharray:none"
         id="path910" />
      <path
         d="m 569.10192,728.31309 -1.30687,7.07431 q -0.71978,3.89631 -1.44936,5.65236 -0.72557,1.73429 -2.30337,3.08604 -1.57378,1.32999 -3.73886,1.71787 -2.13929,0.37014 -4.75134,-0.1124 -2.91679,-0.53883 -4.82452,-1.54404 -1.9037,-1.02698 -2.79835,-2.52034 -0.86885,-1.5111 -1.00995,-3.428 -0.13708,-1.93867 0.54249,-5.61731 l 1.36719,-7.40081 q 0.74391,-4.02692 2.03279,-6.12985 1.28888,-2.10293 3.80599,-3.05606 2.51711,-0.95313 6.04338,-0.30171 2.96033,0.54688 4.90687,1.82938 1.97233,1.26476 2.86461,2.89274 0.89228,1.62798 1.0284,3.20631 0.15788,1.58235 -0.4091,4.65151 z m -8.39179,-3.80125 q 0.41016,-2.22024 0.27527,-2.83042 -0.13087,-0.63194 -0.91449,-0.7767 -0.78361,-0.14476 -1.15339,0.3947 -0.36575,0.51769 -0.77591,2.73793 l -2.40866,13.03849 q -0.37799,2.04611 -0.23339,2.72561 0.14861,0.65773 0.91046,0.79847 0.78361,0.14476 1.1276,-0.37695 0.36576,-0.51769 0.71157,-2.38966 z"
         style="font-style:normal;font-variant:normal;font-weight:normal;font-stretch:normal;font-size:45.3333px;font-family:Impact;-inkscape-font-specification:Impact;stroke:#000000;stroke-opacity:1;stroke-width:0.41333108;stroke-miterlimit:4;stroke-dasharray:none"
         id="path912" />
      <path
         d="m 586.65888,722.97508 -1.02288,2.50411 q 1.44561,-1.2124 3.02326,-1.51363 1.60577,-0.31499 3.34359,0.28119 2.17751,0.74702 3.20743,2.24703 1.02991,1.50001 0.88901,3.20681 -0.13372,1.68585 -1.38354,5.32899 l -6.68008,19.47195 -8.45878,-2.90188 6.60107,-19.24164 q 0.98405,-2.86845 1.0111,-3.56122 0.027,-0.69277 -0.83139,-0.98727 -0.90032,-0.30887 -1.38203,0.34494 -0.47453,0.63286 -1.55197,3.7735 l -6.44304,18.78101 -8.45878,-2.90189 9.53168,-27.78416 z"
         style="font-style:normal;font-variant:normal;font-weight:normal;font-stretch:normal;font-size:45.3333px;font-family:Impact;-inkscape-font-specification:Impact;stroke:#000000;stroke-opacity:1;stroke-width:0.41333108;stroke-miterlimit:4;stroke-dasharray:none"
         id="path914" />
      <path
         d="m 621.56844,738.68976 -1.62508,2.27199 q 1.76789,-0.84441 3.42157,-0.76512 1.66553,0.0606 3.21685,1.04491 3.02787,1.92118 2.98722,5.82766 1.84266,-0.79698 3.47764,-0.72955 1.64684,0.0488 3.10471,0.97376 1.92513,1.22149 2.58444,2.95058 0.678,1.74094 0.16741,3.33068 -0.49874,1.57104 -2.43178,4.61761 l -11.18314,17.6252 -7.32671,-4.64877 10.25814,-16.16734 q 2.01605,-3.1774 2.26613,-4.06733 0.28063,-0.89677 -0.50438,-1.39485 -0.80369,-0.50994 -1.52104,0.0835 -0.69865,0.60532 -2.72656,3.8014 l -10.25813,16.16734 -7.32671,-4.64877 9.99724,-15.75615 q 2.31253,-3.64466 2.58813,-4.49218 0.29429,-0.83567 -0.5094,-1.34561 -0.50465,-0.3202 -1.10881,-0.15302 -0.59231,0.14849 -0.98546,0.68549 -0.3813,0.51831 -1.51977,2.3126 l -10.91039,17.19532 -7.3267,-4.64877 15.73705,-24.80238 z"
         style="font-style:normal;font-variant:normal;font-weight:normal;font-stretch:normal;font-size:45.3333px;font-family:Impact;-inkscape-font-specification:Impact;stroke:#000000;stroke-opacity:1;stroke-width:0.41333108;stroke-miterlimit:4;stroke-dasharray:none"
         id="path916" />
      <path
         d="m 645.52223,770.40794 -6.16009,-5.69508 1.33737,-1.44656 q 2.3141,-2.50305 4.13018,-3.32616 1.84736,-0.82434 4.54819,-0.25672 2.70083,0.56762 5.48018,3.13717 3.33198,3.08046 3.9254,5.82973 0.60845,2.73302 -0.64304,4.77146 -1.23647,2.02217 -6.18023,7.36958 l -10.00771,10.82485 -6.38764,-5.90545 1.77314,-1.91792 q -1.66827,0.59802 -3.16819,0.29657 -1.46863,-0.30266 -2.78517,-1.51982 -1.72287,-1.59282 -2.28287,-3.88915 -0.52871,-2.29755 2.49164,-5.56451 l 1.6379,-1.77163 q 2.23896,-2.42178 3.81431,-2.59322 1.57536,-0.17144 5.68043,1.45326 4.40653,1.72252 5.03979,1.49404 0.63327,-0.22847 1.88048,-1.57751 1.56277,-1.69037 1.76853,-2.43465 0.23705,-0.74552 -0.34807,-1.28647 -0.6664,-0.61609 -1.23465,-0.32751 -0.55323,0.27232 -2.22118,2.07646 z m -0.65439,4.88155 q -2.64348,-0.30358 -3.62482,0.23616 -0.96508,0.55477 -2.31747,2.01759 -1.54774,1.67411 -1.78724,2.35707 -0.22325,0.69797 0.42689,1.29904 0.61763,0.57101 1.14203,0.36247 0.55568,-0.20976 2.05835,-1.83512 z"
         style="font-style:normal;font-variant:normal;font-weight:normal;font-stretch:normal;font-size:45.3333px;font-family:Impact;-inkscape-font-specification:Impact;stroke:#000000;stroke-opacity:1;stroke-width:0.41333108;stroke-miterlimit:4;stroke-dasharray:none"
         id="path918" />
      <path
         d="m 672.66459,782.49962 -2.19862,1.57571 q 1.8691,-0.25714 3.3651,0.32742 1.52713,0.58787 2.68115,2.01745 1.446,1.79127 1.51969,3.60933 0.0737,1.81806 -0.95391,3.1881 -1.01039,1.35614 -4.00732,3.77541 l -16.01811,12.93061 -5.61717,-6.95841 15.82865,-12.77766 q 2.35965,-1.90483 2.75123,-2.47696 0.39158,-0.57213 -0.17848,-1.2783 -0.59786,-0.74063 -1.35364,-0.44345 -0.73855,0.28327 -3.32212,2.36885 l -15.44972,12.47178 -5.61716,-6.95841 22.85594,-18.45044 z"
         style="font-style:normal;font-variant:normal;font-weight:normal;font-stretch:normal;font-size:45.3333px;font-family:Impact;-inkscape-font-specification:Impact;stroke:#000000;stroke-opacity:1;stroke-width:0.41333108;stroke-miterlimit:4;stroke-dasharray:none"
         id="path920" />
      <path
         d="m 693.85396,814.04752 -11.91919,2.8682 -12.76887,13.08451 -4.40318,-7.39971 9.56872,-8.93933 -10.99494,6.54251 -4.57297,-7.68504 30.79724,-18.32582 4.57297,7.68504 -12.93522,7.69707 8.80691,-1.99504 z"
         style="font-style:normal;font-variant:normal;font-weight:normal;font-stretch:normal;font-size:45.3333px;font-family:Impact;-inkscape-font-specification:Impact;stroke:#000000;stroke-opacity:1;stroke-width:0.41333108;stroke-miterlimit:4;stroke-dasharray:none"
         id="path922" />
      <path
         d="m 705.90039,824.80953 -4.2469,1.94372 -3.83217,-8.37304 4.2469,-1.94372 z m -5.87723,2.68988 -26.70919,12.22424 -3.83217,-8.37304 26.70919,-12.22424 z"
         style="font-style:normal;font-variant:normal;font-weight:normal;font-stretch:normal;font-size:45.3333px;font-family:Impact;-inkscape-font-specification:Impact;stroke:#000000;stroke-opacity:1;stroke-width:0.41333108;stroke-miterlimit:4;stroke-dasharray:none"
         id="path924" />
      <path
         d="m 705.53563,842.16724 -2.61584,0.68862 q 1.83801,0.42591 3.02743,1.50527 1.21731,1.09355 1.78604,2.84055 0.71262,2.189 0.1335,3.91393 -0.57912,1.72494 -2.02754,2.63876 -1.42737,0.90697 -5.08975,2.09924 l -19.57477,6.37248 -2.76826,-8.50345 19.34325,-6.29711 q 2.88359,-0.93874 3.45337,-1.33373 0.56977,-0.395 0.28883,-1.25797 -0.29464,-0.90507 -1.1067,-0.89678 -0.79101,10e-4 -3.94823,1.02926 l -18.88018,6.14636 -2.76826,-8.50345 27.93089,-9.09277 z"
         style="font-style:normal;font-variant:normal;font-weight:normal;font-stretch:normal;font-size:45.3333px;font-family:Impact;-inkscape-font-specification:Impact;stroke:#000000;stroke-opacity:1;stroke-width:0.41333108;stroke-miterlimit:4;stroke-dasharray:none"
         id="path926" />
      <path
         d="m 720.59042,879.43219 -35.35037,5.88708 -1.46904,-8.82122 2.09613,-0.34907 q -1.52098,-1.04824 -2.40874,-2.33658 -0.88776,-1.28833 -1.1423,-2.81676 -0.34181,-2.05246 0.47719,-3.73723 0.84084,-1.6884 2.18737,-2.36145 1.35016,-0.65122 4.55986,-1.18575 l 13.55934,-2.2581 q 3.34071,-0.55635 4.80722,-0.37421 1.47015,0.20397 2.77275,1.55786 1.32443,1.35026 1.67715,3.46822 0.27272,1.6376 -0.0914,3.08953 -0.36045,1.47377 -1.35408,2.78369 l 8.20985,-1.36723 z m -15.13756,-6.54493 q 1.59393,-0.26544 2.09253,-0.6402 0.50223,-0.35292 0.36769,-1.16081 -0.13091,-0.78604 -0.68038,-0.98626 -0.52399,-0.18202 -2.2271,0.10161 l -14.19255,2.36356 q -1.76861,0.29453 -2.29267,0.65109 -0.50224,0.35292 -0.3786,1.0953 0.14181,0.85155 0.80045,1.03359 0.68048,0.1784 3.10413,-0.22522 z"
         style="font-style:normal;font-variant:normal;font-weight:normal;font-stretch:normal;font-size:45.3333px;font-family:Impact;-inkscape-font-specification:Impact;stroke:#000000;stroke-opacity:1;stroke-width:0.41333108;stroke-miterlimit:4;stroke-dasharray:none"
         id="path928" />
    </g>
  </g>
</svg>
