<?xml version="1.0" encoding="UTF-8" standalone="no"?>
<!-- Created with Inkscape (http://www.inkscape.org/) -->

<svg
   width="1920px"
   height="1080px"
   viewBox="0 0 1920 1080"
   version="1.1"
   id="SVGRoot"
   sodipodi:docname="logo_sin_fondo.svg"
   inkscape:version="1.1.1 (3bf5ae0d25, 2021-09-20)"
   inkscape:export-filename="/home/kan/RiderProjects/Gestalt/logo.png"
   inkscape:export-xdpi="96"
   inkscape:export-ydpi="96"
   xmlns:inkscape="http://www.inkscape.org/namespaces/inkscape"
   xmlns:sodipodi="http://sodipodi.sourceforge.net/DTD/sodipodi-0.dtd"
   xmlns="http://www.w3.org/2000/svg"
   xmlns:svg="http://www.w3.org/2000/svg">
  <sodipodi:namedview
     id="namedview920"
     pagecolor="#505050"
     bordercolor="#eeeeee"
     borderopacity="1"
     inkscape:pageshadow="0"
     inkscape:pageopacity="0"
     inkscape:pagecheckerboard="true"
     inkscape:document-units="px"
     showgrid="false"
     inkscape:zoom="0.45522588"
     inkscape:cx="609.58749"
     inkscape:cy="442.6374"
     inkscape:window-width="1920"
     inkscape:window-height="1080"
     inkscape:window-x="0"
     inkscape:window-y="0"
     inkscape:window-maximized="1"
     inkscape:current-layer="layer1"
     showguides="true"
     inkscape:guide-bbox="true">
    <sodipodi:guide
       position="1156.4746,503.40116"
       orientation="1,0"
       id="guide849" />
    <sodipodi:guide
       position="767.05304,503.40116"
       orientation="1,0"
       id="guide851" />
    <sodipodi:guide
       position="826.50141,587.58462"
       orientation="1,0"
       id="guide875" />
    <sodipodi:guide
       position="1074.8903,840.7903"
       orientation="0,-1"
       id="guide877" />
    <sodipodi:guide
       position="1097.0262,587.58462"
       orientation="1,0"
       id="guide879" />
    <sodipodi:guide
       position="826.50145,565.69773"
       orientation="0,-1"
       id="guide906" />
  </sodipodi:namedview>
  <defs
     id="defs915">
    <rect
       x="359.72718"
       y="373.86276"
       width="128.028"
       height="129.71904"
       id="rect314" />
    <marker
       style="overflow:visible"
       id="Arrow1Sstart"
       refX="0.0"
       refY="0.0"
       orient="auto"
       inkscape:stockid="Arrow1Sstart"
       inkscape:isstock="true">
      <path
         transform="scale(0.2) translate(6,0)"
         style="fill-rule:evenodd;fill:context-stroke;stroke:context-stroke;stroke-width:1.0pt"
         d="M 0.0,0.0 L 5.0,-5.0 L -12.5,0.0 L 5.0,5.0 L 0.0,0.0 z "
         id="path1431" />
    </marker>
    <marker
       style="overflow:visible"
       id="Arrow1Lstart"
       refX="0.0"
       refY="0.0"
       orient="auto"
       inkscape:stockid="Arrow1Lstart"
       inkscape:isstock="true">
      <path
         transform="scale(0.8) translate(12.5,0)"
         style="fill-rule:evenodd;fill:context-stroke;stroke:context-stroke;stroke-width:1.0pt"
         d="M 0.0,0.0 L 5.0,-5.0 L -12.5,0.0 L 5.0,5.0 L 0.0,0.0 z "
         id="path1419" />
    </marker>
    <rect
       x="359.72717"
       y="373.86276"
       width="128.028"
       height="129.71904"
       id="rect314-3" />
  </defs>
  <g
     inkscape:label="Capa 1"
     inkscape:groupmode="layer"
     id="layer1">
    <ellipse
       style="fill:#000000;stroke:#ffcc00;stroke-width:9.95686"
       id="path1112"
       cx="960"
       cy="540"
       rx="494.07208"
       ry="494.0715" />
    <g
       id="g1055"
       transform="translate(0,-1.5e-5)"
       inkscape:export-filename="/home/kan/RiderProjects/Gestalt/logo.png"
       inkscape:export-xdpi="96"
       inkscape:export-ydpi="96">
      <path
         inkscape:connector-curvature="0"
         style="font-size:12px;fill:#ffffff;fill-opacity:0.9961;fill-rule:evenodd;stroke:none;stroke-width:2.87088"
         d="m 1325.9252,539.93702 c 0,201.82895 -163.7812,365.35828 -365.98826,365.35828 -202.08083,0 -365.86213,-163.52933 -365.86213,-365.35828 0,-201.70298 163.7813,-365.23229 365.86213,-365.23229 202.20706,0 365.98826,163.52931 365.98826,365.23229 z m -24.1893,-0.50395 c 0,187.97052 -153.0724,340.53913 -341.79896,340.53913 -188.85233,0 -341.79888,-152.56861 -341.79888,-340.53913 0,-188.09654 152.94654,-340.53912 341.79888,-340.53912 188.72656,0 341.79896,152.44258 341.79896,340.53912 z"
         id="path663" />
      <g
         id="g1086"
         transform="matrix(2.2966972,0,0,2.2966972,-276.2927,-731.12128)"
         style="fill:#ffffff">
        <path
           inkscape:connector-curvature="0"
           style="font-size:12px;fill:#ffffff;fill-rule:evenodd"
           d="m 623.83812,569.39161 c -7.40544,40.04424 -42.56757,70.37912 -84.75116,70.37912 -42.18359,0 -77.34573,-30.33488 -84.80603,-70.37912 H 475.839 c 6.91174,28.46981 32.6388,49.53418 63.24796,49.53418 30.60916,0 56.33621,-21.06437 63.24796,-49.53418 z m -147.99912,0 h 126.49592"
           id="path691" />
        <rect
           style="font-size:12px;fill:#ffffff;fill-opacity:1;fill-rule:evenodd;stroke-width:1"
           id="rect709"
           width="148.97415"
           height="18.313845"
           x="464.65005"
           y="569.37714" />
        <rect
           style="font-size:12px;fill:#ffffff;fill-opacity:1;fill-rule:evenodd;stroke-width:0.889022"
           id="rect709-6"
           width="117.74335"
           height="18.313845"
           x="480.37134"
           y="585.39679" />
        <rect
           style="font-size:12px;fill:#ffffff;fill-opacity:1;fill-rule:evenodd;stroke-width:0.800162"
           id="rect709-6-5"
           width="90.239128"
           height="19.357611"
           x="496.2363"
           y="600.61078" />
      </g>
      <g
         aria-label="&lt;"
         transform="matrix(0,3.1705794,-3.1705794,0,2119.0451,-689.77478)"
         id="text312"
         style="font-size:40px;line-height:1.25;white-space:pre;shape-inside:url(#rect314);fill:#ffffff">
        <path
           d="m 379.76562,407.66799 -18.75,-7.83203 v -3.96484 l 18.75,-7.83203 v 5.11718 l -11.60156,4.6875 11.60156,4.62891 z"
           style="font-family:Impact;-inkscape-font-specification:Impact"
           id="path24" />
      </g>
      <g
         aria-label="&lt;"
         transform="matrix(0,3.1705794,-3.1705794,0,2327.3349,-689.77478)"
         id="text312-6"
         style="font-size:40px;line-height:1.25;white-space:pre;shape-inside:url(#rect314-3);fill:#ffffff">
        <path
           d="m 379.76562,407.66799 -18.75,-7.83203 v -3.96484 l 18.75,-7.83203 v 5.11718 l -11.60156,4.6875 11.60156,4.62891 z"
           style="font-family:Impact;-inkscape-font-specification:Impact"
           id="path27" />
      </g>
    </g>
    <g
       id="g1032"
       transform="translate(-98.814964,-953.76391)"
       inkscape:export-filename="/home/kan/RiderProjects/Gestalt/logo.png"
       inkscape:export-xdpi="96"
       inkscape:export-ydpi="96">
      <path
         d="m 589.6962,1518.2311 17.20396,-1.5694 1.19308,13.4732 68.76275,-6.2726 2.00916,22.6887 -68.76276,6.2726 1.18834,13.4193 -17.20397,1.5693 z"
         style="font-style:normal;font-variant:normal;font-weight:normal;font-stretch:normal;font-size:45.3333px;line-height:1.25;font-family:Impact;-inkscape-font-specification:Impact;fill:#ffffff;fill-opacity:1;stroke:#000000;stroke-width:1.00292;stroke-miterlimit:4;stroke-dasharray:none;stroke-opacity:1"
         id="path844" />
      <path
         d="m 590.43302,1479.4945 19.38089,0.9983 q -2.41521,-2.9417 -3.53094,-6.25 -1.11302,-3.3623 -0.92664,-7.091 0.28642,-5.7283 3.36157,-9.5791 3.07782,-3.905 6.9014,-4.5749 3.77302,-0.7269 13.72971,-0.2138 l 48.71835,2.5094 -1.09165,21.8323 -49.73002,-2.5616 q -6.17632,-0.3181 -7.96581,0.2398 -1.7868,0.5038 -1.8949,2.6656 -0.0999,1.9995 1.6752,2.7952 1.77521,0.7958 7.15285,1.0728 l 50.42222,2.5972 -1.09168,21.8322 -86.20228,-4.4401 z"
         style="font-style:normal;font-variant:normal;font-weight:normal;font-stretch:normal;font-size:45.3333px;line-height:1.25;font-family:Impact;-inkscape-font-specification:Impact;fill:#ffffff;fill-opacity:1;stroke:#000000;stroke-width:1.00292;stroke-miterlimit:4;stroke-dasharray:none;stroke-opacity:1"
         id="path846" />
      <path
         d="m 655.28891,1392.3668 -5.52276,27.7387 14.99761,3.0759 q 4.70309,0.9646 6.19901,0.5538 1.49597,-0.4108 1.88666,-2.3732 0.48575,-2.4398 -1.1326,-3.5997 -1.66,-1.2237 -6.83339,-2.2848 l -9.14488,-1.8756 4.04437,-20.3134 5.12116,1.0503 q 6.42751,1.3183 9.70748,2.8743 3.29053,1.5029 6.60787,5.3298 3.31732,3.827 4.3738,8.9016 1.01475,5.0108 -0.37908,12.0118 -1.35165,6.7888 -4.31998,11.59 -2.96835,4.8011 -6.89355,7.0323 -3.96687,2.1673 -8.21237,2.4559 -4.29777,0.2778 -12.03172,-1.3084 l -20.22324,-4.1477 q -9.09262,-1.8649 -13.82195,-5.4294 -4.78159,-3.5752 -6.42127,-9.8183 -1.69197,-6.2538 -0.22416,-13.626 1.79514,-9.0164 6.35339,-14.1539 4.51652,-5.2013 10.57257,-6.3882 6.01438,-1.2506 16.09988,0.8179 z m -15.56409,19.1652 -5.06888,-1.0395 q -5.38242,-1.104 -7.06625,-0.8421 -1.68415,0.2601 -2.04291,2.0652 -0.44349,2.2276 0.80959,3.0366 1.20082,0.7983 7.05353,1.9987 l 5.06886,1.0396 z"
         style="font-style:normal;font-variant:normal;font-weight:normal;font-stretch:normal;font-size:45.3333px;line-height:1.25;font-family:Impact;-inkscape-font-specification:Impact;fill:#ffffff;fill-opacity:1;stroke:#000000;stroke-width:1.00292;stroke-miterlimit:4;stroke-dasharray:none;stroke-opacity:1"
         id="path848" />
      <path
         d="m 659.62273,1279.6688 61.14254,37.1565 -9.51698,21.7016 q -12.616,-3.567 -32.97117,-9.9788 8.12798,4.6195 16.16895,9.9696 l 13.05178,8.5613 -9.51697,21.7016 -68.33989,-20.7445 7.5442,-17.2032 q 2.61944,0.9464 38.87556,12.35 -3.37674,-1.8808 -35.01675,-21.1492 l 7.26242,-16.5605 38.74548,12.6466 q -15.7585,-8.2443 -34.97341,-21.2481 z"
         style="font-style:normal;font-variant:normal;font-weight:normal;font-stretch:normal;font-size:45.3333px;line-height:1.25;font-family:Impact;-inkscape-font-specification:Impact;fill:#ffffff;fill-opacity:1;stroke:#000000;stroke-width:1.00292;stroke-miterlimit:4;stroke-dasharray:none;stroke-opacity:1"
         id="path850" />
      <path
         d="m 715.69512,1239.1662 14.43179,9.732 q 7.94861,5.3598 11.14761,8.6862 3.15459,3.2966 4.65551,8.1413 1.45659,4.8152 0.26706,10.0547 -1.20446,5.1642 -4.74475,10.5728 -3.95331,6.0395 -7.9848,9.3625 -4.07593,3.2929 -8.22994,3.8701 -4.16888,0.5024 -8.54809,-1.022 -4.42345,-1.5534 -11.92803,-6.6141 l -15.09789,-10.1809 q -8.21496,-5.5392 -11.65308,-10.4564 -3.43806,-4.9169 -3.16734,-11.4906 0.27069,-6.5736 5.05008,-13.8749 4.01233,-6.1295 8.69474,-9.2732 4.66743,-3.2194 9.11741,-3.6617 4.45001,-0.4421 8.07449,0.7674 3.65401,1.1647 9.91523,5.3868 z m -16.35957,15.2137 q -4.52931,-3.054 -6.00837,-3.3369 -1.52348,-0.3127 -2.58556,1.3099 -1.06212,1.6223 -0.21716,2.9718 0.80046,1.3192 5.32982,4.3733 l 26.59887,17.9362 q 4.17413,2.8148 5.81589,3.1421 1.59746,0.298 2.63002,-1.2796 1.0621,-1.6223 0.23208,-2.8967 -0.80055,-1.3195 -4.6194,-3.8946 z"
         style="font-style:normal;font-variant:normal;font-weight:normal;font-stretch:normal;font-size:45.3333px;line-height:1.25;font-family:Impact;-inkscape-font-specification:Impact;fill:#ffffff;fill-opacity:1;stroke:#000000;stroke-width:1.00292;stroke-miterlimit:4;stroke-dasharray:none;stroke-opacity:1"
         id="path852" />
      <path
         d="m 719.03124,1196.1481 6.48231,6.7902 q -4.50757,-10.2042 0.84745,-17.4478 l 18.88935,16.4617 q -3.85507,4.5568 -4.44757,7.7491 -0.59257,3.1919 1.1749,5.5882 1.72696,2.3608 9.53349,9.1639 l 21.19485,18.4706 -14.03096,16.5856 -53.6748,-46.7762 z"
         style="font-style:normal;font-variant:normal;font-weight:normal;font-stretch:normal;font-size:45.3333px;line-height:1.25;font-family:Impact;-inkscape-font-specification:Impact;fill:#ffffff;fill-opacity:1;stroke:#000000;stroke-width:1.00292;stroke-miterlimit:4;stroke-dasharray:none;stroke-opacity:1"
         id="path854" />
      <path
         d="m 740.24753,1151.2994 60.19463,62.7839 -15.89466,15.6982 -60.19467,-62.7842 z"
         style="font-style:normal;font-variant:normal;font-weight:normal;font-stretch:normal;font-size:45.3333px;line-height:1.25;font-family:Impact;-inkscape-font-specification:Impact;fill:#ffffff;fill-opacity:1;stroke:#000000;stroke-width:1.00292;stroke-miterlimit:4;stroke-dasharray:none;stroke-opacity:1"
         id="path856" />
      <path
         d="m 791.69456,1108.6215 52.84644,69.264 -17.0294,13.3842 -3.13358,-4.1071 q -0.48632,4.4885 -2.20475,7.8925 -1.71846,3.4037 -4.66914,5.7224 -3.96225,3.1144 -8.47017,3.304 -4.5405,0.147 -7.5053,-1.9715 -2.92257,-2.1513 -7.72088,-8.4404 l -20.27027,-26.5674 q -4.99414,-6.5458 -6.28228,-9.9131 -1.24601,-3.4007 0.13784,-7.7733 1.3512,-4.4153 5.43992,-7.629 3.16138,-2.4847 6.65609,-3.3836 3.53689,-0.9321 7.44929,-0.3115 l -12.2732,-16.0862 z m 3.40415,40.1657 q -2.3828,-3.1229 -3.74681,-3.7618 -1.32184,-0.672 -2.88145,0.554 -1.5174,1.193 -1.31467,2.6075 0.21335,1.3385 2.75835,4.6759 l 21.21691,27.8083 q 2.6439,3.4652 3.99842,4.1801 1.32185,0.6719 2.75407,-0.4608 1.64388,-1.2923 1.27787,-2.9208 -0.39867,-1.6715 -4.02178,-6.42 z"
         style="font-style:normal;font-variant:normal;font-weight:normal;font-stretch:normal;font-size:45.3333px;line-height:1.25;font-family:Impact;-inkscape-font-specification:Impact;fill:#ffffff;fill-opacity:1;stroke:#000000;stroke-width:1.00292;stroke-miterlimit:4;stroke-dasharray:none;stroke-opacity:1"
         id="path858" />
      <path
         d="m 846.27894,1076.0684 5.34572,10.0456 -19.51373,10.697 -5.34577,-10.0456 z m 7.39788,13.9019 33.61988,63.1776 -19.51373,10.697 -33.61991,-63.1776 z"
         style="font-style:normal;font-variant:normal;font-weight:normal;font-stretch:normal;font-size:45.3333px;line-height:1.25;font-family:Impact;-inkscape-font-specification:Impact;fill:#ffffff;fill-opacity:1;stroke:#000000;stroke-width:1.00292;stroke-miterlimit:4;stroke-dasharray:none;stroke-opacity:1"
         id="path860" />
      <path
         d="m 916.5227,1087.1204 -17.66242,7.3407 -1.45458,-3.6049 q -1.8587,-4.6069 -2.8863,-5.5832 -0.99844,-1.0467 -3.07055,-0.1856 -1.67748,0.6969 -2.05148,2.1976 -0.39422,1.4502 0.51483,3.7032 1.23248,3.0549 2.21303,4.3429 1.00973,1.2175 3.76874,2.0586 2.80833,0.8207 10.63394,1.3687 10.42071,0.6978 14.66964,3.3753 4.24892,2.6778 7.17842,9.9389 3.27293,8.1117 2.87768,13.1291 -0.41546,4.9672 -4.39061,9.2506 -3.94597,4.2129 -10.80373,7.063 -7.59777,3.1578 -13.99451,3.0102 -6.34742,-0.1686 -10.02685,-3.4339 -3.6795,-3.2655 -7.03325,-11.5777 l -1.293,-3.2048 17.66235,-7.3411 1.69712,4.2064 q 2.16173,5.3579 3.44964,6.6938 1.33717,1.3152 3.31068,0.4951 2.12143,-0.8818 2.53588,-2.282 0.39422,-1.4502 -0.99976,-4.9052 -1.91937,-4.7573 -3.48955,-5.5076 -1.61971,-0.7305 -14.46293,-2.2919 -10.80221,-1.3574 -14.36278,-4.6138 -3.58075,-3.3061 -5.84354,-8.9146 -3.21235,-7.9618 -2.65545,-12.5784 0.53668,-4.6667 4.64193,-8.7705 4.15461,-4.1243 10.71637,-6.8514 6.51241,-2.7065 11.73825,-2.8904 5.25497,-0.2545 8.78359,1.4943 3.57804,1.7292 5.02095,3.8776 1.49224,2.1277 3.51257,7.1352 z"
         style="font-style:normal;font-variant:normal;font-weight:normal;font-stretch:normal;font-size:45.3333px;line-height:1.25;font-family:Impact;-inkscape-font-specification:Impact;fill:#ffffff;fill-opacity:1;stroke:#000000;stroke-width:1.00292;stroke-miterlimit:4;stroke-dasharray:none;stroke-opacity:1"
         id="path862" />
      <path
         d="m 962.12476,1034.4613 2.59439,11.1097 -21.58025,5.1911 -2.59431,-11.1095 z m 3.59031,15.3744 16.31584,69.868 -21.58016,5.1913 -16.31593,-69.8682 z"
         style="font-style:normal;font-variant:normal;font-weight:normal;font-stretch:normal;font-size:45.3333px;line-height:1.25;font-family:Impact;-inkscape-font-specification:Impact;fill:#ffffff;fill-opacity:1;stroke:#000000;stroke-width:1.00292;stroke-miterlimit:4;stroke-dasharray:none;stroke-opacity:1"
         id="path864" />
      <path
         d="m 1002.7423,1043.5933 0.4155,6.5988 q 1.8583,-4.2086 4.9604,-6.5543 3.1487,-2.4059 7.5412,-2.9487 5.5037,-0.681 9.3124,1.5204 3.8086,2.2006 5.2972,6.1045 1.4823,3.8507 2.6033,13.1967 l 5.9915,49.9535 -21.3805,2.6415 -5.9207,-49.3625 q -0.8825,-7.3585 -1.5521,-8.9111 -0.6695,-1.5524 -2.8394,-1.2845 -2.2757,0.2809 -2.6323,2.2331 -0.3631,1.8981 0.6033,9.9551 l 5.7789,48.1809 -21.38052,2.6414 -8.54916,-71.2774 z"
         style="font-style:normal;font-variant:normal;font-weight:normal;font-stretch:normal;font-size:45.3333px;line-height:1.25;font-family:Impact;-inkscape-font-specification:Impact;fill:#ffffff;fill-opacity:1;stroke:#000000;stroke-width:1.00292;stroke-miterlimit:4;stroke-dasharray:none;stroke-opacity:1"
         id="path866" />
      <path
         d="m 1097.5975,1024.8528 -2.2709,87.573 -21.5309,-0.5751 0.1347,-5.1925 q -3.1752,3.1629 -6.6282,4.6943 -3.4528,1.5319 -7.1834,1.4322 -5.0097,-0.1338 -8.6183,-2.8826 -3.6071,-2.8025 -4.5818,-6.3473 -0.9215,-3.5427 -0.7153,-11.4941 l 0.871,-33.5908 q 0.2147,-8.2757 1.317,-11.7107 1.1557,-3.4332 4.9536,-5.9299 3.7993,-2.5508 8.9688,-2.4128 3.9971,0.1067 7.2635,1.6557 3.3197,1.55 5.9619,4.5434 l 0.5274,-20.3379 z m -22.409,33.2856 q 0.1024,-3.9485 -0.5553,-5.3194 -0.6045,-1.3693 -2.5763,-1.4216 -1.9187,-0.052 -2.6437,1.1739 -0.6704,1.173 -0.7798,5.392 l -0.9118,35.159 q -0.1135,4.3817 0.4895,5.8051 0.6044,1.3691 2.4165,1.4177 2.0785,0.056 2.8106,-1.4404 0.7335,-1.5501 0.8891,-7.5544 z"
         style="font-style:normal;font-variant:normal;font-weight:normal;font-stretch:normal;font-size:45.3333px;line-height:1.25;font-family:Impact;-inkscape-font-specification:Impact;fill:#ffffff;fill-opacity:1;stroke:#000000;stroke-width:1.00292;stroke-miterlimit:4;stroke-dasharray:none;stroke-opacity:1"
         id="path868" />
      <path
         d="m 1157.0414,1087.6929 -27.4628,-4.892 -2.645,15.2954 q -0.8295,4.7966 -0.3865,6.3039 0.4431,1.5074 2.3859,1.8534 2.4155,0.4304 3.5165,-1.2413 1.1627,-1.7158 2.0751,-6.9918 l 1.6128,-9.3269 20.1114,3.5828 -0.9032,5.2228 q -1.1336,6.5553 -2.582,9.9231 -1.396,3.3772 -5.0803,6.841 -3.6842,3.4641 -8.6554,4.6661 -4.9093,1.1583 -11.8406,-0.076 -6.7213,-1.1972 -11.5263,-4.0862 -4.805,-2.8884 -7.1032,-6.8139 -2.2365,-3.9692 -2.6295,-8.2691 -0.3839,-4.3537 0.9801,-12.2413 l 3.5667,-20.6254 q 1.6036,-9.2731 4.9932,-14.1631 3.3988,-4.9431 9.5059,-6.7669 6.1162,-1.8772 13.4151,-0.5769 8.9267,1.5903 14.1038,6.0833 5.2387,4.4494 6.563,10.5633 1.386,6.0703 -0.3927,16.3562 z m -19.2759,-15.3001 0.894,-5.1698 q 0.9493,-5.4893 0.6482,-7.1909 -0.3014,-1.7021 -2.0866,-2.02 -2.2054,-0.3928 -2.9701,0.8994 -0.7555,1.2389 -1.7877,7.2078 l -0.894,5.1697 z"
         style="font-style:normal;font-variant:normal;font-weight:normal;font-stretch:normal;font-size:45.3333px;line-height:1.25;font-family:Impact;-inkscape-font-specification:Impact;fill:#ffffff;fill-opacity:1;stroke:#000000;stroke-width:1.00292;stroke-miterlimit:4;stroke-dasharray:none;stroke-opacity:1"
         id="path870" />
      <path
         d="m 1215.0697,1106.3163 -26.4674,-8.9008 -4.8125,14.7414 q -1.5091,4.6229 -1.2872,6.1794 0.2228,1.5563 2.0944,2.1864 2.3278,0.7827 3.6569,-0.7091 1.3967,-1.5253 3.0567,-6.6106 l 2.9345,-8.9885 19.3825,6.5185 -1.6434,5.0333 q -2.0625,6.3177 -3.9789,9.4357 -1.8659,3.1343 -6.008,6.0167 -4.1423,2.8821 -9.2329,3.3363 -5.0232,0.4197 -11.7033,-1.8268 -6.4777,-2.1783 -10.8168,-5.7466 -4.339,-3.5683 -6.0492,-7.7915 -1.6429,-4.258 -1.4143,-8.5702 0.2451,-4.3638 2.7269,-11.9654 l 6.4893,-19.8779 q 2.9177,-8.9374 6.9731,-13.2736 4.0721,-4.3879 10.3758,-5.2891 6.3205,-0.9526 13.3547,1.4129 8.6033,2.8936 13.0801,8.1039 4.5442,5.1768 4.9767,11.4215 0.4998,6.21 -2.7365,16.1233 z m -16.8737,-17.9869 1.6265,-4.9822 q 1.7271,-5.2905 1.6735,-7.0189 -0.054,-1.7279 -1.7743,-2.3068 -2.1255,-0.7147 -3.0675,0.4508 -0.9253,1.114 -2.8034,6.8665 l -1.6264,4.9826 z"
         style="font-style:normal;font-variant:normal;font-weight:normal;font-stretch:normal;font-size:45.3333px;line-height:1.25;font-family:Impact;-inkscape-font-specification:Impact;fill:#ffffff;fill-opacity:1;stroke:#000000;stroke-width:1.00292;stroke-miterlimit:4;stroke-dasharray:none;stroke-opacity:1"
         id="path872" />
      <path
         d="m 1293.4926,1086.1091 -38.8299,78.2384 -19.2357,-9.8342 2.3024,-4.6394 q -4.2006,1.4875 -7.9672,1.3805 -3.7667,-0.1083 -7.0997,-1.8122 -4.4756,-2.2882 -6.5857,-6.3358 -2.0861,-4.0959 -1.4794,-7.7239 0.6543,-3.6036 4.18,-10.7072 l 14.8939,-30.0099 q 3.6696,-7.3939 6.1092,-10.0241 2.4873,-2.6057 6.9713,-3.2216 4.5084,-0.663 9.1267,1.6973 3.571,1.8257 5.8754,4.6396 2.3521,2.8386 3.4852,6.6895 l 9.018,-18.1702 z m -34.2496,20.4173 q 1.7509,-3.5275 1.7315,-5.0521 0.028,-1.5005 -1.7335,-2.4012 -1.714,-0.8762 -2.8846,-0.081 -1.0991,0.7708 -2.9698,4.54 l -15.5896,31.4111 q -1.9426,3.9147 -1.9949,5.4632 -0.028,1.5002 1.5906,2.3279 1.8569,0.9492 3.1475,-0.087 1.3145,-1.085 3.9767,-6.4493 z"
         style="font-style:normal;font-variant:normal;font-weight:normal;font-stretch:normal;font-size:45.3333px;line-height:1.25;font-family:Impact;-inkscape-font-specification:Impact;fill:#ffffff;fill-opacity:1;stroke:#000000;stroke-width:1.00292;stroke-miterlimit:4;stroke-dasharray:none;stroke-opacity:1"
         id="path874" />
      <path
         d="m 1342.1009,1173.4719 -16.0435,-12.6437 5.0026,-6.5388 q 2.6157,-3.4194 2.9837,-5.0474 0.4009,-1.6706 -1.073,-2.8324 -1.4738,-1.1612 -2.7965,-0.4909 -1.3227,0.6702 -4.1673,4.3884 l -20.4681,26.7543 q -2.3214,3.0346 -2.7405,5.1704 -0.3865,2.0932 1.0874,3.2546 1.7265,1.3606 3.5257,0.244 1.8415,-1.0833 5.2092,-5.4856 l 5.1661,-6.7528 15.1593,11.947 q -5.2409,6.7623 -8.3198,9.8162 -3.0042,3.0442 -8.1509,4.743 -5.0719,1.689 -10.3098,0.5068 -5.2051,-1.2248 -10.8478,-5.6718 -7.2007,-5.6747 -9.5152,-11.472 -2.2817,-5.8401 -0.6172,-11.7215 1.7393,-5.8908 8.0824,-14.1824 l 12.3266,-16.1123 q 5.5258,-7.2226 9.7694,-9.7699 4.2436,-2.5476 11.1079,-1.7301 6.8975,0.7774 13.5928,6.0538 6.6533,5.2433 9.1789,11.8238 2.5255,6.5799 0.7485,12.1673 -1.777,5.5873 -7.8913,13.5792 z"
         style="font-style:normal;font-variant:normal;font-weight:normal;font-stretch:normal;font-size:45.3333px;line-height:1.25;font-family:Impact;-inkscape-font-specification:Impact;fill:#ffffff;fill-opacity:1;stroke:#000000;stroke-width:1.00292;stroke-miterlimit:4;stroke-dasharray:none;stroke-opacity:1"
         id="path876" />
      <path
         d="m 1386.7646,1216.3966 -12.4642,12.2155 q -6.865,6.728 -10.7531,9.1846 -3.8497,2.419 -8.8343,2.8662 -4.9462,0.4096 -9.7325,-1.8949 -4.711,-2.3031 -9.1549,-6.9741 -4.9623,-5.2159 -7.2942,-9.9259 -2.2935,-4.7476 -1.9564,-8.9894 0.4124,-4.2404 2.8192,-8.2538 2.4452,-4.0512 8.9266,-10.4034 l 13.0395,-12.7792 q 7.095,-6.9536 12.5649,-9.3052 5.4698,-2.3521 11.7373,-0.6719 6.2676,1.6803 12.2668,7.986 5.0364,5.2936 7.0562,10.6107 2.0951,5.318 1.5651,9.8241 -0.5302,4.506 -2.4728,7.8391 -1.9056,3.372 -7.3131,8.6716 z m -11.126,-19.4843 q 3.9118,-3.8337 4.5016,-5.2392 0.6281,-1.4431 -0.705,-2.8443 -1.3332,-1.4013 -2.8131,-0.8535 -1.4415,0.5105 -5.3534,4.344 l -22.9725,22.5141 q -3.605,3.5331 -4.2728,5.0901 -0.6294,1.5196 0.6668,2.8819 1.3331,1.4013 2.7376,0.8523 1.4415,-0.5102 4.7397,-3.7426 z"
         style="font-style:normal;font-variant:normal;font-weight:normal;font-stretch:normal;font-size:45.3333px;line-height:1.25;font-family:Impact;-inkscape-font-specification:Impact;fill:#ffffff;fill-opacity:1;stroke:#000000;stroke-width:1.00292;stroke-miterlimit:4;stroke-dasharray:none;stroke-opacity:1"
         id="path878" />
      <path
         d="m 1429.9967,1232.0647 -5.807,3.4482 q 4.7173,-0.12 8.2751,1.7073 3.6023,1.7974 6.0452,5.5421 4.768,7.3089 0.8374,15.9856 4.8349,0.06 8.3633,1.8427 3.5729,1.7523 5.8686,5.2714 3.0315,4.647 2.7809,9.1634 -0.2212,4.5616 -2.907,7.5995 -2.6413,3.008 -9.8869,7.8772 l -41.9183,28.1696 -11.5374,-17.6856 38.4509,-25.8396 q 7.5568,-5.0784 8.9817,-6.8147 1.4988,-1.721 0.2627,-3.6159 -1.2656,-1.94 -3.4264,-1.3317 -2.1312,0.6536 -9.7325,5.7617 l -38.4509,25.8397 -11.5375,-17.6857 37.473,-25.1825 q 8.6681,-5.8251 10.1074,-7.4413 1.4687,-1.571 0.2032,-3.5111 -0.7947,-1.2181 -2.2875,-1.448 -1.4482,-0.2598 -2.8406,0.5462 -1.348,0.7761 -5.6153,3.6439 l -40.8959,27.4826 -11.5374,-17.6858 58.9877,-39.6406 z"
         style="font-style:normal;font-variant:normal;font-weight:normal;font-stretch:normal;font-size:45.3333px;line-height:1.25;font-family:Impact;-inkscape-font-specification:Impact;fill:#ffffff;fill-opacity:1;stroke:#000000;stroke-width:1.00292;stroke-miterlimit:4;stroke-dasharray:none;stroke-opacity:1"
         id="path880" />
      <path
         d="m 1491.1417,1309.8371 -10.2021,4.8098 -9.343,-20.4148 10.2021,-4.8098 z m -14.1185,6.6562 -64.1619,30.2489 -9.343,-20.4147 64.1619,-30.249 z"
         style="font-style:normal;font-variant:normal;font-weight:normal;font-stretch:normal;font-size:45.3333px;line-height:1.25;font-family:Impact;-inkscape-font-specification:Impact;fill:#ffffff;fill-opacity:1;stroke:#000000;stroke-width:1.00292;stroke-miterlimit:4;stroke-dasharray:none;stroke-opacity:1"
         id="path882" />
      <path
         d="m 1473.2752,1385.3501 -6.4784,-19.5391 7.7308,-2.6405 q 4.0423,-1.3806 5.2361,-2.5305 1.2442,-1.1672 0.6491,-2.9621 -0.5951,-1.7949 -2.0624,-1.9789 -1.4672,-0.184 -5.8632,1.3175 l -31.6308,10.8034 q -3.5875,1.2253 -5.1005,2.7697 -1.4624,1.5271 -0.8673,3.3221 0.6972,2.1026 2.8048,2.1821 2.1246,0.1307 7.3291,-1.6469 l 7.9834,-2.7268 6.1213,18.4622 q -8.051,2.6927 -12.2803,3.5093 -4.1618,0.8506 -9.3753,-0.623 -5.1461,-1.4395 -8.8661,-5.3643 -3.6696,-3.942 -5.9481,-10.814 -2.9076,-8.7695 -1.6773,-14.8989 1.2808,-6.1465 5.8721,-10.1125 4.6589,-3.932 14.4614,-7.2801 l 19.0492,-6.5062 q 8.5393,-2.9165 13.4628,-2.6571 4.9236,0.2595 10.1964,4.7957 5.3233,4.519 8.0269,12.6731 2.6866,8.1029 1.2056,15.0029 -1.481,6.9001 -6.0058,10.5579 -4.5247,3.6578 -13.9735,6.885 z"
         style="font-style:normal;font-variant:normal;font-weight:normal;font-stretch:normal;font-size:45.3333px;line-height:1.25;font-family:Impact;-inkscape-font-specification:Impact;fill:#ffffff;fill-opacity:1;stroke:#000000;stroke-width:1.00292;stroke-miterlimit:4;stroke-dasharray:none;stroke-opacity:1"
         id="path884" />
      <path
         d="m 1451.7374,1414.588 -7.5264,1.7902 q -5.9174,1.4074 -10.035,0.8863 -4.1176,-0.5212 -7.5798,-3.4213 -3.45,-2.8474 -5.3543,-7.0628 l 6.0212,-1.4322 q 2.4946,2.7412 5.5506,2.459 l -0.8271,-3.5824 16.4543,-3.9137 z"
         style="font-style:normal;font-variant:normal;font-weight:normal;font-stretch:normal;font-size:45.3333px;line-height:1.25;font-family:Impact;-inkscape-font-specification:Impact;fill:#ffffff;fill-opacity:1;stroke:#000000;stroke-width:1.00292;stroke-miterlimit:4;stroke-dasharray:none;stroke-opacity:1"
         id="path886" />
      <path
         d="m 1528.2735,1457.9103 -20.3472,1.7334 q 3.3043,2.4335 5.0638,5.5959 1.8171,3.2118 2.1382,7.094 0.3701,4.4754 -0.7391,7.8822 -1.1093,3.4068 -3.4635,5.345 -2.3542,1.9381 -4.7181,2.4653 -2.3595,0.581 -10.169,1.2464 l -31.7692,2.7065 q -7.7564,0.6607 -11.6707,-0.092 -3.8566,-0.7031 -6.9934,-4.3455 -3.0836,-3.6469 -3.5251,-8.985 -0.3165,-3.8283 1.0539,-7.3117 1.3749,-3.4294 4.4413,-6.46 l -5.4286,-0.9493 -1.6855,-20.3818 86.0108,-7.3273 z m -34.9927,9.6599 q 5.472,-0.4661 7.061,-1.3073 1.642,-0.8458 1.4726,-2.8948 -0.1651,-1.995 -1.7016,-2.4614 -1.4835,-0.4709 -7.3804,0.031 l -30.388,2.5888 q -5.6845,0.4843 -7.2248,1.267 -1.5358,0.8367 -1.3708,2.8318 0.1695,2.0489 1.8654,2.5017 1.7004,0.5068 7.9693,-0.027 z"
         style="font-style:normal;font-variant:normal;font-weight:normal;font-stretch:normal;font-size:45.3333px;line-height:1.25;font-family:Impact;-inkscape-font-specification:Impact;fill:#ffffff;fill-opacity:1;stroke:#000000;stroke-width:1.00292;stroke-miterlimit:4;stroke-dasharray:none;stroke-opacity:1"
         id="path888" />
      <path
         d="m 1512.0576,1555.5451 -70.5966,-4.6628 1.4229,-22.1922 5.8278,0.7645 q -3.419,-2.5033 -5.0131,-5.9704 -1.5445,-3.4097 -1.2675,-7.7294 0.315,-4.9136 2.2252,-8.0409 1.9101,-3.1272 4.8301,-4.5069 2.9166,-1.3256 5.9732,-1.5033 3.1098,-0.1742 12.2071,0.4267 l 47.6141,3.1449 -1.3987,21.8142 -48.0398,-3.173 q -8.2459,-0.5447 -9.8199,-0.1606 -1.5774,0.4381 -1.7228,2.7059 -0.1558,2.4298 1.4125,2.9672 1.5648,0.5913 10.2364,1.1641 l 47.5078,3.1378 z"
         style="font-style:normal;font-variant:normal;font-weight:normal;font-stretch:normal;font-size:45.3333px;line-height:1.25;font-family:Impact;-inkscape-font-specification:Impact;fill:#ffffff;fill-opacity:1;stroke:#000000;stroke-width:1.00292;stroke-miterlimit:4;stroke-dasharray:none;stroke-opacity:1"
         id="path890" />
      <path
         d="m 1514.4778,1596.1616 -10.9545,-2.0678 -1.0626,5.7985 -11.0069,-2.0777 1.0626,-5.7986 -37.2138,-7.0247 q -6.8662,-1.2962 -7.7792,-0.753 -0.9227,0.5963 -1.8877,5.8629 l -11.2166,-2.1173 1.589,-8.6712 q 1.3452,-7.3413 2.4969,-10.3711 1.2042,-3.0199 3.7918,-5.0081 2.6401,-1.9784 5.5252,-2.0392 2.9376,-0.051 13.3155,1.9082 l 35.327,6.6686 0.8481,-4.6282 11.0069,2.0777 -0.8481,4.6282 10.9545,2.0679 z"
         style="font-style:normal;font-variant:normal;font-weight:normal;font-stretch:normal;font-size:45.3333px;line-height:1.25;font-family:Impact;-inkscape-font-specification:Impact;fill:#ffffff;fill-opacity:1;stroke:#000000;stroke-width:1.00292;stroke-miterlimit:4;stroke-dasharray:none;stroke-opacity:1"
         id="path892" />
      <path
         d="m 1497.2548,1658.2416 -10.57,-3.5778 -1.8385,5.595 -10.6206,-3.595 1.8385,-5.595 -35.9078,-12.1544 q -6.6252,-2.2426 -7.6031,-1.8321 -0.9947,0.4619 -2.6645,5.5436 l -10.8229,-3.6634 2.7493,-8.3669 q 2.3276,-7.0836 3.879,-9.9238 1.6021,-2.823 4.4346,-4.431 2.8831,-1.5909 5.7491,-1.2482 2.9165,0.3597 12.9302,3.7493 l 34.0871,11.5381 1.4674,-4.4657 10.6206,3.5949 -1.4674,4.4658 10.57,3.5778 z"
         style="font-style:normal;font-variant:normal;font-weight:normal;font-stretch:normal;font-size:45.3333px;line-height:1.25;font-family:Impact;-inkscape-font-specification:Impact;fill:#ffffff;fill-opacity:1;stroke:#000000;stroke-width:1.00292;stroke-miterlimit:4;stroke-dasharray:none;stroke-opacity:1"
         id="path894" />
      <path
         d="m 1486.976,1699.9011 -17.5566,-8.391 q 1.134,3.6521 0.9288,7.1425 -0.2279,3.5395 -1.7951,6.9173 -2.4076,5.189 -6.6928,7.5668 -4.3081,2.4267 -8.096,1.5732 -3.7623,-0.7814 -12.7818,-5.0922 l -44.1327,-21.093 9.1759,-19.7772 45.0491,21.5309 q 5.595,2.6741 7.4592,2.8474 1.8415,0.2222 2.7501,-1.7359 0.8403,-1.8113 -0.5031,-3.2317 -1.3446,-1.4202 -6.2161,-3.7485 l -45.6761,-21.8305 9.1759,-19.7773 78.0884,37.3218 z"
         style="font-style:normal;font-variant:normal;font-weight:normal;font-stretch:normal;font-size:45.3333px;line-height:1.25;font-family:Impact;-inkscape-font-specification:Impact;fill:#ffffff;fill-opacity:1;stroke:#000000;stroke-width:1.00292;stroke-miterlimit:4;stroke-dasharray:none;stroke-opacity:1"
         id="path896" />
      <path
         d="m 1394.4942,1755.5135 15.4431,-23.5622 -12.7395,-8.6013 q -3.995,-2.6972 -5.5329,-2.8908 -1.538,-0.1935 -2.6305,1.4734 -1.3583,2.0724 -0.2921,3.7672 1.0812,1.7698 5.4757,4.7367 l 7.768,5.2447 -11.3093,17.2549 -4.3501,-2.937 q -5.4597,-3.6862 -7.9169,-6.385 -2.4867,-2.6538 -4.1328,-7.4695 -1.646,-4.8157 -0.7343,-9.9191 0.9266,-5.0284 4.8243,-10.9753 3.7796,-5.7666 8.3157,-9.0729 4.5361,-3.3062 9.001,-3.866 4.4798,-0.4847 8.5178,0.8767 4.0823,1.3915 10.6518,5.827 l 17.1784,11.5982 q 7.7236,5.2147 10.7746,10.3291 3.0954,5.1444 2.2885,11.5533 -0.7625,6.439 -4.8669,12.7012 -5.0198,7.6589 -11.1531,10.6666 -6.1185,3.0827 -12.1673,1.8583 -6.0339,-1.1494 -14.6009,-6.9336 z m 21.5467,-11.7727 4.3057,2.9071 q 4.572,3.0868 6.2285,3.4903 1.6564,0.4035 2.6603,-1.1282 1.2403,-1.8922 0.3814,-3.122 -0.8144,-1.1997 -5.7859,-4.5563 l -4.3057,-2.907 z"
         style="font-style:normal;font-variant:normal;font-weight:normal;font-stretch:normal;font-size:45.3333px;line-height:1.25;font-family:Impact;-inkscape-font-specification:Impact;fill:#ffffff;fill-opacity:1;stroke:#000000;stroke-width:1.00292;stroke-miterlimit:4;stroke-dasharray:none;stroke-opacity:1"
         id="path898" />
      <path
         d="m 1396.6159,1833.248 -8.2392,-7.7733 15.0998,-16.4868 8.2391,7.7733 z m -11.4021,-10.7573 -41.0002,-38.682 q -7.2239,-6.8155 -9.5107,-9.564 -2.284,-2.672 -2.7818,-6.0228 -0.5729,-3.348 0.8491,-6.8082 1.3859,-3.4206 6.0683,-8.5331 l 5.6624,-6.1826 8.2781,7.8101 q -2.6134,2.8535 -2.3153,3.7997 0.2982,0.946 7.4829,7.7246 l 42.367,39.9715 z"
         style="font-style:normal;font-variant:normal;font-weight:normal;font-stretch:normal;font-size:45.3333px;line-height:1.25;font-family:Impact;-inkscape-font-specification:Impact;fill:#ffffff;fill-opacity:1;stroke:#000000;stroke-width:1.00292;stroke-miterlimit:4;stroke-dasharray:none;stroke-opacity:1"
         id="path900" />
      <path
         d="m 1321.2362,1847.1532 -11.2887,-13.3409 q -6.2176,-7.3478 -8.4073,-11.4305 -2.1549,-4.0417 -2.3043,-9.1182 -0.1147,-5.0356 2.4309,-9.7509 2.5399,-4.639 7.3933,-8.8695 5.4195,-4.724 10.1881,-6.8122 4.8034,-2.0471 8.9558,-1.4585 4.1468,0.665 7.9543,3.3376 3.8422,2.7135 9.7123,9.6508 l 11.8098,13.9567 q 6.4259,7.5941 8.4205,13.2733 1.9946,5.6793 -0.023,11.9318 -2.0179,6.2525 -8.5699,11.9636 -5.5005,4.7946 -10.8477,6.5312 -5.3529,1.8129 -9.7543,1.0131 -4.4012,-0.7997 -7.5664,-2.9622 -3.2055,-2.1273 -8.1031,-7.9152 z m 19.813,-10.1377 q 3.5429,4.187 4.8909,4.8665 1.3827,0.7205 2.8387,-0.5486 1.456,-1.2692 1.0035,-2.8005 -0.4177,-1.4904 -3.9607,-5.6774 l -20.806,-24.5883 q -3.265,-3.8586 -4.7577,-4.626 -1.4579,-0.7264 -2.8735,0.5075 -1.456,1.2691 -0.9977,2.7242 0.4177,1.4903 3.4049,5.0205 z"
         style="font-style:normal;font-variant:normal;font-weight:normal;font-stretch:normal;font-size:45.3333px;line-height:1.25;font-family:Impact;-inkscape-font-specification:Impact;fill:#ffffff;fill-opacity:1;stroke:#000000;stroke-width:1.00292;stroke-miterlimit:4;stroke-dasharray:none;stroke-opacity:1"
         id="path902" />
      <path
         d="m 1284.4863,1901.8657 -7.8161,-28.899 -32.4744,-30.1819 17.4763,-11.3325 22.2511,22.6849 -16.5904,-26.3555 18.1502,-11.7696 46.4705,73.823 -18.1502,11.7695 -19.5182,-31.0065 5.4762,21.3626 z"
         style="font-style:normal;font-variant:normal;font-weight:normal;font-stretch:normal;font-size:45.3333px;line-height:1.25;font-family:Impact;-inkscape-font-specification:Impact;fill:#ffffff;fill-opacity:1;stroke:#000000;stroke-width:1.00292;stroke-miterlimit:4;stroke-dasharray:none;stroke-opacity:1"
         id="path904" />
      <path
         d="m 1210.9494,1896.2308 25.3798,-11.7182 -6.3357,-14.1356 q -1.9869,-4.4328 -3.1916,-5.4221 -1.2049,-0.9893 -3.0004,-0.1603 -2.2323,1.0307 -2.2096,3.0414 0,2.0823 2.1817,6.9584 l 3.8633,8.6192 -18.586,8.5814 -2.1634,-4.8268 q -2.7153,-6.058 -3.3959,-9.6672 -0.7293,-3.5868 0.3813,-8.5579 1.1104,-4.9711 4.5419,-8.8144 3.4051,-3.7717 9.8107,-6.7292 6.2115,-2.868 11.784,-3.2414 5.5725,-0.3734 9.6543,1.5465 4.0554,1.9915 6.7743,5.3135 2.741,3.3712 6.0082,10.6606 l 8.5433,19.0609 q 3.8412,8.5699 3.768,14.5483 -0.051,6.0276 -4.0736,11.0354 -4.0003,5.0571 -10.7456,8.1715 -8.2497,3.809 -15.0226,3.0722 -6.7994,-0.6652 -11.2967,-4.9494 -4.5237,-4.2125 -8.7844,-13.7183 z m 24.4219,1.5643 2.1414,4.7775 q 2.2738,5.073 3.4699,6.3042 1.196,1.2311 2.846,0.4693 2.0381,-0.9411 1.9494,-2.4457 -0.067,-1.4554 -2.5391,-6.9717 l -2.1413,-4.7775 z"
         style="font-style:normal;font-variant:normal;font-weight:normal;font-stretch:normal;font-size:45.3333px;line-height:1.25;font-family:Impact;-inkscape-font-specification:Impact;fill:#ffffff;fill-opacity:1;stroke:#000000;stroke-width:1.00292;stroke-miterlimit:4;stroke-dasharray:none;stroke-opacity:1"
         id="path906" />
      <path
         d="m 1172.8417,1963.1473 -2.9425,-11.0196 21.4059,-5.8881 2.9425,11.0197 z m -4.0721,-15.25 -18.5055,-69.3035 21.4059,-5.888 18.5055,69.3036 z"
         style="font-style:normal;font-variant:normal;font-weight:normal;font-stretch:normal;font-size:45.3333px;line-height:1.25;font-family:Impact;-inkscape-font-specification:Impact;fill:#ffffff;fill-opacity:1;stroke:#000000;stroke-width:1.00292;stroke-miterlimit:4;stroke-dasharray:none;stroke-opacity:1"
         id="path908" />
      <path
         d="m 1107.049,1936.1553 18.8421,-3.0869 0.6112,3.8462 q 0.7826,4.9143 1.5645,6.1017 0.7387,1.2492 2.9492,0.8871 1.7894,-0.2934 2.4888,-1.6684 0.7078,-1.3218 0.3255,-3.7256 -0.5173,-3.2587 -1.1856,-4.7387 -0.7116,-1.4181 -3.2109,-2.8722 -2.552,-1.4454 -10.0516,-3.7795 -9.9937,-3.0764 -13.5341,-6.662 -3.5404,-3.5855 -4.7722,-11.3312 -1.3762,-8.6537 0.1291,-13.4496 1.5139,-4.7425 6.3422,-7.9999 4.7841,-3.1954 12.0998,-4.3939 8.1053,-1.3278 14.3025,0.2878 6.1446,1.6242 8.9991,5.651 2.8545,4.0268 4.2648,12.8942 l 0.5446,3.4186 -18.842,3.0869 -0.7136,-4.4872 q -0.9097,-5.7156 -1.865,-7.313 -1.0087,-1.5887 -3.114,-1.2438 -2.2629,0.372 -2.9795,1.6392 -0.7078,1.3217 -0.1216,5.0076 0.8075,5.0746 2.1688,6.1671 1.4144,1.0837 13.5748,5.5591 10.2179,3.807 12.9586,7.7977 2.7493,4.044 3.7008,10.0268 1.3507,8.4936 -0.2226,12.862 -1.5649,4.422 -6.4797,7.4744 -4.9675,3.061 -11.9675,4.2078 -6.9473,1.1383 -12.0782,0.1152 -5.1751,-0.9609 -8.2213,-3.4764 -3.0988,-2.5069 -4.0244,-4.9314 -0.9783,-2.4158 -1.8278,-7.7576 z"
         style="font-style:normal;font-variant:normal;font-weight:normal;font-stretch:normal;font-size:45.3333px;line-height:1.25;font-family:Impact;-inkscape-font-specification:Impact;fill:#ffffff;fill-opacity:1;stroke:#000000;stroke-width:1.00292;stroke-miterlimit:4;stroke-dasharray:none;stroke-opacity:1"
         id="path910" />
      <path
         d="m 1022.695,1935.1018 0.488,-17.5787 q 0.2688,-9.6817 1.3541,-14.1977 1.0839,-4.4619 4.3377,-8.3205 3.2524,-3.8044 8.261,-5.5557 4.9539,-1.6988 11.3489,-1.5159 7.141,0.2042 12.0536,1.9145 4.911,1.7644 7.5937,5.0348 2.6277,3.323 3.674,7.8999 1.0448,4.6311 0.791,13.772 l -0.5105,18.39 q -0.2778,10.0064 -2.5656,15.5706 -2.2879,5.5642 -7.9248,8.8132 -5.6369,3.2491 -14.2701,3.0022 -7.2477,-0.2072 -12.3554,-2.5727 -5.1625,-2.3129 -7.8893,-5.9094 -2.7269,-3.5965 -3.6358,-7.3576 -0.9623,-3.7625 -0.7505,-11.389 z m 21.3796,6.0246 q -0.1532,5.517 0.394,6.9401 0.5457,1.4771 2.4642,1.5319 1.9184,0.055 2.5985,-1.3872 0.6785,-1.388 0.8317,-6.905 l 0.8994,-32.3989 q 0.1412,-5.0843 -0.4548,-6.6711 -0.5974,-1.5328 -2.4626,-1.5861 -1.9185,-0.055 -2.5438,1.3346 -0.6785,1.3881 -0.8076,6.0396 z"
         style="font-style:normal;font-variant:normal;font-weight:normal;font-stretch:normal;font-size:45.3333px;line-height:1.25;font-family:Impact;-inkscape-font-specification:Impact;fill:#ffffff;fill-opacity:1;stroke:#000000;stroke-width:1.00292;stroke-miterlimit:4;stroke-dasharray:none;stroke-opacity:1"
         id="path912" />
      <path
         d="m 982.89162,1954.5998 1.50611,-6.4331 q -2.99088,3.4722 -6.63371,4.7932 -3.70464,1.3649 -8.06125,0.5787 -5.4589,-0.9852 -8.46588,-4.2208 -3.00691,-3.2357 -3.30424,-7.4112 -0.30663,-4.1223 1.31737,-13.392 l 8.67999,-49.5449 21.20569,3.8271 -8.57734,48.9588 q -1.27862,7.2986 -1.08624,8.9821 0.19265,1.6834 2.34447,2.0718 2.25706,0.4074 3.16107,-1.353 0.89473,-1.7071 2.29475,-9.6983 l 8.37196,-47.7868 21.20573,3.827 -12.3854,70.6948 z"
         style="font-style:normal;font-variant:normal;font-weight:normal;font-stretch:normal;font-size:45.3333px;line-height:1.25;font-family:Impact;-inkscape-font-specification:Impact;fill:#ffffff;fill-opacity:1;stroke:#000000;stroke-width:1.00292;stroke-miterlimit:4;stroke-dasharray:none;stroke-opacity:1"
         id="path914" />
      <path
         d="m 893.98965,1929.7756 3.02525,-6.099 q -3.89422,2.7046 -7.85904,3.1351 -3.98608,0.4801 -8.04271,-1.3137 -7.91776,-3.5013 -9.26895,-12.9522 -4.08974,2.6182 -8.00563,3.0704 -3.93724,0.5016 -7.74948,-1.184 -5.03415,-2.2262 -7.24406,-6.1545 -2.25875,-3.95 -1.63289,-7.9819 0.60458,-3.9823 4.07563,-12.068 l 20.08081,-46.7783 19.15907,8.4723 -18.41986,42.909 q -3.62006,8.433 -3.88539,10.6766 -0.33544,2.2716 1.71734,3.1794 2.10161,0.9293 3.5888,-0.774 1.43827,-1.7249 5.07966,-10.2075 l 18.41983,-42.909 19.15908,8.4723 -17.95138,41.8177 q -4.15247,9.6731 -4.49419,11.8239 -0.39061,2.1292 1.711,3.0585 1.31964,0.5836 2.69544,-0.047 1.35454,-0.5815 2.09113,-2.0264 0.7153,-1.3954 2.75958,-6.1575 l 19.59103,-45.6374 19.15906,8.4723 -28.25796,65.8269 z"
         style="font-style:normal;font-variant:normal;font-weight:normal;font-stretch:normal;font-size:45.3333px;line-height:1.25;font-family:Impact;-inkscape-font-specification:Impact;fill:#ffffff;fill-opacity:1;stroke:#000000;stroke-width:1.00292;stroke-miterlimit:4;stroke-dasharray:none;stroke-opacity:1"
         id="path916" />
      <path
         d="m 825.22849,1862.1755 16.77055,11.4384 -2.64651,3.9971 q -4.57928,6.9163 -8.59611,9.5876 -4.09081,2.6861 -10.72859,2.3311 -6.63779,-0.355 -14.20444,-5.5159 -9.07117,-6.187 -11.5024,-12.6042 -2.46096,-6.3724 -0.23822,-11.7668 2.19306,-5.3494 11.97616,-20.1252 l 19.80406,-29.9107 17.39005,11.8609 -3.50882,5.2995 q 3.74847,-2.072 7.4297,-1.9082 3.60721,0.1786 7.19145,2.6232 4.69043,3.1991 6.87421,8.5349 2.10981,5.3506 -3.86709,14.3777 l -3.2412,4.8953 q -4.43067,6.6918 -8.11612,7.6985 -3.68545,1.0067 -14.05685,-1.3733 -11.12507,-2.5028 -12.54741,-1.7127 -1.42237,0.79 -3.89045,4.5177 -3.09252,4.6707 -3.30635,6.5458 -0.28777,1.8899 1.30517,2.9764 1.81424,1.2374 3.0596,0.3266 1.21564,-0.8659 4.51632,-5.851 z m -0.25202,-12.0369 q 6.40345,-0.2611 8.53878,-1.934 2.09106,-1.703 4.76727,-5.745 3.06277,-4.6258 3.37962,-6.3655 0.2726,-1.7699 -1.4974,-2.9771 -1.68148,-1.1469 -2.85213,-0.4459 -1.24465,0.7157 -4.21827,5.2068 z"
         style="font-style:normal;font-variant:normal;font-weight:normal;font-stretch:normal;font-size:45.3333px;line-height:1.25;font-family:Impact;-inkscape-font-specification:Impact;fill:#ffffff;fill-opacity:1;stroke:#000000;stroke-width:1.00292;stroke-miterlimit:4;stroke-dasharray:none;stroke-opacity:1"
         id="path918" />
      <path
         d="m 756.15364,1843.1803 4.64824,-4.633 q -4.35274,1.3242 -8.12959,0.4751 -3.85215,-0.8455 -7.12832,-3.8643 -4.10511,-3.7826 -4.95433,-8.1462 -0.84929,-4.3635 1.08845,-8.0593 1.90188,-3.6557 8.13724,-10.6265 l 33.32705,-37.258 15.94678,14.694 -32.93287,36.8173 q -4.90945,5.4886 -5.62927,7.0178 -0.71981,1.5292 0.89853,3.0204 1.69731,1.564 3.38576,0.5619 1.65259,-0.962 7.02794,-6.9714 l 32.14445,-35.9359 15.94677,14.694 -47.55375,53.1627 z"
         style="font-style:normal;font-variant:normal;font-weight:normal;font-stretch:normal;font-size:45.3333px;line-height:1.25;font-family:Impact;-inkscape-font-specification:Impact;fill:#ffffff;fill-opacity:1;stroke:#000000;stroke-width:1.00292;stroke-miterlimit:4;stroke-dasharray:none;stroke-opacity:1"
         id="path920" />
      <path
         d="m 694.03434,1774.9516 27.30208,-11.4116 25.53748,-36.4074 13.22132,16.2166 -19.45819,25.1914 23.74066,-19.9387 13.73113,16.8419 -66.49856,55.8492 -13.73113,-16.8419 27.9302,-23.4574 -20.2191,8.1318 z"
         style="font-style:normal;font-variant:normal;font-weight:normal;font-stretch:normal;font-size:45.3333px;line-height:1.25;font-family:Impact;-inkscape-font-specification:Impact;fill:#ffffff;fill-opacity:1;stroke:#000000;stroke-width:1.00292;stroke-miterlimit:4;stroke-dasharray:none;stroke-opacity:1"
         id="path922" />
      <path
         d="m 661.37748,1753.4891 9.38629,-6.2924 12.2232,18.7824 -9.38629,6.2924 z m 12.98958,-8.708 59.03136,-39.5737 12.22321,18.7824 -59.0314,39.5737 z"
         style="font-style:normal;font-variant:normal;font-weight:normal;font-stretch:normal;font-size:45.3333px;line-height:1.25;font-family:Impact;-inkscape-font-specification:Impact;fill:#ffffff;fill-opacity:1;stroke:#000000;stroke-width:1.00292;stroke-miterlimit:4;stroke-dasharray:none;stroke-opacity:1"
         id="path924" />
      <path
         d="m 655.81197,1711.4266 5.96992,-2.6473 q -4.53193,-0.3373 -7.76258,-2.4969 -3.30227,-2.1834 -5.30322,-6.1891 -2.50723,-5.0191 -1.76837,-9.4034 0.73882,-4.3842 3.84705,-7.1363 3.06069,-2.7276 11.33446,-6.9851 l 44.2219,-22.7557 9.73964,19.4976 -43.69885,22.4865 q -6.51441,3.3522 -7.72396,4.5206 -1.20953,1.1684 -0.22108,3.1471 1.03662,2.0753 2.9661,1.7498 1.88199,-0.3005 9.01444,-3.9714 l 42.65274,-21.9482 9.73966,19.4976 -63.09946,32.4697 z"
         style="font-style:normal;font-variant:normal;font-weight:normal;font-stretch:normal;font-size:45.3333px;line-height:1.25;font-family:Impact;-inkscape-font-specification:Impact;fill:#ffffff;fill-opacity:1;stroke:#000000;stroke-width:1.00292;stroke-miterlimit:4;stroke-dasharray:none;stroke-opacity:1"
         id="path926" />
      <path
         d="m 606.17265,1627.0814 81.94444,-27.5178 6.76554,20.7539 -4.85898,1.6317 q 4.00814,1.9597 6.59834,4.7375 2.59019,2.7779 3.76246,6.3738 1.57418,4.8289 0.24957,9.2063 -1.37524,4.3945 -4.33022,6.5266 -2.97173,2.0809 -10.41201,4.5794 l -31.4314,10.555 q -7.74397,2.6006 -11.30148,2.7123 -3.57425,0.06 -7.17597,-2.7197 -3.65235,-2.7632 -5.27676,-7.7461 -1.25597,-3.8529 -0.92763,-7.4968 0.31157,-3.6953 2.19065,-7.233 l -19.03096,6.3908 z m 38.45006,10.1139 q -3.69483,1.2408 -4.74247,2.3335 -1.06441,1.0414 -0.44479,2.9421 0.60286,1.8494 1.98472,2.1262 1.31443,0.2426 5.26236,-1.0832 l 32.89924,-11.0479 q 4.09975,-1.3767 5.21476,-2.4351 1.06438,-1.0414 0.495,-2.788 -0.65309,-2.0034 -2.288,-2.1954 -1.68553,-0.1749 -7.30371,1.7118 z"
         style="font-style:normal;font-variant:normal;font-weight:normal;font-stretch:normal;font-size:45.3333px;line-height:1.25;font-family:Impact;-inkscape-font-specification:Impact;fill:#ffffff;fill-opacity:1;stroke:#000000;stroke-width:1.00292;stroke-miterlimit:4;stroke-dasharray:none;stroke-opacity:1"
         id="path928" />
    </g>
    <g
       id="g1360"
       transform="matrix(1.4206617,0,0,1.4206644,-402.94006,-227.15848)"
       style="stroke:#000000;stroke-width:0.703897;stroke-miterlimit:4;stroke-dasharray:none;stroke-opacity:1"
       inkscape:export-filename="/home/kan/RiderProjects/Gestalt/logo.png"
       inkscape:export-xdpi="96"
       inkscape:export-ydpi="96">
      <path
         inkscape:connector-curvature="0"
         style="font-size:12px;fill:#ffffff;fill-opacity:0.9961;fill-rule:evenodd;stroke:#000000;stroke-width:0.703897;stroke-miterlimit:4;stroke-dasharray:none;stroke-opacity:1"
         d="m 1324.6662,539.93679 c 0,201.82951 -163.4998,365.35929 -365.35929,365.35929 -201.73352,0 -365.23333,-163.52978 -365.23333,-365.35929 0,-201.70353 163.49981,-365.23329 365.23333,-365.23329 201.85949,0 365.35929,163.52976 365.35929,365.23329 z m -24.1478,-0.50395 c 0,187.97104 -152.8093,340.54007 -341.21149,340.54007 -188.52775,0 -341.21144,-152.56903 -341.21144,-340.54007 0,-188.09706 152.68368,-340.54006 341.21144,-340.54006 188.40219,0 341.21149,152.443 341.21149,340.54006 z"
         id="path663-3" />
    </g>
  </g>
</svg>
