<?xml version="1.0" encoding="UTF-8" standalone="no"?>
<!-- Created with Inkscape (http://www.inkscape.org/) -->

<svg
   width="1920"
   height="1080"
   viewBox="0 0 508.00002 285.74999"
   version="1.1"
   id="svg5"
   inkscape:version="1.1 (c4e8f9ed74, 2021-05-24)"
   sodipodi:docname="demon_letters _object.svg"
   xmlns:inkscape="http://www.inkscape.org/namespaces/inkscape"
   xmlns:sodipodi="http://sodipodi.sourceforge.net/DTD/sodipodi-0.dtd"
   xmlns="http://www.w3.org/2000/svg"
   xmlns:svg="http://www.w3.org/2000/svg">
  <sodipodi:namedview
     id="namedview7"
     pagecolor="#000000"
     bordercolor="#eeeeee"
     borderopacity="1"
     inkscape:pageshadow="0"
     inkscape:pageopacity="0"
     inkscape:pagecheckerboard="0"
     inkscape:document-units="mm"
     showgrid="false"
     units="px"
     width="1080px"
     inkscape:zoom="0.64378661"
     inkscape:cx="1195.2718"
     inkscape:cy="376.67761"
     inkscape:window-width="1366"
     inkscape:window-height="744"
     inkscape:window-x="0"
     inkscape:window-y="0"
     inkscape:window-maximized="1"
     inkscape:current-layer="g275" />
  <defs
     id="defs2">
    <rect
       x="237.20037"
       y="137.10385"
       width="1704.8604"
       height="526.33991"
       id="rect4366" />
    <rect
       x="-38.517806"
       y="556.03528"
       width="538.28554"
       height="388.11568"
       id="rect4713" />
  </defs>
  <g
     inkscape:label="Capa 1"
     inkscape:groupmode="layer"
     id="layer1">
    <text
       xml:space="preserve"
       id="text4711"
       style="font-style:normal;font-variant:normal;font-weight:normal;font-stretch:normal;font-size:29.5799px;line-height:1.25;font-family:Inconsolata;-inkscape-font-specification:Inconsolata;white-space:pre;fill:#f9f9f9;fill-opacity:1;stroke:none"
       transform="matrix(-0.88330197,-0.36067551,0.36067551,-0.88330197,149.65787,347.4239)"
       x="85.31028"
       y="242.46146" />
    <g
       id="g9954">
      <g
         id="g275"
         transform="translate(20.310103,-129.13282)">
        <path
           inkscape:connector-curvature="0"
           style="font-size:12px;fill:none;fill-opacity:0.9961;fill-rule:evenodd;stroke:none;stroke-width:0;stroke-miterlimit:4;stroke-dasharray:none"
           d="m 337.65909,272.31158 c 0,46.14284 -37.44423,83.52947 -83.67349,83.52947 -46.20044,0 -83.64469,-37.38663 -83.64469,-83.52946 0,-46.114 37.44425,-83.50063 83.64469,-83.50063 46.22926,0 83.67349,37.38663 83.67349,83.50062 z m -5.53021,-0.11521 c 0,42.97447 -34.99596,77.85522 -78.14328,77.85522 -43.1761,0 -78.14326,-34.88075 -78.14326,-77.85522 0,-43.00324 34.96716,-77.85519 78.14326,-77.85519 43.14732,0 78.14328,34.85195 78.14328,77.85519 z"
           id="path663-2-3-3" />
        <g
           aria-label="A man can be himself only so long as he is alone."
           transform="matrix(1.0715176,0,0,1.0791454,-38.582621,-21.834802)"
           id="text6710"
           style="font-size:26.2453px;line-height:1.25;white-space:pre;fill:#ffffff;stroke:#000000;stroke-opacity:1;stroke-width:0.92995164;stroke-miterlimit:4;stroke-dasharray:none">
          <path
             d="m 357.79929,284.32305 -20.9383,1.4294 0.43442,-5.49333 3.7388,0.0257 0.15255,-1.92906 -3.69233,-0.61337 0.44048,-5.56999 20.47862,4.38332 z m -13.08647,-3.90158 q 1.75359,-0.067 3.40195,-0.10377 1.66012,-0.023 5.33707,-0.0279 -3.48757,-0.7643 -5.27271,-1.11115 -1.77236,-0.34584 -3.32083,-0.59685 z"
             style="font-family:Impact;-inkscape-font-specification:Impact;stroke:#000000;stroke-opacity:1;stroke-width:0.92995164;stroke-miterlimit:4;stroke-dasharray:none"
             id="path830" />
          <path
             d="m 350.40921,301.60446 -1.50262,-0.63361 q 0.68506,0.83665 0.91783,1.84107 0.16864,0.95486 -0.18643,1.97108 -0.68056,1.94776 -2.91255,2.43035 0.68754,0.94612 0.90515,1.87737 0.16864,0.95486 -0.15684,1.88639 -0.43539,1.24608 -1.34769,1.83684 -0.86814,0.61976 -1.81527,0.53317 -0.98343,-0.0993 -2.95538,-0.78827 l -11.3962,-3.98187 1.66122,-4.75446 10.44411,3.67635 q 1.02832,0.3593 1.64167,0.54645 0.62545,0.19139 0.95326,0.22447 0.54673,0.0281 0.7285,-0.49207 0.17753,-0.50811 -0.2593,-0.85079 -0.4211,-0.31003 -2.50193,-1.03708 l -10.45257,-3.65215 1.65277,-4.73028 10.21061,3.56762 q 2.2986,0.80314 2.86108,0.86392 0.50986,0.056 0.70007,-0.48843 0.10991,-0.31455 -0.0517,-0.62895 -0.18219,-0.29443 -0.50825,-0.44908 -0.49121,-0.22593 -1.51953,-0.58522 l -11.13004,-3.88887 1.65277,-4.73027 16.05388,5.60927 z"
             style="font-family:Impact;-inkscape-font-specification:Impact;stroke:#000000;stroke-opacity:1;stroke-width:0.92995164;stroke-miterlimit:4;stroke-dasharray:none"
             id="path832" />
          <path
             d="m 335.44088,319.39045 2.48679,-4.17199 0.9687,0.57741 q 1.69521,1.01047 2.39912,1.98205 0.6641,0.88818 0.67097,2.50352 -0.002,1.65494 -1.10413,3.50426 -1.33198,2.2346 -2.82006,2.92901 -1.48597,0.66583 -2.77959,0.20804 -1.32664,-0.47747 -4.93723,-2.62963 l -7.33125,-4.36994 2.58522,-4.33711 1.30994,0.78082 q -0.56525,-0.90385 -0.56107,-1.73682 -0.0136,-0.90325 0.50475,-1.77287 0.6824,-1.14482 1.96198,-1.73973 1.24,-0.60358 3.45258,0.71527 l 1.19986,0.7152 q 1.61816,0.96454 1.91521,1.84279 0.28392,0.90027 -0.1594,3.39603 -0.46046,2.64966 -0.21975,3.04676 0.18334,0.31815 1.09699,0.86275 1.16684,0.69551 1.6065,0.7338 0.43311,0.0493 0.68244,-0.369 0.27559,-0.46233 0.055,-0.74301 -0.28663,-0.32005 -1.45347,-1.01556 z m -2.84987,0.22583 q -0.15611,-1.54019 -0.57505,-2.0137 -0.41684,-0.50208 -1.39654,-1.08605 -1.18885,-0.70864 -1.55591,-0.71857 -0.44623,-0.0273 -0.69556,0.39102 -0.2559,0.42931 -0.0594,0.72544 0.18757,0.26099 1.27735,0.91058 z"
             style="font-family:Impact;-inkscape-font-specification:Impact;stroke:#000000;stroke-opacity:1;stroke-width:0.92995164;stroke-miterlimit:4;stroke-dasharray:none"
             id="path834" />
          <path
             d="m 331.59544,336.37095 -1.14119,-1.09215 q 0.36206,1.02359 0.18128,1.97623 -0.17097,0.96087 -0.82201,1.73617 -0.85705,1.02065 -1.88184,1.26457 -1.05108,0.2553 -1.91584,-0.16964 -0.96132,-0.48929 -2.61006,-1.87376 l -9.12697,-7.66407 3.32934,-3.96483 9.02883,7.58165 q 1.38376,1.16197 1.68523,1.28124 0.3784,0.16715 0.72452,-0.24504 0.35436,-0.422 0.10152,-0.81838 -0.22497,-0.38972 -1.70688,-1.6341 l -8.80311,-7.39212 3.3211,-3.95502 13.0231,10.93572 z"
             style="font-family:Impact;-inkscape-font-specification:Impact;stroke:#000000;stroke-opacity:1;stroke-width:0.92995164;stroke-miterlimit:4;stroke-dasharray:none"
             id="path836" />
          <path
             d="m 307.02943,350.33204 3.86196,-2.98741 1.20751,1.56101 q 0.64296,0.83118 0.97859,0.99279 0.37944,0.17634 0.72407,-0.0903 0.35478,-0.27443 0.28039,-0.62193 -0.0666,-0.33737 -0.75655,-1.22937 l -4.91627,-6.3555 q -0.55671,-0.71969 -0.99792,-0.91305 -0.4827,-0.22607 -0.83748,0.0484 -0.42572,0.32932 -0.28765,0.82198 0.16063,0.459 0.96825,1.50304 l 1.25455,1.62182 -3.65923,2.83058 q -1.23103,-1.59141 -1.77033,-2.51898 -0.49779,-0.89486 -0.59109,-2.16743 -0.0505,-1.32191 0.50438,-2.44778 0.61566,-1.17291 1.94353,-2.20008 1.72318,-1.33296 3.20727,-1.50887 1.50666,-0.20957 2.72528,0.54895 1.26701,0.73729 2.78031,2.69361 l 2.94819,3.81128 q 1.29376,1.6725 1.65251,2.86935 0.32969,1.13832 -0.2724,2.70578 -0.58182,1.55177 -2.20364,2.80632 -1.60154,1.23887 -3.24973,1.4121 -1.65278,0.20919 -2.85342,-0.54704 -1.18266,-0.75393 -2.64108,-2.63929 z"
             style="font-family:Impact;-inkscape-font-specification:Impact;stroke:#000000;stroke-opacity:1;stroke-width:0.92995164;stroke-miterlimit:4;stroke-dasharray:none"
             id="path838" />
          <path
             d="m 300.20597,354.17423 4.25797,-2.33652 0.54252,0.98866 q 0.9494,1.73015 1.0639,2.92444 0.12245,1.10222 -0.69018,2.4983 -0.84017,1.4258 -2.72761,2.46152 -2.28066,1.25148 -3.91542,1.09607 -1.61846,-0.17899 -2.50171,-1.22917 -0.90174,-1.08389 -2.92385,-4.76889 l -4.10586,-7.48235 4.4265,-2.42899 0.73362,1.33693 q -0.0293,-1.06564 0.39642,-1.78162 0.44598,-0.78559 1.33353,-1.27262 1.16841,-0.64115 2.573,-0.50561 1.37487,0.10801 2.61402,2.36619 l 0.67198,1.22459 q 0.90625,1.65151 0.71729,2.55917 -0.21143,0.92 -1.85831,2.84695 -1.73964,2.05094 -1.73336,2.51525 -0.003,0.36718 0.50853,1.29967 0.65349,1.19088 1.01312,1.44668 0.3484,0.26197 0.77532,0.0277 0.47186,-0.25892 0.42392,-0.61268 -0.0849,-0.42116 -0.73841,-1.61204 z m -2.57131,-1.24945 q 0.6459,-1.4069 0.52466,-2.02741 -0.10492,-0.64408 -0.6536,-1.64397 -0.66582,-1.21335 -0.97723,-1.40791 -0.37087,-0.24964 -0.79779,-0.0154 -0.43816,0.24043 -0.41885,0.59528 0.0294,0.32005 0.63978,1.43229 z"
             style="font-family:Impact;-inkscape-font-specification:Impact;stroke:#000000;stroke-opacity:1;stroke-width:0.92995164;stroke-miterlimit:4;stroke-dasharray:none"
             id="path840" />
          <path
             d="m 288.27306,366.86724 -0.42921,-1.52016 q -0.20739,1.06574 -0.84654,1.79491 -0.63489,0.74124 -1.58928,1.07898 -1.25641,0.44463 -2.26324,0.13483 -1.03527,-0.31333 -1.56482,-1.11828 -0.58011,-0.90941 -1.29835,-2.939 l -3.97599,-11.23526 4.88069,-1.7272 3.93324,11.11445 q 0.60281,1.70341 0.80206,1.95915 0.24127,0.33603 0.74866,0.15647 0.51948,-0.18384 0.50274,-0.6537 0.004,-0.44997 -0.64168,-2.27419 l -3.8349,-10.83659 4.86861,-1.72293 5.67327,16.03139 z"
             style="font-family:Impact;-inkscape-font-specification:Impact;stroke:#000000;stroke-opacity:1;stroke-width:0.92995164;stroke-miterlimit:4;stroke-dasharray:none"
             id="path842" />
          <path
             d="m 267.41624,375.74794 -0.59117,-4.87245 q -0.59437,0.84666 -1.30482,1.2685 -0.79488,0.4708 -1.64724,0.57422 -1.06863,0.12966 -1.86089,-0.12276 -0.80344,-0.23816 -1.31007,-0.79632 -0.43376,-0.48955 -0.63815,-1.11021 -0.17241,-0.67617 -0.38233,-2.40633 l -0.92304,-7.60763 q -0.22535,-1.85739 -0.0678,-2.79305 0.11632,-0.95647 0.95202,-1.72914 0.88351,-0.80429 2.1048,-0.95247 0.90324,-0.10959 1.7144,0.19218 0.86668,0.33375 1.6081,1.01834 l 0.15097,-1.30923 4.82156,-0.585 2.50053,20.6093 z m -2.62439,-8.33066 q 0.16053,1.32307 0.38648,1.69583 0.20051,0.37586 0.69666,0.31566 0.48343,-0.0587 0.57051,-0.40486 0.10945,-0.37473 -0.0634,-1.79957 l -0.88136,-7.26414 q -0.17288,-1.42484 -0.38957,-1.72128 -0.21323,-0.37431 -0.68394,-0.3172 -0.47071,0.0571 -0.57706,0.45729 -0.10481,0.4129 0.0789,1.92679 z"
             style="font-family:Impact;-inkscape-font-specification:Impact;stroke:#000000;stroke-opacity:1;stroke-width:0.92995164;stroke-miterlimit:4;stroke-dasharray:none"
             id="path844" />
          <path
             d="m 244.42102,363.75364 6.71,0.26172 0.14435,-3.70074 q 0.0459,-1.1781 -0.12233,-1.46681 -0.12737,-0.35124 -0.61398,-0.37022 -0.62746,-0.0245 -0.83702,0.41623 -0.19476,0.38997 -0.24571,1.69611 l -0.0879,2.25375 -4.90445,-0.1913 0.049,-1.25493 q 0.0639,-1.63908 0.27468,-2.43883 0.22455,-0.82485 1.01702,-1.74298 0.78067,-0.94424 1.88761,-1.37558 1.17196,-0.45445 2.84946,-0.38902 1.58786,0.0619 2.87553,0.58668 1.23594,0.53555 1.88216,1.39437 0.70925,0.88693 0.92839,1.84451 0.23095,0.9837 0.15653,2.8917 l -0.1933,4.95567 q -0.0849,2.17691 -0.7402,3.5236 -0.66461,1.25656 -2.04845,1.8823 -1.44836,0.63605 -3.2027,0.56762 -2.1513,-0.0839 -3.55253,-0.98501 -1.36332,-0.88679 -1.88711,-2.25383 -0.5238,-1.36703 -0.4259,-3.87688 z m 5.07878,2.95544 -0.0479,1.22931 q -0.0524,1.34456 0.0744,1.7086 0.13818,0.40296 0.56075,0.41945 0.56344,0.022 0.69068,-0.28086 0.14403,-0.40478 0.19798,-1.78775 l 0.048,-1.22932 z"
             style="font-family:Impact;-inkscape-font-specification:Impact;stroke:#000000;stroke-opacity:1;stroke-width:0.92995164;stroke-miterlimit:4;stroke-dasharray:none"
             id="path846" />
          <path
             d="m 228.21531,373.39946 1.1846,-4.52502 q -0.86892,0.43487 -1.65936,0.51937 -0.83738,0.11196 -1.68039,-0.10873 -1.27693,-0.33429 -2.04977,-1.27844 -0.76103,-0.88807 -0.71981,-1.80457 0.0554,-1.07175 0.62983,-3.26607 l 2.96962,-11.34354 5.00851,1.31118 -3.03128,11.57908 q -0.3635,1.3885 -0.35961,1.87966 0.0293,0.44481 0.54996,0.58112 0.4463,0.11684 0.73346,-0.27163 0.27417,-0.33888 0.6117,-1.6282 l 3.07023,-11.72786 4.99612,1.30794 -5.25769,20.08364 z"
             style="font-family:Impact;-inkscape-font-specification:Impact;stroke:#000000;stroke-opacity:1;stroke-width:0.92995164;stroke-miterlimit:4;stroke-dasharray:none"
             id="path848" />
          <path
             d="m 213.98053,364.62798 6.33938,-15.77984 4.93492,1.98255 -6.33938,15.77984 z m -0.51691,3.52119 0.70225,-1.74803 3.46039,1.39017 -0.70226,1.74804 z"
             style="font-family:Impact;-inkscape-font-specification:Impact;stroke:#000000;stroke-opacity:1;stroke-width:0.92995164;stroke-miterlimit:4;stroke-dasharray:none"
             id="path850" />
          <path
             d="m 205.18045,360.35171 0.93323,-1.33731 q -0.96119,0.49538 -1.99207,0.51343 -0.96903,-0.0343 -1.88879,-0.59365 -1.76286,-1.07203 -1.76905,-3.35559 -1.06877,0.47496 -2.02492,0.49345 -0.96903,-0.0343 -1.81214,-0.54704 -1.12779,-0.68583 -1.51516,-1.70132 -0.42495,-0.97836 -0.14263,-1.88657 0.30231,-0.94106 1.38765,-2.72582 l 6.27235,-10.31438 4.30313,2.61681 -5.77488,9.447 q -0.56598,0.93071 -0.87701,1.49149 -0.31769,0.57174 -0.41845,0.88543 -0.14161,0.52883 0.32922,0.81515 0.45987,0.27966 0.88617,-0.0761 0.39107,-0.34713 1.53634,-2.23043 l 5.75299,-9.46032 4.28123,2.60349 -5.61982,9.24133 q -1.26512,2.0804 -1.44194,2.61781 -0.16114,0.48695 0.33158,0.78659 0.28469,0.17312 0.6259,0.0806 0.32597,-0.11674 0.54526,-0.40335 0.32345,-0.43324 0.88943,-1.36394 l 6.12586,-10.07349 4.28123,2.60349 -8.83589,14.52991 z"
             style="font-family:Impact;-inkscape-font-specification:Impact;stroke:#000000;stroke-opacity:1;stroke-width:0.92995164;stroke-miterlimit:4;stroke-dasharray:none"
             id="path852" />
          <path
             d="m 185.78139,338.88908 3.38573,3.09592 -0.62265,0.68093 q -0.7783,0.85117 -0.90776,1.20164 -0.12243,0.30481 0.29369,0.68531 0.31209,0.28538 0.65366,0.21568 0.36049,-0.0524 0.75829,-0.48743 0.50157,-0.54853 0.68454,-0.91954 0.16486,-0.3702 0.053,-1.0455 -0.1175,-0.80204 -0.76188,-2.43316 -0.9405,-2.37075 -0.7837,-3.52974 0.13627,-1.2125 1.38156,-2.57436 1.34906,-1.47534 2.49782,-1.95303 1.08904,-0.39338 2.44122,0.0269 1.30652,0.41326 2.63055,1.62396 1.45643,1.33176 2.04543,2.7386 0.67007,1.39414 0.32195,2.53447 -0.36461,1.17735 -1.74827,2.69052 l -0.55346,0.60527 -3.39519,-3.10457 0.72642,-0.79442 q 0.93397,-1.02139 1.06965,-1.43564 0.15459,-0.39695 -0.21424,-0.73421 -0.39721,-0.36321 -0.77661,-0.32811 -0.35887,0.0886 -0.93827,0.72225 -0.80425,0.87954 -0.80293,1.31487 -0.0184,0.39993 0.97557,3.35789 0.42201,1.32359 0.53248,2.1713 0.10101,0.83906 -0.0541,1.42652 -0.31434,1.08439 -1.29155,2.15307 -1.375,1.50372 -2.42864,1.87738 -1.082,0.34771 -2.36419,-0.13013 -1.3665,-0.53757 -2.56759,-1.63584 -1.23891,-1.13287 -1.82361,-2.24056 -0.5674,-1.12661 -0.57409,-2.08781 0.0106,-0.9801 0.32328,-1.49297 0.33782,-0.55935 1.15937,-1.4578 z"
             style="font-family:Impact;-inkscape-font-specification:Impact;stroke:#000000;stroke-opacity:1;stroke-width:0.92995164;stroke-miterlimit:4;stroke-dasharray:none"
             id="path854" />
          <path
             d="m 178.57533,325.05242 4.20488,5.23562 2.88758,-2.3191 q 0.91923,-0.73826 1.0267,-1.05469 0.18151,-0.32657 -0.12343,-0.70625 -0.3932,-0.48959 -0.86328,-0.3586 -0.42208,0.10888 -1.44123,0.92738 l -1.75852,1.41233 -3.07342,-3.8268 0.97919,-0.78641 q 1.27892,-1.02714 2.02074,-1.39281 0.76983,-0.37172 1.98266,-0.37603 1.22479,-0.0303 2.27656,0.52202 1.11189,0.58629 2.16311,1.8952 0.99505,1.23896 1.44386,2.55502 0.40673,1.28411 0.18257,2.33526 -0.20401,1.11716 -0.7829,1.91082 -0.59085,0.81969 -2.0796,2.01535 l -3.86677,3.10551 q -1.69857,1.36417 -3.14483,1.7532 -1.38435,0.32285 -2.76451,-0.31096 -1.43027,-0.67574 -2.52964,-2.04459 -1.34813,-1.6786 -1.58743,-3.32728 -0.22522,-1.61069 0.46279,-2.90289 0.68802,-1.29221 2.64638,-2.86502 z m 1.10175,5.7719 -0.95919,0.77036 q -1.04912,0.84258 -1.24062,1.17717 -0.21345,0.36866 0.0514,0.69839 0.35308,0.43963 0.6651,0.33696 0.39997,-0.15687 1.47907,-1.02352 l 0.9592,-0.77036 z"
             style="font-family:Impact;-inkscape-font-specification:Impact;stroke:#000000;stroke-opacity:1;stroke-width:0.92995164;stroke-miterlimit:4;stroke-dasharray:none"
             id="path856" />
          <path
             d="m 163.70599,324.79487 17.65948,-10.91508 2.79614,4.52388 -17.65947,10.91508 z"
             style="font-family:Impact;-inkscape-font-specification:Impact;stroke:#000000;stroke-opacity:1;stroke-width:0.92995164;stroke-miterlimit:4;stroke-dasharray:none"
             id="path858" />
          <path
             d="m 158.9442,315.6352 2.34821,-1.17796 q 0.70677,1.40893 0.96497,1.63783 0.27532,0.1773 0.88242,-0.12724 l 0.49255,-0.24708 -0.97684,-1.94729 2.39402,-1.20094 0.55162,1.09965 12.42829,-6.23452 2.32142,4.62768 -12.42828,6.23451 0.48267,0.96219 -2.39402,1.20094 -0.48267,-0.96219 q -1.56929,0.78722 -2.03908,0.90818 -0.59008,0.16698 -1.17494,-0.0558 -0.55043,-0.18267 -1.15305,-0.84096 -0.57965,-0.61246 -1.35537,-2.15884 z"
             style="font-family:Impact;-inkscape-font-specification:Impact;stroke:#000000;stroke-opacity:1;stroke-width:0.92995164;stroke-miterlimit:4;stroke-dasharray:none"
             id="path860" />
          <path
             d="m 161.40938,293.0257 3.975,-1.15455 q 2.20286,-0.63982 3.30095,-0.71856 1.09451,-0.091 2.17916,0.38126 1.13388,0.458 1.88473,1.48097 0.77745,1.06863 1.19208,2.49618 0.4611,1.58754 0.4299,2.90438 -0.0193,1.21998 -0.55595,2.08311 -0.55252,0.85441 -1.54812,1.42382 -1.02537,0.60475 -3.01902,1.18381 l -4.17191,1.21173 q -2.25209,0.65413 -3.70313,0.52845 -1.42285,-0.12052 -2.57863,-1.15932 -1.15936,-1.05111 -1.74199,-3.05707 -0.46468,-1.59985 -0.32828,-3.01397 0.14554,-1.3367 0.77348,-2.25305 0.56324,-0.81748 1.3794,-1.36147 0.79712,-0.47173 2.53233,-0.97572 z m 0.19755,5.32053 q -1.21835,0.35387 -1.54822,0.59648 -0.27708,0.24061 -0.15197,0.67134 0.13225,0.45534 0.49511,0.51008 0.38748,0.0476 1.63043,-0.31342 l 7.3716,-2.14109 q 1.16911,-0.33957 1.4585,-0.58376 0.31399,-0.25134 0.18889,-0.68207 -0.13583,-0.46764 -0.50743,-0.5065 -0.34698,-0.046 -1.39303,0.25781 z"
             style="font-family:Impact;-inkscape-font-specification:Impact;stroke:#000000;stroke-opacity:1;stroke-width:0.92995164;stroke-miterlimit:4;stroke-dasharray:none"
             id="path862" />
          <path
             d="m 154.13375,285.04138 1.57725,-0.086 q -0.99448,-0.43568 -1.56602,-1.21897 -0.58426,-0.78176 -0.70486,-1.78694 -0.15877,-1.32328 0.36394,-2.23786 0.53239,-0.94155 1.43375,-1.28202 1.01435,-0.36693 3.15195,-0.6234 l 11.83317,-1.41974 0.61674,5.14043 -11.70593,1.40447 q -1.79406,0.21525 -2.08722,0.35368 -0.3807,0.16184 -0.31658,0.69624 0.0657,0.54713 0.52777,0.63366 0.43821,0.10231 2.35951,-0.12821 l 11.41328,-1.36936 0.61522,5.12771 -16.88453,2.02579 z"
             style="font-family:Impact;-inkscape-font-specification:Impact;stroke:#000000;stroke-opacity:1;stroke-width:0.92995164;stroke-miterlimit:4;stroke-dasharray:none"
             id="path864" />
          <path
             d="m 149.59407,269.16952 20.76021,0.0976 -0.025,5.3182 -20.76021,-0.0976 z"
             style="font-family:Impact;-inkscape-font-specification:Impact;stroke:#000000;stroke-opacity:1;stroke-width:0.92995164;stroke-miterlimit:4;stroke-dasharray:none"
             id="path866" />
          <path
             d="m 154.71663,254.62739 12.04548,2.90337 q 2.50791,0.61812 3.90335,1.04063 1.0473,0.4202 1.64612,1.03272 0.61304,0.6013 0.81573,1.61877 0.10324,0.43799 0.0978,1.25029 -0.005,0.8123 -0.13137,1.88137 l -0.36894,3.13085 -2.71085,-0.31944 q 0.13347,-1.13271 0.0542,-1.55497 -0.0756,-0.3444 -0.48281,-0.39239 -0.20363,-0.024 -1.80505,0.097 l -14.45845,1.14796 0.54891,-4.65809 11.59016,-0.35043 -11.29471,-2.1568 z"
             style="font-family:Impact;-inkscape-font-specification:Impact;stroke:#000000;stroke-opacity:1;stroke-width:0.92995164;stroke-miterlimit:4;stroke-dasharray:none"
             id="path868" />
          <path
             d="m 165.18272,237.53495 -1.43559,4.35741 -0.87635,-0.28872 q -1.09544,-0.36091 -1.46818,-0.33529 -0.32821,0.0133 -0.50465,0.54885 -0.13233,0.40166 0.0713,0.68463 0.19559,0.3073 0.75549,0.49176 0.70594,0.23259 1.11935,0.24735 0.40525,-0.001 0.97533,-0.38028 0.68335,-0.43601 1.90688,-1.6925 1.77672,-1.82984 2.8981,-2.162 1.16177,-0.37284 2.91447,0.20461 1.89876,0.62556 2.80544,1.47748 0.80531,0.832 0.97636,2.23763 0.15875,1.36109 -0.40265,3.0651 -0.61755,1.87442 -1.65921,2.98844 -0.99684,1.18276 -2.17965,1.33278 -1.22333,0.15016 -3.17078,-0.49144 l -0.77898,-0.25665 1.4396,-4.36958 1.02241,0.33685 q 1.31453,0.43308 1.74799,0.38699 0.42543,-0.0217 0.58182,-0.49644 0.16843,-0.5112 -0.0191,-0.84285 -0.22795,-0.29099 -1.04345,-0.55966 -1.13195,-0.37293 -1.52847,-0.19324 -0.37231,0.14719 -2.66269,2.26654 -1.03421,0.92759 -1.76209,1.3759 -0.72388,0.43615 -1.32331,0.5355 -1.11794,0.1579 -2.49332,-0.29523 -1.93527,-0.6376 -2.70807,-1.4454 -0.76077,-0.84432 -0.85064,-2.20971 -0.07,-1.46676 0.43932,-3.01255 0.52531,-1.59447 1.29589,-2.58192 0.79493,-0.97943 1.66888,-1.37962 0.89828,-0.39218 1.49427,-0.31726 0.64867,0.0788 1.80497,0.45974 z"
             style="font-family:Impact;-inkscape-font-specification:Impact;stroke:#000000;stroke-opacity:1;stroke-width:0.92995164;stroke-miterlimit:4;stroke-dasharray:none"
             id="path870" />
          <path
             d="m 172.37073,224.02871 3.68348,1.88827 q 2.04131,1.04644 2.89402,1.74277 0.85855,0.68494 1.32331,1.77284 0.51038,1.11129 0.35444,2.37062 -0.16793,1.3108 -0.84607,2.63366 -0.75414,1.47111 -1.68057,2.40747 -0.8513,0.87407 -1.83397,1.13356 -0.98824,0.24225 -2.10315,-0.0269 -1.16081,-0.26385 -3.00825,-1.21091 l -3.86595,-1.98181 q -2.08692,-1.06982 -3.05606,-2.15706 -0.95217,-1.06415 -1.07988,-2.6129 -0.12187,-1.56016 0.83104,-3.41901 0.75998,-1.48251 1.82969,-2.41743 1.02322,-0.87235 2.10882,-1.10788 0.97069,-0.20803 1.93764,-0.0436 0.9035,0.20395 2.51146,1.02824 z m -3.50775,4.00535 q -1.12899,-0.57876 -1.53542,-0.6287 -0.36665,-0.0152 -0.57126,0.38399 -0.21631,0.42195 0.01,0.71079 0.24915,0.30054 1.40095,0.89099 l 6.83098,3.50177 q 1.08337,0.55537 1.46143,0.57637 0.40087,0.0327 0.60548,-0.36645 0.22215,-0.43335 -0.0214,-0.71664 -0.22079,-0.27159 -1.19013,-0.76851 z"
             style="font-family:Impact;-inkscape-font-specification:Impact;stroke:#000000;stroke-opacity:1;stroke-width:0.92995164;stroke-miterlimit:4;stroke-dasharray:none"
             id="path872" />
          <path
             d="m 172.54202,207.01738 16.4977,12.60246 -3.22841,4.22626 -16.4977,-12.60245 z"
             style="font-family:Impact;-inkscape-font-specification:Impact;stroke:#000000;stroke-opacity:1;stroke-width:0.92995164;stroke-miterlimit:4;stroke-dasharray:none"
             id="path874" />
          <path
             d="m 190.43871,202.00216 2.95718,2.89632 q 1.63881,1.60509 2.24645,2.52311 0.61661,0.90886 0.73759,2.08568 0.15761,1.21268 -0.36504,2.36901 -0.54936,1.20191 -1.58952,2.26393 -1.15674,1.18104 -2.31931,1.80029 -1.07234,0.58206 -2.08776,0.53825 -1.0156,-0.0619 -2.00042,-0.6498 -1.03022,-0.59646 -2.51339,-2.0491 l -3.10366,-3.03979 q -1.67543,-1.64096 -2.27825,-2.96682 -0.59348,-1.29878 -0.25583,-2.81566 0.34662,-1.52604 1.80823,-3.01836 1.16571,-1.1902 2.46467,-1.76556 1.23601,-0.52939 2.3426,-0.43215 0.9887,0.0894 1.86328,0.53342 0.80228,0.46289 2.09318,1.72723 z m -4.53837,2.78395 q -0.90638,-0.88773 -1.27967,-1.05603 -0.34564,-0.12328 -0.65949,0.19716 -0.33177,0.33875 -0.20134,0.68175 0.14875,0.36094 1.07344,1.2666 l 5.48405,5.3712 q 0.86976,0.85186 1.22456,0.9841 0.37311,0.15018 0.68695,-0.17026 0.34074,-0.3479 0.19219,-0.69072 -0.13025,-0.32488 -0.90846,-1.08707 z"
             style="font-family:Impact;-inkscape-font-specification:Impact;stroke:#000000;stroke-opacity:1;stroke-width:0.92995164;stroke-miterlimit:4;stroke-dasharray:none"
             id="path876" />
          <path
             d="m 193.79025,191.75103 0.85151,1.33042 q -0.11051,-1.0801 0.28978,-1.96325 0.39271,-0.89348 1.20818,-1.49342 1.07354,-0.78981 2.12694,-0.78523 1.08164,-2.8e-4 1.82183,0.61656 0.81886,0.70215 2.09469,2.43633 l 7.06267,9.59991 -4.17028,3.06808 -6.98673,-9.49668 q -1.07079,-1.45547 -1.33563,-1.64246 -0.32832,-0.25165 -0.76187,0.0673 -0.44386,0.32656 -0.29161,0.77138 0.12674,0.43177 1.27347,1.99047 l 6.81206,9.25926 -4.15996,3.06049 -10.07759,-13.69793 z"
             style="font-family:Impact;-inkscape-font-specification:Impact;stroke:#000000;stroke-opacity:1;stroke-width:0.92995164;stroke-miterlimit:4;stroke-dasharray:none"
             id="path878" />
          <path
             d="m 213.54477,180.06492 5.94162,11.67171 q 1.24414,2.44398 1.45509,3.08436 0.25185,0.74897 -0.0266,1.86857 -0.27847,1.1196 -1.23988,2.11232 -0.98986,1.02158 -2.76003,1.92271 -2.18131,1.11042 -3.94108,1.07155 -1.72551,-0.0563 -2.88182,-2.24302 l 4.47683,-2.27898 q 0.54587,0.98756 1.25394,0.62711 0.52534,-0.26744 0.55109,-0.66881 0.0141,-0.42421 -0.46841,-1.37211 l -0.61002,-1.14184 q -0.35447,0.91383 -0.82625,1.45597 -0.56874,0.60589 -1.25397,0.95471 -1.25625,0.63951 -2.30567,0.55539 -1.0324,-0.10717 -1.77076,-0.76666 -0.71531,-0.64246 -1.48854,-2.16138 l -2.7964,-5.49325 q -1.10461,-2.16988 -0.78772,-3.52474 0.29966,-1.36047 1.87569,-2.16276 0.83369,-0.42441 1.74483,-0.44245 0.95723,0.016 1.837,0.41657 l -0.2616,-1.30483 z m -2.55602,6.36293 q -0.52324,-1.02784 -0.80583,-1.27224 -0.27658,-0.20433 -0.67629,-8.5e-4 -0.3883,0.19767 -0.40243,0.62188 -0.003,0.4184 0.47983,1.3663 l 2.59874,5.10495 q 0.50579,0.99358 0.79981,1.23217 0.25975,0.25603 0.67089,0.0467 0.47966,-0.24417 0.41343,-0.685 -0.0201,-0.40677 -0.6829,-1.70871 z"
             style="font-family:Impact;-inkscape-font-specification:Impact;stroke:#000000;stroke-opacity:1;stroke-width:0.92995164;stroke-miterlimit:4;stroke-dasharray:none"
             id="path880" />
          <path
             d="m 229.20562,181.68149 -4.70097,1.22086 -0.28348,-1.09152 q -0.49607,-1.91016 -0.31416,-3.09605 0.15161,-1.0986 1.28182,-2.25273 1.1642,-1.1762 3.24801,-1.71737 2.51794,-0.65392 4.06465,-0.10231 1.52513,0.57045 2.12384,1.80519 0.60837,1.27194 1.66495,5.34033 l 2.14536,8.26082 -4.88703,1.26918 -0.38333,-1.47604 q -0.23296,1.04028 -0.82126,1.62999 -0.62504,0.65221 -1.60492,0.90669 -1.28998,0.33501 -2.61843,-0.14088 -1.30638,-0.4419 -1.95385,-2.93503 l -0.35112,-1.35199 q -0.47353,-1.82334 -0.0677,-2.65693 0.4306,-0.84005 2.49979,-2.30423 2.18951,-1.56164 2.29729,-2.01332 0.0931,-0.35519 -0.17424,-1.38469 -0.34146,-1.31478 -0.62737,-1.65098 -0.27351,-0.33941 -0.74485,-0.217 -0.52095,0.13529 -0.56123,0.49 -0.021,0.42912 0.32049,1.74391 z m 2.18634,1.84192 q -0.97122,1.20552 -1.00588,1.83681 -0.0562,0.65014 0.23045,1.75406 0.3479,1.33959 0.60208,1.60459 0.29832,0.33297 0.76966,0.21056 0.48374,-0.12563 0.55205,-0.47438 0.0499,-0.31749 -0.26896,-1.54545 z"
             style="font-family:Impact;-inkscape-font-specification:Impact;stroke:#000000;stroke-opacity:1;stroke-width:0.92995164;stroke-miterlimit:4;stroke-dasharray:none"
             id="path882" />
          <path
             d="m 249.56812,177.19193 -4.56445,0.46236 -0.093,-0.91799 q -0.11623,-1.14748 -0.29135,-1.47752 -0.14575,-0.29437 -0.70674,-0.23755 -0.42075,0.0426 -0.59633,0.34378 -0.20108,0.30375 -0.14167,0.89024 0.0749,0.73949 0.22969,1.12311 0.16624,0.36958 0.74436,0.73608 0.6764,0.44671 2.32212,1.05285 2.39458,0.87805 3.15444,1.76713 0.81344,0.90941 0.99942,2.74539 0.20147,1.98898 -0.20762,3.16391 -0.43217,1.07424 -1.64645,1.80263 -1.17862,0.69902 -2.9636,0.87983 -1.96347,0.1989 -3.40503,-0.29911 -1.4861,-0.4291 -2.10458,-1.44842 -0.63511,-1.05629 -0.84175,-3.09626 l -0.0827,-0.81599 4.5772,-0.46366 0.10848,1.07099 q 0.13949,1.37698 0.35802,1.75415 0.19304,0.37975 0.69028,0.32938 0.53549,-0.0543 0.76208,-0.36057 0.173,-0.32666 0.0865,-1.1809 -0.12011,-1.18574 -0.44565,-1.47478 -0.28599,-0.28017 -3.15411,-1.50956 -1.26822,-0.56708 -1.974,-1.04946 -0.69303,-0.48367 -1.02777,-0.99075 -0.59927,-0.95687 -0.74521,-2.3976 -0.20535,-2.02722 0.21794,-3.06191 0.46155,-1.03857 1.67212,-1.67642 1.31128,-0.66094 2.93051,-0.82496 1.67023,-0.16919 2.88584,0.13274 1.21819,0.32742 1.93946,0.9628 0.72386,0.66087 0.89802,1.23574 0.19207,0.62458 0.31477,1.83581 z"
             style="font-family:Impact;-inkscape-font-specification:Impact;stroke:#000000;stroke-opacity:1;stroke-width:0.92995164;stroke-miterlimit:4;stroke-dasharray:none"
             id="path884" />
          <path
             d="m 264.53701,168.57431 -0.50254,4.65044 q 0.79507,-0.55857 1.56434,-0.75901 0.81161,-0.23454 1.67799,-0.14091 1.31232,0.14181 2.21627,0.96132 0.88397,0.76579 0.9787,1.6783 0.1037,1.06816 -0.14,3.32331 l -1.25981,11.65793 -5.14732,-0.55624 1.28596,-11.90001 q 0.15421,-1.42698 0.0777,-1.91217 -0.0947,-0.43559 -0.62983,-0.49342 -0.45868,-0.0496 -0.68524,0.37709 -0.22105,0.37569 -0.36424,1.70075 l -1.30249,12.0529 -5.13459,-0.55487 2.23048,-20.64027 z"
             style="font-family:Impact;-inkscape-font-specification:Impact;stroke:#000000;stroke-opacity:1;stroke-width:0.92995164;stroke-miterlimit:4;stroke-dasharray:none"
             id="path886" />
          <path
             d="m 284.33505,185.51305 -6.47152,-1.79223 -0.98846,3.56922 q -0.31467,1.13622 -0.21701,1.45581 0.0435,0.37108 0.51281,0.50105 0.60516,0.16759 0.91013,-0.21336 0.27893,-0.33497 0.6278,-1.5947 l 0.60197,-2.17364 4.73014,1.30997 -0.33519,1.21032 q -0.4378,1.58083 -0.82618,2.31101 -0.40757,0.75146 -1.38934,1.46358 -0.97625,0.74024 -2.15257,0.90648 -1.24491,0.17383 -2.86279,-0.27423 -1.53143,-0.42411 -2.6646,-1.22994 -1.08036,-0.8045 -1.5126,-1.78853 -0.48715,-1.02585 -0.48106,-2.00817 5.9e-4,-1.01044 0.51021,-2.85063 l 1.32365,-4.77953 q 0.58145,-2.09954 1.52788,-3.26026 0.93484,-1.07085 2.42524,-1.36287 1.55557,-0.28726 3.24755,0.18132 2.07484,0.57461 3.23233,1.7728 1.12385,1.17557 1.32049,2.62626 0.19663,1.45069 -0.47375,3.87133 z m -4.26648,-4.04051 0.32835,-1.18562 q 0.35913,-1.29678 0.31904,-1.68021 -0.0422,-0.4239 -0.44973,-0.53677 -0.54341,-0.15049 -0.73665,0.11513 -0.23295,0.36101 -0.60234,1.69483 l -0.32835,1.18562 z"
             style="font-family:Impact;-inkscape-font-specification:Impact;stroke:#000000;stroke-opacity:1;stroke-width:0.92995164;stroke-miterlimit:4;stroke-dasharray:none"
             id="path888" />
          <path
             d="m 300.13251,182.92231 -7.38797,15.31695 -4.79016,-2.31048 7.38798,-15.31695 z m 0.75294,-3.47837 -0.81841,1.69675 -3.35888,-1.62012 0.81841,-1.69675 z"
             style="font-family:Impact;-inkscape-font-specification:Impact;stroke:#000000;stroke-opacity:1;stroke-width:0.92995164;stroke-miterlimit:4;stroke-dasharray:none"
             id="path890" />
          <path
             d="m 309.59138,194.92865 -3.87132,-2.46187 0.49513,-0.77859 q 0.6189,-0.97324 0.68562,-1.34085 0.0677,-0.32142 -0.40808,-0.624 -0.35686,-0.22693 -0.68116,-0.0991 -0.34594,0.11412 -0.66227,0.61155 -0.39885,0.6272 -0.51471,1.02432 -0.0982,0.39318 0.12908,1.03885 0.25481,0.76951 1.17229,2.26418 1.33739,2.17173 1.38395,3.34035 0.0761,1.21775 -0.91419,2.77493 -1.07277,1.68695 -2.12129,2.35661 -1.00432,0.57628 -2.4089,0.39685 -1.35838,-0.18043 -2.87231,-1.14317 -1.66531,-1.05902 -2.48936,-2.34239 -0.90168,-1.25681 -0.75659,-2.44024 0.15491,-1.22274 1.25519,-2.95294 l 0.44011,-0.69208 3.88214,2.46875 -0.57765,0.90835 q -0.74269,1.16789 -0.80447,1.59939 -0.0834,0.41775 0.33832,0.68594 0.45418,0.28882 0.82174,0.18845 0.33806,-0.1495 0.7988,-0.87402 0.63954,-1.00568 0.56274,-1.43419 -0.0512,-0.39706 -1.54311,-3.13783 -0.64514,-1.23035 -0.90094,-2.04606 -0.24499,-0.80882 -0.19407,-1.41429 0.12153,-1.12248 0.8986,-2.34443 1.0934,-1.71938 2.06627,-2.2701 1.00531,-0.53008 2.35094,-0.28183 1.43902,0.29245 2.81236,1.16579 1.4166,0.90085 2.18454,1.89037 0.75417,1.01114 0.92745,1.95661 0.15953,0.96709 -0.0595,1.52642 -0.2357,0.60945 -0.88899,1.63676 z"
             style="font-family:Impact;-inkscape-font-specification:Impact;stroke:#000000;stroke-opacity:1;stroke-width:0.92995164;stroke-miterlimit:4;stroke-dasharray:none"
             id="path892" />
          <path
             d="m 319.0298,204.43249 -3.47409,-3.39417 0.7881,-0.80665 q 1.37915,-1.41163 2.48849,-1.86859 1.01894,-0.43778 2.59103,-0.0664 1.60855,0.38908 3.14852,1.89362 1.86079,1.81798 2.18763,3.42726 0.29955,1.60053 -0.44829,2.75108 -0.7747,1.17804 -3.71214,4.18464 l -5.96441,6.10486 -3.61159,-3.5285 1.06571,-1.0908 q -1.01103,0.338 -1.81989,0.13898 -0.88134,-0.19817 -1.60549,-0.90566 -0.95332,-0.93139 -1.23222,-2.31466 -0.2966,-1.34683 1.50347,-3.18929 l 0.97616,-0.99914 q 1.31647,-1.34747 2.23985,-1.43071 0.94172,-0.0653 3.2644,0.9498 2.4683,1.06781 2.91071,0.92672 0.35222,-0.10378 1.09553,-0.8646 0.94929,-0.97164 1.08942,-1.39013 0.14929,-0.40954 -0.19904,-0.74985 -0.38499,-0.37614 -0.7095,-0.22737 -0.37824,0.20377 -1.32753,1.17542 z m -0.44744,2.82356 q -1.53395,-0.2087 -2.09236,0.0878 -0.5857,0.28774 -1.38274,1.10356 -0.96721,0.98997 -1.06277,1.34451 -0.13096,0.42745 0.21737,0.76777 0.35749,0.34926 0.69138,0.22757 0.29764,-0.12127 1.18424,-1.02875 z"
             style="font-family:Impact;-inkscape-font-specification:Impact;stroke:#000000;stroke-opacity:1;stroke-width:0.92995164;stroke-miterlimit:4;stroke-dasharray:none"
             id="path894" />
          <path
             d="m 337.22504,209.27852 -16.20072,12.98202 -3.32564,-4.15019 16.20072,-12.98201 z"
             style="font-family:Impact;-inkscape-font-specification:Impact;stroke:#000000;stroke-opacity:1;stroke-width:0.92995164;stroke-miterlimit:4;stroke-dasharray:none"
             id="path896" />
          <path
             d="m 337.78762,227.8625 -3.5236,2.17206 q -1.95271,1.20371 -2.9901,1.57221 -1.03068,0.37942 -2.20197,0.21324 -1.21492,-0.13928 -2.21122,-0.92518 -1.0341,-0.82281 -1.81416,-2.08825 -0.86748,-1.40726 -1.18832,-2.6848 -0.30649,-1.18101 -0.0193,-2.15593 0.30486,-0.97075 1.11272,-1.78488 0.82714,-0.85613 2.59439,-1.94552 l 3.69815,-2.27965 q 1.99634,-1.23061 3.4284,-1.49615 1.40352,-0.263 2.79433,0.43025 1.39754,0.70415 2.49365,2.48232 0.87421,1.41816 1.11958,2.8175 0.21593,1.32715 -0.14512,2.3777 -0.32503,0.93802 -0.96672,1.67982 -0.64258,0.66709 -2.18075,1.61526 z m -1.60822,-5.07551 q 1.07999,-0.66573 1.33329,-0.98747 0.20293,-0.30575 -0.0324,-0.68757 -0.24881,-0.40363 -0.61314,-0.35969 -0.38615,0.0574 -1.48795,0.73657 l -6.53448,4.02805 q -1.03635,0.63884 -1.2502,0.95132 -0.23566,0.32592 -3e-4,0.70773 0.25553,0.41454 0.62405,0.35298 0.34669,-0.0481 1.27396,-0.61971 z"
             style="font-family:Impact;-inkscape-font-specification:Impact;stroke:#000000;stroke-opacity:1;stroke-width:0.92995164;stroke-miterlimit:4;stroke-dasharray:none"
             id="path898" />
          <path
             d="m 346.93196,233.61613 -1.49726,0.50328 q 1.07463,0.15484 1.83428,0.75745 0.7715,0.59775 1.15566,1.53442 0.50574,1.23309 0.24571,2.25391 -0.26215,1.04939 -1.04015,1.6178 -0.87985,0.62403 -2.87176,1.44099 l -11.02664,4.52246 -1.9646,-4.79007 10.90808,-4.47383 q 1.67178,-0.68567 1.91744,-0.89723 0.32379,-0.25746 0.11955,-0.75543 -0.20911,-0.50984 -0.67758,-0.47006 -0.44962,0.0182 -2.23997,0.75249 l -10.63537,4.36198 -1.95974,-4.77821 15.73372,-6.45301 z"
             style="font-family:Impact;-inkscape-font-specification:Impact;stroke:#000000;stroke-opacity:1;stroke-width:0.92995164;stroke-miterlimit:4;stroke-dasharray:none"
             id="path900" />
          <path
             d="m 344.88764,257.56696 -1.50032,-6.54535 -3.60994,0.82746 q -1.14918,0.26341 -1.3839,0.50128 -0.30577,0.21471 -0.19697,0.68937 0.1403,0.61207 0.62044,0.69922 0.42731,0.0861 1.7014,-0.20593 l 2.19844,-0.50392 1.09661,4.78411 -1.22413,0.28059 q -1.59887,0.36649 -2.4259,0.372 -0.85487,-0.001 -1.94814,-0.52636 -1.11539,-0.50689 -1.82094,-1.4627 -0.74484,-1.01253 -1.11992,-2.64887 -0.35503,-1.5489 -0.18491,-2.92894 0.19407,-1.33293 0.85425,-2.18107 0.67084,-0.91632 1.53792,-1.37802 0.8892,-0.47992 2.75038,-0.90653 l 4.83407,-1.10806 q 2.12349,-0.48674 3.59461,-0.20602 1.38655,0.31325 2.35208,1.48556 0.99234,1.23191 1.3846,2.94319 0.48101,2.09852 -0.0227,3.68649 -0.49984,1.54765 -1.68257,2.41038 -1.18272,0.86274 -3.63099,1.42393 z m 1.526,-5.6745 1.19915,-0.27486 q 1.31157,-0.30064 1.62982,-0.51821 0.35287,-0.23865 0.25838,-0.65086 -0.12598,-0.54961 -0.45153,-0.59332 -0.42835,-0.0333 -1.77739,0.27594 l -1.19915,0.27487 z"
             style="font-family:Impact;-inkscape-font-specification:Impact;stroke:#000000;stroke-opacity:1;stroke-width:0.92995164;stroke-miterlimit:4;stroke-dasharray:none"
             id="path902" />
          <path
             d="m 343.26216,265.51653 -5.76835,0.66844 -0.61782,-5.33137 5.76837,-0.66844 z"
             style="fill:#ff0000;stroke-width:0.92995164;stroke:#000000;stroke-opacity:1;stroke-miterlimit:4;stroke-dasharray:none"
             id="path904" />
        </g>
      </g>
    </g>
  </g>
</svg>
