<?xml version="1.0" encoding="UTF-8" standalone="no"?>
<!-- Created with Inkscape (http://www.inkscape.org/) -->

<svg
   width="1920"
   height="1080"
   viewBox="0 0 508.00002 285.74999"
   version="1.1"
   id="svg5"
   inkscape:version="1.1.1 (3bf5ae0d25, 2021-09-20)"
   sodipodi:docname="demon_letters _object.svg"
   xmlns:inkscape="http://www.inkscape.org/namespaces/inkscape"
   xmlns:sodipodi="http://sodipodi.sourceforge.net/DTD/sodipodi-0.dtd"
   xmlns="http://www.w3.org/2000/svg"
   xmlns:svg="http://www.w3.org/2000/svg">
  <sodipodi:namedview
     id="namedview7"
     pagecolor="#000000"
     bordercolor="#eeeeee"
     borderopacity="1"
     inkscape:pageshadow="0"
     inkscape:pageopacity="0"
     inkscape:pagecheckerboard="0"
     inkscape:document-units="mm"
     showgrid="false"
     units="px"
     width="1080px"
     inkscape:zoom="0.45522588"
     inkscape:cx="1090.6673"
     inkscape:cy="528.30916"
     inkscape:window-width="1920"
     inkscape:window-height="1080"
     inkscape:window-x="0"
     inkscape:window-y="0"
     inkscape:window-maximized="1"
     inkscape:current-layer="g1032"
     inkscape:lockguides="true" />
  <defs
     id="defs2">
    <rect
       x="237.20037"
       y="137.10385"
       width="1704.8604"
       height="526.33991"
       id="rect4366" />
    <rect
       x="-38.517806"
       y="556.03528"
       width="538.28554"
       height="388.11568"
       id="rect4713" />
  </defs>
  <g
     inkscape:label="Capa 1"
     inkscape:groupmode="layer"
     id="layer1">
    <text
       xml:space="preserve"
       id="text4711"
       style="font-style:normal;font-variant:normal;font-weight:normal;font-stretch:normal;font-size:29.5799px;line-height:1.25;font-family:Inconsolata;-inkscape-font-specification:Inconsolata;white-space:pre;fill:#f9f9f9;fill-opacity:1;stroke:none"
       transform="matrix(-0.88330197,-0.36067551,0.36067551,-0.88330197,149.65787,347.4239)"
       x="85.31028"
       y="242.46146" />
    <g
       id="g9954">
      <g
         id="g275"
         transform="translate(20.310103,-129.13282)">
        <g
           id="g1032"
           transform="matrix(0.26458361,0,0,0.26458333,273.87942,-147.26858)"
           inkscape:export-filename="/home/kan/RiderProjects/Gestalt/logo.png"
           inkscape:export-xdpi="96"
           inkscape:export-ydpi="96">
          <path
             inkscape:connector-curvature="0"
             style="font-size:12px;fill:none;fill-opacity:0.9961;fill-rule:evenodd;stroke:none;stroke-width:2.87088"
             d="m 214.02798,1584.6037 c 0,201.829 -163.781201,365.3583 -365.9883,365.3583 -202.08085,0 -365.86216,-163.5293 -365.86216,-365.3583 0,-201.703 163.78131,-365.2323 365.86216,-365.2323 202.207099,0 365.9883,163.5293 365.9883,365.2323 z m -24.1893,-0.5039 c 0,187.9705 -152.900601,345.1969 -341.6272,345.1969 -188.85238,0 -341.97071,-157.2264 -341.97071,-345.1969 0,-188.0966 152.94655,-340.5392 341.79891,-340.5392 188.726599,0 341.799,152.4426 341.799,340.5392 z"
             id="path663-9"
             sodipodi:nodetypes="ssssssssss" />
          <g
             aria-label="A man can be himself only so long as he is alone"
             transform="matrix(-0.52965605,0.92199675,-0.91739119,-0.53231507,1238.4247,2582.3367)"
             id="text897"
             style="font-size:90.3982px;line-height:0;letter-spacing:-3.99259px;white-space:pre;fill:#ffffff;stroke:#000000;stroke-width:0">
            <path
               d="m 208.48921,1660.4372 q -1.21969,-2.8212 -0.62073,-10.1189 0.64333,-7.8383 2.75309,-13.6515 1.10469,0.907 4.56332,5.1818 2.71434,3.3973 3.61529,3.4713 0.90095,0.074 2.28935,-0.2656 1.38841,-0.3396 2.02647,-0.3779 1.1329,-0.5419 1.69294,-2.9449 1.29091,-0.2569 2.61743,-2.0528 1.96926,-4.1013 2.43512,-9.7773 0.0887,-1.0812 -0.33216,-1.4785 -0.3308,-0.39 -0.40611,-0.5776 -0.35299,-0.1197 -2.99805,-2.1508 -2.29947,-1.8214 -3.38061,-1.9101 -3.51371,-0.2884 -9.09146,5.7844 l -3.87409,-0.318 q 0.44834,-7.6729 0.72934,-11.0965 0.51762,-6.3067 0.56199,-6.8472 0.9029,-4.3703 3.60576,-4.1485 2.97314,0.244 3.68923,2.5703 1.01731,3.0767 3.18835,4.2526 1.37498,0.9292 7.68301,2.5354 0.70597,0.2393 2.58454,1.6633 1.87118,1.5141 3.01284,1.9706 0.78867,0.3369 3.74702,0.7611 2.68807,0.402 4.07784,1.151 8.69895,4.5235 12.75324,4.8562 1.17123,0.096 2.17707,0 1.42946,2.4756 6.29596,3.9634 6.99182,2.1158 7.6904,2.4452 3.74099,1.9397 3.40084,6.0841 -0.39191,4.7751 -10.1222,3.9764 -3.60381,-0.2957 -5.08367,-1.0521 -0.56275,0.2259 -2.20529,1.4516 -1.55984,1.3232 -2.288,1.3542 -3.5285,-0.1082 -9.46603,0.4022 -6.28177,1.3891 -12.56353,2.7783 -9.61393,2.2041 -14.8737,4.4028 -1.41059,0.6098 -7.99281,7.87 z m 29.61413,-19.3379 q 2.12259,-1.5492 4.01459,-1.3939 0.54058,0.044 1.78712,0.3281 1.23915,0.3738 2.2302,0.4551 1.17124,0.096 2.46215,-0.1607 0.0518,-0.6306 0.53785,-2.1327 0.57618,-1.4946 0.64273,-2.3055 0.25142,-3.0632 -3.8338,-4.1241 -6.12784,-1.5914 -7.07452,-2.2133 -2.73575,3.4942 -3.02414,7.0079 -0.23663,2.8831 2.25782,4.5391 z"
               style="font-family:'Love Letter Typewriter';-inkscape-font-specification:'Love Letter Typewriter, Normal'"
               id="path830" />
            <path
               d="m 180.99042,1753.0215 q 0.38757,-4.0816 2.07413,-8.8547 0.51199,-1.449 2.93436,-2.6064 2.7133,-1.4382 4.83903,-0.3994 -0.0506,1.2285 0.98639,3.9918 2.20014,3.2702 3.73435,3.8123 1.87514,0.6625 4.66856,-0.4597 3.66447,2.9247 9.78142,4.6068 1.78085,-2.0553 4.94473,-1.5126 2.5019,0.7882 4.94868,1.461 0.1807,-0.5114 0.91828,-1.7848 0.82281,-1.2433 1.15409,-2.1809 0.24094,-0.6818 -0.45964,-4.6685 -13.05495,-7.0098 -15.78243,-7.9736 -0.42617,-0.1506 -1.41886,-0.5972 -0.90745,-0.4165 -1.41885,-0.5972 -5.11403,-1.8071 -12.2266,4.2127 l -3.83552,-1.3553 q 0.12046,-0.3409 2.77353,-1.6086 -2.35525,-4.1879 -1.36139,-7.0006 l 7.5895,-21.4789 q 0.33128,-0.9376 1.90643,-2.682 2.45307,-2.8724 2.56842,-2.9275 l 5.19926,1.8371 q -0.36769,4.568 7.30335,7.2785 1.19327,0.4217 3.0133,0.9689 1.90526,0.5773 2.33143,0.7279 6.22206,2.1986 9.5513,3.0873 1.17339,-0.065 3.83669,-1.9041 1.28363,0.166 2.02573,0.2364 1.34386,0 2.26667,-0.4454 l 0.68187,0.2409 q 0.93757,0.3313 2.01037,1.0939 1.15804,0.7927 1.75468,1.0035 -1.44562,4.0912 -3.65499,12.5146 -2.12413,8.4535 -2.21448,8.7092 -0.30117,0.8523 -3.17076,4.6321 -2.86959,3.7799 -3.17077,4.6322 -0.15058,0.4262 0.029,3.1741 0.17953,2.748 -0.3927,4.3674 -1.02398,2.898 -1.84167,3.8554 -1.60526,1.8297 -5.31125,2.8212 -1.16828,-0.2211 -3.59006,-0.6933 -0.6921,0.3307 -1.41432,0.7467 -1.03816,0.496 -2.06097,0.1346 l -26.08154,-9.2158 q -0.93757,-0.3313 -1.00292,0.125 -0.0654,0.4563 -0.49664,0.5915 -0.94269,-0.046 -1.82455,-1.8911 -0.34606,0.1654 -1.47456,0.9171 -1.15863,0.837 -1.62003,1.0575 z m 31.43113,-16.5061 q 0.3614,-1.0228 2.97924,-1.9194 3.10365,0.7131 6.29253,1.4564 4.58786,0.8541 5.70219,-2.2996 0.48187,-1.3637 0.12223,-5.2299 -0.38976,-3.781 -1.27675,-5.3408 -3.29911,-0.974 -9.34048,-3.6839 -6.55276,-2.8907 -6.46753,-2.8606 -2.89795,-1.0239 -6.48347,-0.3734 -4.4481,0.9211 -5.71301,4.5009 -0.33129,0.9376 1.24721,3.7963 1.66374,2.8889 1.81885,3.8066 3.38889,2.348 9.72119,4.7772 0.43581,1.2086 1.3978,3.3702 z"
               style="font-family:'Love Letter Typewriter';-inkscape-font-specification:'Love Letter Typewriter, Normal'"
               id="path832" />
            <path
               d="m 163.26794,1801.5329 q -2.94726,-1.5814 -3.4563,-6.3685 -0.45269,-3.9362 0.74407,-6.1665 0.34193,-0.6373 2.9414,-2.4227 2.59948,-1.7855 3.19786,-2.9006 0.42741,-0.7966 0.48179,-5.4865 0.0544,-4.69 0.48179,-5.4866 4.06044,-7.5672 9.92189,-10.2697 5.89836,-2.5801 12.35046,0.882 2.07104,1.1112 5.06106,6.8192 2.75688,5.3777 5.48265,6.2248 1.72521,-0.9209 3.49316,-1.9215 1.18706,-0.4915 3.09879,0.5343 0.79656,0.4274 2.69858,3.192 2.41105,3.3455 3.34944,4.4645 -0.0952,1.8982 -0.0758,2.6267 0.0272,1.8612 0.6664,3.5379 -2.71407,7.1612 -2.88504,7.4798 -3.33383,6.2132 -7.948,7.7383 -4.65691,1.6048 -13.82505,-0.237 -0.14766,-0.4896 -0.12435,-1.2978 0.0233,-0.8082 -0.12435,-1.2978 -1.07243,-0.678 -3.54951,1.0705 -0.23897,-0.1282 -2.42658,-1.4046 -2.46349,-1.527 -4.37523,-2.5528 -9.479,-5.0863 -11.14592,-1.9797 -0.76935,1.4338 2.02832,5.3971 -0.99083,0.6994 -2.88896,0.6043 -1.89812,-0.095 -3.17261,-0.7791 z m 33.91176,-4.8863 q 0.48959,-0.1477 2.53925,-1.0997 1.19288,-0.6936 1.78739,-0.272 -1.27449,-0.6839 -0.29144,-2.5159 0.47016,-0.8762 1.25894,-1.5815 0.74603,-0.6256 1.08797,-1.2628 0.51289,-0.9559 0.46625,-3.5457 0.008,-3.0735 0.15346,-3.9186 l -3.50484,-1.8806 q -1.78738,0.272 -3.57477,0.544 -2.15458,0.3827 -2.71022,1.4182 -0.38467,0.7169 -0.67413,3.7419 -0.33221,3.1046 -0.67997,3.9439 1.00056,1.768 2.03803,3.6583 1.11713,1.9331 2.10408,2.7705 z m -15.43372,-3.3571 q 1.9331,-1.1172 5.28056,-2.1935 0.50124,-0.5518 -0.22344,-2.0691 l 2.1332,-2.446 q 0.51289,-0.9559 0.24867,-1.6106 -0.18457,-0.612 -0.22149,-0.7344 -1.15404,-2.0555 -1.34443,-2.4654 -0.92091,-1.7252 -0.92868,-2.8579 0.22341,-2.1371 0.44682,-4.2742 0.18067,-2.0574 -2.92589,-3.7243 -1.51346,-0.8121 -5.41656,1.2997 -3.82344,2.1546 -4.93472,4.2257 -1.41047,2.6286 -0.55562,5.2417 1.29782,4.0818 1.36777,5.8634 0.31863,0.171 1.8146,1.5892 1.06078,1.0821 1.98556,1.2706 1.90396,-0.1069 2.06327,-0.021 0.76159,1.6397 1.21038,2.9065 z"
               style="font-family:'Love Letter Typewriter';-inkscape-font-specification:'Love Letter Typewriter, Normal'"
               id="path834" />
            <path
               d="m 125.91429,1849.365 q -0.66814,-0.6156 -2.90423,-5.0119 0.47109,-0.7768 1.90287,-3.4326 1.21445,-2.3669 1.81212,-3.1616 0.43468,-0.5779 2.89702,-3.2505 2.5346,-2.6182 3.51261,-3.9187 1.64436,0.6711 4.68053,1.5972 -1.29205,6.3804 0.20486,9.2028 0.77561,1.3751 5.11044,4.6351 0.43349,0.326 5.20299,3.0081 5.18507,2.8815 7.47907,4.4936 2.06231,-0.9375 6.43891,-1.9442 0.4705,-0.3248 1.55718,-1.7697 1.24968,-1.6617 0.92487,-2.1322 -0.9022,-1.3572 -1.06402,-2.0444 -0.32184,-2.7305 -0.64368,-5.4609 -0.44724,-3.6165 -1.25868,-5.2448 -0.79353,-1.5016 -2.49105,-3.0045 -1.19178,-1.1225 -2.98004,-2.3542 -2.65524,-1.8838 -2.294,-1.6121 -2.6009,-1.9561 -5.54809,-1.7972 -0.50633,0.072 -8.19195,1.4175 5.9e-4,-0.452 -0.50217,-3.0923 -0.50335,-2.1883 0.14866,-3.0552 -0.0543,0.072 2.46353,-3.5766 2.53579,-3.5222 4.54614,-6.1953 2.89762,-3.7025 4.96171,-5.9959 0.21674,0.163 0.9219,0.1277 0.72306,0.091 1.51778,0.689 0.79472,0.5977 1.20554,4.4131 0.42873,3.9419 0.11826,6.3099 0.90339,0.4532 2.98064,1.9023 0.15944,2.4952 1.98294,4.4321 0.39706,0.5249 1.68019,0.9243 1.35538,0.4538 1.78886,0.7798 0.28899,0.2173 0.4514,0.4526 l -0.54334,0.7224 q 0.50573,0.3804 2.18592,1.3046 1.26462,0.7249 1.80618,1.3584 4.33899,0.096 14.53773,-1.2826 1.46226,1.6652 0.64369,5.4609 -0.74633,3.85 -2.91969,6.7398 -1.08668,1.445 -7.2366,3.6065 -0.44418,7.8098 -3.92156,12.4336 -2.60803,3.4679 -10.18676,6.0252 -2.7639,-1.7393 -6.55837,-3.4618 -1.37388,-0.1284 -3.92223,-0.8007 -2.63791,-1.3052 -7.6773,-4.982 -5.25614,-3.8398 -8.05646,-5.3802 -1.12013,-0.6162 -3.07377,0.1767 -1.93573,0.9195 -3.69055,1.7489 z"
               style="font-family:'Love Letter Typewriter';-inkscape-font-specification:'Love Letter Typewriter, Normal'"
               id="path836" />
            <path
               d="m 81.112767,1926.546 q -0.630302,-0.7691 0.240329,-9.5472 3.162047,1.1487 6.029724,0.084 0.231281,2.8493 2.700977,5.1497 0.267054,-0.1019 2.150091,0.3418 1.386782,0.266 2.15588,-0.3643 0.699179,-0.573 0.539897,-0.91 -0.229201,-0.2797 0.400061,-0.7954 0.769098,-0.6303 1.69169,-0.2176 1.546064,0.603 2.449209,0.5641 1.496185,-6.0181 3.078025,-8.3664 -0.70705,-1.2906 -1.13547,-4.0952 0.86796,-4.2176 -1.424044,-7.0144 -0.401101,-0.4894 -1.273221,-1.4109 -0.814821,-0.8517 -1.273222,-1.411 -0.458401,-0.5594 -2.730961,-2.9045 -2.756197,-2.6501 -3.685617,-3.6415 -7.739821,0.9667 -10.396705,3.1441 -0.559344,0.4584 -0.939959,1.7053 -0.450533,1.3043 -1.21963,1.9346 -1.118688,0.9168 -3.154179,0.7149 -0.628222,1.8005 -1.248575,5.4646 0.535148,1.0808 1.039271,3.1221 l -4.780699,2.866 q -0.229201,-0.2796 0.06888,-1.3421 0.335932,-1.4441 0.424257,-2.3346 -1.113939,-1.074 -2.158999,-3.4901 -1.114979,-2.3588 -1.275301,-3.9806 0.489426,-0.4011 0.875829,-2.354 0.551476,-2.322 0.938919,-2.9902 1.244866,-2.189 5.370028,-5.5697 8.180406,-6.7041 17.423689,-4.6953 8.238149,1.7806 14.483869,9.4016 0.6303,0.7691 2.13377,3.7446 1.92401,3.9164 2.18527,4.5205 0.15928,0.3369 -0.18927,1.9082 -0.34855,1.5713 -0.1572,2.2327 0.69547,2.7026 2.49909,7.1852 -0.4826,0.9799 -1.5808,3.6331 0.071,1.2275 -0.13092,3.2629 -1.54191,4.5363 -5.59715,7.8597 -0.69918,0.573 -5.37998,1.1365 -4.680795,0.5635 -5.379974,1.1365 -0.769098,0.6303 -0.959406,1.2538 -0.190307,0.6234 -0.400061,0.7953 -1.730583,-0.6855 -3.678788,-3.0627 0.2292,0.2797 -3.504809,-0.2834 -3.676709,-0.4931 -5.223813,-2.3809 z"
               style="font-family:'Love Letter Typewriter';-inkscape-font-specification:'Love Letter Typewriter, Normal'"
               id="path838" />
            <path
               d="m 21.782234,1934.5857 q -1.763484,-2.8421 0.186423,-7.2436 1.573714,-3.6361 3.72447,-4.9706 0.614502,-0.3813 3.758284,-0.6298 3.143782,-0.2485 4.21916,-0.9158 0.768127,-0.4766 3.157631,-4.5126 2.389503,-4.0359 3.15763,-4.5125 7.297208,-4.5279 13.724987,-3.9417 6.398629,0.7107 10.25923,6.9326 1.239205,1.9971 0.978739,8.4355 -0.297487,6.0359 1.640903,8.1311 1.95457,0.064 3.985952,0.08 1.273896,0.167 2.417778,2.0105 0.476617,0.7682 0.743638,4.1132 0.417877,4.1026 0.671927,5.5408 -1.030486,1.5968 -1.377528,2.2377 -0.906011,1.6261 -1.189651,3.3979 -5.927988,4.8485 -6.235239,5.0391 -5.991392,3.7176 -10.750572,2.7344 -4.835993,-0.9356 -11.858887,-7.1102 0.116604,-0.4979 0.540458,-1.1865 0.423855,-0.6885 0.540459,-1.1864 -0.590452,-1.123 -3.609759,-0.8454 -0.142985,-0.2304 -1.400701,-2.4288 -1.371551,-2.5534 -2.515432,-4.3969 -5.671747,-9.1407 -8.667443,-7.2819 -1.382629,0.8579 -0.938371,5.6888 -1.207723,0.1111 -2.80461,-0.9194 -1.596888,-1.0305 -2.359476,-2.2595 z m 31.819692,12.704 q 0.497898,0.1166 2.749078,0.3156 1.379859,-0.01 1.684341,0.657 -0.762588,-1.229 1.004104,-2.3252 0.84494,-0.5243 1.880527,-0.7413 0.958774,-0.1694 1.573276,-0.5507 0.921752,-0.5719 2.174806,-2.8388 1.541794,-2.6589 2.090123,-3.3183 l -2.097117,-3.3797 q -1.68434,-0.6571 -3.368681,-1.3142 -2.057763,-0.7445 -3.056329,-0.1249 -0.691314,0.429 -2.452906,2.9051 -1.838404,2.5237 -2.558869,3.0771 -0.01618,2.0314 -0.06151,4.1873 0.0023,2.2326 0.439157,3.451 z m -11.694183,-10.6168 q 2.23267,0 5.670293,0.7371 0.709825,-0.2277 0.839839,-1.9041 l 3.069739,-1.0537 q 0.921752,-0.5719 1.019846,-1.2711 0.145755,-0.6224 0.174905,-0.7469 0.02682,-2.3571 0.06661,-2.8073 0.06384,-1.9546 0.622811,-2.9398 1.260924,-1.7398 2.521848,-3.4797 1.184112,-1.6922 -0.674696,-4.6879 -0.905573,-1.4595 -5.341762,-1.5793 -4.388526,-0.043 -6.385657,1.1962 -2.534819,1.5729 -3.099328,4.2636 -0.914321,4.1845 -1.743519,5.7629 0.190647,0.3072 0.778329,2.2831 0.378524,1.4673 1.085579,2.0924 1.702852,0.8584 1.798175,1.012 -0.159165,1.801 -0.403013,3.1225 z"
               style="font-family:'Love Letter Typewriter';-inkscape-font-specification:'Love Letter Typewriter, Normal'"
               id="path840" />
            <path
               d="m -34.467286,1957.3723 q -0.271233,-0.8671 -0.01189,-5.7926 0.796178,-0.4375 3.363319,-2.0228 2.234493,-1.4436 3.149272,-1.8334 0.665294,-0.2835 4.133522,-1.3685 3.503667,-1.0018 5.000579,-1.6397 1.089159,1.4029 3.256604,3.722 -4.306889,4.8816 -4.420252,8.0743 -0.0151,1.5787 2.11127,6.5684 0.212637,0.499 3.004301,5.2052 3.052023,5.0865 4.23381,7.6291 2.2548321,0.2183 6.5490426,1.5327 0.5698495,-0.046 2.2330844,-0.7551 1.91272028,-0.8151 1.86640678,-1.3849 -0.10350101,-1.6264 0.09967074,-2.3026 1.08532898,-2.526 2.17065798,-5.0521 1.4193847,-3.3563 1.5299294,-5.1722 0.062822,-1.6972 -0.6568415,-3.8471 -0.4715875,-1.5678 -1.4052972,-3.5283 -1.3589838,-2.9584 -1.1817863,-2.5426 -1.27582201,-2.9938 -3.9082063,-4.3286 -0.474405,-0.1909 -7.8045256,-2.8647 0.226328,-0.3913 1.109894,-2.9296 0.6572379,-2.1471 1.6551789,-2.5724 -0.083162,0.035 3.9208849,-1.8674 3.95632451,-1.7843 7.0333092,-3.0955 4.3598505,-1.7597 7.2936685,-2.7152 0.1063185,0.2495 0.7347645,0.5713 0.580723,0.4403 0.970558,1.3551 0.389834,0.9148 -1.160434,4.4251 -1.5979914,3.6289 -3.0499982,5.5251 0.556158,0.8439 1.6316258,3.137 -1.1084858,2.2412 -0.496549,4.8301 0.081753,0.653 0.9937148,1.64 0.9474016,1.0703 1.1600386,1.5692 0.141758,0.3327 0.164914,0.6176 l -0.8316171,0.3544 q 0.2480761,0.5821 1.2417911,2.2222 0.733356,1.2597 0.885988,2.0791 3.710669,2.251 13.234209,6.1519 0.434739,2.1731 -2.170658,5.0521 -2.569958,2.9622 -5.896428,4.3798 -1.663235,0.7088 -8.07052,-0.4913 -4.28655,6.5434 -9.60890191,8.8116 -3.99176399,1.7011 -11.83454709,0.13 -1.525307,-2.8875 -3.951702,-6.2753 -1.126007,-0.7976 -2.997653,-2.6532 -1.633035,-2.4485 -4.161522,-8.1512 -2.634806,-5.9522 -4.290997,-8.6857 -0.662476,-1.0934 -2.750985,-1.3825 -2.136232,-0.1706 -4.0707,-0.3288 z"
               style="font-family:'Love Letter Typewriter';-inkscape-font-specification:'Love Letter Typewriter, Normal'"
               id="path842" />
            <path
               d="m -117.90935,1992.6128 q -0.525,-3.3948 0.49083,-5.107 1.25621,-1.9322 1.23502,-2.6607 -0.49644,-2.0271 -0.56832,-6.0408 0.74596,-4.0487 5.46415,-8.4373 4.7182,-4.3886 8.20231,-4.9274 0.89336,-0.1382 1.18256,0.5489 0.2892,0.6871 1.18257,0.5489 0.268,-0.042 4.411542,-1.0481 4.068017,-0.9036 6.56943,-1.2904 1.786724,-0.2764 2.96191,-0.3666 3.553191,-0.092 6.330923,1.3077 0.133589,3.8212 2.657336,23.0976 1.246136,2.7344 1.170616,2.8375 -0.670437,3.9456 -0.325038,6.179 l 1.107041,0.652 q 0.414478,2.6801 0.824386,8.288 0.08477,2.9141 3.050415,7.3035 0.722065,0.5286 2.516164,0.8915 2.639573,0.5065 3.02455,0.6299 1.266392,2.2739 4.201605,2.9177 2.564053,0.6096 2.81274,2.2177 0.276319,1.7867 -0.834359,5.2515 -1.608051,0.2487 -5.126235,1.1587 -3.518184,0.9099 -4.322209,1.0343 -0.71469,0.1105 -2.24078,-0.2938 -1.244267,-0.3564 -1.931324,-0.067 -1.319786,-0.2533 -2.659829,-0.046 -0.303016,-0.7764 -0.482623,-1.9378 -0.234872,-1.5187 -0.278189,-4.1647 -0.04332,-2.646 -0.140029,-3.2714 -0.386847,-2.5014 -3.46853,-5.8667 -3.157203,-3.2621 -5.625479,-4.4354 -0.459562,1.1688 -2.575063,2.868 -3.090825,2.4904 -3.887475,3.2539 -4.186855,-1.6393 -8.523816,-1.8833 -0.4338,-1.0306 -2.71696,-2.7814 -1.09967,-0.013 -3.49886,-0.7395 -0.26157,-0.5084 -0.53696,-1.1061 -0.7018,-0.9891 -2.61931,-0.967 -0.96338,-1.4975 -3.86639,-4.8904 -1.67162,-1.9369 -1.94794,-3.7236 -0.20724,-1.34 0.12798,-3.3128 -0.10316,-0.075 -0.6051,-0.3638 -0.57747,-0.1851 -0.74326,-1.2571 z m 6.01035,-4.314 0.93949,6.0748 q 3.47123,0.5609 5.5859,6.5454 0.41905,-0.2477 1.0444,-0.3444 1.87606,-0.2901 5.348227,1.4597 3.382829,1.7637 3.650838,1.7222 0.982698,-0.152 4.231938,-2.2095 3.551321,-2.4701 4.849916,-2.9454 -0.290135,-1.8761 -0.537887,-2.2951 0.940315,-1.609 1.894447,-3.1286 0.50745,-1.4506 -0.58401,-8.5082 -1.091459,-7.0575 -4.048799,-9.6188 -3.590068,-3.1037 -11.98767,-1.805 -1.60805,0.2487 -5.43195,5.6881 -2.17627,3.0808 -4.42806,6.2647 0.0764,1.0858 -0.52678,3.1001 z"
               style="font-family:'Love Letter Typewriter';-inkscape-font-specification:'Love Letter Typewriter, Normal'"
               id="path844" />
            <path
               d="m -167.3217,1997.741 q -0.0413,-1.8979 1.00392,-3.7291 1.31044,-2.1081 3.20835,-2.1494 -0.90377,0.02 4.07089,0.092 3.16516,0.022 4.96679,-0.2889 0.17879,-0.094 1.45979,0.6012 1.1926,0.7878 2.18674,0.7662 0.81339,-0.018 2.33407,-0.7741 1.4303,-0.7545 2.33407,-0.7741 0.90377,-0.02 4.53457,0.6247 3.6308,0.6444 4.53457,0.6247 1.1749,-0.026 1.92931,-2.7546 0.49705,-2.0904 0.47543,-3.0846 -0.0826,-3.7958 -6.6644,-7.0886 -5.5759,-2.7721 -8.73909,-2.7033 -0.81339,0.018 -3.51683,0.4382 -2.70344,0.4205 -3.786,0.5344 -0.33988,1.002 -2.25936,4.2085 -1.39689,2.2908 -1.08251,4.2732 -4.96286,0.4697 -7.15943,-0.7484 2.04525,-1.5817 2.32616,-5.295 0.69353,-1.3713 3.48341,-1.9745 1.07076,-0.6563 1.46564,-3.287 3.65434,-2.4304 7.30671,-4.9512 0.80553,-0.3792 4.87248,-0.4677 0.54226,-0.012 1.71323,-0.2181 0.99218,-0.112 1.53641,-0.033 0.81535,0.073 1.36351,0.332 3.10623,1.4696 8.78627,4.8724 0.18468,0.1768 1.7663,2.2221 1.393,1.6877 2.48736,2.1159 4.21449,15.0084 4.30492,19.1658 0.0197,0.9037 -0.6601,2.9078 -0.76818,2.0963 -0.8448,2.7309 -2.50499,1.23 -3.82526,2.8862 -0.36539,3.9864 -4.09241,7.2322 -10.24791,2.7547 -13.68223,2.8294 -1.1749,0.025 -4.09055,-0.9961 -2.91368,-0.9312 -4.74677,-2.0668 -1.92151,-1.0433 -3.6053,-3.6288 -0.93719,-1.5167 -2.74478,-5.6367 0.24558,-1.1808 -0.0432,-1.9883 -2.19657,-1.2181 -2.67204,-2.2928 -0.19059,-0.448 -0.2358,-2.5266 z m 11.15184,9.7036 q 2.64058,0.8467 7.52093,0.7406 0.27113,-0.01 9.64673,-1.2949 1.4794,-2.6544 3.56195,-6.6781 -0.6464,-0.6189 -2.29284,-1.4873 -1.43817,0.393 -2.70345,0.4205 -2.34979,0.051 -4.36757,-1.2613 -2.01778,-1.3124 -1.9274,-1.3144 -0.99415,0.022 -2.95885,1.1494 -1.9647,1.1278 -2.77809,1.1455 -0.81339,0.018 -2.18477,-0.6758 -1.46176,-0.6916 -1.64251,-0.6877 -0.41257,1.8174 -0.16301,4.9767 0.3046,5.6898 0.28888,4.9668 z"
               style="font-family:'Love Letter Typewriter';-inkscape-font-specification:'Love Letter Typewriter, Normal'"
               id="path846" />
            <path
               d="m -263.70523,1957.1016 q 2.10115,-1.1025 3.51226,-0.7851 0.88194,0.1984 6.60574,1.1153 5.7238,0.9169 6.60575,1.1153 3.175,0.7142 5.06028,3.4547 l -0.71419,3.175 q -1.29188,2.8597 -7.81827,1.3917 -0.571,0.8908 -0.90826,2.3901 -0.23806,1.0583 -0.5268,2.7538 -0.30858,1.7838 -0.40778,2.2247 -0.2579,1.1466 -0.24238,2.7252 -0.004,1.6669 -0.10351,2.1078 -0.27774,1.2348 -1.68217,2.1234 2.07483,1.4859 2.23806,2.8198 0.17423,0.8732 -0.39893,2.5974 -0.66136,1.7043 -0.45845,2.8619 0.0684,0.108 3.63601,4.4315 1.53466,1.8277 3.56314,2.284 1.32291,0.2976 1.62717,0.1807 0.58869,-0.1456 1.73953,-1.5545 0.28443,-0.029 0.7034,0.9921 0.58436,1.5213 1.06285,2.2776 1.0605,-0.5954 2.14515,-2.9458 0.549,0.031 3.35571,-0.913 0.48712,-2.5775 2.00822,-6.8682 0.44313,-0.7342 2.19366,-2.7495 1.45511,-1.5258 1.67334,-2.496 0.2579,-1.1465 -0.43666,-1.766 -0.48949,-0.2954 -0.97898,-0.5909 2.5266,-2.582 2.63659,-7.1901 -1.22156,-1.5719 -5.84303,-4.094 l -1.90492,1.054 q -0.7034,-0.9921 -0.28699,-6.5506 5.1196,-0.5162 6.7071,-0.1591 0.0882,0.02 4.28185,1.1485 4.10546,1.1088 7.19227,1.8032 4.58611,1.0316 7.46785,1.4018 l -0.7142,3.175 q -1.66901,0.8291 -4.72478,3.2921 -0.78491,0.1941 -1.56982,0.3882 -1.26556,0.2712 -2.12766,-0.015 -0.49165,0.538 -2.06579,2.593 -1.06265,1.4288 -2.49576,2.033 l -4.99935,22.225 q 1.72205,1.4066 1.40463,2.8177 -0.23806,1.0584 -1.60281,1.7706 1.59202,2.3966 0.97506,9.6703 2.14319,1.594 6.54427,5.9197 l -1.74816,4.8882 q 0.13887,-0.6174 -0.56669,-0.7761 -0.35277,-0.079 -1.29424,-0.013 -1.02965,0.046 -1.38243,-0.033 -0.68572,-0.2469 -2.7737,-0.4387 -2.10783,-0.1035 -2.90158,-0.282 -0.97014,-0.2182 -2.604,-1.605 -1.40895,-1.1508 -2.8179,-2.3017 0.66136,-1.7044 -1.16441,-4.7094 3.27851,-1.3937 3.91335,-4.2159 0.79355,-3.5278 -0.74328,-4.5221 -1.55666,-0.9061 -0.89982,-4.6499 -0.42998,-0.56 -2.01748,-0.9171 -2.64583,-0.5952 -3.49242,0.6969 -1.28971,2.0263 -2.2025,2.3769 0.45629,-2.0284 -1.48399,-2.4649 -0.79375,-0.1785 -2.3834,0.2978 -1.19721,0.3793 -2.41425,0.8468 -1.83245,-4.2112 -6.17166,-5.9285 -1.2304,-1.9446 0.066,-2.7649 -3.41131,-7.9019 -3.2748,-11.3922 0.95441,-5.0667 1.82063,-10.1533 0.43214,-0.2734 0.71872,-1.1355 0.19838,-0.882 0.63052,-1.1554 -0.16539,-0.5005 -0.0662,-0.9415 0.11903,-0.5291 0.84659,-1.292 0.96345,-0.9879 1.2192,-1.301 -1.94696,-1.6425 -8.92984,-4.7884 l -0.7034,-0.9921 z"
               style="font-family:'Love Letter Typewriter';-inkscape-font-specification:'Love Letter Typewriter, Normal'"
               id="path848" />
            <path
               d="m -315.52396,1996.4595 q 1.00062,-2.6176 4.1569,-4.7983 3.124,-2.0963 4.81278,-1.4507 0.84439,0.3228 2.2974,3.1041 1.81814,3.5984 2.19566,4.1298 -3.58288,9.3727 -6.62269,8.2107 l -6.924,-2.6468 q -0.40023,-5.2822 0.084,-6.5488 z m 8.01001,-53.3596 q 3.90126,-2.8637 4.21913,-2.9357 0.78474,-0.2807 3.90899,0.9136 3.37756,1.2911 4.54989,3.2877 l 2.20523,-0.7055 1.16742,2.769 q 1.99659,-1.1724 2.31446,-1.2444 0.31788,-0.072 1.92222,0.5412 0.0844,0.032 3.40984,1.2067 3.27324,1.0577 5.60525,2.046 3.37756,1.2911 5.35943,2.4358 -0.37495,0.7277 -0.58567,5.5828 -4.19949,-0.1537 -7.073,-2.5102 -0.93374,0.4173 -1.92455,1.4902 -1.10752,1.1251 -1.52223,1.4504 -4.56204,0.2884 -4.87475,2.8787 -1.05795,-0.017 -3.08191,0.4671 l -3.51832,9.2039 q 0.81469,1.6663 2.16571,2.1827 -0.0968,0.2533 -0.67293,1.0009 -0.60838,0.832 -0.96344,1.7608 -0.32278,0.8444 -0.25565,1.9346 -0.0496,1.1424 -0.15881,1.6813 0.33284,0.9015 1.23688,1.8277 1.59944,1.3857 1.6516,1.5024 -1.0577,3.2732 0.37776,3.822 1.9421,0.7424 3.24588,0.3697 0.90146,-0.3328 1.75075,-0.7824 0.87667,0.2384 3.08731,5.3417 -0.29051,0.7599 -2.1381,1.7956 -2.9626,1.6741 -3.37731,1.9995 -0.91901,-1.8998 -3.5219,-5.2175 -1.74585,0.01 -3.99318,2.3447 -0.20864,-0.4669 -0.37261,-1.3038 -0.16397,-0.8369 -0.37261,-1.3038 -0.52652,-0.3948 -2.72169,2.0565 l -2.11097,-0.8069 q -0.84439,-0.3228 -1.30144,-1.6589 -0.54149,-1.3683 -1.38588,-1.6911 -1.51991,-0.581 -3.38738,0.2536 0.82401,-6.4595 3.69677,-13.9745 0.7424,-1.9421 2.3638,-5.6773 1.50468,-3.6831 2.2148,-5.5407 1.67847,-4.3909 2.49525,-8.0465 -0.96627,-2.7889 -4.56487,-4.2613 -4.66403,-1.9764 -5.62023,-3.0194 1.26659,0.4842 2.31704,0.015 0.63317,-1.4031 -1.76598,-3.4816 z"
               style="font-family:'Love Letter Typewriter';-inkscape-font-specification:'Love Letter Typewriter, Normal'"
               id="path850" />
            <path
               d="m -358.28543,1911.556 q 3.95977,1.0628 8.38473,3.5218 1.34329,0.7465 2.08052,3.328 0.96549,2.9151 -0.41324,4.8379 -1.20286,-0.2548 -4.10041,0.3068 -3.59131,1.6239 -4.3817,3.0462 -0.96604,1.7384 -0.32543,4.6798 -3.4949,3.1254 -6.17356,8.8761 1.72947,2.0987 0.6667,5.1278 -1.19439,2.3354 -2.26585,4.6357 0.4741,0.2635 1.60664,1.2031 1.08863,1.0186 1.95782,1.5016 0.63214,0.3513 4.67983,0.3255 9.08894,-11.703 10.49408,-14.2316 0.21955,-0.3951 0.8255,-1.2994 0.56203,-0.8252 0.82549,-1.2994 2.63464,-4.741 -2.11453,-12.7579 l 1.97597,-3.5558 q 0.31607,0.1757 1.12352,3.003 4.52202,-1.6238 7.12958,-0.1748 l 19.9123,11.0655 q 0.86919,0.483 2.3265,2.327 2.423,2.8978 2.45811,3.0207 l -2.67854,4.8201 q -4.44268,-1.1244 -8.39463,5.9871 -0.61475,1.1063 -1.45785,2.8095 -0.88702,1.7823 -1.10657,2.1774 -3.20547,5.7682 -4.63702,8.9026 -0.13184,1.1678 1.23753,4.1005 -0.37769,1.238 -0.57094,1.958 -0.21967,1.3258 0.0612,2.3092 l -0.35128,0.6321 q -0.48302,0.8692 -1.41383,1.7998 -0.97473,1.0096 -1.2821,1.5627 -3.79282,-2.1077 -11.72975,-5.6909 -7.98083,-3.5043 -8.21788,-3.636 -0.79017,-0.4391 -4.03846,-3.8989 -3.24828,-3.4598 -4.03845,-3.8989 -0.39509,-0.2196 -3.13449,-0.5009 -2.73941,-0.2813 -4.24073,-1.1156 -2.68658,-1.4929 -3.49425,-2.4589 -1.53632,-1.8879 -1.89586,-5.7073 0.4128,-1.1151 1.28232,-3.4242 -0.21064,-0.7376 -0.5003,-1.519 -0.31595,-1.1064 0.21097,-2.0546 l 13.43663,-24.1792 q 0.48302,-0.8692 0.044,-1.0097 -0.43899,-0.1406 -0.5004,-0.5884 0.20205,-0.9219 2.1689,-1.4836 -0.10532,-0.3688 -0.65833,-1.6068 -0.63203,-1.282 -0.77246,-1.7737 z m 11.0328,33.7438 q 0.94821,0.5269 1.39568,3.2576 -1.22081,2.9412 -2.48552,5.9615 -1.6073,4.3811 1.31633,6.0058 1.26428,0.7026 5.13633,0.9928 3.79304,0.2463 5.47892,-0.3681 1.51057,-3.0905 5.19014,-8.5953 3.94304,-5.9789 3.89913,-5.8998 1.49296,-2.6866 1.44948,-6.3304 -0.16629,-4.5394 -3.485,-6.3837 -0.86919,-0.483 -3.95118,0.5966 -3.12591,1.1586 -4.05662,1.1585 -2.88027,2.9499 -6.33159,8.7883 -1.26439,0.2281 -3.5561,0.8162 z"
               style="font-family:'Love Letter Typewriter';-inkscape-font-specification:'Love Letter Typewriter, Normal'"
               id="path852" />
            <path
               d="m -400.06998,1895.0303 q 4.16434,-5.4643 8.36231,-5.9021 3.69119,-0.3694 8.29273,3.1374 0.50329,0.3836 1.5612,1.5308 1.0579,1.1472 1.77689,1.6951 0.64709,0.4932 1.27707,0.8596 0,0 1.31825,0.209 1.19155,0.2262 1.98244,0.8289 0.71899,0.5479 2.36223,3.1641 1.64324,2.6162 2.36223,3.1642 1.00659,0.7671 5.55014,2.4112 0.325,2.4071 -3.01743,6.793 -5.69856,7.4775 -8.57452,5.2857 -0.86279,-0.6575 -1.99578,-3.7941 -1.02688,-2.8284 -1.28346,-4.7288 -0.0171,-0.1267 0.12727,-4.7903 0.0997,-3.561 -0.76306,-4.2185 -2.15697,-1.6438 -7.91614,-2.7368 -0.0104,1.3559 -1.23648,3.263 -1.50002,2.2665 -1.77747,3.078 2.73855,5.9514 8.15098,14.5088 3.19748,5.0509 2.85133,7.7422 -0.40443,3.2151 -5.77423,10.2612 -1.80819,2.3727 -7.44067,1.2626 -4.56761,-0.8668 -6.07749,-2.0175 -0.1438,-0.1096 -6.77213,-5.7293 -6.68313,-5.5478 -10.13428,-8.1779 2.54138,-6.0192 3.91123,-7.8167 0.49314,-0.6471 3.34909,-2.9032 2.78406,-2.3109 3.71555,-3.5332 -0.0994,1.1745 1.14662,3.7153 1.38638,3.1024 1.66006,5.1294 -0.13713,1.3731 -0.27425,2.7461 -0.18178,2.4756 0.54736,4.0542 0.65724,1.5238 2.50603,3.2737 2.53009,2.4965 3.0676,3.1334 2.14015,-0.8695 3.78396,-3.0264 0.65753,-0.8628 0.86308,-1.7291 0.13365,-0.921 0.18844,-0.9929 -0.0649,-0.9588 -1.03036,-2.3765 -1.14343,-1.7806 -1.33854,-2.2703 -0.19511,-0.4897 0.19192,-1.4449 0.26034,-0.9382 0.13713,-1.3731 -5.82034,-4.8902 -7.64131,-10.256 -1.99549,-6.1807 2.00446,-11.4293 z"
               style="font-family:'Love Letter Typewriter';-inkscape-font-specification:'Love Letter Typewriter, Normal'"
               id="path854" />
            <path
               d="m -446.22039,1870.1797 q 1.33212,-1.3525 3.37367,-1.8794 2.42505,-0.5297 3.77754,0.8024 -0.64404,-0.6344 2.77131,2.9834 2.1907,2.2846 3.66909,3.3601 0.19224,0.062 0.58642,1.4657 0.26634,1.4043 0.97478,2.1021 0.57963,0.5709 2.18198,1.1341 1.53794,0.4997 2.18198,1.1341 0.64404,0.6343 2.71272,3.6869 2.06868,3.0526 2.71272,3.687 0.83725,0.8246 3.31993,-0.5366 1.84542,-1.1006 2.54321,-1.8091 2.66425,-2.705 0.43769,-9.7196 -1.89873,-5.9305 -4.15287,-8.1507 -0.57964,-0.5709 -2.7655,-2.2163 -2.18586,-1.6454 -3.02214,-2.3422 -0.9554,0.4547 -4.5925,1.3132 -2.61633,0.5952 -3.81868,2.2024 -3.79596,-3.2313 -4.45357,-5.6554 2.55968,0.3641 5.41812,-2.0227 1.46676,-0.4586 3.84389,1.1215 1.21689,0.3104 3.37851,-1.2402 4.28987,0.9263 8.64317,1.7882 0.83337,0.3133 3.73155,3.1679 0.38643,0.3806 1.35055,1.0765 0.77188,0.6333 1.09487,1.0783 0.5162,0.6354 0.71232,1.2092 1.11134,3.2516 2.63043,9.6963 0.002,0.2557 -0.36219,2.8154 -0.2392,2.1752 0.21648,3.2584 -7.82423,13.4832 -10.74223,16.4458 -0.63435,0.644 -2.54514,1.5534 -2.03864,0.9104 -2.54708,1.2978 -2.62797,-0.9389 -4.73585,-0.7312 -3.11315,2.5166 -8.03833,2.1065 -9.11822,-5.4282 -11.56557,-7.8388 -0.83726,-0.8246 -2.13697,-3.6274 -1.36314,-2.7383 -1.82657,-4.8443 -0.59127,-2.1049 0.0891,-5.1145 0.43435,-1.7292 2.12867,-5.897 1.01786,-0.647 1.39556,-1.4169 -0.65761,-2.4241 -0.21841,-3.5141 0.18837,-0.4489 1.64737,-1.9302 z m 0.81506,14.76 q 1.23337,2.4837 4.71118,5.9091 0.19321,0.1903 7.65244,6.0147 2.93448,-0.7893 7.2713,-2.1007 -0.007,-0.8948 -0.53171,-2.6807 -1.2842,-0.7573 -2.18586,-1.6454 -1.6745,-1.6493 -2.13987,-4.011 -0.46536,-2.3616 -0.40096,-2.2981 -0.70844,-0.6978 -2.88655,-1.3205 -2.1781,-0.6228 -2.75774,-1.1937 -0.57963,-0.5709 -1.03822,-2.0376 -0.52298,-1.5302 -0.65179,-1.6571 -1.59071,0.9709 -3.68212,3.3519 -3.86758,4.1843 -3.3601,3.6691 z"
               style="font-family:'Love Letter Typewriter';-inkscape-font-specification:'Love Letter Typewriter, Normal'"
               id="path856" />
            <path
               d="m -457.98767,1814.5361 q 1.22307,1.5682 4.36634,4.2755 3.14327,2.7074 3.53243,3.2063 11.67474,14.9693 17.03735,23.1681 l -0.0856,1.2132 -3.77796,2.9464 q -1.55389,0.065 -3.79333,-2.6589 -2.07267,-2.5105 -5.1477,-1.6026 -0.61291,-1.8148 -3.2371,-7.6784 -0.38063,-0.047 -0.66576,0.1754 0.14257,-0.1112 -1.06786,1.8646 -3.62244,0.647 -5.11936,1.8145 -1.14052,0.8895 -1.04365,2.1896 0.0969,1.3001 -0.0457,1.4113 -1.35436,1.0563 -1.87039,0.5417 -0.58732,-0.4591 -1.22886,0.041 -1.06923,0.8339 -3.80796,4.231 -0.99932,-0.2524 -3.06924,-0.7016 0.90793,3.075 -3.36899,6.4107 -1.2118,0.9451 -3.03376,2.1368 -2.36084,1.3827 -2.5034,1.4939 -1.55252,1.0961 -3.02386,3.6194 -0.56888,1.4754 -1.03648,1.6108 -0.603,-0.3322 -2.45055,-0.4962 -0.89529,0.4689 -1.27181,3.514 0.72272,0.9266 1.86324,0.037 -0.30798,0.9281 -0.61595,1.8561 -0.42632,1.3643 0.24081,2.2197 0.55594,0.7128 0.84106,0.4904 0.28513,-0.2224 0.84107,0.4905 1.83461,2.3523 3.88717,7.6299 0.34209,0.8796 -0.16983,3.457 -0.66164,3.2674 -0.68449,3.9731 -4.28957,-0.2084 -5.90179,-2.2756 -0.11119,-0.1425 -4.52155,-7.7083 -4.53724,-7.5815 -7.20575,-11.0031 1.71077,-1.3342 5.97917,-5.1218 4.2684,-3.7875 6.54942,-5.5665 2.99385,-2.335 5.19644,-3.4796 0.26944,-0.096 0.93383,-1.3015 0.5931,-1.1504 1.30592,-1.7064 7.27078,-5.6706 9.17833,-8.0754 1.29024,-1.5795 2.28819,-2.3578 1.14051,-0.8895 2.13983,-0.6371 0.92804,0.3079 1.42702,-0.081 l 3.92051,-3.0577 q 0.13404,-0.5631 -0.69134,-1.1804 -1.06345,-0.7756 -1.11904,-0.8469 0.5532,-1.3485 0.72439,-3.7749 0.26533,-3.1876 -0.62417,-4.3281 -0.38916,-0.499 -2.16817,-2.78 -1.8346,-2.3523 -2.83529,-3.6354 0.17394,-0.3649 0.74419,-0.8097 0.35641,-0.2779 1.46555,-0.9137 1.05354,-0.707 1.6238,-1.1518 0.71282,-0.5559 1.10061,-1.0876 z m -5.87621,-0.9199 q 1.83049,-0.7397 3.64529,-1.3526 1.75921,-0.6842 2.95669,-0.4718 -4.23703,3.5338 -6.13164,3.7504 -0.0812,-1.427 -0.47034,-1.926 z"
               style="font-family:'Love Letter Typewriter';-inkscape-font-specification:'Love Letter Typewriter, Normal'"
               id="path858" />
            <path
               d="m -527.98832,1789.5129 q 3.40501,1.3716 6.56324,0.6926 -2.13735,2.8037 -1.80428,6.2666 -1.44125,0.9386 -4.62439,3.1987 -0.36252,1.3588 1.07395,5.6453 1.24301,3.7718 2.23923,5.4931 2.03772,3.5207 5.0518,3.1341 1.36704,-0.1646 4.1054,-1.7495 3.05131,-1.766 5.0898,-4.1992 -0.77409,-0.074 -1.4,0.2881 -0.31698,-0.5477 -1.44502,-1.7749 -1.25157,-1.2601 -1.74968,-2.1207 -0.45282,-0.7824 0.39548,-1.4823 0.8483,-0.6999 0.39547,-1.4822 -0.49811,-0.8607 -0.91396,-1.0378 -0.53937,-0.21 -0.62993,-0.3665 0.15647,-0.091 1.14892,-1.0828 0.86893,-1.0251 1.96428,-1.6591 1.19395,0.9801 1.90213,1.3014 1.721,0.9884 3.52451,0.6757 0.18113,0.313 -0.53157,3.2322 0.22641,0.3912 1.20226,0.4531 1.46993,0.1937 1.67169,0.1814 l -0.5273,1.9763 q 1.71698,0.2596 5.83068,-2.0168 -2.23597,1.1897 6.60501,-3.9273 0.23472,-0.1358 2.43773,-1.202 2.20301,-1.0661 3.68955,-1.9265 6.57206,-3.8038 5.12301,-6.3074 0.31698,0.5477 -1.57659,-3.2654 -1.15672,-2.3595 -2.45357,-3.6979 0.62616,-2.3469 1.95622,-3.1167 4.69433,-2.7169 10.30939,6.9847 0.45283,0.7824 4.75066,7.4862 4.29784,6.7039 4.75066,7.4863 0.67925,1.1736 -0.26818,4.2287 l -4.77256,2.7622 q -0.25107,-0.7947 -2.27672,-2.129 -2.02565,-1.3344 -3.92376,-1.907 -0.0865,0.5724 -0.94691,-0.9142 -0.5434,-0.9388 -0.24277,-1.3217 0.63422,-0.8893 0.63422,-0.8893 -2.05459,-0.482 -5.07722,2.4163 -0.29233,-0.1441 -1.7044,-2.0425 -1.09508,-1.3507 -1.87747,-0.8979 -0.86063,0.4981 -1.8078,1.5686 -1.44955,1.4656 -1.63899,1.6797 -0.18943,0.2141 0.11094,1.8159 -0.15648,0.091 -2.8249,2.1572 -1.89836,1.4121 -3.12955,1.8113 -1.05862,3.2239 -3.35219,4.1336 0.86011,3.4711 1.72023,6.9423 1.27973,6.3618 -0.67624,7.4938 -1.64301,0.951 -3.99394,-0.404 -1.88981,-1.0996 -2.65961,-2.4297 -0.45283,-0.7824 -0.13988,-0.9635 0.31296,-0.1811 -0.13987,-0.9635 -0.81509,-1.4083 -4.92828,-3.1011 -2.14942,0.6173 -6.22187,2.2432 -1.29282,-0.6095 -6.58387,-0.3673 -0.80704,0.049 -4.1791,-1.4458 -4.03496,-1.7381 -5.03118,-3.4593 -0.45282,-0.7824 0.0825,-1.3012 0.53535,-0.5187 0.0825,-1.3011 -0.45283,-0.7824 -1.441,-1.046 -0.98817,-0.2637 -1.441,-1.0461 -0.90565,-1.5648 -1.93055,-4.4183 -1.28829,-3.8501 -1.22213,-6.0818 0.13636,-3.7345 3.55875,-9.371 1.2971,-0.6463 4.11798,-3.5323 z"
               style="font-family:'Love Letter Typewriter';-inkscape-font-specification:'Love Letter Typewriter, Normal'"
               id="path860" />
            <path
               d="m -536.08612,1697.5007 q 3.89189,-1.1837 12.02879,-1.7688 3.03818,-0.2626 9.62111,4.9162 6.55662,5.0924 7.24054,7.341 0.23674,0.7784 1.08247,2.3164 0.81943,1.4516 1.08247,2.3164 0.39457,1.2973 0.0817,5.5499 -0.31287,4.2526 -1.09922,6.9484 -0.88798,3.2937 -3.07286,4.8086 -7.58132,5.5184 -11.64619,6.7547 -7.95675,2.42 -12.40861,2.0732 -6.87706,-0.554 -9.78691,-2.976 -1.14664,-0.9741 -2.7855,-3.8771 -2.24027,-3.9485 -2.57107,-4.4148 -0.3308,-0.4663 -1.70302,-1.5608 -1.09404,-0.8011 -1.40969,-1.8389 -0.97327,-3.2 0.41889,-8.2533 0.0941,-0.312 0.0909,-3.4291 -0.0107,-2.8314 0.49701,-3.6472 1.9031,-2.752 5.73521,-5.9963 4.62563,-4.0525 8.60401,-5.2625 z m 5.08236,6.7691 q -1.03783,0.3156 -1.45154,0.8194 -0.4137,0.5038 -0.65442,0.9549 -2.12071,0.1726 -5.03535,3.3268 -2.67391,2.703 -3.23069,4.2896 -1.44835,3.9365 -0.5803,6.7906 0.63131,2.0757 5.10468,8.0851 0.7182,-0.124 2.50412,0.4667 2.29727,0.7186 2.8951,0.8202 0.59783,0.1017 4.48972,-1.082 4.75676,-1.4468 6.35497,-2.4053 2.47064,-1.5073 6.22782,-6.2406 -0.045,-0.4587 0.18852,-2.7974 0.1395,-2.0267 -0.14985,-2.978 -0.26305,-0.8649 -0.76682,-1.2786 -0.50377,-0.4137 -0.76682,-1.2786 -0.31565,-1.0378 -0.0749,-1.489 0.15425,-0.4248 0.48146,-0.9023 1.51132,1.2411 3.32753,0.6887 0.77838,-0.2367 1.47785,-0.7329 l -1.1311,-3.719 q -2.19165,-2.5459 -5.0457,-1.6779 -1.72973,0.5261 -4.06885,2.4659 -8.10621,-2.7313 -10.0954,-2.1263 z"
               style="font-family:'Love Letter Typewriter';-inkscape-font-specification:'Love Letter Typewriter, Normal'"
               id="path862" />
            <path
               d="m -527.74158,1635.4527 q 0.90716,-0.049 5.61652,1.4171 0.22768,0.8795 1.13089,3.7583 0.84787,2.5215 1.00005,3.5042 0.11068,0.7146 0.30673,4.3433 0.10671,3.6425 0.35573,5.2505 -1.62816,0.7095 -4.41014,2.2381 -3.66858,-5.3778 -6.73476,-6.2751 -1.52618,-0.404 -6.88618,0.4261 -0.536,0.083 -5.78532,1.6277 -5.68215,1.7033 -8.43765,2.2215 -0.76764,2.1313 -3.10059,5.9687 -0.0957,0.5636 0.18103,2.3503 0.31819,2.0547 0.88186,2.1503 1.60168,0.3009 2.20685,0.6645 2.18036,1.6748 4.36072,3.3496 2.90253,2.2033 4.63504,2.7583 1.62935,0.4795 3.89035,0.3123 1.63567,-0.07 3.76583,-0.4917 3.20217,-0.5874 2.7555,-0.5182 3.216,-0.4981 5.15881,-2.7199 0.30199,-0.4127 4.70108,-6.857 0.32334,0.3159 2.56536,1.7982 1.91869,1.1665 2.0847,2.2385 -0.0138,-0.089 0.84273,4.2603 0.75339,4.2741 1.26527,7.5795 0.63006,4.6591 0.83244,7.738 -0.268,0.042 -0.73483,0.5712 -0.57,0.4541 -1.55266,0.6063 -0.98267,0.1522 -4.00221,-2.2159 -3.1227,-2.4437 -4.60223,-4.3185 -0.955,0.3309 -3.44249,0.8076 -1.89853,-1.627 -4.55837,-1.6725 -0.653,-0.082 -1.83449,0.5586 -1.27083,0.6541 -1.80683,0.7371 -0.35733,0.055 -0.63917,0.01 l -0.13834,-0.8934 q -0.62534,0.097 -2.45983,0.6554 -1.40167,0.4 -2.23333,0.3459 -3.09664,3.0408 -9.22587,11.3081 -2.21317,-0.1146 -4.36072,-3.3496 -2.23688,-3.2212 -2.79026,-6.7945 -0.27669,-1.7867 2.46657,-7.7 -5.28409,-5.768 -6.1695,-11.4853 -0.66406,-4.288 2.79268,-11.5011 3.1745,-0.766 7.05615,-2.2819 1.05066,-0.8945 3.31047,-2.2507 2.77566,-0.9787 8.92583,-2.0226 6.41816,-1.0855 9.47565,-2.0163 1.223,-0.3724 2.01831,-2.3251 0.69214,-2.0281 1.32262,-3.8638 z"
               style="font-family:'Love Letter Typewriter';-inkscape-font-specification:'Love Letter Typewriter, Normal'"
               id="path864" />
            <path
               d="m -523.32139,1587.2237 q 0.0114,1.9887 0.84844,6.0519 0.83699,4.0631 0.84063,4.6959 0.10929,18.9833 -0.64807,28.7508 l -0.80837,0.9087 -4.79103,0.028 q -1.27075,-0.8967 -1.38145,-4.4217 -0.10913,-3.2537 -3.09898,-4.4117 0.62236,-1.8116 2.1232,-8.0578 -0.27275,-0.2696 -0.63434,-0.2676 0.18079,-10e-4 -1.98404,0.8251 -3.26417,-1.6988 -5.1625,-1.6879 -1.44635,0.01 -2.16328,1.0972 -0.71693,1.089 -0.89772,1.09 -1.71754,0.01 -1.8121,-0.7128 -0.18496,-0.7221 -0.99853,-0.7174 -1.35595,0.01 -5.59887,1.0266 -0.63746,-0.8099 -2.00278,-2.4292 -1.15798,2.9898 -6.58178,3.021 -1.53674,0.01 -3.70731,-0.1594 -2.71398,-0.346 -2.89477,-0.3449 -1.89885,-0.08 -4.60451,1.0209 -1.35127,0.8213 -1.80429,0.6431 -0.27483,-0.6312 -1.63807,-1.8889 -0.99541,-0.1751 -3.15244,2.0069 0.007,1.1752 1.45312,1.1669 -0.81045,0.547 -1.6209,1.0941 -1.17047,0.8203 -1.16423,1.9051 0.005,0.9039 0.36679,0.9019 0.36159,0 0.3668,0.9019 0.0172,2.983 -1.57875,8.4162 -0.26598,0.9055 -2.24482,2.6345 -2.51862,2.1841 -2.96748,2.7291 -3.27041,-2.7836 -3.28551,-5.4051 -10e-4,-0.1808 1.12416,-8.8656 1.03428,-8.7747 1.0093,-13.1138 2.16952,-0.012 7.86243,-0.4068 5.69291,-0.3944 8.5856,-0.4111 3.79667,-0.022 6.23998,0.4161 0.27171,0.089 1.53414,-0.4608 1.17204,-0.5492 2.076,-0.5544 9.22047,-0.053 12.19939,-0.7934 1.98613,-0.4634 3.25168,-0.4707 1.44635,-0.01 2.08381,0.8016 0.54707,0.8104 1.17984,0.8068 l 4.97182,-0.029 q 0.4499,-0.3642 0.17299,-1.357 -0.36887,-1.2635 -0.36939,-1.3539 1.26139,-0.7305 2.87812,-2.5478 2.15599,-2.3628 2.14766,-3.8091 -0.004,-0.6328 -0.0203,-3.5255 -0.0172,-2.9831 -0.0265,-4.6102 0.36055,-0.1829 1.08372,-0.1871 0.45199,0 1.71858,0.171 1.26608,0.083 1.98925,0.079 0.90397,-0.01 1.5357,-0.1896 z m -4.09283,-4.3157 q 1.90145,0.5315 3.71303,1.1539 1.81106,0.5319 2.62983,1.4312 -5.51316,0.2126 -7.14602,-0.7724 0.8068,-1.1799 0.80316,-1.8127 z"
               style="font-family:'Love Letter Typewriter';-inkscape-font-specification:'Love Letter Typewriter, Normal'"
               id="path866" />
            <path
               d="m -512.55588,1567.3617 z m -44.85911,-41.3264 q 3.22612,0.4276 4.15466,3.7422 0.48586,2.5265 0.95984,5.1426 0.75903,0.4654 11.15756,5.947 2.43687,-0.4977 3.02854,-0.1458 0.006,0.6392 0.013,1.2784 0.22781,1.0333 1.01707,1.9586 6.79991,2.3602 13.37201,3.6871 0.46103,1.3378 2.45198,3.5166 0,0 7.11087,2.7662 l -1.65949,1.5126 -0.23754,1.7923 q 1.43384,0.19 4.57035,0.6057 3.238,0.338 4.67183,0.528 0.43728,1.517 2.35158,4.9623 1.25028,2.263 0.90586,4.8618 -0.48695,3.6742 -4.36737,6.8075 -3.77893,3.0555 -6.73621,2.6636 -1.16499,-0.1544 -2.36129,-2.1367 -1.09481,-2.0601 -0.91666,-3.4043 0.11876,-0.8961 1.79013,-2.4984 1.67137,-1.6023 1.79014,-2.4984 0.30879,-2.33 -2.00607,-6.1931 -0.7709,-0.3758 -5.07241,-0.9459 -3.94304,-0.5225 -5.32289,-0.4318 -1.20602,0.8432 -3.18834,2.0395 -3.28551,0.02 -10.10161,-0.1533 -1.17579,1.3032 -4.04238,2.2911 -4.30582,1.5267 -4.50881,1.6822 -5.26675,2.5847 -11.49766,9.6924 -0.57332,0.1975 -1.33775,0.461 -0.75254,0.1738 -1.82792,0.031 -1.07537,-0.1425 -1.92401,-0.6197 -0.92638,-0.5788 -1.10561,-0.6025 0.14252,-1.0754 -0.17059,-4.2173 -0.39085,-3.2434 -0.27208,-4.1395 0.095,-0.717 0.9307,-1.5181 0.84756,-0.8907 0.9782,-1.8765 0.11877,-0.8962 -0.57439,-1.1704 -0.69317,-0.2742 -0.5744,-1.1704 0.13064,-0.9857 0.46535,-0.759 0.68128,0.3638 0.89614,0.1188 0.17275,-0.6155 0.84001,-2.8979 0.70936,-1.9122 0.85188,-2.9876 0.11876,-0.8961 -0.67157,-3.1894 -0.79034,-2.2932 -0.67157,-3.1894 0.11877,-0.8961 0.85944,-0.9804 0.74067,-0.084 0.85944,-0.9803 0.17815,-1.3442 -1.51913,-2.2987 -0.12093,-1.8398 0.88859,-9.457 0.11877,-0.8962 1.69512,-1.7815 1.57636,-0.8854 1.69512,-1.7815 l -0.27748,-3.4108 q 1.11641,-0.8551 2.63986,-0.6532 z m 11.85071,21.3585 q -1.35502,1.2795 -2.34078,1.1488 -0.53769,-0.071 -2.14535,-1.0138 -1.59579,-1.0322 -3.20885,-1.246 -0.98576,-0.1306 -2.08489,-0.094 -0.12309,2.9929 -0.2343,5.8962 0.009,3.3751 2.59126,5.9059 0.0896,0.012 4.03158,-0.8335 3.17754,-0.5819 3.39132,-2.195 0.11877,-0.8962 -0.2818,-1.314 -0.15547,-0.203 0.25049,-0.5139 1.34422,0.1781 2.12916,3.2002 l 4.83919,0.6413 0.64134,-4.8392 q -2.56319,-0.6132 -5.10264,-1.4057 -2.62905,-0.8044 -2.47573,-3.3374 z"
               style="font-family:'Love Letter Typewriter';-inkscape-font-specification:'Love Letter Typewriter, Normal'"
               id="path868" />
            <path
               d="m -503.52802,1452.5892 q 6.41476,2.46 8.0152,6.3655 1.39229,3.4385 -0.67926,8.8404 -0.22657,0.5908 -1.03004,1.9286 -0.80347,1.3377 -1.12715,2.1818 -0.29131,0.7596 -0.46585,1.4672 0,0 0.17005,1.3239 0.11801,1.207 -0.23804,2.1355 -0.32367,0.844 -2.37231,3.1566 -2.04863,2.3125 -2.37231,3.1566 -0.45315,1.1816 -0.75344,6.0041 -2.21868,0.9887 -7.36736,-0.9857 -8.77809,-3.3663 -7.48337,-6.7425 0.38841,-1.0128 3.07991,-2.982 2.42559,-1.7807 4.17718,-2.5613 0.11677,-0.052 4.63281,-1.2247 3.44541,-0.9055 3.83383,-1.9184 0.97103,-2.5321 0.40064,-8.3663 -1.30417,0.3713 -3.47902,-0.2691 -2.59688,-0.8022 -3.45362,-0.8403 -4.94131,4.3013 -11.63173,11.9015 -3.94812,4.4886 -6.62816,4.9131 -3.19917,0.5159 -11.47083,-2.6562 -2.78535,-1.0681 -3.30371,-6.7855 -0.45238,-4.627 0.22734,-6.3995 0.0647,-0.1689 3.59409,-8.1099 3.44494,-7.9733 4.9986,-12.0248 6.49095,0.7465 8.60107,1.5557 0.75964,0.2913 3.72774,2.3977 3.00048,2.022 4.43535,2.5723 -1.15502,0.2347 -3.24299,2.1449 -2.58743,2.2028 -4.45579,3.0353 -1.3562,0.2545 -2.71241,0.5089 -2.42683,0.5217 -3.73672,1.6652 -1.27753,1.0592 -2.43705,3.3254 -1.68437,3.13 -2.14449,3.8249 1.43612,1.8093 3.96826,2.7804 1.01285,0.3884 1.90197,0.3421 0.92148,-0.1307 1.00588,-0.098 0.90182,-0.3319 1.99087,-1.6569 1.38733,-1.598 1.80238,-1.9229 0.41506,-0.3249 1.44061,-0.2221 0.97352,-0.014 1.35621,-0.2545 3.05652,-6.9605 7.69382,-10.2166 5.3703,-3.6528 11.53184,-1.29 z"
               style="font-family:'Love Letter Typewriter';-inkscape-font-specification:'Love Letter Typewriter, Normal'"
               id="path870" />
            <path
               d="m -490.74456,1402.6435 q 3.59068,1.9118 9.76277,7.2463 2.33577,1.9605 3.33597,10.2764 1.04269,8.2362 -0.0619,10.3108 -0.38237,0.7181 -0.8704,2.4041 -0.44555,1.6062 -0.87039,2.4042 -0.63727,1.1969 -3.86307,3.9855 -3.22579,2.7887 -5.68687,4.141 -2.95536,1.7037 -5.57192,1.2323 -9.26417,-1.4505 -13.01444,-3.4473 -7.34094,-3.9086 -10.2467,-7.2991 -4.47573,-5.2506 -4.82401,-9.0205 -0.12335,-1.4995 0.76775,-4.7119 1.20402,-4.3772 1.29934,-4.9409 0.0953,-0.5637 -0.10265,-2.3077 -0.20832,-1.3399 0.30149,-2.2974 1.57193,-2.9524 6.12724,-5.5452 0.28704,-0.1544 2.48696,-2.3627 1.99267,-2.0115 2.9284,-2.2301 3.29114,-0.6032 8.29524,-0.1919 6.13672,0.3998 9.80719,2.3541 z m -1.18526,8.3813 q -0.95751,-0.5099 -1.60621,-0.4456 -0.64869,0.064 -1.1378,0.2135 -1.62282,-1.3761 -5.91395,-1.2029 -3.80203,0.024 -5.31702,0.7535 -3.80612,1.7627 -5.20811,4.3959 -1.01963,1.915 -2.09922,9.3284 0.59586,0.4197 1.44253,2.0995 1.11817,2.1315 1.46948,2.6258 0.3513,0.4943 3.94198,2.4061 4.38861,2.3366 6.19689,2.7873 2.81346,0.6787 8.81647,-0.017 0.29222,-0.3564 2.10978,-1.8466 1.53051,-1.3358 1.99784,-2.2135 0.42485,-0.798 0.36058,-1.4466 -0.0643,-0.6487 0.36058,-1.4467 0.50982,-0.9575 0.99892,-1.1067 0.40932,-0.1917 0.97822,-0.2985 0.1928,1.9461 1.86845,2.8383 0.71813,0.3823 1.56372,0.5253 l 1.82684,-3.4311 q 0.24757,-3.3502 -2.38559,-4.7522 -1.59586,-0.8497 -4.62174,-1.1294 -3.8074,-7.6599 -5.64264,-8.637 z"
               style="font-family:'Love Letter Typewriter';-inkscape-font-specification:'Love Letter Typewriter, Normal'"
               id="path872" />
            <path
               d="m -421.00911,1350.2245 q -1.30142,1.5038 -3.34824,5.1122 -2.04681,3.6084 -2.4609,4.0869 -12.42271,14.3546 -19.42673,21.2045 l -1.20676,0.1512 -3.62282,-3.1353 q -0.36542,-1.5117 1.8733,-4.2367 2.06126,-2.5199 0.57456,-5.3607 1.6616,-0.953 6.90539,-4.6639 -0.0276,-0.3825 -0.30102,-0.6191 0.13671,0.1183 -2.03622,-0.6863 -1.33682,-3.4283 -2.77228,-4.6706 -1.09368,-0.9465 -2.35039,-0.5995 -1.25671,0.3471 -1.39342,0.2287 -1.29875,-1.1239 -0.89386,-1.7299 0.33653,-0.6652 -0.27866,-1.1976 -1.02533,-0.8873 -4.88874,-2.9157 0.0539,-1.0293 0.0934,-3.147 -2.84076,1.4867 -6.94207,-2.0627 -1.16204,-1.0056 -2.68425,-2.5621 -1.81403,-2.0481 -1.95074,-2.1664 -1.37631,-1.3106 -4.13683,-2.265 -1.55773,-0.2722 -1.7812,-0.7047 0.20903,-0.6559 0.0119,-2.5002 -0.63359,-0.7874 -3.69385,-0.5667 -0.76903,0.8887 0.32465,1.8351 -0.97013,-0.1222 -1.94026,-0.2445 -1.42102,-0.1538 -2.13089,0.6664 -0.59156,0.6836 -0.31814,0.9202 0.27343,0.2366 -0.31813,0.9202 -1.95214,2.2557 -6.73188,5.2922 -0.79663,0.5061 -3.4244,0.5034 -3.33368,-0.016 -4.03039,0.099 -0.62696,-4.2486 1.08856,-6.2309 0.11831,-0.1367 6.68588,-5.9298 6.55837,-5.9205 9.39785,-9.2016 1.64052,1.4197 6.18352,4.8731 4.543,3.4534 6.73037,5.3464 2.87091,2.4846 4.42072,4.4235 0.14591,0.2459 1.45782,0.6639 1.24355,0.3589 1.9271,0.9505 6.97223,6.0339 9.7012,7.4392 1.79959,0.9596 2.75656,1.7878 1.09369,0.9465 1.03977,1.9758 -0.12227,0.9701 0.35622,1.3842 l 3.75953,3.2536 q 0.5784,0.022 1.02405,-0.9071 0.55476,-1.1936 0.61391,-1.2619 1.43022,0.2813 3.84373,-0.021 3.17857,-0.3575 4.12507,-1.4512 0.41409,-0.4784 2.30707,-2.6658 1.95214,-2.2557 3.01695,-3.4861 0.39173,0.1 0.93857,0.5731 0.34178,0.2958 1.18044,1.2607 0.89781,0.8966 1.44465,1.3698 0.68356,0.5916 1.28035,0.8689 z m -0.2365,-5.943 q 1.08052,1.6524 2.03354,3.314 1.01216,1.5932 1.0358,2.8092 -4.28797,-3.4718 -4.86765,-5.2885 1.38422,-0.3562 1.79831,-0.8347 z"
               style="font-family:'Love Letter Typewriter';-inkscape-font-specification:'Love Letter Typewriter, Normal'"
               id="path874" />
            <path
               d="m -400.81698,1300.1527 q 2.71865,3.0261 6.69023,10.1519 1.52297,2.642 -0.38569,10.7975 -1.84141,8.0951 -3.58979,9.6659 -0.6052,0.5437 -1.6412,1.9606 -0.96876,1.3564 -1.64121,1.9606 -1.00867,0.9062 -4.99451,2.4213 -3.98583,1.515 -6.76126,1.9426 -3.36013,0.5884 -5.65695,-0.7507 -8.20696,-4.5359 -11.04645,-7.6965 -5.55814,-6.1865 -7.1268,-10.3673 -2.40658,-6.466 -1.44253,-10.1271 0.3977,-1.451 2.33521,-4.1639 2.63045,-3.7 2.91309,-4.197 0.28264,-0.497 0.69401,-2.2033 0.26321,-1.3302 1.07015,-2.0552 2.48807,-2.2353 7.65593,-3.111 0.32257,-0.047 3.14581,-1.368 2.56108,-1.2073 3.51511,-1.0922 3.29867,0.5606 7.8592,2.661 5.62857,2.4776 8.40765,5.5708 z m -3.98431,7.4684 q -0.72498,-0.807 -1.35644,-0.9688 -0.63147,-0.1618 -1.14211,-0.1891 -1.05331,-1.8487 -5.14419,-3.1558 -3.58025,-1.2798 -5.25349,-1.1133 -4.17967,0.3525 -6.39876,2.3462 -1.61389,1.4499 -5.1674,8.0451 0.41607,0.5984 0.63618,2.4665 0.32044,2.3856 0.48119,2.9704 0.16075,0.5847 2.87941,3.6107 3.3228,3.6985 4.86732,4.7413 2.41082,1.6013 8.28893,3.004 0.39665,-0.2348 2.61467,-1.0123 1.89547,-0.7307 2.63517,-1.3953 0.67245,-0.6041 0.83426,-1.2356 0.16181,-0.6315 0.83426,-1.2356 0.80695,-0.725 1.31759,-0.6977 0.45022,-0.04 1.02127,0.055 -0.48543,1.8944 0.78327,3.3065 0.54373,0.6052 1.2892,1.0292 l 2.89154,-2.5978 q 1.38012,-3.0628 -0.61356,-5.2819 -1.20829,-1.3449 -3.95533,-2.6441 -0.95345,-8.5007 -2.34298,-10.0473 z"
               style="font-family:'Love Letter Typewriter';-inkscape-font-specification:'Love Letter Typewriter, Normal'"
               id="path876" />
            <path
               d="m -341.12452,1281.4014 q 0.42935,0.8006 1.10032,5.6871 -0.69976,0.5793 -2.92321,2.6189 -1.92338,1.8378 -2.74859,2.3926 -0.60015,0.4035 -3.80268,2.1209 -3.25296,1.6424 -4.60331,2.5503 -1.33341,-1.1732 -3.89807,-3.0436 3.3127,-5.6041 2.824,-8.7612 -0.28187,-1.5534 -3.30811,-6.0546 -0.30262,-0.4501 -3.92902,-4.5477 -3.9536,-4.4224 -5.59218,-6.6975 -2.25567,0.2094 -6.7204,-0.2746 -0.551,0.1525 -2.05138,1.1613 -1.72545,1.16 -1.57286,1.711 0.40732,1.578 0.33484,2.2803 -0.59124,2.685 -1.18248,5.3701 -0.76332,3.5632 -0.53062,5.3675 0.25728,1.6788 1.36817,3.6552 0.75784,1.4512 2.04335,3.2012 1.89077,2.6503 1.63858,2.2752 1.81575,2.7007 4.65209,3.517 0.50182,0.098 8.20385,1.3469 -0.14877,0.4268 -0.53953,3.086 -0.242,2.2323 -1.14224,2.8376 0.075,-0.051 -3.50005,2.571 -3.55049,2.496 -6.32621,4.3622 -3.95145,2.5477 -6.65342,4.0375 -0.15131,-0.225 -0.82903,-0.4229 -0.65314,-0.3234 -1.20795,-1.1486 -0.55481,-0.8253 0.30811,-4.5644 0.8875,-3.8646 1.95726,-5.9999 -0.70485,-0.7243 -2.19212,-2.7744 0.66754,-2.4095 -0.42005,-4.8373 -0.20302,-0.626 -1.28424,-1.4241 -1.13166,-0.8731 -1.43428,-1.3232 -0.20175,-0.3001 -0.27805,-0.5756 l 0.7502,-0.5044 q -0.35306,-0.5251 -1.63731,-1.9492 -0.95703,-1.0994 -1.26093,-1.8755 -4.0676,-1.5135 -14.15458,-3.5551 -0.8354,-2.0526 1.18249,-5.37 1.96744,-3.3924 4.96822,-5.4099 1.50039,-1.0088 8.01904,-1.0343 2.98041,-7.2324 7.78165,-10.4604 3.60093,-2.421 11.59921,-2.3519 2.0408,2.5494 5.06068,5.4209 1.25584,0.5717 3.44286,2.0424 2.06411,2.098 5.61931,7.2239 3.70651,5.351 5.84691,7.7245 0.85616,0.9494 2.9618,0.8409 2.13022,-0.234 4.05996,-0.4421 z"
               style="font-family:'Love Letter Typewriter';-inkscape-font-specification:'Love Letter Typewriter, Normal'"
               id="path878" />
            <path
               d="m -326.42841,1270.2148 -2.02879,-4.3404 -1.14651,0.536 2.02878,4.3403 z m 19.80758,-44.0838 q 1.82578,2.8387 -0.0568,5.2154 -1.04768,1.3878 -4.7489,3.7166 -3.24814,2.0171 -3.84807,3.2954 1.72069,0.6925 2.53963,0.3097 -0.60968,3.1788 0.65352,5.8813 0.68902,1.4741 1.82579,2.8387 -1.36992,1.3388 -3.70563,4.0271 0.60086,0.2181 2.37051,0.5884 1.12516,0.2723 1.46967,1.0094 -2.92056,1.864 -2.15498,3.5019 0.34451,0.7371 1.37711,1.4518 -0.17446,0.4807 -1.00407,1.2676 -1.36458,1.1368 -1.69749,1.492 2.40786,-0.8261 6.87465,-1.517 2.31715,2.609 6.98509,0.4271 0.0276,0.486 0.219,0.8955 0.57418,1.2284 2.18537,1.4731 1.28896,0.1958 2.61619,0.4735 0.38813,0.6169 2.31181,2.8111 1.96197,2.2761 2.38304,3.1769 1.45459,3.112 0.83425,6.6949 -0.18514,0.8848 -1.80955,5.7353 -0.12017,-0.044 -1.47502,-0.8073 -0.83587,-0.5074 -1.24533,-0.316 -0.30531,0.8412 0.61339,2.8066 -11.49086,7.8658 -12.06412,8.1337 -0.65514,0.3063 -0.80826,-0.021 -0.0383,-0.082 -0.15312,-0.3276 0.005,-0.2021 -0.0329,-0.284 -0.19139,-0.4094 -0.92844,-0.065 -0.57325,0.2679 -1.65921,1.5738 -1.08596,1.3059 -1.98679,1.727 -1.47409,0.689 -4.64659,1.3736 -3.9425,0.7452 -6.48213,0.4355 -1.16878,-0.1522 -3.36482,-1.2212 -2.19605,-1.0691 -3.09781,-2.1444 -0.39346,-0.4148 -1.8694,-2.7184 -1.08782,-1.6869 -2.39904,-2.5708 -0.30623,-0.6551 -0.15405,-1.8239 0.19047,-1.0869 1.25509,-1.5845 0.98272,-0.4594 1.10289,-0.4157 0.51364,0.4584 0.51364,0.4584 l 0.48509,-1.524 q -1.09315,-1.4847 -3.96754,-4.432 0.0587,-2.2227 -0.79064,-6.815 -0.67301,-2.0803 -2.8157,-5.17 -2.49787,-3.4226 -2.68926,-3.832 -0.30623,-0.6552 -2.0021,-5.3507 -1.92555,-5.1869 -2.80063,-7.2726 1.4669,-3.4796 1.29058,-5.9917 2.53778,-2.683 1.77661,-6.0192 0.73704,-0.3446 3.04073,-1.8205 2.34731,-1.5961 3.33003,-2.0555 2.94817,-1.378 4.12763,-1.6299 0.56792,-0.066 2.01532,0.2554 1.40913,0.2394 2.30996,-0.1817 0.81893,-0.3828 3.12263,-1.8587 2.30369,-1.4759 3.12262,-1.8587 0.81894,-0.3828 1.01474,-1.6718 0.19581,-1.2889 1.01474,-1.6717 0.90083,-0.4211 2.7301,-0.7772 1.91116,-0.3944 2.56631,-0.7006 0.1371,0.9338 2.40971,2.1666 2.2726,1.2328 3.97103,1.2372 z m -11.40247,18.3019 q -0.42107,-0.9008 -1.80351,-2.1505 -1.74297,-1.3806 -1.85781,-1.6263 -7.59754,-1.7374 -8.66216,-1.2398 -2.04734,0.957 -3.82487,5.4799 -1.69564,4.4847 -0.99502,7.051 2.03667,-0.5528 3.97729,2.5315 2.13202,3.4938 3.17529,3.8045 l 8.68072,-4.0576 q 0.53498,-0.3498 1.17134,-4.5389 0.59808,-4.271 0.13873,-5.2538 z m -2.98343,14.9655 z m 1.662,2.9152 q -0.65515,0.3062 -3.01406,0.8101 -2.27701,0.4656 -2.93216,0.7718 -0.98272,0.4594 -0.71477,1.0326 1.18664,2.5387 4.89598,4.497 2.22435,-6.1288 1.76501,-7.1115 z m 25.5798,8.3998 q -1.91209,-1.102 -3.75922,-3.1324 -1.44833,-1.8177 -2.85839,-3.5535 -0.87415,-0.5892 -2.59391,0.2146 0.11669,3.2384 -0.33106,3.3479 -3.78056,-2.3241 -12.95264,1.9632 -0.98273,0.4593 -0.96579,1.3495 -0.081,1.5346 -0.081,1.5346 -0.51896,-0.2564 -1.20172,-0.4361 -0.63914,-0.3 -1.70376,0.1976 -0.90083,0.4211 -2.11137,3.3818 -1.67963,3.8784 -1.97426,4.3155 0.50296,0.8626 0.57511,2.7248 -0.24035,-0.087 -1.27295,-0.802 -0.75397,-0.5457 -1.08155,-0.3926 0.5359,1.1466 1.74389,2.877 1.28989,1.6921 1.6344,2.4292 0.34451,0.737 0.44867,1.3868 0.0819,-0.038 5.6089,0.4717 3.42979,0.2928 4.41251,-0.1666 0.57326,-0.2679 2.09629,-1.2792 0.94978,-0.7433 1.75805,-0.722 -0.1914,-0.4094 -0.42641,-0.6987 -0.1095,-0.4478 0.87323,-0.9071 0.81893,-0.3828 1.12516,0.2723 0.30623,0.6552 1.12517,0.2724 3.60332,-1.6843 4.40439,-4.4536 2.76397,1.0032 3.00965,0.8883 -0.36678,-1.4251 0.84469,-2.8894 1.24974,-1.3825 2.54311,-2.8851 0.38093,-2.1738 1.11078,-5.3089 z"
               style="font-family:'Love Letter Typewriter';-inkscape-font-specification:'Love Letter Typewriter, Normal'"
               id="path880" />
            <path
               d="m -205.73997,1233.9366 q 0.64569,3.2818 -2.73347,6.7106 -2.75684,2.8457 -5.24038,3.3344 -0.70958,0.1396 -3.73843,-0.7386 -3.02885,-0.8782 -4.27062,-0.6339 -0.88698,0.1745 -4.54824,3.106 -3.66127,2.9315 -4.54825,3.106 -8.42629,1.6579 -14.23246,-1.1614 -5.73493,-2.9254 -7.14847,-10.1099 -0.45373,-2.3062 2.06456,-8.2374 2.4107,-5.5415 1.33753,-8.1864 -1.80598,-0.7503 -3.70065,-1.4831 -1.13274,-0.6063 -1.55156,-2.735 -0.17452,-0.887 0.75746,-4.1107 1.05845,-3.9857 1.32887,-5.4208 1.5282,-1.1299 2.07928,-1.6068 1.42205,-1.2011 2.31335,-2.7585 7.25865,-2.4415 7.61344,-2.5113 6.91842,-1.3612 11.02333,1.24 4.1936,2.5838 8.5822,10.8413 -0.28498,0.4246 -0.92476,0.919 -0.63978,0.4944 -0.92476,0.919 0.15561,1.2592 3.07831,2.0661 0.0524,0.2661 0.45229,2.7671 0.38105,2.8733 0.79987,5.002 2.07669,10.555 5.53591,9.8744 1.59656,-0.3141 2.88765,-4.9904 1.16908,0.3228 2.29893,1.851 1.12985,1.5282 1.40907,2.9473 z m -25.2796,-23.1263 q -0.4246,-0.285 -2.46032,-1.2664 -1.29268,-0.4827 -1.3436,-1.2097 0.27922,1.4191 -1.76082,1.8205 -0.97568,0.192 -2.02116,0.029 -0.95678,-0.1803 -1.66636,-0.041 -1.06438,0.2094 -3.0375,1.8874 -2.38172,1.9427 -3.12764,2.3659 l 0.76785,3.9027 q 1.34359,1.2097 2.68718,2.4195 1.66204,1.4235 2.81511,1.1966 0.79828,-0.1571 3.32105,-1.8511 2.61146,-1.7115 3.48098,-1.9747 0.73281,-1.8947 1.53685,-3.8955 0.7866,-2.0895 0.80838,-3.3837 z m 7.18929,14.0636 q -2.08952,-0.7866 -5.04424,-2.6928 -0.74449,-0.038 -1.45839,1.4846 l -3.24403,-0.099 q -1.06438,0.2095 -1.40316,0.8289 -0.35623,0.5307 -0.42748,0.6369 -0.85784,2.1957 -1.05413,2.6028 -0.75025,1.806 -1.62122,2.5301 -1.79429,1.1822 -3.58858,2.3644 -1.70559,1.1648 -1.025,4.624 0.33158,1.6853 4.43937,3.3646 4.09033,1.5907 6.39648,1.1369 2.92702,-0.5759 4.40575,-2.8937 2.33368,-3.5916 3.66703,-4.7753 -0.0698,-0.3547 0.0785,-2.4108 0.16427,-1.5064 -0.27633,-2.341 -1.2898,-1.4046 -1.3247,-1.582 0.78515,-1.6286 1.48017,-2.7788 z"
               style="font-family:'Love Letter Typewriter';-inkscape-font-specification:'Love Letter Typewriter, Normal'"
               id="path882" />
            <path
               d="m -161.16258,1225.9143 q 0.41856,6.8575 -2.47303,9.9321 -2.5527,2.6917 -8.32744,3.0441 -0.63161,0.039 -2.18205,-0.1385 -1.55043,-0.177 -2.45274,-0.122 -0.81207,0.05 -1.5284,0.1839 0,0 -1.13444,0.7032 -1.04972,0.6075 -2.04226,0.6681 -0.9023,0.055 -3.85576,-0.8515 -2.95346,-0.9065 -3.85576,-0.8515 -1.26322,0.077 -5.77685,1.8017 -1.81901,-1.6097 -2.15497,-7.1138 -0.57277,-9.3839 3.03644,-9.6042 1.08277,-0.066 3.99005,1.5678 2.62558,1.4699 4.06165,2.7408 0.0957,0.085 3.03396,3.7091 2.25153,2.7607 3.33429,2.6946 2.70691,-0.1652 7.78055,-3.1013 -0.87816,-1.0332 -1.1963,-3.2779 -0.34569,-2.6959 -0.66595,-3.4915 -5.96199,-2.7153 -15.65095,-5.656 -5.72095,-1.7339 -7.2176,-3.9972 -1.79487,-2.6981 -2.3346,-11.5406 -0.18175,-2.9776 4.80717,-5.818 4.02392,-2.3286 5.91876,-2.4443 0.18046,-0.011 8.8701,-0.089 8.68414,-0.1678 13.01519,-0.4321 2.00967,6.217 2.14735,8.4727 0.0496,0.8121 -0.63794,4.3862 -0.59729,3.5685 -0.50366,5.1024 -0.69219,-0.954 -3.29575,-2.063 -3.07673,-1.4424 -4.60853,-2.7979 -0.79344,-1.129 -1.58688,-2.2579 -1.48012,-1.9927 -3.06361,-2.7111 -1.49325,-0.724 -4.03622,-0.8405 -3.54652,-0.2363 -4.3696,-0.3672 -1.05183,2.0566 -0.88661,4.7635 0.0661,1.0828 0.47658,1.8728 0.50072,0.7846 0.50622,0.8748 0.67567,0.6833 2.33286,1.1256 2.02913,0.6006 2.4968,0.8438 0.46768,0.2431 0.79895,1.2191 0.41599,0.8803 0.79344,1.129 7.60137,-0.1017 12.48611,2.77 5.54939,3.3745 5.95143,9.9613 z"
               style="font-family:'Love Letter Typewriter';-inkscape-font-specification:'Love Letter Typewriter, Normal'"
               id="path884" />
            <path
               d="m -62.379095,1248.5833 q -2.054118,1.1879 -3.47707,0.9287 -0.889345,-0.1621 -6.645958,-0.8432 -5.756612,-0.6812 -6.645957,-0.8432 -3.201641,-0.5833 -5.19783,-3.2441 l 0.58326,-3.2016 q 1.173398,-2.9104 7.754549,-1.7115 0.533956,-0.9134 0.809385,-2.4253 0.19442,-1.0672 0.413317,-2.7732 0.235099,-1.7949 0.316108,-2.2396 0.210621,-1.1561 0.130312,-2.7328 -0.06411,-1.6656 0.0169,-2.1103 0.226824,-1.2451 1.593594,-2.1906 -2.134078,-1.3995 -2.351927,-2.7256 -0.209923,-0.8652 0.291979,-2.6115 0.590837,-1.7301 0.340585,-2.8783 -0.07273,-0.1052 -3.814859,-4.2786 -1.608397,-1.7631 -3.65389,-2.1358 -1.334017,-0.243 -1.633224,-0.1137 -0.582211,0.1695 -1.674252,1.6246 -0.283005,0.04 -0.743529,-0.9625 -0.64632,-1.496 -1.15545,-2.232 -1.03516,0.6384 -2.022413,3.0314 -0.549809,-0.01 -3.315402,1.05 -0.380914,2.5953 -1.724605,6.9448 -0.412618,0.7518 -2.078944,2.8372 -1.391247,1.5843 -1.569466,2.5626 -0.210622,1.1561 0.50878,1.7466 0.501204,0.2751 1.002407,0.5502 -2.418481,2.6835 -2.339219,7.2923 1.285062,1.5205 6.006166,3.8507 l 1.860047,-1.1313 q 0.74353,0.9624 0.555638,6.5332 -5.094091,0.726 -6.694912,0.4343 -0.08893,-0.016 -4.325385,-0.9717 -4.14752,-0.9394 -7.26022,-1.5064 -4.6246,-0.8425 -7.51911,-1.0941 l 0.58327,-3.2017 q 1.63357,-0.8969 4.58566,-3.4832 0.77628,-0.2262 1.55256,-0.4523 1.25336,-0.323 2.1265,-0.072 0.46915,-0.5578 1.95761,-2.6756 1.0031,-1.4712 2.4102,-2.1338 l 4.082826,-22.4114 q -1.778336,-1.3348 -1.519116,-2.7577 0.19442,-1.0672 1.528789,-1.8349 -1.689059,-2.3292 -1.371199,-9.6222 -2.20681,-1.5046 -6.78175,-5.646 l 1.54603,-4.9558 q -0.11341,0.6225 0.59807,0.7521 0.35574,0.065 1.29369,-0.04 1.02688,-0.089 1.38262,-0.024 0.69527,0.2185 2.78937,0.3244 2.110299,0.017 2.91071,0.1627 0.978279,0.1782 2.667684,1.4967 1.455006,1.0921 2.910011,2.1841 -0.590836,1.7301 1.356748,4.6577 -3.218542,1.527 -3.736996,4.3729 -0.648066,3.5574 0.928277,4.4878 1.592545,0.8414 1.089944,4.6091 0.452598,0.5419 2.053419,0.8335 2.668034,0.486 3.460867,-0.8397 1.205452,-2.0775 2.103073,-2.4653 -0.372639,2.0455 1.58392,2.4019 0.80041,0.1458 2.369177,-0.3954 1.180625,-0.4281 2.377452,-0.9452 2.003766,4.1324 6.40981,5.6702 1.309191,1.8924 0.04756,2.7652 3.732802,7.7553 3.73968,11.2482 -0.745627,5.1017 -1.402319,10.2195 -0.420544,0.291 -0.671495,1.1641 -0.162017,0.8893 -0.582562,1.1803 0.185795,0.4932 0.104787,0.9379 -0.09721,0.5336 -0.792834,1.3258 -0.922097,1.0265 -1.164773,1.3498 2.01274,1.5612 9.118873,4.4178 l 0.74353,0.9625 z"
               style="font-family:'Love Letter Typewriter';-inkscape-font-specification:'Love Letter Typewriter, Normal'"
               id="path886" />
            <path
               d="m -9.9129283,1239.725 q -0.6104957,1.7975 -2.2190737,3.1606 -1.95258,1.5326 -3.750099,0.9221 0.855961,0.2907 -3.793684,-1.4794 -2.966793,-1.1031 -4.76593,-1.4277 -0.200263,0.028 -1.16604,-1.0643 -0.851108,-1.1483 -1.792666,-1.4681 -0.770365,-0.2616 -2.458069,-0.071 -1.602108,0.2197 -2.45807,-0.071 -0.855961,-0.2908 -4.047237,-2.1384 -3.191275,-1.8476 -4.047237,-2.1383 -1.11275,-0.3779 -2.755251,1.9283 -1.182215,1.7943 -1.501999,2.7359 -1.220991,3.595 3.837224,8.9408 4.291086,4.5124 7.28695,5.5299 0.770366,0.2616 3.454535,0.7914 2.684169,0.5297 3.740393,0.793 0.662168,-0.8253 3.562776,-3.1816 2.096319,-1.6747 2.479098,-3.6451 4.824072,1.2566 6.471382,3.1526 -2.462922,0.7865 -3.997226,4.1797 -1.120838,1.0513 -3.948745,0.6637 -1.230653,0.2503 -2.501699,2.5873 -4.265293,1.0335 -8.559658,2.1527 -0.88665,0.081 -4.738476,-1.2274 -0.513577,-0.1745 -1.684469,-0.3812 -0.970629,-0.2342 -1.455135,-0.4942 -0.741294,-0.3473 -1.167657,-0.7785 -2.416058,-2.4435 -6.589241,-7.5842 -0.113049,-0.2293 -0.899546,-2.6922 -0.731588,-2.0624 -1.613386,-2.8393 1.17426,-15.5446 2.511537,-19.482 0.290712,-0.856 1.615048,-2.5065 1.439003,-1.7071 1.728098,-2.2772 2.774618,-0.2987 4.581842,-1.4034 1.707114,-3.6209 6.319645,-5.3958 10.571954,0.9175 13.824607,2.0222 1.11275,0.3779 3.502971,2.3353 2.419293,1.8719 3.75329,3.566 1.448664,1.6377 2.146329,4.6433 0.361751,1.7458 0.650801,6.2356 -0.634714,1.0255 -0.639567,1.8831 1.6473106,1.8961 1.7264366,3.0686 0.025836,0.4861 -0.6428019,2.4548 z m -7.1592977,-12.9332 q -2.191576,-1.699 -6.813768,-3.2689 -0.256788,-0.087 -9.507641,-2.0834 -2.2982,1.988 -5.631641,5.0566 0.395674,0.8026 1.645693,2.1819 1.485823,0.1227 2.684169,0.5297 2.225499,0.7559 3.672546,2.6794 1.447047,1.9235 1.361451,1.8944 0.941557,0.3198 3.173527,-0.068 2.231969,-0.3876 3.002335,-0.1259 0.770365,0.2616 1.821737,1.3825 1.136969,1.1499 1.308161,1.208 1.009405,-1.5666 1.855706,-4.6206 1.660294,-5.4507 1.427725,-4.7659 z"
               style="font-family:'Love Letter Typewriter';-inkscape-font-specification:'Love Letter Typewriter, Normal'"
               id="path888" />
            <path
               d="m 73.481178,1249.4574 q -1.466632,2.3879 -4.971213,3.9485 -3.45727,1.4835 -4.997858,0.5373 -0.770295,-0.4731 -1.684914,-3.4748 -1.12265,-3.8722 -1.395584,-4.4642 5.251488,-8.5502 8.024547,-6.847 l 6.316413,3.8794 q -0.581731,5.2654 -1.291391,6.4208 z m -17.722371,50.9639 q -4.362835,2.0943 -4.688544,2.1065 -0.82307,0.131 -3.673159,-1.6195 -3.081177,-1.8925 -3.864795,-4.0711 l -2.297559,0.2862 -0.63622,-2.9368 q -2.178685,0.7836 -2.504395,0.7957 -0.32571,0.012 -1.789269,-0.8868 -0.07703,-0.047 -3.128487,-1.8154 -3.02174,-1.6437 -5.131253,-3.0454 -3.081177,-1.8925 -4.81767,-3.3834 0.502825,-0.6459 1.606171,-5.3787 4.098955,0.9262 6.488064,3.7727 0.994721,-0.2377 2.166558,-1.1093 1.296177,-0.9013 1.763819,-1.1445 4.536878,0.5587 5.322371,-1.9293 1.036567,0.2123 3.115165,0.1098 l 5.156866,-8.3962 q -0.493091,-1.7881 -1.725562,-2.5451 0.141932,-0.231 0.846127,-0.8594 0.751506,-0.7054 1.271924,-1.5527 0.473107,-0.7703 0.608377,-1.8542 0.259611,-1.1136 0.466446,-1.6231 -0.160721,-0.9474 -0.878239,-2.0246 -1.316162,-1.6571 -1.345881,-1.7814 1.643748,-3.0218 0.334248,-3.826 -1.771677,-1.0882 -3.121826,-0.9626 -0.947411,0.1607 -1.865102,0.4457 -0.817605,-0.396 -2.0482,-5.8197 0.425796,-0.6933 2.43283,-1.3701 3.220717,-1.0984 3.688359,-1.3416 0.552529,2.0367 2.498249,5.7778 1.717705,0.3124 4.35737,-1.5672 0.118874,0.4974 0.125536,1.3502 0.0067,0.8527 0.125536,1.3501 0.444585,0.4852 3.054531,-1.5187 l 1.925736,1.1827 q 0.770294,0.4732 0.97286,1.8706 0.279596,1.4448 1.04989,1.9179 1.386529,0.8516 3.375971,0.3761 -2.002248,6.1963 -6.2129,13.0519 -1.088146,1.7717 -3.371187,5.1434 -2.1587,3.342 -3.199535,5.0367 -2.460156,4.0055 -3.937718,7.4476 0.43485,2.9192 3.699805,5.0306 4.219026,2.8035 4.966263,4.005 -1.155441,-0.7096 -2.274502,-0.4422 -0.881311,1.2622 1.092931,3.7478 z"
               style="font-family:'Love Letter Typewriter';-inkscape-font-specification:'Love Letter Typewriter, Normal'"
               id="path890" />
            <path
               d="m 95.221953,1320.4806 q -4.288323,5.3676 -8.495214,5.7092 -3.698686,0.2847 -8.218745,-3.3265 -0.494381,-0.395 -1.525746,-1.5661 -1.031365,-1.1711 -1.737624,-1.7353 -0.635633,-0.5078 -1.257066,-0.8886 0,0 -1.313114,-0.2392 -1.186063,-0.2533 -1.962948,-0.874 -0.706259,-0.5643 -2.289185,-3.2174 -1.582926,-2.6531 -2.289185,-3.2173 -0.988763,-0.79 -5.49349,-2.5377 -0.269812,-2.4139 3.172131,-6.7221 5.868231,-7.3451 8.693268,-5.0881 0.847511,0.6771 1.908408,3.8388 0.961871,2.8512 1.17488,4.7569 0.0142,0.1271 -0.236884,4.7861 -0.181213,3.5578 0.666298,4.235 2.118778,1.6927 7.851415,2.9172 0.04147,-1.3553 1.310851,-3.2338 1.551507,-2.2316 1.847456,-3.0366 -2.601599,-6.0125 -7.816734,-14.6915 -3.081025,-5.1228 -2.673357,-7.8054 0.477918,-3.2051 6.007597,-10.1264 1.862035,-2.3307 7.46762,-1.092 4.546575,0.9712 6.029719,2.1561 0.141252,0.1129 6.639216,5.8828 6.55439,5.6994 9.94443,8.4078 -2.6785,5.9594 -4.08914,7.7251 -0.50782,0.6356 -3.41467,2.8258 -2.83622,2.2466 -3.79545,3.4472 0.1263,-1.1719 -1.06127,-3.7405 -1.315005,-3.1333 -1.542215,-5.1661 0.168521,-1.3696 0.337043,-2.7391 0.238393,-2.4708 -0.45442,-4.0657 -0.622187,-1.5384 -2.430437,-3.3302 -2.472285,-2.5537 -2.995068,-3.2028 -2.159493,0.8203 -3.852252,2.939 -0.677103,0.8476 -0.902427,1.7089 -0.154698,0.9177 -0.211124,0.9884 0.04298,0.96 0.975694,2.3994 1.102368,1.8063 1.286222,2.3003 0.183854,0.494 -0.224947,1.4402 -0.281749,0.932 -0.168521,1.3695 5.706876,5.0223 7.404539,10.4283 1.853492,6.2247 -2.265554,11.3804 z"
               style="font-family:'Love Letter Typewriter';-inkscape-font-specification:'Love Letter Typewriter, Normal'"
               id="path892" />
            <path
               d="m 153.18229,1392.8125 q -2.63008,2.0664 -7.21989,0.6141 -3.78761,-1.1628 -5.35135,-3.1531 -0.44679,-0.5687 -1.04074,-3.6658 -0.59395,-3.0972 -1.37582,-4.0923 -0.55848,-0.7109 -4.83348,-2.6404 -4.27501,-1.9294 -4.83349,-2.6403 -5.30555,-6.7529 -5.43229,-13.2061 1.8e-4,-6.438 5.75794,-10.9617 1.84816,-1.452 8.276,-1.9037 6.03181,-0.3705 7.9003,-2.5283 -0.15226,-1.9496 -0.36037,-3.9704 0.0254,-1.2845 1.73143,-2.6249 0.71083,-0.5585 4.006,-1.193 4.03137,-0.8681 5.43271,-1.2793 1.70086,0.8479 2.37613,1.1221 1.7161,0.721 3.50837,0.8074 5.47314,5.3567 5.69653,5.641 4.35614,5.5445 3.90412,10.3831 -0.39617,4.9097 -5.75798,12.5712 -0.50773,-0.061 -1.23885,-0.4062 -0.73111,-0.3453 -1.23884,-0.4063 -1.05101,0.7108 -0.44183,3.681 -0.21325,0.1676 -2.25943,1.6602 -2.38636,1.645 -4.09236,2.9854 -8.45893,6.6459 -6.28086,9.4181 1.00526,1.2795 5.75762,0.3048 0.24367,1.1881 -0.60428,2.889 -0.84796,1.7008 -1.98529,2.5944 z m 9.11465,-33.0274 q 0.0609,-0.5077 0.0102,-2.7671 -0.15736,-1.3709 0.46716,-1.7466 -1.13734,0.8936 -2.42184,-0.7413 -0.61433,-0.7819 -0.94432,-1.7872 -0.27415,-0.9343 -0.72093,-1.5029 -0.67017,-0.853 -3.06154,-1.8482 -2.81277,-1.239 -3.52865,-1.7112 l -3.12767,2.4573 q -0.46716,1.7466 -0.93432,3.4932 -0.51286,2.1273 0.21316,3.0514 0.50263,0.6398 3.158,2.1173 2.71122,1.5487 3.34078,2.2036 2.02076,-0.2081 4.16845,-0.4009 2.21877,-0.2488 3.38148,-0.8174 z m -9.26131,12.7945 q -0.24872,-2.2188 0.10679,-5.717 -0.30461,-0.6804 -1.98519,-0.6246 l -1.38601,-2.9347 q -0.67018,-0.853 -1.37592,-0.8733 -0.63465,-0.076 -0.76158,-0.091 -2.34571,0.2335 -2.79759,0.2436 -1.94967,0.1523 -2.9905,-0.2946 -1.8684,-1.0612 -3.73681,-2.1224 -1.81255,-0.9901 -4.58481,1.188 -1.35058,1.0611 -0.98007,5.4834 0.4416,4.3665 1.89364,6.2146 1.84299,2.3458 4.57963,2.6099 4.25981,0.4469 5.92006,1.0968 0.28433,-0.2234 2.18325,-1.0255 1.41658,-0.5382 1.95987,-1.3099 0.66517,-1.7872 0.80734,-1.8989 1.80751,-0.041 3.1479,0.056 z"
               style="font-family:'Love Letter Typewriter';-inkscape-font-specification:'Love Letter Typewriter, Normal'"
               id="path894" />
            <path
               d="m 171.95136,1437.5405 q -1.00233,-1.7177 -3.75524,-4.8211 -2.75291,-3.1035 -3.07183,-3.65 -9.56767,-16.3963 -13.78548,-25.2387 l 0.24709,-1.1908 4.13811,-2.4147 q 1.54869,0.1429 3.40362,3.1424 1.71824,2.7652 4.88709,2.2767 0.36466,1.8805 2.181,8.0424 0.37092,0.098 0.68323,-0.085 -0.15616,0.091 1.30766,-1.7051 3.67643,-0.1567 5.31606,-1.1134 1.24924,-0.729 1.32714,-2.0304 0.0779,-1.3014 0.23405,-1.3925 1.48347,-0.8657 1.92603,-0.2866 0.52064,0.5335 1.22333,0.1234 1.17117,-0.6834 4.33964,-3.6836 0.95659,0.3838 2.94784,1.1058 -0.48849,-3.1688 4.19616,-5.9025 1.32732,-0.7745 3.2923,-1.7118 2.52457,-1.0545 2.68072,-1.1456 1.68519,-0.8787 3.48079,-3.1824 0.76112,-1.3861 1.24263,-1.4578 0.55315,0.4099 2.36216,0.8196 0.94997,-0.345 1.73038,-3.3123 -0.59228,-1.015 -1.84152,-0.2861 0.42934,-0.8785 0.85867,-1.757 0.60497,-1.295 0.0582,-2.2319 -0.4556,-0.7808 -0.76791,-0.5985 -0.31231,0.1822 -0.76791,-0.5986 -1.50349,-2.5765 -2.83172,-8.0813 -0.22137,-0.9174 0.63069,-3.4032 1.09272,-3.1496 1.20975,-3.8458 4.22316,0.7802 5.54441,3.0444 0.0911,0.1562 3.4499,8.2439 3.48242,8.1203 5.66931,11.868 -1.87386,1.0934 -6.6105,4.276 -4.73664,3.1826 -7.23512,4.6406 -3.27925,1.9135 -5.61514,2.7532 -0.2798,0.059 -1.09952,1.165 -0.74165,1.0607 -1.52242,1.5163 -7.9639,4.6472 -10.17598,6.7753 -1.4899,1.3927 -2.58299,2.0305 -1.24923,0.729 -2.20582,0.3452 -0.87851,-0.4293 -1.42505,-0.1104 l -4.29426,2.5058 q -0.20815,0.5401 0.52725,1.2623 0.95015,0.9109 0.99571,0.9889 -0.7286,1.2625 -1.22279,3.6441 -0.68929,3.1235 0.0397,4.3727 0.31892,0.5466 1.77685,3.0451 1.50349,2.5765 2.32357,3.9819 -0.22119,0.3384 -0.84581,0.7029 -0.39038,0.2278 -1.57459,0.7095 -1.13864,0.5597 -1.76326,0.9242 -0.78078,0.4556 -1.2362,0.9307 z m 5.70038,1.6975 q -1.91299,0.4883 -3.79346,0.853 -1.83491,0.4427 -2.99321,0.072 4.6716,-2.9354 6.57816,-2.8966 -0.11041,1.4251 0.20851,1.9716 z"
               style="font-family:'Love Letter Typewriter';-inkscape-font-specification:'Love Letter Typewriter, Normal'"
               id="path896" />
            <path
               d="m 212.76784,1472.8909 q -3.74465,1.5892 -11.77384,3.0327 -2.99328,0.5829 -10.08762,-3.8697 -7.05903,-4.3694 -7.97723,-6.533 -0.31784,-0.7489 -1.32169,-2.1887 -0.96853,-1.3566 -1.32169,-2.1888 -0.52973,-1.2482 -0.66896,-5.51 -0.13923,-4.2618 0.35722,-7.0257 0.5342,-3.3692 2.54637,-5.107 6.9543,-6.2902 10.86538,-7.95 7.65574,-3.249 12.11928,-3.3756 6.89707,-0.1774 10.04704,1.9228 1.24335,0.8472 3.18042,3.5604 2.64581,3.689 3.02413,4.1177 0.37832,0.4286 1.85873,1.3716 1.17271,0.6807 1.5965,1.6793 1.30667,3.079 0.45747,8.2512 -0.0605,0.3203 0.27278,3.4196 0.31053,2.8142 -0.10798,3.6793 -1.60096,2.938 -5.06797,6.5698 -4.17047,4.5196 -7.99834,6.1441 z m -5.77062,-6.1928 q 0.99858,-0.4238 1.3566,-0.9685 0.35803,-0.5448 0.54963,-1.0189 2.09051,-0.3962 4.65473,-3.8412 2.37263,-2.971 2.75826,-4.6077 1.02334,-4.0678 -0.14207,-6.8138 -0.84757,-1.9972 -5.93217,-7.4991 -0.70103,0.1993 -2.53947,-0.1989 -2.36045,-0.4713 -2.96568,-0.509 -0.60523,-0.038 -4.34989,1.5514 -4.5768,1.9424 -6.06451,3.0647 -2.29713,1.7605 -5.53194,6.865 0.0934,0.4514 0.10878,2.8017 0.0759,2.0301 0.46438,2.9454 0.35315,0.8322 0.8979,1.1902 0.54476,0.358 0.89791,1.1902 0.42378,0.9985 0.23219,1.4726 -0.10838,0.4389 -0.3832,0.9483 -1.63425,-1.0741 -3.38175,-0.3325 -0.74893,0.3179 -1.39192,0.8854 l 1.51856,3.5782 q 2.44894,2.2995 5.19502,1.1341 1.6643,-0.7063 3.78485,-2.8828 8.34986,1.8575 10.26379,1.0452 z"
               style="font-family:'Love Letter Typewriter';-inkscape-font-specification:'Love Letter Typewriter, Normal'"
               id="path898" />
            <path
               d="m 211.03023,1535.4791 q -0.89693,0.1445 -5.73471,-0.8165 -0.31922,-0.8505 -1.52119,-3.618 -1.10923,-2.4179 -1.36426,-3.379 -0.18548,-0.699 -0.76336,-4.2867 -0.49052,-3.6109 -0.90784,-5.1837 1.54419,-0.8774 4.14934,-2.6909 4.21561,4.9606 7.35936,5.5293 1.56029,0.2407 6.80276,-1.1504 0.52425,-0.1391 5.58124,-2.2292 5.47068,-2.2934 8.15611,-3.0995 0.53843,-2.2004 2.4534,-6.2626 0.0356,-0.5706 -0.42805,-2.3181 -0.53325,-2.0096 -1.10387,-2.0452 -1.62447,-0.1301 -2.26464,-0.4279 -2.34493,-1.4354 -4.68986,-2.8707 -3.11884,-1.8847 -4.90024,-2.2538 -1.67085,-0.3048 -3.90158,0.1 -1.61911,0.2426 -3.69291,0.8864 -3.1223,0.922 -2.68543,0.8061 -3.14548,0.8347 -4.84297,3.2491 -0.25676,0.4423 -3.95122,7.3148 -0.35486,-0.28 -2.74079,-1.5174 -2.03107,-0.9575 -2.30929,-2.006 0.0232,0.087 -1.28761,-4.1476 -1.20024,-4.1708 -2.05807,-7.4036 -1.11823,-4.5667 -1.64438,-7.607 0.26212,-0.069 0.67044,-0.6455 0.51889,-0.5118 1.48001,-0.7668 0.96112,-0.2551 4.2137,1.7812 3.36315,2.1004 5.03226,3.8086 0.91475,-0.4297 3.33805,-1.1663 2.05962,1.4176 4.70941,1.1821 0.65799,0.012 1.76531,-0.749 1.19469,-0.7847 1.71894,-0.9238 0.3495,-0.093 0.63481,-0.075 l 0.23184,0.8738 q 0.61163,-0.1623 2.37694,-0.9113 1.35162,-0.5457 2.18436,-0.5797 2.75844,-3.3506 7.981,-12.2186 2.21291,-0.1195 4.68985,2.8708 2.56432,2.9671 3.49171,6.462 0.46369,1.7475 -1.64021,7.9174 5.86327,5.1781 7.34709,10.7701 1.11286,4.1939 -1.56339,11.7315 -3.07593,1.0968 -6.77593,3.0138 -0.95039,1.0004 -3.05448,2.5875 -2.65687,1.2662 -8.66253,2.9533 -6.26778,1.7567 -9.20997,3.005 -1.17687,0.4993 -1.76167,2.525 -0.47424,2.0899 -0.90748,3.9819 z"
               style="font-family:'Love Letter Typewriter';-inkscape-font-specification:'Love Letter Typewriter, Normal'"
               id="path900" />
            <path
               d="m 237.15372,1580.3875 q -1.88631,0.2137 -3.80487,-0.6607 -2.21855,-1.1134 -2.4322,-2.9997 0.10174,0.8982 -0.27817,-4.0624 -0.26625,-3.154 -0.7392,-4.92 -0.11017,-0.1695 0.46599,-1.5084 0.67616,-1.2593 0.56425,-2.2473 -0.0916,-0.8084 -0.98311,-2.2541 -0.88137,-1.3557 -0.98311,-2.254 -0.10173,-0.8982 0.20991,-4.5726 0.31165,-3.6743 0.20991,-4.5726 -0.13226,-1.1677 -2.91854,-1.6709 -2.12699,-0.3049 -3.11505,-0.193 -3.77261,0.4273 -6.45341,7.2812 -2.25377,5.8048 -1.89769,8.9487 0.0916,0.8084 0.75607,3.4624 0.6645,2.654 0.87641,3.7217 1.02876,0.2474 4.39642,1.8675 2.40837,1.1828 4.35398,0.6895 0.91885,4.8996 -0.0945,7.1978 -1.761,-1.893 -5.48448,-1.8351 -1.42874,-0.566 -2.28307,-3.2895 -0.75085,-1.0067 -3.40661,-1.1608 -2.75255,-3.4182 -5.59491,-6.8263 -0.45086,-0.7678 -0.90867,-4.8098 -0.061,-0.539 -0.37295,-1.6863 -0.20174,-0.9779 -0.17296,-1.527 -0.002,-0.8186 0.2067,-1.3881 1.1811,-3.227 4.05346,-9.1928 0.1593,-0.2 2.0523,-1.961 1.55405,-1.5407 1.88108,-2.6694 14.56312,-5.5615 18.69502,-6.0294 0.89824,-0.1018 2.95576,0.393 2.15751,0.5744 2.79645,0.593 1.45257,2.3828 3.22201,3.5471 4.00312,0 7.57425,3.418 3.67487,9.955 4.06147,13.3683 0.13225,1.1677 -0.62008,4.1642 -0.6625,2.9863 -1.62674,4.915 -0.86424,2.0084 -3.286,3.9203 -1.42527,1.0711 -5.36387,3.2458 -1.19823,-0.1372 -1.97613,0.2238 -1.01336,2.2982 -2.04038,2.8694 -0.42877,0.2305 -2.49472,0.4645 z m 8.64961,-11.9878 q 0.6032,-2.7066 0.0538,-7.5571 -0.0305,-0.2695 -2.16647,-9.4891 -2.77784,-1.2319 -6.97426,-2.9401 -0.55755,0.7 -1.27267,2.4186 0.52208,1.3965 0.66451,2.654 0.26452,2.3354 -0.85902,4.4642 -1.12354,2.1287 -1.13371,2.0389 0.11191,0.988 1.41361,2.8421 1.30171,1.854 1.39328,2.6624 0.0916,0.8085 -0.47443,2.2372 -0.55581,1.5186 -0.53546,1.6982 1.84734,0.2457 4.97083,-0.2901 5.63856,-0.8206 4.91997,-0.7392 z"
               style="font-family:'Love Letter Typewriter';-inkscape-font-specification:'Love Letter Typewriter, Normal'"
               id="path902" />
          </g>
        </g>
      </g>
    </g>
  </g>
</svg>
