<?xml version="1.0" encoding="UTF-8" standalone="no"?>
<!-- Created with Inkscape (http://www.inkscape.org/) -->

<svg
   width="64"
   height="64"
   viewBox="0 0 16.933333 16.933333"
   version="1.1"
   id="svg5"
   inkscape:version="1.1 (c4e8f9ed74, 2021-05-24)"
   sodipodi:docname="wall.svg"
   inkscape:export-filename="/home/kan/Documentos/Laugh/Assets/Img/Objects/wall.png"
   inkscape:export-xdpi="96"
   inkscape:export-ydpi="96"
   xmlns:inkscape="http://www.inkscape.org/namespaces/inkscape"
   xmlns:sodipodi="http://sodipodi.sourceforge.net/DTD/sodipodi-0.dtd"
   xmlns="http://www.w3.org/2000/svg"
   xmlns:svg="http://www.w3.org/2000/svg">
  <sodipodi:namedview
     id="namedview7"
     pagecolor="#505050"
     bordercolor="#eeeeee"
     borderopacity="1"
     inkscape:pageshadow="0"
     inkscape:pageopacity="0"
     inkscape:pagecheckerboard="0"
     inkscape:document-units="px"
     showgrid="false"
     inkscape:zoom="2.3041667"
     inkscape:cx="19.746835"
     inkscape:cy="58.155515"
     inkscape:window-width="1360"
     inkscape:window-height="733"
     inkscape:window-x="0"
     inkscape:window-y="35"
     inkscape:window-maximized="1"
     inkscape:current-layer="layer1" />
  <defs
     id="defs2" />
  <g
     inkscape:label="Capa 1"
     inkscape:groupmode="layer"
     id="layer1">
    <rect
       style="fill:#e6e6e6;stroke:#808080;stroke-width:0;stroke-linejoin:round;stroke-miterlimit:4;stroke-dasharray:none;paint-order:markers fill stroke"
       id="rect862"
       width="16.933332"
       height="16.933332"
       x="5e-07"
       y="5e-07" />
    <g
       id="g1136"
       transform="translate(11.54482,-29.327015)">
      <path
         d="m -3.9288794,34.766164 c 0,0.185677 0.164086,0.334974 0.363004,0.334974 0.198319,0 0.358872,-0.14984 0.358872,-0.334974 0,-0.183507 -0.160553,-0.332267 -0.358872,-0.332267 -0.198324,0 -0.363004,0.14876 -0.363004,0.332267 z m 0.928047,0 c 0,0.29046 -0.252624,0.524456 -0.565461,0.524456 -0.314012,0 -0.569587,-0.233996 -0.569587,-0.524456 0,-0.28775 0.255575,-0.521201 0.569587,-0.521201 0.312243,0 0.565461,0.233451 0.565461,0.521201"
         style="fill:#000000;fill-opacity:1;fill-rule:nonzero;stroke:none;stroke-width:0.199703"
         id="path54" />
      <path
         d="m -3.9288794,41.388111 c 0,0.184593 0.164086,0.334434 0.363004,0.334434 0.198319,0 0.358872,-0.149841 0.358872,-0.334434 0,-0.183507 -0.160553,-0.333894 -0.358872,-0.333894 -0.198324,0 -0.363004,0.150387 -0.363004,0.333894 z m 0.928047,0 c 0,0.289372 -0.252624,0.523916 -0.565461,0.523916 -0.314012,0 -0.569587,-0.233999 -0.569587,-0.523916 0,-0.288291 0.255575,-0.524457 0.569587,-0.524457 0.312243,0 0.565461,0.236166 0.565461,0.524457"
         style="fill:#000000;fill-opacity:1;fill-rule:nonzero;stroke:none;stroke-width:0.199703"
         id="path56" />
      <path
         d="m 4.4571576,39.198762 c 0,0.18459 0.161729,0.332807 0.363004,0.332807 0.198325,0 0.361823,-0.148217 0.361823,-0.332807 0,-0.185681 -0.163498,-0.332806 -0.361823,-0.332806 -0.200681,0 -0.363004,0.147125 -0.363004,0.332806 z m 0.931355,0 c 0,0.28829 -0.254393,0.523916 -0.568406,0.523916 -0.314012,0 -0.568412,-0.235626 -0.568412,-0.523916 0,-0.28829 0.2544,-0.523916 0.568412,-0.523916 0.314013,0 0.568406,0.235626 0.568406,0.523916"
         style="fill:#000000;fill-opacity:1;fill-rule:nonzero;stroke:none;stroke-width:0.199703"
         id="path60" />
      <path
         d="m -9.4818954,30.35649 c 0,0.183507 0.160547,0.332266 0.358874,0.332266 0.198324,0 0.361822,-0.148759 0.361822,-0.332266 0,-0.18568 -0.163498,-0.332807 -0.361822,-0.332807 -0.198327,0 -0.358874,0.147672 -0.358874,0.332807 z m 0.928109,0 c 0,0.28829 -0.255579,0.522829 -0.569594,0.522829 -0.312242,0 -0.565455,-0.235086 -0.565455,-0.522829 0,-0.290459 0.253213,-0.523917 0.565455,-0.523917 0.314015,0 0.569594,0.233458 0.569594,0.523917"
         style="fill:#000000;fill-opacity:1;fill-rule:nonzero;stroke:none;stroke-width:0.199703"
         id="path62" />
      <path
         d="m -7.6305764,36.943308 c 0,0.183509 0.159368,0.333896 0.357692,0.333896 0.199507,0 0.363005,-0.150387 0.363005,-0.333896 0,-0.184587 -0.163498,-0.332805 -0.363005,-0.332805 -0.198324,0 -0.357692,0.148218 -0.357692,0.332805 z m 0.927225,0 c 0,0.287745 -0.255581,0.524458 -0.569593,0.524458 -0.31165,0 -0.564279,-0.236713 -0.564279,-0.524458 0,-0.28937 0.253216,-0.523914 0.564279,-0.523914 0.314012,0 0.569593,0.233997 0.569593,0.523914"
         style="fill:#000000;fill-opacity:1;fill-rule:nonzero;stroke:none;stroke-width:0.199703"
         id="path64" />
      <path
         d="m -9.4818954,39.656102 c 0,0.184587 0.160547,0.332806 0.358874,0.332806 0.198324,0 0.361822,-0.148219 0.361822,-0.332806 0,-0.185681 -0.163498,-0.333897 -0.361822,-0.333897 -0.198327,0 -0.358874,0.148216 -0.358874,0.333897 z m 0.928109,0 c 0,0.287198 -0.255579,0.523911 -0.569594,0.523911 -0.312242,0 -0.565455,-0.236713 -0.565455,-0.523911 0,-0.28775 0.253213,-0.524461 0.565455,-0.524461 0.314015,0 0.569594,0.236711 0.569594,0.524461"
         style="fill:#000000;fill-opacity:1;fill-rule:nonzero;stroke:none;stroke-width:0.199703"
         id="path66" />
      <path
         d="m -5.7793154,45.736432 c 0,0.184594 0.159366,0.332807 0.357691,0.332807 0.202457,0 0.363004,-0.146039 0.363004,-0.332807 0,-0.183502 -0.164091,-0.332807 -0.363004,-0.332807 -0.198325,0 -0.357691,0.149845 -0.357691,0.332807 z m 0.927223,0 c 0,0.28829 -0.25558,0.523916 -0.569592,0.523916 -0.312244,0 -0.565461,-0.235626 -0.565461,-0.523916 0,-0.288285 0.25263,-0.523912 0.565461,-0.523912 0.314012,0 0.569592,0.235627 0.569592,0.523912"
         style="fill:#000000;fill-opacity:1;fill-rule:nonzero;stroke:none;stroke-width:0.199703"
         id="path68" />
      <path
         d="m -11.337995,43.85105 c 0,0.185676 0.165267,0.332806 0.363592,0.332806 0.197737,0 0.363004,-0.14713 0.363004,-0.332806 0,-0.183507 -0.165267,-0.332807 -0.363004,-0.332807 -0.198325,0 -0.363592,0.149847 -0.363592,0.332807 z m 0.932949,0 c 0,0.290459 -0.255581,0.523916 -0.569593,0.523916 -0.314602,0 -0.570181,-0.233457 -0.570181,-0.523916 0,-0.287744 0.255579,-0.523917 0.570181,-0.523917 0.314012,0 0.569593,0.235626 0.569593,0.523917"
         style="fill:#000000;fill-opacity:1;fill-rule:nonzero;stroke:none;stroke-width:0.199703"
         id="path72" />
      <path
         d="m 4.3538656,38.989145 v 0.304407 H 0.54804964 V 34.134174 H 2.3993096 V 29.33341 h 0.206589 v 5.101799 H 0.75546264 v 4.553587 H 4.3538656"
         style="fill:#000000;fill-opacity:1;fill-rule:nonzero;stroke:none;stroke-width:0.252404"
         id="path94" />
      <path
         d="m -3.4619954,35.196371 v 2.201793 h -1.855332 v 1.479121 h 1.851259 v 2.08214 h -0.207176 v -1.892824 h -1.850435 v -1.859216 h 1.854507 v -2.011014 h 0.207177"
         style="fill:#000000;fill-opacity:1;fill-rule:nonzero;stroke:none;stroke-width:0.199703"
         id="path100" />
      <path
         d="m -9.0206754,34.104051 v 3.972294 h -1.8504356 v 5.346778 h -0.207177 v -5.549972 h 1.8512596 v -3.56828 h -1.8512596 v -4.977856 h 0.207177 v 4.777036 h 1.8504356"
         style="fill:#000000;fill-opacity:1;fill-rule:nonzero;stroke:none;stroke-width:0.206099"
         id="path102" />
      <path
         d="m -7.1694164,33.590043 v 2.95672 h -0.205995 v -2.76594 h -1.852084 v -2.996351 h 0.206584 v 2.805571 h 1.851259"
         style="fill:#000000;fill-opacity:1;fill-rule:nonzero;stroke:none;stroke-width:0.199703"
         id="path104" />
      <path
         d="m -5.3173274,41.359715 v 3.835809 h -0.206589 v -3.64503 h -1.6455 v 1.370593 h -2.057848 v -2.837008 h 0.206589 v 2.648456 h 1.6455 v -1.37282 h 2.057848"
         style="fill:#000000;fill-opacity:1;fill-rule:nonzero;stroke:none;stroke-width:0.199703"
         id="path106" />
      <path
         d="m 0.23969864,29.332492 v 3.442034 h -0.206583 v -3.442034 h 0.206583"
         style="fill:#000000;fill-opacity:1;fill-rule:nonzero;stroke:none;stroke-width:0.226076"
         id="path118" />
      <path
         d="m 3.8414036,40.532964 c 0,0.186763 0.159372,0.330635 0.363006,0.330635 0.195966,0 0.35769,-0.147675 0.35769,-0.330635 0,-0.183504 -0.161724,-0.332806 -0.35769,-0.332806 -0.201865,0 -0.363006,0.149842 -0.363006,0.332806 z m 0.927284,0 c 0,0.289372 -0.253806,0.521197 -0.564278,0.521197 -0.314602,0 -0.569588,-0.231825 -0.569588,-0.521197 0,-0.28829 0.254392,-0.523914 0.569588,-0.523914 0.310472,0 0.564278,0.235624 0.564278,0.523914"
         style="fill:#000000;fill-opacity:1;fill-rule:nonzero;stroke:none;stroke-width:0.199703"
         id="path270" />
      <path
         d="m -0.79323936,40.532964 c 0,0.186763 0.159372,0.330635 0.363003,0.330635 0.200687,0 0.361824,-0.147675 0.361824,-0.330635 0,-0.183504 -0.161137,-0.332806 -0.361824,-0.332806 -0.20068,0 -0.363003,0.149842 -0.363003,0.332806 z m 0.9313,0 c 0,0.289372 -0.255579,0.521197 -0.568411,0.521197 -0.314012,0 -0.569592,-0.231825 -0.569592,-0.521197 0,-0.28829 0.25558,-0.523914 0.569592,-0.523914 0.312832,0 0.568411,0.235624 0.568411,0.523914"
         style="fill:#000000;fill-opacity:1;fill-rule:nonzero;stroke:none;stroke-width:0.199703"
         id="path272" />
      <path
         d="m 3.7372896,40.437951 v 0.190562 H 0.03559464 V 40.437951 H 3.7372896"
         style="fill:#000000;fill-opacity:1;fill-rule:nonzero;stroke:none;stroke-width:0.199703"
         id="path274" />
      <path
         d="m 1.8868536,41.632747 c 0.202456,0 0.35946,-0.148213 0.35946,-0.332807 0,-0.181875 -0.161137,-0.331179 -0.35946,-0.331179 -0.200687,0 -0.363005,0.149845 -0.363005,0.331179 0,0.183507 0.16173,0.332807 0.363005,0.332807 z m 0,-0.852864 c 0.313424,0 0.56605,0.231823 0.56605,0.520113 0,0.288285 -0.253219,0.521742 -0.56605,0.521742 -0.314012,0 -0.569593,-0.233457 -0.569593,-0.521742 0,-0.28775 0.255581,-0.520113 0.569593,-0.520113"
         style="fill:#000000;fill-opacity:1;fill-rule:nonzero;stroke:none;stroke-width:0.199703"
         id="path276" />
      <path
         d="m 1.8868536,45.895781 c 0.202456,0 0.35946,-0.14822 0.35946,-0.334981 0,-0.183507 -0.161137,-0.332807 -0.35946,-0.332807 -0.200687,0 -0.363005,0.149845 -0.363005,0.332807 0,0.184594 0.16173,0.334981 0.363005,0.334981 z m 0,-0.857376 c 0.313424,0 0.56605,0.233999 0.56605,0.522289 0,0.289372 -0.253219,0.523911 -0.56605,0.523911 -0.314012,0 -0.569593,-0.233992 -0.569593,-0.523911 0,-0.28829 0.255581,-0.522289 0.569593,-0.522289"
         style="fill:#000000;fill-opacity:1;fill-rule:nonzero;stroke:none;stroke-width:0.199703"
         id="path278" />
      <path
         d="m 1.7827326,41.728518 h 0.206589 v 3.403379 h -0.206589 v -3.403379"
         style="fill:#000000;fill-opacity:1;fill-rule:nonzero;stroke:none;stroke-width:0.199703"
         id="path280" />
      <path
         d="m 3.9422786,29.332492 v 3.442034 h -0.207177 v -3.442034 h 0.207177"
         style="fill:#000000;fill-opacity:1;fill-rule:nonzero;stroke:none;stroke-width:0.226076"
         id="path446" />
      <path
         d="m -0.22388236,33.298282 c 0,0.184587 0.159366,0.331178 0.361822,0.331178 0.199508,0 0.358872,-0.150386 0.358872,-0.331178 0,-0.185681 -0.159364,-0.334982 -0.358872,-0.334982 -0.198324,0 -0.361822,0.149846 -0.361822,0.334982 z m 0.927222,0 c 0,0.287743 -0.252623,0.522282 -0.565459,0.522282 -0.31342,0 -0.568407,-0.233993 -0.568407,-0.522282 0,-0.289379 0.255575,-0.523918 0.568407,-0.523918 0.312242,0 0.565459,0.233999 0.565459,0.523918"
         style="fill:#000000;fill-opacity:1;fill-rule:nonzero;stroke:none;stroke-width:0.199703"
         id="path448" />
      <path
         d="m 3.4778136,33.298282 c 0,0.184587 0.16114,0.331178 0.36359,0.331178 0.197736,0 0.358873,-0.150386 0.358873,-0.331178 0,-0.185681 -0.161137,-0.334982 -0.358873,-0.334982 -0.198323,0 -0.36359,0.149846 -0.36359,0.334982 z m 0.928936,0 c 0,0.287743 -0.25381,0.522282 -0.56546,0.522282 -0.314606,0 -0.569593,-0.233993 -0.569593,-0.522282 0,-0.289379 0.254399,-0.523918 0.569593,-0.523918 0.31165,0 0.56546,0.233999 0.56546,0.523918"
         style="fill:#000000;fill-opacity:1;fill-rule:nonzero;stroke:none;stroke-width:0.199703"
         id="path450" />
      <path
         d="m -5.4854864,30.312072 c 0.202456,0 0.35946,-0.148212 0.35946,-0.332806 0,-0.181875 -0.161137,-0.33118 -0.35946,-0.33118 -0.200687,0 -0.363005,0.149845 -0.363005,0.33118 0,0.183507 0.16173,0.332806 0.363005,0.332806 z m 0,-0.852865 c 0.313424,0 0.56605,0.231824 0.56605,0.520114 0,0.288285 -0.253218,0.521743 -0.56605,0.521743 -0.314012,0 -0.569593,-0.233458 -0.569593,-0.521743 0,-0.28775 0.255581,-0.520114 0.569593,-0.520114"
         style="fill:#000000;fill-opacity:1;fill-rule:nonzero;stroke:none;stroke-width:0.199703"
         id="path276-7" />
      <path
         d="m -5.4854864,34.575106 c 0.202456,0 0.35946,-0.14822 0.35946,-0.33498 0,-0.183509 -0.161137,-0.332809 -0.35946,-0.332809 -0.200687,0 -0.363005,0.149846 -0.363005,0.332809 0,0.184593 0.16173,0.33498 0.363005,0.33498 z m 0,-0.857375 c 0.313424,0 0.56605,0.233998 0.56605,0.522287 0,0.289373 -0.253218,0.523912 -0.56605,0.523912 -0.314012,0 -0.569593,-0.233992 -0.569593,-0.523912 0,-0.288289 0.255581,-0.522287 0.569593,-0.522287"
         style="fill:#000000;fill-opacity:1;fill-rule:nonzero;stroke:none;stroke-width:0.199703"
         id="path278-1" />
      <path
         d="m -5.5896074,30.407843 h 0.206589 v 3.40338 h -0.206589 v -3.40338"
         style="fill:#000000;fill-opacity:1;fill-rule:nonzero;stroke:none;stroke-width:0.199703"
         id="path280-6" />
      <path
         d="m -1.9145544,35.109899 c 0.202457,0 0.35946,-0.148212 0.35946,-0.332806 0,-0.181876 -0.161137,-0.33118 -0.35946,-0.33118 -0.200687,0 -0.363005,0.149845 -0.363005,0.33118 0,0.183507 0.16173,0.332806 0.363005,0.332806 z m 0,-0.852865 c 0.313424,0 0.56605,0.231824 0.56605,0.520114 0,0.288285 -0.253218,0.521745 -0.56605,0.521745 -0.314011,0 -0.569593,-0.23346 -0.569593,-0.521745 0,-0.28775 0.255582,-0.520114 0.569593,-0.520114"
         style="fill:#000000;fill-opacity:1;fill-rule:nonzero;stroke:none;stroke-width:0.199703"
         id="path276-4" />
      <path
         d="m -1.9145544,39.372933 c 0.202457,0 0.35946,-0.14822 0.35946,-0.334981 0,-0.183509 -0.161137,-0.332809 -0.35946,-0.332809 -0.200687,0 -0.363005,0.149847 -0.363005,0.332809 0,0.184594 0.16173,0.334981 0.363005,0.334981 z m 0,-0.857376 c 0.313424,0 0.56605,0.233999 0.56605,0.522287 0,0.289372 -0.253218,0.523911 -0.56605,0.523911 -0.314011,0 -0.569593,-0.233992 -0.569593,-0.523911 0,-0.288288 0.255582,-0.522287 0.569593,-0.522287"
         style="fill:#000000;fill-opacity:1;fill-rule:nonzero;stroke:none;stroke-width:0.199703"
         id="path278-9" />
      <path
         d="m -2.0186754,35.20567 h 0.206589 v 3.403379 h -0.206589 V 35.20567"
         style="fill:#000000;fill-opacity:1;fill-rule:nonzero;stroke:none;stroke-width:0.199703"
         id="path280-5" />
      <path
         d="m 3.3351506,43.059368 c -0.144668,0 -0.262099,0.106452 -0.262099,0.237171 0,0.132278 0.117431,0.241079 0.262099,0.241079 0.143818,0 0.261677,-0.108801 0.261677,-0.241079 0,-0.131113 -0.117859,-0.237171 -0.261677,-0.237171 z m 0,0.614838 c -0.226784,0 -0.410599,-0.168678 -0.410599,-0.377667 0,-0.205862 0.183387,-0.373761 0.410599,-0.373761 0.225938,0 0.411024,0.167899 0.411024,0.373761 0,0.208596 -0.185086,0.377667 -0.411024,0.377667"
         style="fill:#000000;fill-opacity:1;fill-rule:nonzero;stroke:none;stroke-width:0.143959"
         id="path384-0" />
      <path
         d="m 0.67597264,43.069284 c -0.145517,0 -0.262524,0.106449 -0.262524,0.237167 0,0.132279 0.11743,0.241083 0.262524,0.241083 0.143816,0 0.260401,-0.108804 0.260401,-0.241083 0,-0.13111 -0.116585,-0.237167 -0.260401,-0.237167 z m 0,0.614835 c -0.227637,0 -0.411024,-0.168678 -0.411024,-0.377668 0,-0.205862 0.183387,-0.37376 0.411024,-0.37376 0.225512,0 0.40847196,0.167898 0.40847196,0.37376 0,0.208598 -0.18295996,0.377668 -0.40847196,0.377668"
         style="fill:#000000;fill-opacity:1;fill-rule:nonzero;stroke:none;stroke-width:0.143959"
         id="path382-7-1" />
      <path
         d="m -4.5137294,43.069284 c -0.144668,0 -0.262099,0.106449 -0.262099,0.237167 0,0.132279 0.117431,0.241083 0.262099,0.241083 0.143818,0 0.261677,-0.108804 0.261677,-0.241083 0,-0.13111 -0.117859,-0.237167 -0.261677,-0.237167 z m 0,0.614835 c -0.226783,0 -0.410599,-0.168678 -0.410599,-0.377668 0,-0.205862 0.183387,-0.37376 0.410599,-0.37376 0.225938,0 0.411024,0.167898 0.411024,0.37376 0,0.208598 -0.185086,0.377668 -0.411024,0.377668"
         style="fill:#000000;fill-opacity:1;fill-rule:nonzero;stroke:none;stroke-width:0.143959"
         id="path384-0-4" />
      <path
         d="m -1.2372424,44.605874 h -1.457091 v -1.227568 h -1.483429 v -0.136982 h 1.631799 v 1.227452 h 1.159205 v -1.23015 h 1.72557304 v 0.13698 H -1.2372424 v 1.230268"
         style="fill:#000000;fill-opacity:1;fill-rule:nonzero;stroke:none;stroke-width:0.143959"
         id="path428-8-9" />
    </g>
  </g>
</svg>
