<?xml version="1.0" encoding="UTF-8" standalone="no"?>
<svg
   width="1920"
   height="1080"
   viewBox="0 0 508.00002 285.74999"
   version="1.1"
   id="svg339"
   inkscape:version="1.1 (c4e8f9ed74, 2021-05-24)"
   sodipodi:docname="oraculo.svg"
   xmlns:inkscape="http://www.inkscape.org/namespaces/inkscape"
   xmlns:sodipodi="http://sodipodi.sourceforge.net/DTD/sodipodi-0.dtd"
   xmlns="http://www.w3.org/2000/svg"
   xmlns:svg="http://www.w3.org/2000/svg"
   xmlns:rdf="http://www.w3.org/1999/02/22-rdf-syntax-ns#"
   xmlns:cc="http://creativecommons.org/ns#"
   xmlns:dc="http://purl.org/dc/elements/1.1/">
  <defs
     id="defs333" />
  <sodipodi:namedview
     id="base"
     pagecolor="#000000"
     bordercolor="#666666"
     borderopacity="1.0"
     inkscape:pageopacity="0"
     inkscape:pageshadow="2"
     inkscape:zoom="0.04"
     inkscape:cx="1125"
     inkscape:cy="-1750"
     inkscape:document-units="mm"
     inkscape:current-layer="layer1"
     inkscape:document-rotation="0"
     showgrid="false"
     units="px"
     width="1080px"
     inkscape:window-width="659"
     inkscape:window-height="707"
     inkscape:window-x="687"
     inkscape:window-y="47"
     inkscape:window-maximized="0"
     inkscape:pagecheckerboard="false" />
  <metadata
     id="metadata336">
    <rdf:RDF>
      <cc:Work
         rdf:about="">
        <dc:format>image/svg+xml</dc:format>
        <dc:type
           rdf:resource="http://purl.org/dc/dcmitype/StillImage" />
        <dc:title />
      </cc:Work>
    </rdf:RDF>
  </metadata>
  <g
     inkscape:label="Capa 1"
     inkscape:groupmode="layer"
     id="layer1">
    <path
       d="m 396.20715,104.69215 22.02335,33.03458 c 2.05436,3.08589 2.05436,7.09927 0,10.17649 l -22.02335,33.04325 c -8.23653,12.35221 0.61979,28.89984 15.46758,28.89984 v 0 c 6.21598,0 12.01936,-3.11188 15.46757,-8.27815 l 29.10875,-43.66183 c 6.0903,-9.13628 6.0903,-21.03775 0,-30.17406 L 427.1423,84.070467 c -3.44821,-5.17492 -9.25159,-8.27816 -15.46757,-8.27816 v 0 c -14.84779,0 -23.70411,16.54764 -15.46758,28.899843"
       style="fill:#ffffff;fill-opacity:1;fill-rule:nonzero;stroke:none;stroke-width:0;stroke-miterlimit:4;stroke-dasharray:none"
       id="path759" />
    <path
       d="m 111.70491,104.65662 -21.947209,33.08522 c -2.047218,3.09062 -2.037972,7.10399 0.02344,10.17646 l 22.099419,32.99244 c 8.26496,12.3332 -0.5532,28.90119 -15.40095,28.93539 v 0 c -6.215966,0.0143 -12.026495,-3.08419 -15.486628,-8.2425 L 51.783743,158.00897 c -6.111307,-9.12223 -6.138722,-21.02367 -0.0695,-30.17398 l 29.00809,-43.728743 c 3.436292,-5.18285 9.232528,-8.29945 15.448489,-8.31376 v 0 c 14.847748,-0.0342 23.742168,16.49299 15.534088,28.864133"
       style="fill:#ffffff;fill-opacity:1;fill-rule:nonzero;stroke:none;stroke-width:0;stroke-miterlimit:4;stroke-dasharray:none"
       id="path759-3" />
  </g>
</svg>
