<?xml version="1.0" encoding="UTF-8" standalone="no"?>
<!-- Created with Inkscape (http://www.inkscape.org/) -->

<svg
   version="1.1"
   id="svg2"
   xml:space="preserve"
   width="1333.3333"
   height="1066.6667"
   viewBox="0 0 1333.3333 1066.6667"
   sodipodi:docname="ex.svg"
   inkscape:version="1.1.1 (3bf5ae0d25, 2021-09-20, custom)"
   xmlns:inkscape="http://www.inkscape.org/namespaces/inkscape"
   xmlns:sodipodi="http://sodipodi.sourceforge.net/DTD/sodipodi-0.dtd"
   xmlns="http://www.w3.org/2000/svg"
   xmlns:svg="http://www.w3.org/2000/svg"><defs
     id="defs6" /><sodipodi:namedview
     id="namedview4"
     pagecolor="#505050"
     bordercolor="#eeeeee"
     borderopacity="1"
     inkscape:pageshadow="0"
     inkscape:pageopacity="0"
     inkscape:pagecheckerboard="0"
     showgrid="false"
     inkscape:zoom="0.28670968"
     inkscape:cx="221.4784"
     inkscape:cy="455.16426"
     inkscape:window-width="1920"
     inkscape:window-height="1080"
     inkscape:window-x="0"
     inkscape:window-y="0"
     inkscape:window-maximized="1"
     inkscape:current-layer="g10" /><g
     id="g8"
     inkscape:groupmode="layer"
     inkscape:label="ink_ext_XXXXXX"
     transform="matrix(1.3333333,0,0,-1.3333333,0,1066.6667)"><g
       id="g10"
       transform="scale(0.1)"
       style="fill:#ffffff"><path
         d="m 7175.7484,1205.31 c -156.3378,0 -312.6533,59.6228 -431.9433,178.9127 L 2392.2969,5751.8908 c -238.5355,238.5577 -238.5355,625.3288 0,863.8865 119.29,119.2678 275.6277,178.9128 431.9433,178.9128 156.3377,0 312.6755,-59.645 431.9432,-178.9128 L 7607.6695,2248.0871 c 238.5799,-238.5577 238.5799,-625.3289 0,-863.8644 C 7488.4017,1264.9328 7332.0639,1205.31 7175.7484,1205.31"
         style="fill:#ffffff;fill-opacity:1;fill-rule:nonzero;stroke:none;stroke-width:2.21976"
         id="path12" /><path
         d="m 2205.3098,1824.2515 c 0,156.3377 59.6228,312.6533 178.9127,431.9432 l 4367.6681,4351.5082 c 238.5577,238.5356 625.3288,238.5356 863.8865,0 119.2678,-119.2899 178.9128,-275.6277 178.9128,-431.9432 0,-156.3378 -59.645,-312.6755 -178.9128,-431.9433 L 3248.0869,1392.3304 c -238.5577,-238.5799 -625.3289,-238.5799 -863.8644,0 -119.2899,119.2678 -178.9127,275.6055 -178.9127,431.9211"
         style="fill:#ffffff;fill-opacity:1;fill-rule:nonzero;stroke:none;stroke-width:2.21976"
         id="path12-1" /></g></g></svg>
