<?xml version="1.0" encoding="UTF-8" standalone="no"?>
<!-- Created with Inkscape (http://www.inkscape.org/) -->

<svg
   width="1920"
   height="1080"
   viewBox="0 0 508 285.75"
   version="1.1"
   id="svg5"
   sodipodi:docname="shoot.svg"
   inkscape:version="1.1 (c4e8f9ed74, 2021-05-24)"
   xmlns:inkscape="http://www.inkscape.org/namespaces/inkscape"
   xmlns:sodipodi="http://sodipodi.sourceforge.net/DTD/sodipodi-0.dtd"
   xmlns="http://www.w3.org/2000/svg"
   xmlns:svg="http://www.w3.org/2000/svg">
  <sodipodi:namedview
     id="namedview7"
     pagecolor="#505050"
     bordercolor="#eeeeee"
     borderopacity="1"
     inkscape:pageshadow="0"
     inkscape:pageopacity="0"
     inkscape:pagecheckerboard="0"
     inkscape:document-units="px"
     showgrid="false"
     inkscape:zoom="0.25601852"
     inkscape:cx="970.63291"
     inkscape:cy="706.98011"
     inkscape:window-width="1360"
     inkscape:window-height="733"
     inkscape:window-x="0"
     inkscape:window-y="35"
     inkscape:window-maximized="1"
     inkscape:current-layer="layer1" />
  <defs
     id="defs2">
    <filter
       inkscape:collect="always"
       style="color-interpolation-filters:sRGB"
       id="filter1622"
       x="-0.17024299"
       y="-0.16705648"
       width="1.340486"
       height="1.334113">
      <feGaussianBlur
         inkscape:collect="always"
         stdDeviation="5.8908116"
         id="feGaussianBlur1624" />
    </filter>
    <filter
       inkscape:collect="always"
       style="color-interpolation-filters:sRGB"
       id="filter1626"
       x="-0.099468895"
       y="-0.097606786"
       width="1.1989378"
       height="1.1952136">
      <feGaussianBlur
         inkscape:collect="always"
         stdDeviation="2.618138"
         id="feGaussianBlur1628" />
    </filter>
    <filter
       inkscape:collect="always"
       style="color-interpolation-filters:sRGB"
       id="filter1630"
       x="-0.042720723"
       y="-0.041921292"
       width="1.0854414"
       height="1.0838426">
      <feGaussianBlur
         inkscape:collect="always"
         stdDeviation="0.654537"
         id="feGaussianBlur1632" />
    </filter>
  </defs>
  <g
     inkscape:label="Capa 1"
     inkscape:groupmode="layer"
     id="layer1">
    <g
       id="g1712"
       inkscape:export-filename="/home/kan/MEGA/Assets_game/Shoot/g1712.png"
       inkscape:export-xdpi="96"
       inkscape:export-ydpi="96"
       transform="translate(126.28932)">
      <path
         id="path846"
         style="fill:none;stroke:#ff0066;stroke-width:15.875;stroke-linejoin:round;stroke-miterlimit:4;stroke-dasharray:none;paint-order:markers fill stroke;filter:url(#filter1622)"
         d="M 192.54579,142.875 A 64.835114,66.071805 0 0 1 127.71068,208.94681 64.835114,66.071805 0 0 1 62.875558,142.875 64.835114,66.071805 0 0 1 127.71068,76.803191 64.835114,66.071805 0 0 1 192.54579,142.875 Z" />
      <path
         style="fill:none;fill-opacity:1;stroke:#ff5599;stroke-width:13.2292;stroke-linejoin:round;stroke-miterlimit:4;stroke-dasharray:none;stroke-opacity:1;paint-order:markers fill stroke;filter:url(#filter1626)"
         d="m 192.54579,142.875 c 0,17.523 -6.83,34.328 -18.989,46.719 l -0.001,0.001 c -12.158,12.39 -28.648,19.351 -45.843,19.352 h -0.003 c -17.194,0 -33.683,-6.961 -45.842,-19.35 l -0.003,-0.003 c -12.158,-12.39 -18.988,-29.193 -18.989,-46.715 v -0.006 c 10e-4,-17.521 6.83,-34.323 18.985,-46.7133 l 0.007,-0.0068 c 12.157,-12.3877 28.644,-19.3477 45.836,-19.3497 h 0.01 c 17.431,9e-4 33.827,7.107 45.844,19.3531 12.016,12.2457 18.988,28.9557 18.988,46.7187 z"
         id="path1591" />
      <path
         style="fill:none;fill-opacity:1;stroke:#ffaacc;stroke-width:7.9375;stroke-linejoin:round;stroke-miterlimit:4;stroke-dasharray:none;stroke-opacity:1;paint-order:markers fill stroke;filter:url(#filter1630)"
         d="m 192.54579,142.875 c 0,17.523 -6.831,34.329 -18.99,46.719 l -0.001,0.002 c -12.159,12.39 -28.649,19.351 -45.844,19.351 h -0.003 c -17.194,-0.001 -33.683,-6.961 -45.842,-19.351 l -0.003,-0.003 c -12.157,-12.391 -18.987,-29.194 -18.988,-46.716 v -0.006 c 0.001,-17.521 6.831,-34.324 18.988,-46.7136 0.002,-0.0022 0.004,-0.0045 0.007,-0.0068 12.157,-12.3871 28.645,-19.3464 45.837,-19.3474 0.003,0 0.007,0 0.01,0 17.666,0.0018 33.967,7.253 45.841,19.3542 11.874,12.1016 18.988,28.7146 18.988,46.7176 z"
         id="path1593" />
      <path
         id="path846-6"
         style="fill:none;stroke:#ffffff;stroke-width:2.64583;stroke-linejoin:round;stroke-miterlimit:4;stroke-dasharray:none;paint-order:markers fill stroke"
         d="M 192.54579,142.875 A 64.835114,66.071805 0 0 1 127.71068,208.94681 64.835114,66.071805 0 0 1 62.875558,142.875 64.835114,66.071805 0 0 1 127.71068,76.803192 64.835114,66.071805 0 0 1 192.54579,142.875 Z" />
    </g>
  </g>
</svg>
