<?xml version="1.0" encoding="UTF-8" standalone="no"?>
<!-- Created with Inkscape (http://www.inkscape.org/) -->

<svg
   width="1920"
   height="1080"
   viewBox="0 0 1920 1080"
   version="1.1"
   id="svg5"
   inkscape:version="1.1.1 (3bf5ae0d25, 2021-09-20)"
   sodipodi:docname="wallapaperOriginal (copia 1).svg"
   xmlns:inkscape="http://www.inkscape.org/namespaces/inkscape"
   xmlns:sodipodi="http://sodipodi.sourceforge.net/DTD/sodipodi-0.dtd"
   xmlns="http://www.w3.org/2000/svg"
   xmlns:svg="http://www.w3.org/2000/svg">
  <sodipodi:namedview
     id="namedview7"
     pagecolor="#000000"
     bordercolor="#666666"
     borderopacity="1.0"
     inkscape:pageshadow="2"
     inkscape:pageopacity="0"
     inkscape:pagecheckerboard="true"
     inkscape:document-units="px"
     showgrid="false"
     inkscape:zoom="0.95197522"
     inkscape:cx="1000.5513"
     inkscape:cy="538.35435"
     inkscape:window-width="1920"
     inkscape:window-height="1080"
     inkscape:window-x="0"
     inkscape:window-y="0"
     inkscape:window-maximized="1"
     inkscape:current-layer="layer1" />
  <defs
     id="defs2" />
  <g
     inkscape:label="Capa 1"
     inkscape:groupmode="layer"
     id="layer1">
    <path
       id="path1249-1"
       style="fill:none;stroke:#ffffff;stroke-width:10"
       d="m 565.7132,540 c 0,-217.75857 176.52821,-394.28677 394.2868,-394.28677 104.5714,0 204.8598,41.54081 278.8029,115.48392 73.9431,73.94311 115.4839,174.2315 115.4839,278.80285"
       sodipodi:nodetypes="cssc" />
    <path
       id="path1249"
       style="fill:none;stroke:#ffffff;stroke-width:8.75"
       d="m 614.95877,540 c 0,-190.58782 154.48022,-345.08978 345.04123,-345.08978 190.561,2e-5 345.0412,154.50197 345.0412,345.08978"
       sodipodi:nodetypes="csc" />
    <path
       id="path1249-7-5"
       style="fill:none;stroke:#ffffff;stroke-width:7.5"
       d="M 662.01682,540 C 662.01682,375.42177 795.42843,242.00476 960,242.00476 1124.5716,242.00475 1257.9832,375.42177 1257.9832,540"
       sodipodi:nodetypes="csc" />
    <path
       id="path1249-7"
       style="fill:none;stroke:#ffffff;stroke-width:6.25"
       d="m 711.68069,540 c 0,-137.14852 111.17634,-248.32936 248.31931,-248.32936 137.143,1e-5 248.3193,111.18085 248.3193,248.32936"
       sodipodi:nodetypes="csc" />
    <path
       id="path1249-7-3"
       style="fill:none;stroke:#ffffff;stroke-width:5"
       d="m 761.34454,540 c 0,-109.71881 88.94108,-198.66348 198.65546,-198.66348 109.7144,-2e-5 198.6555,88.94465 198.6555,198.66348"
       sodipodi:nodetypes="csc" />
    <path
       id="path1249-7-3-5"
       style="fill:none;stroke:#ffffff;stroke-width:3.75"
       d="m 811.00841,540 c 0,-82.28911 66.70581,-148.99762 148.99159,-148.99762 82.2858,-1e-5 148.9916,66.7085 148.9916,148.99762"
       sodipodi:nodetypes="csc" />
    <path
       id="path1249-7-3-5-6"
       style="fill:none;stroke:#ffffff;stroke-width:2.5"
       d="m 860.67125,540 c 0,-54.86239 44.471,-99.33715 99.32875,-99.33715 54.8578,-3e-5 99.3288,44.47474 99.3288,99.33715"
       sodipodi:nodetypes="csc" />
    <path
       id="path1249-7-3-5-6-2"
       style="fill:none;stroke:#ffffff;stroke-width:1.25"
       d="m 911.21338,540 c 0,-26.94214 21.84251,-48.78307 48.78662,-48.78307 26.9441,1e-5 48.7866,21.84093 48.7866,48.78307"
       sodipodi:nodetypes="csc" />
  </g>
</svg>
