<?xml version="1.0" encoding="UTF-8" standalone="no"?>
<!-- Created with Inkscape (http://www.inkscape.org/) -->

<svg
   width="1920px"
   height="1080px"
   viewBox="0 0 1920 1080"
   version="1.1"
   id="SVGRoot"
   sodipodi:docname="LineOutside.svg"
   inkscape:version="1.1 (c4e8f9ed74, 2021-05-24)"
   inkscape:export-filename="/home/kan/MEGA/Assets_game/Laugh/LineOutsideSegements0.png"
   inkscape:export-xdpi="96"
   inkscape:export-ydpi="96"
   xmlns:inkscape="http://www.inkscape.org/namespaces/inkscape"
   xmlns:sodipodi="http://sodipodi.sourceforge.net/DTD/sodipodi-0.dtd"
   xmlns="http://www.w3.org/2000/svg"
   xmlns:svg="http://www.w3.org/2000/svg">
  <sodipodi:namedview
     id="namedview884"
     pagecolor="#000000"
     bordercolor="#ffffff"
     borderopacity="1"
     inkscape:pageshadow="0"
     inkscape:pageopacity="0"
     inkscape:pagecheckerboard="1"
     inkscape:document-units="px"
     showgrid="false"
     inkscape:zoom="0.24632085"
     inkscape:cx="623.17096"
     inkscape:cy="602.87223"
     inkscape:window-width="1366"
     inkscape:window-height="744"
     inkscape:window-x="0"
     inkscape:window-y="0"
     inkscape:window-maximized="1"
     inkscape:current-layer="layer1" />
  <defs
     id="defs879" />
  <g
     inkscape:label="Capa 1"
     inkscape:groupmode="layer"
     id="layer1">
    <g
       id="g1360"
       transform="matrix(1.4206617,0,0,1.4206618,-402.87619,-227.48626)"
       style="stroke:#000000;stroke-opacity:1;stroke-width:0.70389732;stroke-miterlimit:4;stroke-dasharray:none">
      <path
         inkscape:connector-curvature="0"
         style="font-size:12px;fill:#ffffff;fill-opacity:0.9961;fill-rule:evenodd;stroke:#000000;stroke-width:0.70389732;stroke-opacity:1;stroke-miterlimit:4;stroke-dasharray:none"
         d="m 1324.6662,539.93679 c 0,201.82951 -163.4998,365.35929 -365.35929,365.35929 -201.73352,0 -365.23333,-163.52978 -365.23333,-365.35929 0,-201.70353 163.49981,-365.23329 365.23333,-365.23329 201.85949,0 365.35929,163.52976 365.35929,365.23329 z m -24.1478,-0.50395 c 0,187.97104 -152.8093,340.54007 -341.21149,340.54007 -188.52775,0 -341.21144,-152.56903 -341.21144,-340.54007 0,-188.09706 152.68368,-340.54006 341.21144,-340.54006 188.40219,0 341.21149,152.443 341.21149,340.54006 z"
         id="path663" />
    </g>
  </g>
</svg>
